<?xml version="1.0" encoding="utf-8"?>
<!-- Generator: Adobe Illustrator 23.0.2, SVG Export Plug-In . SVG Version: 6.00 Build 0)  -->
<svg version="1.1" id="Layer_1" xmlns="http://www.w3.org/2000/svg" xmlns:xlink="http://www.w3.org/1999/xlink" x="0px" y="0px"
	 viewBox="0 0 694 560" style="enable-background:new 0 0 694 560;" xml:space="preserve">
<style type="text/css">
	.st0{fill:#EBEBEB;}
	.st1{fill:#FF645F;}
	.st2{fill:#8CB3DE;}
	.st3{fill:#16D8D8;}
	.st4{fill:#2B79E6;}
	.st5{fill:#EEF9FF;}
	.st6{fill:#E9B899;}
	.st7{fill:#DBAA90;}
	.st8{fill:#392F29;}
	.st9{fill:#4D517A;}
	.st10{fill:#E5A638;}
	.st11{fill:#FFBE3D;}
	.st12{fill:#29266B;}
	.st13{fill:#404059;}
	.st14{fill:#FFFFFF;}
	.st15{fill:#39374A;}
	.st16{fill:#434996;}
	.st17{fill:none;stroke:#39374A;stroke-width:1.1841;stroke-linecap:round;stroke-miterlimit:10;}
	.st18{fill:#5565B5;}
	.st19{fill:#2F2E41;}
	.st20{fill:#575A89;}
	.st21{opacity:8.000000e-02;}
	.st22{fill:#D1D3D4;}
	.st23{fill:#493C34;}
</style>
<g>
	<g>
		<path class="st0" d="M113.1,40.3C62.9,53.5,33,104.9,46.3,155c13.2,50.1,64.6,80.1,114.8,66.8c50.1-13.2,80.1-64.6,66.8-114.8
			C214.6,56.9,163.2,27,113.1,40.3z M149.7,178.8c-26.4,7-53.4-8.8-60.4-35.1c-6.9-26.4,8.8-53.4,35.2-60.4
			c26.4-7,53.4,8.8,60.3,35.1C191.7,144.8,176,171.8,149.7,178.8z"/>
	</g>
	<g>
		<path class="st0" d="M139.7,55.8L98.8,66.6c0,0-15.6-30.8-10.5-39.6c5.3-9.2,32.4-17.1,40.9-10.8
			C137.5,22.2,139.7,55.8,139.7,55.8z"/>
	</g>
	<g>
		<path class="st0" d="M173,197.1L132,207.9c0,0,1.6,34.5,10.5,39.7c9.1,5.3,36.6-1.2,40.9-10.8C187.6,227.4,173,197.1,173,197.1z"
			/>
	</g>
	<g>
		<path class="st0" d="M82.6,76.4l-16.5,39c0,0-33.9-6.5-37.8-16c-4-9.8,6.3-36,16.5-39C54.7,57.7,82.6,76.4,82.6,76.4z"/>
	</g>
	<g>
		<path class="st0" d="M64.8,133.9l4,42.1c0,0-32.9,10.4-40.8,3.9c-8.2-6.7-11.6-34.7-4-42.1C31.3,130.6,64.8,133.9,64.8,133.9z"/>
	</g>
	<g>
		<path class="st0" d="M212.7,135.6l-9.1-41.3c0,0,31.4-14.4,40-8.9c8.9,5.7,15.7,33.1,9.1,41.3
			C246.3,134.8,212.7,135.6,212.7,135.6z"/>
	</g>
	<g>
		<path class="st0" d="M156.3,55.6l33.6,25.8c0,0,26.3-22.4,25-32.5c-1.4-10.5-23.3-28.2-33.6-25.8
			C171.3,25.5,156.3,55.6,156.3,55.6z"/>
	</g>
	<g>
		<path class="st0" d="M111.5,210.3l-33.6-25.8c0,0-26.3,22.4-25,32.5c1.4,10.5,23.3,28.2,33.6,25.8
			C96.5,240.4,111.5,210.3,111.5,210.3z"/>
	</g>
	<g>
		<path class="st0" d="M193.4,190l16.5-39c0,0,33.9,6.5,37.8,16c4,9.8-6.3,36.1-16.5,39C221.3,208.8,193.4,190,193.4,190z"/>
	</g>
</g>
<g>
	<path class="st1" d="M229.3,64.7l30.8,77.7c-57.7,18.7-100,71.6-102.8,134.8L73.7,281C74.9,180.8,139.6,96,229.3,64.7z"/>
	<path class="st1" d="M218.6,404.6l-61.5,57.9c-51-42.6-83.5-106.7-83.5-178.4c0-1,0-2.1,0-3.1l83.6-3.7c-0.1,2.2-0.2,4.5-0.2,6.8
		C157.1,333.6,181.3,377.5,218.6,404.6z"/>
	<path class="st2" d="M268.1,428l-15.4,82.2c-35.7-8.4-68.3-25-95.5-47.8l61.5-57.9C233.2,415.2,250,423.3,268.1,428z"/>
	<path class="st3" d="M446.5,338.7l60.7,61.5c-40.2,69.4-115.2,116.1-201.2,116.1c-18.3,0-36.2-2.1-53.3-6.1l15.4-82.2
		c12.1,3.2,24.8,4.9,37.8,4.9C364.6,432.9,422.2,388.1,446.5,338.7z"/>
	<path class="st2" d="M510.9,174.8c17.4,32.6,27.3,69.8,27.3,109.3c0,42.3-11.3,82-31.1,116.1l-62.8-61.5
		c9.7-19.7,10.4-31.2,10.4-54.7c0-30.5-9.2-58.8-24.9-82.4L510.9,174.8z"/>
	<path class="st4" d="M510.9,174.8l-81.1,26.8c-26.7-40-72.2-66.4-123.9-66.4c-16,0-31.4,2.5-45.8,7.2l-30.8-77.7
		c24-8.4,49.8-12.9,76.6-12.9C394.7,51.7,471.9,101.5,510.9,174.8z"/>
</g>
<g>
	<g>
		<g>
			<path class="st0" d="M613.4,208c-24.3,6.4-38.7,31.3-32.3,55.5c6.4,24.3,31.3,38.7,55.5,32.3c24.3-6.4,38.7-31.3,32.3-55.5
				C662.6,216,637.7,201.6,613.4,208z M631.1,275c-12.8,3.4-25.8-4.2-29.2-17c-3.4-12.8,4.2-25.8,17-29.2c12.8-3.4,25.8,4.2,29.2,17
				C651.5,258.6,643.9,271.6,631.1,275z"/>
		</g>
		<g>
			<path class="st0" d="M626.3,215.5l-19.8,5.2c0,0-7.6-14.9-5.1-19.2c2.6-4.4,15.7-8.3,19.8-5.2
				C625.3,199.2,626.3,215.5,626.3,215.5z"/>
		</g>
		<g>
			<path class="st0" d="M642.4,283.9l-19.8,5.2c0,0,0.8,16.7,5.1,19.2c4.4,2.6,17.7-0.6,19.8-5.2
				C649.5,298.5,642.4,283.9,642.4,283.9z"/>
		</g>
		<g>
			<path class="st0" d="M598.7,225.5l-8,18.9c0,0-16.4-3.1-18.3-7.7c-1.9-4.7,3.1-17.4,8-18.9C585.2,216.4,598.7,225.5,598.7,225.5z
				"/>
		</g>
		<g>
			<path class="st0" d="M590.1,253.3l1.9,20.4c0,0-15.9,5-19.8,1.9c-3.9-3.3-5.6-16.8-1.9-20.4C573.9,251.7,590.1,253.3,590.1,253.3
				z"/>
		</g>
		<g>
			<path class="st0" d="M661.6,254.1l-4.4-20c0,0,15.2-6.9,19.4-4.3c4.3,2.8,7.6,16,4.4,20C677.9,253.7,661.6,254.1,661.6,254.1z"/>
		</g>
		<g>
			<path class="st0" d="M634.3,215.4l16.3,12.5c0,0,12.7-10.8,12.1-15.7c-0.7-5.1-11.3-13.7-16.2-12.5
				C641.6,200.8,634.3,215.4,634.3,215.4z"/>
		</g>
		<g>
			<path class="st0" d="M612.7,290.2l-16.2-12.5c0,0-12.7,10.8-12.1,15.7c0.7,5.1,11.3,13.7,16.2,12.5
				C605.4,304.8,612.7,290.2,612.7,290.2z"/>
		</g>
		<g>
			<path class="st0" d="M652.3,280.4l8-18.9c0,0,16.4,3.1,18.3,7.7c1.9,4.7-3.1,17.5-8,18.9C665.8,289.5,652.3,280.4,652.3,280.4z"
				/>
		</g>
	</g>
</g>
<g>
	<g>
		<g>
			<path class="st0" d="M599.1,332c-12.9,3.4-20.6,16.6-17.2,29.5c3.4,12.9,16.6,20.6,29.5,17.2c12.9-3.4,20.6-16.6,17.2-29.5
				C625.2,336.2,612,328.6,599.1,332z M608.5,367.6c-6.8,1.8-13.7-2.3-15.5-9c-1.8-6.8,2.3-13.7,9-15.5c6.8-1.8,13.7,2.3,15.5,9
				C619.3,358.8,615.3,365.8,608.5,367.6z"/>
		</g>
		<g>
			<path class="st0" d="M605.9,335.9l-10.5,2.8c0,0-4-7.9-2.7-10.2c1.4-2.4,8.3-4.4,10.5-2.8C605.4,327.3,605.9,335.9,605.9,335.9z"
				/>
		</g>
		<g>
			<path class="st0" d="M614.5,372.3l-10.5,2.8c0,0,0.4,8.9,2.7,10.2c2.4,1.4,9.4-0.3,10.5-2.8C618.3,380.1,614.5,372.3,614.5,372.3
				z"/>
		</g>
		<g>
			<path class="st0" d="M591.3,341.3l-4.2,10c0,0-8.7-1.7-9.7-4.1c-1-2.5,1.6-9.3,4.2-10C584.1,336.4,591.3,341.3,591.3,341.3z"/>
		</g>
		<g>
			<path class="st0" d="M586.7,356l1,10.8c0,0-8.5,2.7-10.5,1c-2.1-1.7-3-8.9-1-10.8C578.1,355.2,586.7,356,586.7,356z"/>
		</g>
		<g>
			<path class="st0" d="M624.7,356.5l-2.4-10.6c0,0,8.1-3.7,10.3-2.3c2.3,1.5,4,8.5,2.3,10.6C633.4,356.3,624.7,356.5,624.7,356.5z"
				/>
		</g>
		<g>
			<path class="st0" d="M610.2,335.9l8.6,6.6c0,0,6.8-5.8,6.4-8.4c-0.4-2.7-6-7.3-8.6-6.6C614.1,328.2,610.2,335.9,610.2,335.9z"/>
		</g>
		<g>
			<path class="st0" d="M598.7,375.7l-8.6-6.6c0,0-6.8,5.8-6.4,8.4c0.4,2.7,6,7.3,8.6,6.6C594.8,383.4,598.7,375.7,598.7,375.7z"/>
		</g>
		<g>
			<path class="st0" d="M619.8,370.5l4.2-10c0,0,8.7,1.7,9.7,4.1c1,2.5-1.6,9.3-4.2,10C626.9,375.3,619.8,370.5,619.8,370.5z"/>
		</g>
	</g>
</g>
<rect x="5.2" y="264.5" class="st5" width="311.4" height="145.9"/>
<path class="st6" d="M425.4,306.1c1.9-2,3.2-1.3,3.2-1.3s22.7,17.4,24.9,18.7c2.2,1.3,31.7,2.1,31.7,2.1s11.8-0.1,14.7,5.9
	c2.5,5.3,0.7,9.8-1.8,13.2c-3.1,4-8.3,5.6-13.1,4.2c-10.8-3.2-32.4-9.6-36.4-12.1c-9-5.5-25.2-27.4-25.2-27.4
	S423.9,307.7,425.4,306.1z"/>
<g>
	<path class="st6" d="M482.2,313.1c0,0-2.7,0.7-5.8,1.2c-4.3,0.6-9.3,0.8-9-2c0.1-0.6,0.1-1.2,0.1-1.8l0,0c0-0.1,0-0.2,0-0.3
		c0.2-3.8-0.1-6.9-0.1-6.9l15.4,0.2l0,0.2C482.7,308.4,482.2,313.1,482.2,313.1z"/>
	<path class="st7" d="M482.2,313.1c0,0-2.4,0.7-5.2,1.2l0,0c0,0-7.4-1.9-7.8-3.6l0,0c0-0.1,0-0.2,0-0.3c0.1-0.2,0.3-0.4,0.7-0.7
		c2-1.1,5.1-1.4,7.4-1.5c1.8-0.1,3.2-1.5,3.3-3.2c0-0.6,0.1-1.1,0.1-1.1l2.2-0.1C482.7,308.4,482.2,313.1,482.2,313.1z"/>
	<path class="st6" d="M490.5,281.7c-0.9-10.3-10.7-13.8-17.8-13.5c-7.1,0.4-10.3,5.6-12.1,10.7c0,0-0.3,2.5-0.5,5.7
		c-0.1,2-0.4,4.1-1,6c-0.5,1.6-1.1,2.3-1,3.4c0.1,1,2.3,0.8,2.6,1.6c0,1.8-0.8,6.6-0.2,8.1c1.6,3.8,9,2.6,9,2.6l0-0.1
		c2.2,0.4,4.9,0.4,8.4-0.2C490.1,303.9,491.3,290.4,490.5,281.7z"/>
	<path class="st7" d="M463,279.3c0,0,3.7,0.4,3.9,3.9c0.2,3.5-0.8,4.2,1,5.5c1.8,1.3,3.3,1.3,3.4,2.8c0.1,1.5-0.5,9,1,11.2
		c1.5,2.3,5.8-17.8,5.8-17.8l-4.4-7L463,279.3z"/>
	<path class="st8" d="M465.3,279.7c3.2,0.5,2.7,6.7,2.7,7.7c0,0.6,1.7,1.1,2.9,1.6c1.2,0.6,1.5,2,1.4,3.3c-0.3,4-0.6,12.1,1.1,12.9
		c2.3,1,9.3,1.9,10.2,0.9c0.9-1.1,6.9-7,6.8-19c0-11.8-1.3-13.2-5.5-17.2c-2.6-2.4-11.6-3.1-14.3-2.4c-6.1,1.5-7.8,1.7-9.5,5.6
		C460,275.7,459.8,278.9,465.3,279.7z"/>
</g>
<path class="st9" d="M463.7,316.6c0,0,1.4-3.5,2.7-4.6c1.3-1.1,14.6-3.4,17.7-1.6c3.1,1.8,2.3,5.6,2.3,5.6"/>
<g>
	<g>
		<g>
			<path class="st10" d="M553.5,540.4H73.6v-29.1l65.1,3.1l27.3-19.9c12.6-0.8,65.1-4.6,65.1-4.6l39.9-4.6l29.2-6.1l21.2-4.5
				l58.8,15.2l67.1-22.9l27.9-31.6l78.4-23.6V540.4z"/>
		</g>
		<polygon class="st11" points="553.5,540.5 73.6,540.5 125.6,532.8 163.9,532.8 231,532.8 289.8,529 336,522.1 367.4,514.8 
			433.6,522.1 459.1,518.3 488.3,507.5 554.3,522.1 		"/>
	</g>
</g>
<g>
	<path class="st12" d="M370.7,239.4c-10.5,4.2-19.5,12.2-24.7,23.3c-1.8,3.7-3,7.5-3.7,11.4l43,6.2L370.7,239.4z"/>
	<path class="st2" d="M389.2,279.6l35.9-25.5c-4.3-5.6-10-10.3-16.8-13.6c-11-5.2-23-5.8-33.8-2.5L389.2,279.6z"/>
	<path class="st1" d="M363.1,326.7l18-37.8l-39.5,14C345.7,312.8,353,321.4,363.1,326.7z"/>
	<path class="st3" d="M341.7,278c-0.6,6.3,0,12.6,1.8,18.5l36.4-12.9L341.7,278z"/>
	<path class="st4" d="M427.5,257.4l-37.7,26.7l-19.9,41.7c22.9,9.8,49.7-0.2,60.5-22.9C437.7,287.7,436,270.5,427.5,257.4z"/>
</g>
<path id="XMLID_4_" class="st6" d="M502.4,541.7c0,0-1.5,1.3-3.5,1.3c-2.2,0-3.6-1.3-3.6-1.3l0.8-8.2l8,0.4L502.4,541.7z"/>
<path id="XMLID_5_" class="st6" d="M471.8,541.7c0,0-1.5,1.3-3.5,1.3c-2.2,0-3.6-1.3-3.6-1.3l0.8-8.2l8,0.4L471.8,541.7z"/>
<path class="st6" d="M400.3,311.8c0,0,0-8.4-1.3-10.8c-1.3-2.4-4.4-5.5-6.1-4.5c-1.7,1-2.3,9.1-1.7,10.6c0.5,1.5,4.5,7,4.5,7
	L400.3,311.8z"/>
<path class="st13" d="M477.7,404.5c0,0,0.9,31.6,5.2,64.5c3.6,27.8,10.7,56.5,10.4,68.8c0,0,2.4,1.2,11.3,0c0,0,1.2-57.5,0.6-74.8
	c-0.6-14.9-2-64-2-64L477.7,404.5z"/>
<g>
	<circle class="st12" cx="499.1" cy="106.1" r="92.4"/>
	<circle class="st2" cx="499.1" cy="106.1" r="83.9"/>
	<circle class="st14" cx="499.1" cy="106.1" r="75.4"/>
	<g>
		<g>
			<path class="st15" d="M499,47.7L499,47.7c-1.1,0-2-0.9-2-2l0-9.7c0-1.1,0.9-2,2-2l0,0c1.1,0,2,0.9,2,2v9.7
				C501.1,46.8,500.1,47.7,499,47.7z"/>
			<path class="st15" d="M499.3,178.1L499.3,178.1c-1.1,0-2-0.9-2-2v-9.7c0-1.1,0.9-2,2-2l0,0c1.1,0,2,0.9,2,2v9.7
				C501.3,177.2,500.4,178.1,499.3,178.1z"/>
		</g>
		<g>
			<path class="st15" d="M557.5,105.9L557.5,105.9c0-1.1,0.9-2,2-2l9.7,0c1.1,0,2,0.9,2,2l0,0c0,1.1-0.9,2-2,2l-9.7,0
				C558.4,108,557.5,107.1,557.5,105.9z"/>
			<path class="st15" d="M427.1,106.2L427.1,106.2c0-1.1,0.9-2,2-2h9.7c1.1,0,2,0.9,2,2v0c0,1.1-0.9,2-2,2h-9.7
				C428,108.2,427.1,107.3,427.1,106.2z"/>
		</g>
		<g>
			<path class="st15" d="M542.2,62.9L542.2,62.9c-0.8-0.8-0.8-2.1,0-2.9l3.5-3.5c0.8-0.8,2.1-0.8,2.9,0l0,0c0.8,0.8,0.8,2.1,0,2.9
				l-3.5,3.5C544.2,63.7,542.9,63.7,542.2,62.9z"/>
			<path class="st15" d="M449.7,155.7L449.7,155.7c-0.8-0.8-0.8-2.1,0-2.9l4.3-4.3c0.8-0.8,2.1-0.8,2.9,0l0,0c0.8,0.8,0.8,2.1,0,2.9
				l-4.3,4.3C451.8,156.5,450.5,156.5,449.7,155.7z"/>
		</g>
		<g>
			<path class="st15" d="M542.3,149.1L542.3,149.1c0.8-0.8,2.1-0.8,2.9,0l3.5,3.5c0.8,0.8,0.8,2.1,0,2.9l0,0c-0.8,0.8-2.1,0.8-2.9,0
				l-3.5-3.5C541.5,151.2,541.5,149.9,542.3,149.1z"/>
			<path class="st15" d="M449.5,56.7L449.5,56.7c0.8-0.8,2.1-0.8,2.9,0l4.3,4.3c0.8,0.8,0.8,2.1,0,2.9l0,0c-0.8,0.8-2.1,0.8-2.9,0
				l-4.3-4.3C448.8,58.8,448.8,57.5,449.5,56.7z"/>
		</g>
	</g>
	<g>
		<path class="st16" d="M499.1,107.2L499.1,107.2c-1.2,0-2.2-1-2.2-2.2l0-47.2c0-1.2,1-2.2,2.2-2.2l0,0c1.2,0,2.2,1,2.2,2.2l0,47.2
			C501.4,106.2,500.4,107.2,499.1,107.2z"/>
		<path class="st16" d="M496.9,108.9L496.9,108.9c0-1.2,1-2.2,2.2-2.2l32.6,0c1.2,0,2.2,1,2.2,2.2v0c0,1.2-1,2.2-2.2,2.2l-32.6,0
			C497.9,111.2,496.9,110.2,496.9,108.9z"/>
	</g>
	<line class="st17" x1="533.1" y1="75.5" x2="499.4" y2="105.8"/>
	<circle class="st18" cx="499.1" cy="106.1" r="8.1"/>
</g>
<path class="st19" d="M492.4,400.2c-0.6,8.3-1.6,15.2-5.5,36.7c-1.3,7.1-3.8,24.4-4.3,31c-5.8-32-10.6-66.5-10.6-66.5L492.4,400.2z"
	/>
<path class="st13" d="M458.2,403.7c0,0-1.6,31.5,0,64.7c1.4,28,6.1,57.2,4.8,69.4c0,0,2.3,1.4,11.3,0.9c0,0,5.8-57.2,6.6-74.5
	c0.6-14.9,7.9-60.7,7.9-60.7L458.2,403.7z"/>
<path class="st20" d="M503,403.4c-3.2,4.9-41.7,7-44.5,3.2c-1.1-1.5-2.3-32.1-2.9-34.8c-0.2-1.1-0.4-2.1-0.5-2.9
	c-0.6-3.7-0.7-5.6-3.4-17.6c-0.4-1.6-1.6-5.9-1.8-7.5v0c-0.1-1-2.2-1.8-2.3-2.8c-1.1-11.4,0.2-20,2-20.8c2.8-1.2,5.4-2.4,7.9-3.4
	c1.5-0.6,2.9-1.1,4.4-1.6c1.3-0.5,2.7-0.9,4.1-1.2c5.3-1.4,11.1-2.1,18.9-1.9c4.9,0.1,10.3,5.3,12.4,9.6c3.8,7.8,5.5,21.1,6,37.5
	C503.8,384.6,504.4,401.2,503,403.4z"/>
<path class="st21" d="M464.8,342.9c-5.3,1.6-3.5,15.9-9.7,26c-0.6-3.7-0.7-5.6-3.4-17.6c-0.4-1.6-1.6-5.9-1.8-7.5
	c-0.7,0-1.4,0.1-2,0.1c-0.5,0-1,0-1.5,0c0-0.5,0-1.1,0-1.6c0.4-0.5,0.8-0.9,1.2-1.3c2.9-3,4-17.7,9.9-24.1c1.5-0.6,2.9-1.1,4.4-1.6
	c1.3-0.5,2.7-0.9,4.1-1.2c2.1,0.4,4.6,1.5,7.4,3.4C478,320.6,482.9,337.6,464.8,342.9z"/>
<g>
	<rect x="113.8" y="101.5" class="st5" width="203.8" height="136.7"/>
	<g>
		<g>
			<rect x="289.7" y="148.6" class="st4" width="18.8" height="78.6"/>
			<rect x="225.9" y="185.3" class="st12" width="18.8" height="41.8"/>
			<rect x="193.9" y="199.5" class="st1" width="18.8" height="27.6"/>
			<rect x="162" y="209.2" class="st4" width="18.8" height="17.9"/>
			<rect x="130.1" y="215.1" class="st2" width="18.8" height="12"/>
			<rect x="257.8" y="168.8" class="st2" width="18.8" height="58.4"/>
		</g>
		<g>
			<path class="st22" d="M124.2,203.4c-1.1,0-1.7,0-1.8,0l0.2-4.8c0.2,0,23.5,0.7,56.6-9c30.5-9,75.7-28.9,118.2-73.1l3.5,3.4
				c-43.3,45-89.5,65.3-120.5,74.4C151.5,202.7,130.4,203.4,124.2,203.4z"/>
		</g>
		<polygon class="st22" points="308.3,109.7 283.8,114.8 303.2,134.2 		"/>
	</g>
</g>
<g>
	<path class="st12" d="M297,397.6l-279.7,0l0-42.4l37.9,4.5l15.9-29c7.3-1.1,37.9-6.7,37.9-6.7l23.2-6.7l17-8.9l12.3-6.5l34.2,22.1
		l39.1-33.4l23.9-11.3l38,22.5L297,397.6z"/>
	<polygon class="st2" points="297,397.6 17.3,397.6 47.6,386.4 69.9,386.4 109.1,386.4 143.3,380.8 170.2,370.8 188.6,360.1 
		227.1,370.8 241.9,365.2 259,349.4 297.4,370.8 	"/>
</g>
<path class="st23" d="M471.8,541.7c0,0-1.5,0.7-3.5,0.7c-1.7,0-3.6-0.7-3.6-0.7l0,0l0,0l0,0l0,0c-0.1,0-8.9,2.7-11.6,3.2
	c-2.9,0.6-6.1,1.4-6.4,3.9c-0.4,2.9,1.5,3.1,1.5,3.1l0,0c0.1,0,0.1,0,0.2,0l23.8,0c0.3,0,0.6-0.2,0.7-0.4
	C474.9,546.4,471.8,541.7,471.8,541.7z"/>
<path class="st23" d="M502.4,541.7c0,0-1.5,0.7-3.5,0.7c-1.7,0-3.6-0.7-3.6-0.7l0,0l0,0l0,0l0,0c-0.1,0-8.9,2.7-11.6,3.2
	c-2.9,0.6-6.1,1.4-6.4,3.9c-0.4,2.9,1.5,3.1,1.5,3.1l0,0c0.1,0,0.1,0,0.2,0l23.8,0c0.3,0,0.6-0.2,0.7-0.4
	C505.5,546.4,502.4,541.7,502.4,541.7z"/>
<path class="st6" d="M397.1,311.3c1.9-2.1,3-0.8,3-0.8s23.4,16.2,25.6,17.4c2.2,1.2,29.3-7.9,29.3-7.9s14.8-3.9,17.8,2
	c2.6,5.2,0.2,10.7-2.3,14.1c-3,4.1-8.2,4.7-13.2,5.2c-13.9,1.5-32.1,2.5-36.2,0.1c-9.1-5.2-25.5-27.5-25.5-27.5
	S395.7,313,397.1,311.3z"/>
<path class="st20" d="M475.6,332.4c-1.1,4.7-5.7,7.5-11.3,9.2c-4.5,1.3-9.7,2-14.4,2.2c-0.7,0-1.4,0.1-2,0.1c-0.5,0-1,0-1.5,0
	c-5.6,0.1-7.6,0.3-7.6,0.3l-3-19.2c0,0,19.8-9.4,26-9.7C468.1,315,479.1,318.1,475.6,332.4z"/>
</svg>
