<?xml version="1.0" encoding="utf-8"?>
<!-- Generator: Adobe Illustrator 23.0.2, SVG Export Plug-In . SVG Version: 6.00 Build 0)  -->
<svg version="1.1" id="Слой_1" xmlns="http://www.w3.org/2000/svg" xmlns:xlink="http://www.w3.org/1999/xlink" x="0px" y="0px"
	 viewBox="0 0 1600 639" style="enable-background:new 0 0 1600 639;" xml:space="preserve">
<style type="text/css">
	.st0{fill:#D9E9FE;}
	.st1{opacity:0.1;}
	.st2{fill:#3315E8;}
	.st3{fill:#8781F5;}
	.st4{fill:#C2C0F5;}
	.st5{fill:#3F3D56;}
	.st6{fill:#B8A7F3;}
	.st7{fill:#AD97F0;}
	.st8{fill:#EDB94E;}
	.st9{fill:#9898F8;}
	.st10{fill:#FFBF29;}
	.st11{fill:none;stroke:#C4C6EC;stroke-width:1.089;stroke-linejoin:round;stroke-miterlimit:10;}
	.st12{fill:#FFFFFF;stroke:#7F89D3;stroke-width:1.7784;stroke-linejoin:round;stroke-miterlimit:10;}
	.st13{fill:none;stroke:#7F89D3;stroke-width:1.7784;stroke-linejoin:round;stroke-miterlimit:10;}
	.st14{fill:#A9C6FC;}
	.st15{fill:#FFFFFF;}
	.st16{opacity:0.5;}
	.st17{fill:#DC9690;}
	.st18{clip-path:url(#SVGID_2_);fill:#B4DDF0;}
	.st19{clip-path:url(#SVGID_2_);fill:#ACD29A;}
	.st20{clip-path:url(#SVGID_2_);fill:#A9C6FC;}
	.st21{clip-path:url(#SVGID_2_);fill:#DC9690;}
	.st22{clip-path:url(#SVGID_2_);fill:#E9F2FD;}
	.st23{fill:#E9B899;}
	.st24{fill:#DBAA90;}
	.st25{fill:#392F29;}
	.st26{fill:#DBA585;}
	.st27{fill:#493C34;}
	.st28{fill:#343D57;}
	.st29{fill:#404059;}
	.st30{fill:#575A89;}
	.st31{fill:#C75454;}
	.st32{fill:#393D3F;}
	.st33{fill:#1C468A;}
	.st34{fill:#E37970;}
	.st35{fill:#F2564B;}
	.st36{fill:#FB7369;}
	.st37{fill:#163560;}
	.st38{fill:#C45446;}
	.st39{fill:#E27D58;}
	.st40{fill:#2F2661;}
	.st41{opacity:0.2;}
	.st42{opacity:0.2;fill:#FFFFFF;}
	.st43{fill:none;stroke:#EDB94E;stroke-width:4.3811;stroke-linecap:round;stroke-miterlimit:10;}
	.st44{fill:none;stroke:#EDB94E;stroke-width:4.3056;stroke-linecap:round;stroke-miterlimit:10;}
	.st45{fill:none;stroke:#EDB94E;stroke-width:4.5931;stroke-linecap:round;stroke-miterlimit:10;}
	.st46{fill:none;stroke:#EDB94E;stroke-width:4.497;stroke-linecap:round;stroke-miterlimit:10;}
	.st47{fill:none;stroke:#EDB94E;stroke-width:4.505;stroke-linecap:round;stroke-miterlimit:10;}
	.st48{fill:none;stroke:#EDB94E;stroke-width:4.4602;stroke-linecap:round;stroke-miterlimit:10;}
</style>
<g>
	<path class="st0" d="M1074.4,634.8c-203.9,2.8-288.4-2.3-481.5,1.5c-10.2,0.2-45,3.6-93.2-50c-31.6-35.2-87-9.6-91.1-59.2
		c-4.2-51.1-42-77.8-37.8-140.9c2.9-43.9,94.5-72.5,112.6-93.6c17.6-20.7,58.3-1.5,73.5-27c16.8-28.2-3.2-94.2-1.9-128.1
		c2.5-62.3,51.4-95.4,106.5-95.7c55.2-0.3,97.9,31.3,108.6,92.5c5.6,32.4,12.5,64.3,17.9,96.8c5.4,32.4,47,65.1,76.2,65.8
		c24.1,0.5,44-21.6,56.5-44.9c12.6-23.3,21.5-49.8,39-68.6c25.6-27.5,67.1-32.2,98.7-14.4c31.6,17.8,69.8,43,74.4,82.6
		c4.6,39.6,6.2,74.1-14,107c-6.6,10.8-14.6,23.7-10.2,35.9c3.3,9,4.1,11.3,12.5,13.2c24.5,5.6,48.7-2.2,79.2,15.8
		c29.1,17.1,29.6,43.7,28.8,85.1c-0.7,34.3-32.5,21.8-38.4,53.9C1176.2,643.1,1156.2,633.7,1074.4,634.8z"/>
	<g>
		<g class="st1">
			<path class="st2" d="M484.3,90.1c-3-0.1-7.1,0.4-15.9-2.2c-7.6-2.2-9.4-8.1-8.6-11c0.8-3.1,4.1-8.1,7.1-9.2
				c6.9-2.5,10.7-2.7,19-1c-5.3-1.6-6.8-2.9-9.9-6.5c-2-2.3-1.7-7.9,0.3-9.7c6.9-6.2,13.4-3.3,22.9,1.4c-5.1-3-5.2-3.5-7.3-5.8
				c-1.6-1.7-2.6-4.3-2.3-6.6c0.5-3.5,6.9-6.4,10.4-6.8c7.7-0.8,13.7,1,20.8,4.1c7.1,3.1,13.1,9.6,14,17.3c0.4-5,5.7-8.8,10.6-8.2
				c5,0.6,9,4.9,10.1,9.8c1.1,4.9-0.6,10.1-3.6,14.1c4.6-1.5,8.2-3.7,12.9-2.5c4.7,1.2,9.9,5.5,8.4,12.9c-0.4,2.1-3.4,8.6-11.3,9.7
				c-12.8,1.8-16.1,1.9-30.2,1.5L484.3,90.1z"/>
		</g>
		<g class="st1">
			<path class="st2" d="M981.4,52.3c-3.3-0.1-7.8,0.3-17.4-2c-8.3-2-10.3-7.2-9.4-9.8c0.9-2.7,4.5-7.3,7.8-8.2
				c7.5-2.3,11.6-2.4,20.8-0.9c-5.7-1.5-7.4-2.6-10.8-5.8c-2.2-2.1-1.9-7.1,0.3-8.7c7.5-5.6,14.6-2.9,25.1,1.3
				c-5.6-2.7-5.7-3.1-8-5.2c-1.7-1.5-2.9-3.8-2.5-5.9c0.6-3.1,7.5-5.8,11.3-6.1c8.4-0.7,14.9,0.9,22.7,3.7
				c7.8,2.8,14.3,8.6,15.3,15.5c0.4-4.5,6.2-7.9,11.6-7.3c5.4,0.5,9.9,4.4,11,8.8c1.2,4.4-0.6,9.1-3.9,12.6c5-1.3,9-3.3,14.1-2.2
				c5.1,1.1,10.9,5,9.1,11.5c-0.5,1.9-3.7,7.7-12.3,8.7c-14,1.7-17.5,1.7-33,1.3L981.4,52.3z"/>
		</g>
	</g>
	<g>
		<g>
			<path class="st3" d="M877.8,574.7c-1.9,1.7-4.6,0.9-4.6-2.3v-7.9c0-2.4-2-4.3-4.3-4.3h-5.5c0.6,1.3,1,2.7,1,4.1
				c0,4.9-3.8,8.6-9,8.8h-0.2H855c-5.2-0.2-9-3.9-9-8.8c0-1.4,0.3-2.8,1-4.1h-5.8h0H841c-2.3,0-4.3,1.9-4.3,4.3v8
				c0,3.3-2.7,4-4.6,2.3c-3.1-2.8-7.9-1.3-8.1,3.8c0.2,5,5,6.5,8.1,3.8c1.9-1.7,4.7-0.9,4.7,2.3v7.8c0,2.3,1.9,4.3,4.3,4.3h7.9
				c3.3,0,4,2.8,2.3,4.7c-2.8,3.1-1.3,8,3.8,8.2c5-0.2,6.5-5,3.8-8.2c-1.7-1.9-0.9-4.7,2.3-4.7h7.9c2.3,0,4.3-1.9,4.3-4.3v-7.8
				c0-3.3,2.7-4,4.6-2.3c3.1,2.8,7.9,1.3,8.1-3.7C885.7,573.4,881,571.9,877.8,574.7z"/>
		</g>
	</g>
	<g>
		<g>
			<path class="st3" d="M826.7,36.7h-8.4c-3.5,0-4.2-2.9-2.5-4.9c2.9-3.3,1.4-8.4-4-8.6c-5.3,0.2-6.9,5.3-4,8.6c1.8,2,1,4.9-2.5,4.9
				h-8.3c-2.5,0-4.5,2-4.5,4.5v8.4c0,3.5-2.9,4.2-4.9,2.5c-3.3-2.9-8.4-1.4-8.6,4c0.2,5.3,5.3,6.8,8.6,3.9c2-1.8,4.9-1,4.9,2.5v8.3
				c0,2.5,2,4.5,4.5,4.5h8.3c3.5,0,4.2,2.8,2.5,4.8c-2.9,3.3-1.4,8.4,4,8.6c5.3-0.2,6.9-5.2,4-8.6c-1.8-2-1-4.8,2.5-4.8h8.3
				c2.5,0,4.6-2.1,4.6-4.6v-5.8c-1.4,0.7-2.8,1-4.3,1c-5.1,0-9-4-9.3-9.5v-0.2v-0.2c0.2-5.5,4.1-9.5,9.3-9.5c1.5,0,3,0.4,4.3,1v-6.1
				v0v-0.1C831.2,38.7,829.2,36.7,826.7,36.7z"/>
		</g>
	</g>
	<path class="st4" d="M1047.2,99.4l2.8-2.8l-2.8-2.8c-1.3-1.3-1.3-3.4,0-4.6c1.3-1.3,3.4-1.3,4.6,0l2.8,2.8l2.8-2.8
		c1.3-1.3,3.4-1.3,4.6,0c1.3,1.3,1.3,3.4,0,4.6l-2.8,2.8l2.8,2.8c1.3,1.3,1.3,3.4,0,4.6c-1.3,1.3-3.4,1.3-4.6,0l-2.8-2.8l-2.8,2.8
		c-1.3,1.3-3.4,1.3-4.6,0C1045.9,102.8,1045.9,100.7,1047.2,99.4z"/>
	<path class="st2" d="M476.6,145.7l2.8-2.8l-2.8-2.8c-1.3-1.3-1.3-3.4,0-4.6c1.3-1.3,3.4-1.3,4.6,0l2.8,2.8l2.8-2.8
		c1.3-1.3,3.4-1.3,4.6,0c1.3,1.3,1.3,3.4,0,4.6l-2.8,2.8l2.8,2.8c1.3,1.3,1.3,3.4,0,4.6c-1.3,1.3-3.4,1.3-4.6,0l-2.8-2.8l-2.8,2.8
		c-1.3,1.3-3.4,1.3-4.6,0C475.3,149,475.3,147,476.6,145.7z"/>
	<path class="st2" d="M1136.4,611.8l2.8-2.8l-2.8-2.8c-1.3-1.3-1.3-3.4,0-4.6c1.3-1.3,3.4-1.3,4.6,0l2.8,2.8l2.8-2.8
		c1.3-1.3,3.4-1.3,4.6,0s1.3,3.4,0,4.6l-2.8,2.8l2.8,2.8c1.3,1.3,1.3,3.4,0,4.6c-1.3,1.3-3.4,1.3-4.6,0l-2.8-2.8l-2.8,2.8
		c-1.3,1.3-3.4,1.3-4.6,0C1135.1,615.1,1135.1,613.1,1136.4,611.8z"/>
	<path class="st4" d="M458.4,508.6l2.8-2.8l-2.8-2.8c-1.3-1.3-1.3-3.4,0-4.6c1.3-1.3,3.4-1.3,4.6,0l2.8,2.8l2.8-2.8
		c1.3-1.3,3.4-1.3,4.6,0c1.3,1.3,1.3,3.4,0,4.6l-2.8,2.8l2.8,2.8c1.3,1.3,1.3,3.4,0,4.6c-1.3,1.3-3.4,1.3-4.6,0l-2.8-2.8l-2.8,2.8
		c-1.3,1.3-3.4,1.3-4.6,0C457.1,512,457.1,509.9,458.4,508.6z"/>
	<path class="st4" d="M552.3,26.2l2.8-2.8l-2.8-2.8c-1.3-1.3-1.3-3.4,0-4.6s3.4-1.3,4.6,0l2.8,2.8l2.8-2.8c1.3-1.3,3.4-1.3,4.6,0
		s1.3,3.4,0,4.6l-2.8,2.8l2.8,2.8c1.3,1.3,1.3,3.4,0,4.6c-1.3,1.3-3.4,1.3-4.6,0l-2.8-2.8l-2.8,2.8c-1.3,1.3-3.4,1.3-4.6,0
		C551,29.6,551,27.5,552.3,26.2z"/>
	<g>
		<g>
			<path class="st5" d="M479.9,369.1c-11.6,3.1-18.5,15-15.5,26.6c3.1,11.6,15,18.5,26.6,15.5c11.6-3.1,18.5-15,15.5-26.6
				C503.4,373,491.5,366.1,479.9,369.1z M488.4,401.2c-6.1,1.6-12.4-2-14-8.1c-1.6-6.1,2-12.4,8.1-14c6.1-1.6,12.4,2,14,8.1
				C498.1,393.4,494.5,399.6,488.4,401.2z"/>
		</g>
		<g>
			<path class="st5" d="M486.1,372.7l-9.5,2.5c0,0-3.6-7.1-2.4-9.2c1.2-2.1,7.5-4,9.5-2.5C485.6,365,486.1,372.7,486.1,372.7z"/>
		</g>
		<g>
			<path class="st5" d="M493.8,405.5l-9.5,2.5c0,0,0.4,8,2.4,9.2c2.1,1.2,8.5-0.3,9.5-2.5C497.2,412.5,493.8,405.5,493.8,405.5z"/>
		</g>
		<g>
			<path class="st5" d="M472.9,377.5l-3.8,9c0,0-7.9-1.5-8.8-3.7c-0.9-2.3,1.5-8.4,3.8-9C466.4,373.2,472.9,377.5,472.9,377.5z"/>
		</g>
		<g>
			<path class="st5" d="M468.7,390.8l0.9,9.8c0,0-7.6,2.4-9.5,0.9c-1.9-1.6-2.7-8-0.9-9.8C461,390.1,468.7,390.8,468.7,390.8z"/>
		</g>
		<g>
			<path class="st5" d="M503,391.2l-2.1-9.6c0,0,7.3-3.3,9.3-2.1c2.1,1.3,3.6,7.7,2.1,9.6C510.8,391,503,391.2,503,391.2z"/>
		</g>
		<g>
			<path class="st5" d="M489.9,372.7l7.8,6c0,0,6.1-5.2,5.8-7.5c-0.3-2.4-5.4-6.5-7.8-6C493.4,365.7,489.9,372.7,489.9,372.7z"/>
		</g>
		<g>
			<path class="st5" d="M479.5,408.5l-7.8-6c0,0-6.1,5.2-5.8,7.5c0.3,2.4,5.4,6.5,7.8,6C476.1,415.5,479.5,408.5,479.5,408.5z"/>
		</g>
		<g>
			<path class="st5" d="M498.5,403.8l3.8-9c0,0,7.9,1.5,8.7,3.7c0.9,2.3-1.5,8.4-3.8,9C505,408.2,498.5,403.8,498.5,403.8z"/>
		</g>
	</g>
	<g>
		<g>
			<path class="st5" d="M648.4,96.7c-24.9,6.6-39.8,32.1-33.2,57.1c6.6,24.9,32.1,39.8,57,33.2c24.9-6.6,39.8-32.1,33.2-57
				C698.8,104.9,673.3,90.1,648.4,96.7z M666.6,165.5c-13.1,3.5-26.5-4.4-30-17.5c-3.5-13.1,4.4-26.5,17.5-30
				c13.1-3.5,26.5,4.4,30,17.5C687.5,148.6,679.7,162.1,666.6,165.5z"/>
		</g>
		<g>
			<path class="st5" d="M661.6,104.4l-20.3,5.4c0,0-7.8-15.3-5.2-19.7c2.6-4.6,16.1-8.5,20.3-5.4
				C660.5,87.7,661.6,104.4,661.6,104.4z"/>
		</g>
		<g>
			<path class="st5" d="M678.1,174.6l-20.3,5.4c0,0,0.8,17.1,5.2,19.7c4.5,2.6,18.2-0.6,20.3-5.4
				C685.4,189.7,678.1,174.6,678.1,174.6z"/>
		</g>
		<g>
			<path class="st5" d="M633.2,114.6L625,134c0,0-16.9-3.2-18.8-7.9c-2-4.9,3.1-17.9,8.2-19.4C619.4,105.3,633.2,114.6,633.2,114.6z
				"/>
		</g>
		<g>
			<path class="st5" d="M624.4,143.2l2,20.9c0,0-16.4,5.2-20.3,1.9c-4.1-3.4-5.7-17.3-2-20.9C607.7,141.6,624.4,143.2,624.4,143.2z"
				/>
		</g>
		<g>
			<path class="st5" d="M697.9,144.1l-4.5-20.5c0,0,15.6-7.1,19.9-4.4c4.4,2.8,7.8,16.4,4.5,20.6
				C714.6,143.7,697.9,144.1,697.9,144.1z"/>
		</g>
		<g>
			<path class="st5" d="M669.8,104.3l16.7,12.8c0,0,13.1-11.1,12.4-16.2c-0.7-5.2-11.6-14-16.7-12.8
				C677.3,89.3,669.8,104.3,669.8,104.3z"/>
		</g>
		<g>
			<path class="st5" d="M647.6,181.2l-16.7-12.8c0,0-13.1,11.1-12.4,16.2c0.7,5.2,11.6,14,16.7,12.8
				C640.1,196.2,647.6,181.2,647.6,181.2z"/>
		</g>
		<g>
			<path class="st5" d="M688.3,171.1l8.2-19.4c0,0,16.9,3.2,18.8,7.9c2,4.9-3.1,17.9-8.2,19.4C702.2,180.5,688.3,171.1,688.3,171.1z
				"/>
		</g>
	</g>
	<g>
		<g>
			<path class="st5" d="M496.2,430c-9.8,2.6-15.6,12.6-13,22.3c2.6,9.8,12.6,15.6,22.3,13c9.8-2.6,15.6-12.6,13-22.3
				C515.9,433.3,505.9,427.5,496.2,430z M503.3,457c-5.1,1.4-10.4-1.7-11.7-6.8c-1.4-5.1,1.7-10.4,6.8-11.7
				c5.1-1.4,10.4,1.7,11.7,6.8C511.5,450.4,508.4,455.6,503.3,457z"/>
		</g>
		<g>
			<path class="st5" d="M501.3,433.1l-8,2.1c0,0-3-6-2-7.7c1-1.8,6.3-3.3,8-2.1C500.9,426.5,501.3,433.1,501.3,433.1z"/>
		</g>
		<g>
			<path class="st5" d="M507.8,460.6l-8,2.1c0,0,0.3,6.7,2,7.7c1.8,1,7.1-0.2,8-2.1C510.7,466.5,507.8,460.6,507.8,460.6z"/>
		</g>
		<g>
			<path class="st5" d="M490.2,437.1l-3.2,7.6c0,0-6.6-1.3-7.3-3.1c-0.8-1.9,1.2-7,3.2-7.6C484.8,433.4,490.2,437.1,490.2,437.1z"/>
		</g>
		<g>
			<path class="st5" d="M486.8,448.3l0.8,8.2c0,0-6.4,2-7.9,0.8c-1.6-1.3-2.2-6.8-0.8-8.2C480.3,447.6,486.8,448.3,486.8,448.3z"/>
		</g>
		<g>
			<path class="st5" d="M515.5,448.6l-1.8-8c0,0,6.1-2.8,7.8-1.7c1.7,1.1,3.1,6.4,1.8,8C522.1,448.4,515.5,448.6,515.5,448.6z"/>
		</g>
		<g>
			<path class="st5" d="M504.6,433l6.5,5c0,0,5.1-4.3,4.9-6.3c-0.3-2-4.5-5.5-6.5-5C507.5,427.2,504.6,433,504.6,433z"/>
		</g>
		<g>
			<path class="st5" d="M495.8,463.1l-6.5-5c0,0-5.1,4.3-4.9,6.3c0.3,2,4.5,5.5,6.5,5C492.9,469,495.8,463.1,495.8,463.1z"/>
		</g>
		<g>
			<path class="st5" d="M511.8,459.2l3.2-7.6c0,0,6.6,1.3,7.3,3.1c0.8,1.9-1.2,7-3.2,7.6C517.2,462.8,511.8,459.2,511.8,459.2z"/>
		</g>
	</g>
	<g>
		<g>
			<path class="st5" d="M1125,443.9c-11.6,3.1-18.5,15-15.5,26.6c3.1,11.6,15,18.5,26.6,15.5c11.6-3.1,18.5-15,15.5-26.6
				C1148.5,447.8,1136.6,440.8,1125,443.9z M1133.4,476c-6.1,1.6-12.4-2-14-8.1c-1.6-6.1,2-12.4,8.1-14c6.1-1.6,12.4,2,14,8.1
				C1143.2,468.1,1139.5,474.4,1133.4,476z"/>
		</g>
		<g>
			<path class="st5" d="M1131.1,447.5l-9.5,2.5c0,0-3.6-7.1-2.4-9.2c1.2-2.1,7.5-4,9.5-2.5C1130.6,439.7,1131.1,447.5,1131.1,447.5z
				"/>
		</g>
		<g>
			<path class="st5" d="M1138.8,480.2l-9.5,2.5c0,0,0.4,8,2.4,9.2c2.1,1.2,8.5-0.3,9.5-2.5C1142.2,487.2,1138.8,480.2,1138.8,480.2z
				"/>
		</g>
		<g>
			<path class="st5" d="M1117.9,452.3l-3.8,9c0,0-7.9-1.5-8.8-3.7c-0.9-2.3,1.5-8.4,3.8-9C1111.4,447.9,1117.9,452.3,1117.9,452.3z"
				/>
		</g>
		<g>
			<path class="st5" d="M1113.8,465.6l0.9,9.8c0,0-7.6,2.4-9.5,0.9c-1.9-1.6-2.7-8-0.9-9.8C1106,464.8,1113.8,465.6,1113.8,465.6z"
				/>
		</g>
		<g>
			<path class="st5" d="M1148,466l-2.1-9.6c0,0,7.3-3.3,9.3-2.1c2.1,1.3,3.6,7.7,2.1,9.6C1155.8,465.8,1148,466,1148,466z"/>
		</g>
		<g>
			<path class="st5" d="M1135,447.5l7.8,6c0,0,6.1-5.2,5.8-7.5c-0.3-2.4-5.4-6.5-7.8-6C1138.4,440.5,1135,447.5,1135,447.5z"/>
		</g>
		<g>
			<path class="st5" d="M1124.6,483.3l-7.8-6c0,0-6.1,5.2-5.8,7.5c0.3,2.4,5.4,6.5,7.8,6C1121.1,490.3,1124.6,483.3,1124.6,483.3z"
				/>
		</g>
		<g>
			<path class="st5" d="M1143.6,478.6l3.8-9c0,0,7.9,1.5,8.7,3.7c0.9,2.3-1.5,8.4-3.8,9C1150,482.9,1143.6,478.6,1143.6,478.6z"/>
		</g>
	</g>
	<g>
		<g>
			<path class="st5" d="M1119.8,392.6c-8.4,2.2-13.4,10.8-11.2,19.2c2.2,8.4,10.8,13.4,19.2,11.2c8.4-2.2,13.4-10.8,11.2-19.2
				C1136.8,395.4,1128.2,390.4,1119.8,392.6z M1125.9,415.8c-4.4,1.2-8.9-1.5-10.1-5.9c-1.2-4.4,1.5-8.9,5.9-10.1
				c4.4-1.2,8.9,1.5,10.1,5.9C1133,410.1,1130.3,414.7,1125.9,415.8z"/>
		</g>
		<g>
			<path class="st5" d="M1124.3,395.2l-6.8,1.8c0,0-2.6-5.1-1.8-6.6c0.9-1.5,5.4-2.9,6.8-1.8
				C1123.9,389.6,1124.3,395.2,1124.3,395.2z"/>
		</g>
		<g>
			<path class="st5" d="M1129.8,418.9l-6.8,1.8c0,0,0.3,5.8,1.8,6.6c1.5,0.9,6.1-0.2,6.8-1.8C1132.3,424,1129.8,418.9,1129.8,418.9z
				"/>
		</g>
		<g>
			<path class="st5" d="M1114.7,398.7l-2.8,6.5c0,0-5.7-1.1-6.3-2.7c-0.7-1.6,1.1-6,2.8-6.5C1110,395.6,1114.7,398.7,1114.7,398.7z"
				/>
		</g>
		<g>
			<path class="st5" d="M1111.7,408.3l0.7,7c0,0-5.5,1.7-6.8,0.6c-1.4-1.1-1.9-5.8-0.7-7C1106.1,407.8,1111.7,408.3,1111.7,408.3z"
				/>
		</g>
		<g>
			<path class="st5" d="M1136.5,408.6l-1.5-6.9c0,0,5.3-2.4,6.7-1.5c1.5,1,2.6,5.5,1.5,6.9C1142.1,408.5,1136.5,408.6,1136.5,408.6z
				"/>
		</g>
		<g>
			<path class="st5" d="M1127,395.2l5.6,4.3c0,0,4.4-3.7,4.2-5.4c-0.2-1.8-3.9-4.7-5.6-4.3C1129.5,390.2,1127,395.2,1127,395.2z"/>
		</g>
		<g>
			<path class="st5" d="M1119.5,421.1l-5.6-4.3c0,0-4.4,3.7-4.2,5.4c0.2,1.8,3.9,4.7,5.6,4.3C1117,426.1,1119.5,421.1,1119.5,421.1z
				"/>
		</g>
		<g>
			<path class="st5" d="M1133.2,417.7l2.8-6.5c0,0,5.7,1.1,6.3,2.7c0.7,1.6-1.1,6-2.8,6.5C1137.9,420.9,1133.2,417.7,1133.2,417.7z"
				/>
		</g>
	</g>
	<g>
		<g>
			<g>
				<path class="st4" d="M567.9,188.9c-8.9-7.7-16.4-18.2-21.3-28.8c-2.3-5-4.1-10.3-5.4-15.7c-0.7-3.1-1.3-6.2-1.6-9.3
					c-0.3-2.6,0-5.6-0.8-8.1c-0.1-0.4-0.6-0.2-0.7,0.1c-0.7,2.5-0.1,5.6,0.2,8.2c0.3,2.9,0.8,5.8,1.5,8.6c1.4,6.1,3.4,12,6.1,17.6
					c2.5,5.2,5.5,10.2,9,14.7C558.8,181.1,563.1,185,567.9,188.9C567.9,189,568,188.9,567.9,188.9L567.9,188.9z"/>
			</g>
			<path class="st4" d="M559.7,181c0.3-0.2-1.8,0.6-3.5,0c-4.1-1.6-4.3-2-9-2.9c-0.5-0.1-1.7-0.2-2.1,0.2c-0.4,0.4-0.5,1-0.3,1.5
				c0.2,0.5,0.6,0.8,1,1.1c4.1,2.8,8.8,1.4,13.9,0.6L559.7,181z"/>
			<path class="st4" d="M554.1,173.4c0.4-0.2-1.7,0.6-3.7,0.4c-3.1-0.8-3.9-2.4-8.7-3.9c-0.5-0.2-1.8-0.3-2.3,0.1
				c-0.5,0.4-0.7,1.1-0.6,1.7c0.1,0.6,0.5,1,0.9,1.3c3.8,3.6,12,2.2,14.6,1L554.1,173.4z"/>
			<path class="st4" d="M549.9,166.8c0.5-0.1-1.6,0.7-3.4-0.6c-4.2-3.2-4-3.7-9-6.3c-0.6-0.3-1.9-0.8-2.5-0.5
				c-0.6,0.3-0.9,1-0.8,1.6c0.1,0.6,0.4,1.1,0.8,1.6c3.8,4.7,10.1,5,15,4.7L549.9,166.8z"/>
			<path class="st4" d="M545.9,159c0.5-0.1-2.7-1.2-4.3-2.8c-4.8-4.2-4-5.4-8.6-8.8c-0.5-0.4-1.8-1-2.4-0.8c-0.6,0.2-1,0.9-1,1.5
				s0.3,1.2,0.6,1.7C533.3,155.1,539.8,157.2,545.9,159L545.9,159z"/>
			<path class="st4" d="M541.9,147.5c0.4-0.1-2.3-0.4-3.6-1.9c-3.6-2.7-3.3-4.9-7.3-8c-0.4-0.3-1.5-0.9-2.1-0.7
				c-0.6,0.2-1,0.9-1,1.5c0,0.6,0.2,1.2,0.4,1.7C530.9,145.1,539.3,148.5,541.9,147.5L541.9,147.5z"/>
			<path class="st4" d="M539.6,138.7c0.4-0.1-1.2-0.9-2.2-2.2c-2.2-3.1-2.8-4.4-5.9-7c-0.3-0.3-1.2-0.8-1.8-0.6
				c-0.6,0.2-1.1,0.7-1.2,1.3s-0.1,1,0.1,1.4C530,135.7,534.9,137.4,539.6,138.7L539.6,138.7z"/>
			<path class="st4" d="M539.1,131.9c0.4,0.1-1.1-0.9-1.6-2.4c-1.6-3.1-0.6-4.5-2.4-7.7c-0.2-0.4-0.8-1.1-1.3-1.2
				c-0.5-0.1-1.1,0.2-1.3,0.5c-0.3,0.3-0.3,0.7-0.3,1.1C532.2,126.1,535.7,129.1,539.1,131.9L539.1,131.9z"/>
			<path class="st4" d="M561.6,182.9c-0.3,0.2,1.3-1.2,1.5-2.8c0.4-3.8,0.1-4.2,1.4-8.2c0.1-0.4,0.6-1.4,1.1-1.6
				c0.5-0.2,1.1,0,1.5,0.4c0.3,0.3,0.5,0.8,0.5,1.2c0.7,4.3-2.7,7.5-5.6,11.3L561.6,182.9z"/>
			<path class="st4" d="M556,176.1c-0.4,0.2,1.4-1.1,2.3-2.8c1-2.9,0.1-4.4,1.5-9c0.2-0.5,0.7-1.6,1.3-1.8c0.6-0.2,1.3,0,1.7,0.4
				s0.6,0.9,0.7,1.4c0.9,4.9-4.6,10.8-7,12.3L556,176.1z"/>
			<path class="st4" d="M551,169.1c-0.4,0.2,1.6-0.7,1.7-2.6c0.3-4.6-0.2-4.7,1.1-9.6c0.1-0.5,0.7-1.7,1.3-1.9
				c0.6-0.2,1.3,0,1.8,0.4c0.4,0.4,0.6,0.9,0.7,1.4c1.1,5.2-2.8,9.7-6.3,12.8L551,169.1z"/>
			<path class="st4" d="M546,160c-0.4,0.1,1.7-2.1,2.3-3.9c2-5.2,0.6-5.7,2.9-10.1c0.3-0.5,1-1.5,1.7-1.6c0.6-0.1,1.3,0.3,1.6,0.7
				c0.3,0.5,0.4,1,0.4,1.6C554.8,151.9,550.2,156.2,546,160L546,160z"/>
			<path class="st4" d="M542.5,150.8c-0.4,0.1,1.8-1.2,2.3-3c1.8-3.6,0.5-5.2,2.5-9.3c0.2-0.5,0.9-1.4,1.5-1.4
				c0.6-0.1,1.3,0.3,1.6,0.8c0.3,0.5,0.4,1,0.4,1.5C551,144.3,545.3,150.4,542.5,150.8L542.5,150.8z"/>
			<path class="st4" d="M540,141.1c-0.4,0.1,0.8-1.3,1.2-2.9c0.9-3.7,0.9-5.1,2.8-8.7c0.2-0.4,0.8-1.2,1.5-1.3
				c0.6-0.1,1.3,0.3,1.6,0.7c0.3,0.4,0.4,0.9,0.4,1.3C547.8,134.7,543.8,138.1,540,141.1L540,141.1z"/>
			<path class="st4" d="M539,132.7c-0.3,0.2,1-1,1.2-2.3c1.1-2.9-0.2-3.8,1.1-6.8c0.1-0.3,0.6-1,1.1-1.2c0.5-0.2,1.1,0,1.5,0.2
				c0.3,0.2,0.5,0.6,0.5,0.9C545.1,126.7,542,129.9,539,132.7L539,132.7z"/>
		</g>
		<g>
			<path class="st6" d="M561.7,221.6c4-4.6-2.1-9.5-8.3-8.5c-5.2,0.8-11.7,3.8-14.2,0.2c-0.2-4.8,3.9-9,6.9-13.2
				c3.1-4.3,4.3-10.4-1.2-12.9c-6.2-2.7-13.5,0.9-19.8,2.7c-2.9,0.8-6.9,1-9-1c-4.4-3.9,4.4-10.5-2-12.9c-3-0.4-5.9,0.4-7.2,1.9
				c-1.5,1.9-2.4,5.2-5.7,4.1c-3.8-1.2-1.1-5.2-3.9-7.5c-1.8-1.4-5.1-1.5-6.7-0.5c-1.5,0.9-1.9,2.5-2.1,4c-4.5-1.2-2.7-4.6-10.8-6.4
				c-5.2-1.1-5.4,4.2-0.8,6.5c3.7,1.9,10,2.7,10.1,5.4c0.1,1.8-3.6,2-3.4,3.9c0.2,2.3,5.1,3.6,8.2,3.6c3.1,0,8,1.1,8.1,3.5
				c-4.8,0.3-9.9,0.7-12.2,3.3c-2.1,2.6-0.1,8.4,4.4,10.3c3.1,1.4,5.8,0.2,8.5-0.6c2.8-0.8,6.8-0.9,9,1.7c-2.2,2.8-4.1,7-1.2,10.1
				c3.9,4.5,12.2-0.5,15.8,4.1c-2.5,2-5,4.1-6.3,7.1c-1.2,2.9-1.1,7,1,9.3c3.9,4.6,13.7-1.3,15.6,4.9c0.6,2.6-1.1,6-0.8,8.7
				c0.3,3.9,4.3,4.5,8,3.1c5.9-2.1,16.9-9.8,17.3-17c0-3.8-5.2-4.9-5.2-8.6C553.5,226.1,558.5,225.3,561.7,221.6z"/>
			<g>
				<g>
					<path class="st7" d="M499,185.2c7.3,2.7,13.1,7.6,18.2,12c5.7,5.3,10.8,10.7,15.3,16.2c4.2,5.8,7.7,11.7,10.7,17.8
						c2.5,6.2,5.3,12.7,5.4,19.7c0,0.3-0.5,0.6-0.6,0.3c-2-5.3-3-12-5.1-17.7c-2.7-5.9-5.9-11.7-9.7-17.4c-4.3-5.6-9.1-11-14.4-16.3
						C512.8,194.5,506.3,189.9,499,185.2C498.8,185.2,498.9,185.2,499,185.2L499,185.2z"/>
				</g>
				<g>
					<path class="st7" d="M527.8,206.1c-0.5-4.5,1.6-9.3,4.7-13c0.3-0.4,1.2,0,0.9,0.4c-3.1,4.1-4.2,8-5.3,12.6
						C528.1,206.3,527.8,206.2,527.8,206.1L527.8,206.1z"/>
				</g>
				<g>
					<path class="st7" d="M510.1,189.8C510.1,189.8,510.1,189.8,510.1,189.8c0.1,0.1,0.2,0.1,0.2,0.1c0,0,0,0.1,0,0.1
						c0,0.1-0.1,0.1-0.2,0c-1.1-0.4-1-2.3-1-3c-0.1-1.4-0.3-3.1,0.7-4.2c0.1-0.1,0.5,0,0.5,0.1c0.2,1.1-0.3,2.2-0.3,3.4
						C509.8,187.5,510,188.8,510.1,189.8C510,189.8,510.1,189.8,510.1,189.8L510.1,189.8z"/>
				</g>
				<g>
					<path class="st7" d="M516.5,199.4c-2.6-0.3-5.2-0.4-7.5,0.2c-1.2,0.3-2.6,1.3-3.9,1.2c-0.1,0-0.3-0.1-0.2-0.2
						c0.4-1,2.7-1.4,3.9-1.7c2.4-0.5,5-0.3,7.7,0C516.9,198.9,516.9,199.5,516.5,199.4L516.5,199.4z"/>
				</g>
				<g>
					<path class="st7" d="M538.1,229.6c-4.1-0.7-7.4-0.3-11,1.8c-0.4,0.2-0.7-0.4-0.4-0.6c3.1-2.4,8.1-3.2,11.6-1.5
						C538.5,229.3,538.3,229.6,538.1,229.6L538.1,229.6z"/>
				</g>
				<g>
					<path class="st7" d="M544.2,231.5c1.1-3.8,3.9-8.8,8.3-10.7c0.5-0.2,0.8,0.3,0.4,0.6c-4.4,2.8-5.9,6.3-8.4,10.2
						C544.4,231.7,544.1,231.7,544.2,231.5L544.2,231.5z"/>
				</g>
				<g>
					<path class="st7" d="M530.6,214.8c-5-1.4-10.4-3.5-14.9-0.8c-0.4,0.2-0.9-0.4-0.5-0.7c4.4-2.4,10.7-1,15.4,1.4
						C530.7,214.7,530.6,214.8,530.6,214.8L530.6,214.8z"/>
				</g>
			</g>
		</g>
		<g>
			<path class="st8" d="M573.8,257.1c-11.4-2.7-20.1,12.1-29-2.9c-1.5-2.2-2.2-5-2.4-7.8c-0.9-9.4-11.3-19.3-21.8-14.6
				c-5.4,2.4-9.6,8.2-15.2,7.7c-2-0.1-3.8-1.1-5.5-2c-7.3-3.8-15.3-7.6-24.2-7.2c-9.8,0.4-18.8,6-21.3,13.1
				c-2.4,7,1.4,15.4,8.8,20.3c6.2,4.4,14.4,6.3,19.4,11.7c5.1,5.9,5.6,14.6,11.2,19.9c9.5,9.7,26.9-0.3,35.1,10.3
				c3,4.2,3.4,10.4,6,14.8c2.8,5.1,8,7,12.9,6.8c4.9-0.3,9.8-2.5,14.8-3.8c6.2-1.6,12.1-5,18-6.2c3.5-0.7,6.8-5.1,7.3-9.9
				C590.1,277.5,589.3,261.2,573.8,257.1z"/>
			<g>
				<path class="st9" d="M475,252.1c6.6,0.6,13.1,1.6,19.3,3c-2.5-3.2-5-7.3-4.8-11.2c0-0.2,0.4-0.3,0.5-0.1c0.8,1.8,1,3.7,1.7,5.5
					c0.8,2,1.9,4,3.2,5.9c0,0,0,0,0,0.1c2.8,0.6,5.5,1.3,8.1,2.1c9.8,3.1,18.8,7.4,26.4,11.3c1.6,0.9,3.2,1.9,4.8,2.8
					c-1.8-3.1-3.5-6.3-4.9-9.6c-1.3-0.8-2.5-1.9-3.7-2.8c-1.8-1.3-3.5-2.5-5.4-3.7c-0.5-0.3,0.3-1,0.7-0.7c1.8,1.3,3.5,2.5,5.2,3.9
					c0.8,0.7,1.8,1.4,2.7,2.1c-1.6-3.8-2.7-7.6-3.3-11.6c-0.1-0.5,0.8-0.8,1-0.3c2.4,7.8,4.6,15.3,8.5,22.6c0.1,0.2-0.1,0.4-0.3,0.5
					c11.7,7.1,21.8,14.1,30.6,21.2c-0.4-3.9-0.6-7.9-0.5-11.9c-0.8-1.3-1.4-2.9-2-4.3c-1-1.9-2-3.8-3.1-5.7c-0.3-0.5,0.7-1,0.9-0.5
					c1,1.9,1.9,3.9,2.8,5.9c0.5,1.1,1,2.1,1.4,3.3c0.1-4.5,0.7-9.1,1.7-13.6c0.1-0.6,1-0.7,1-0.1c-1.1,9.1-2.1,17.9-1.5,26.9
					c0,0.2-0.1,0.3-0.3,0.4c1.5,1.2,2.9,2.4,4.3,3.7c0,0,0.1-0.1,0.1-0.1c0.3-0.3,0.6,0.1,0.3,0.4c0,0,0,0,0,0
					c5.7,5,10.8,10.1,15.4,15.3c6.3,8.6,11.8,18.2,16.3,28.3c0.2,0.4,0,0.8-0.4,1c-0.1,0-0.2,0.1-0.3,0.1c-0.3,0-0.6-0.2-0.7-0.5
					c-4.4-10.1-9.9-19.5-16.1-28c-4.6-5.2-9.7-10.3-15.3-15.2c-7.2,7.1-17,9.9-25,13c-0.2,0.1-0.2-0.2-0.1-0.3
					c4.1-1.8,8.3-3.6,12.5-5.5c4.3-2,8-4.7,12-7.7c-7.6-6.6-16.3-13.1-26.2-19.5c-0.7,0.7-1.5,1.1-2.7,1.8c-3.2,1.9-6.4,3.7-9.5,5.5
					c-4.4,2.5-9,6.3-14,6.6c-0.3,0-0.4-0.4-0.1-0.5c4.9-1.2,9.3-4.2,13.8-6.7c3.7-2.1,8.5-4.1,12.1-6.9c-4.2-2.7-8.7-5.5-13.4-8.2
					c-5.2-2.6-11.2-5.5-17.6-8.1c-4.7,0.8-9.2,1.7-13.2,4.2c-4,2.5-6.9,5.8-10.5,8.5c0,0-0.1,0-0.1,0c3.1-3.4,7-7.4,11.6-9.9
					c3.3-1.8,7.1-2.7,10.9-3.3c-2.4-0.9-4.8-1.8-7.3-2.6c-8.8-2.6-18.1-4.3-27.7-5.2c-0.4,0-0.7-0.4-0.7-0.8
					C474.2,252.4,474.6,252,475,252.1z"/>
				<path class="st9" d="M494.6,246.7c-0.6,1.1-1.2,2.3-2.2,3.2c-0.1,0.1-0.2,0-0.2-0.1c0.2-1.1,1.1-2.3,1.7-3.4
					c0.7-1.3,1.4-2.6,2.2-3.8c0.2-0.4,0.9-0.2,0.7,0.2C496.2,244.1,495.3,245.4,494.6,246.7z"/>
				<path class="st9" d="M497.4,264.8c0.2,0,0.1,0.2-0.1,0.3c-2.4,0.3-4.8,0-7.1,0.2c-2.7,0.2-5.4,0.7-8,1.2c-0.1,0-0.1-0.1,0-0.1
					C486.4,264.9,492.8,263.6,497.4,264.8z"/>
				<path class="st9" d="M530.7,283.7c0.3,0,0.2,0.4-0.1,0.4c-6.4-0.5-12.7,0.4-19.1,0.2c-0.2,0-0.2-0.2,0-0.3
					C517.5,282.4,524.7,283,530.7,283.7z"/>
				<path class="st9" d="M552.7,308.4C552.7,308.4,552.7,308.4,552.7,308.4c-0.4,2.1-1.8,4.2-3,6c-1.1,1.7-2.4,4-4,5
					c-0.1,0.1-0.2-0.1-0.2-0.2c0.8-1.8,2.4-3.2,3.5-4.8C550.3,312.5,551.2,310.2,552.7,308.4z"/>
			</g>
		</g>
		<path class="st4" d="M620.1,443.3c-2.3-4.2-5.1-8.1-8.1-11.8c0.3-0.5,0.5-1,0.6-1.3c0.3-0.9,0.4-2.3,0.7-3.1c0.7-2,1.4-4,1.4-6.1
			c0-2.1-0.7-4.3-2.4-5.5c-0.3-0.2-0.7-0.4-1-0.4c-0.5,0-0.8,0.4-1.1,0.7c-0.9,1.1-1.3,2.4-1.6,3.7c-0.6,3.1,0.2,6.5,1.3,9.5
			c-3.8-4.1-8-7.8-12.5-11.1c0.2-0.4,0.3-0.8,0.4-1.1c0.2-0.9,0.3-2.3,0.5-3.1c0.6-2,1.1-4.1,1-6.1c-0.1-2.1-1-4.2-2.7-5.4
			c-0.3-0.2-0.7-0.4-1.1-0.3c-0.5,0.1-0.8,0.4-1.1,0.8c-0.8,1.1-1.2,2.5-1.3,3.8c-0.5,3.3,0.8,6.8,2.1,10c-3.6-2.5-7.4-4.7-11.3-6.6
			c0.3-0.5,0.6-1.2,0.7-1.6c0.2-0.9,0.3-2.3,0.5-3.1c0.6-2,1.1-4.1,1-6.1c-0.1-2.1-1-4.2-2.7-5.4c-0.3-0.2-0.7-0.4-1.1-0.3
			c-0.5,0.1-0.8,0.4-1.1,0.8c-0.8,1.1-1.2,2.5-1.3,3.8c-0.5,3.5,0.9,7.1,2.3,10.4c0.1,0.2,0.2,0.6,0.2,0.9c-2.2-1-4.5-1.9-6.8-2.9
			c-2.7-0.9-5.3-1.9-8.1-2.6c-0.8-0.2-1.7-0.4-2.5-0.6c0-0.2,0.1-0.3,0.1-0.4c0.2-0.9,0.1-2.3,0.3-3.2c0.5-2,0.9-4.1,0.6-6.2
			c-0.2-2.1-1.3-4.2-3.1-5.2c-0.3-0.2-0.7-0.3-1.1-0.3c-0.4,0.1-0.8,0.5-1,0.9c-0.7,1.2-1,2.5-1.1,3.9c-0.3,3.4,1.2,6.8,2.8,9.9
			c-3.8-0.9-7.6-1.7-11.3-2.6c-3-0.8-6-1.7-8.8-2.8c0.4-0.4,0.9-1,1.1-1.3c0.5-0.8,0.9-2.1,1.4-2.8c1.1-1.7,2.3-3.6,2.8-5.6
			c0.5-2,0.3-4.3-1-5.9c-0.2-0.3-0.5-0.6-0.9-0.6c-0.4-0.1-0.9,0.2-1.3,0.4c-1.1,0.8-1.8,2-2.4,3.3c-1.5,3.2-1.3,7.1-0.9,10.6
			c0,0.4,0,1-0.1,1.5c-1.7-0.7-3.4-1.6-5-2.6c-2.3-1.4-4.3-3.2-6-5.2c-0.8-0.9-1.4-2-2.1-3c0.6-0.1,1.4-0.5,1.8-0.8
			c0.8-0.5,1.8-1.4,2.5-1.9c1.8-1,3.6-2.1,5-3.7c1.4-1.6,2.2-3.7,1.8-5.8c-0.1-0.4-0.2-0.8-0.5-1c-0.4-0.3-0.9-0.3-1.3-0.2
			c-1.3,0.2-2.6,1-3.6,1.8c-2.8,2.1-4.4,5.7-5.6,9c-0.1,0.3-0.5,0.8-0.7,1.3c-0.4-0.9-0.9-1.8-1.2-2.8c-1.2-3.7-1.6-7.6-1.6-11.6
			c0.1,0,0.1,0,0.3,0c0.6,0,1.7-0.3,2.2-0.6c0.8-0.4,1.9-1.2,2.7-1.6c1.9-0.8,3.9-1.7,5.4-3.1c1.5-1.4,2.6-3.5,2.4-5.5
			c0-0.4-0.1-0.8-0.4-1c-0.3-0.3-0.8-0.4-1.3-0.3c-1.4,0.1-2.6,0.7-3.8,1.4c-3,1.8-5,5.2-6.6,8.3c-0.2,0.4-0.6,0.8-0.9,1.3
			c0-1.2,0.1-2.3,0.2-3.5c0.2-3.6,0.5-7.3,0.7-10.9c0,0,0,0,0,0c0.6,0,1.7-0.3,2.2-0.6c0.8-0.4,1.9-1.2,2.7-1.6
			c1.9-0.8,3.9-1.7,5.4-3.1c1.5-1.4,2.6-3.5,2.4-5.5c0-0.4-0.1-0.8-0.4-1c-0.3-0.3-0.8-0.4-1.3-0.3c-1.4,0.1-2.6,0.7-3.8,1.4
			c-3,1.8-5,5.2-6.6,8.3c-0.1,0.3-0.4,0.6-0.7,1c0-1.4,0-2.9,0-4.3l-0.2-2.1l-0.1-1.1l-0.2-1c-0.1-0.7-0.3-1.4-0.4-2.1l-0.6-2
			c-0.1-0.4-0.2-0.8-0.4-1.2c0.6-0.5,1.6-1.5,2-1.8c0.6-0.6,1.3-1.2,1.9-1.8c1.5-1.4,3.1-2.9,4-4.7c1-1.8,1.3-4.1,0.4-6
			c-0.2-0.3-0.4-0.7-0.7-0.8c-0.4-0.2-0.9-0.1-1.3,0.1c-1.3,0.5-2.3,1.5-3.1,2.6c-2.2,2.7-3.1,5.9-3.6,9.4c0,0.3-0.2,0.8-0.4,1.4
			c-0.2-0.4-0.3-0.7-0.5-1c-0.7-1.2-1.5-2.4-2.5-3.5c-1.7-2-3.7-3.6-5.8-5.1c0.2-0.6,0.3-1.7,0.4-2.1c0.3-0.9,0.6-1.7,0.9-2.5
			c0.7-2,1.4-4,1.4-6.1c0-2.1-0.7-4.3-2.4-5.5c-0.3-0.2-0.7-0.4-1-0.4c-0.5,0-0.8,0.4-1.1,0.7c-0.9,1.1-1.3,2.4-1.6,3.8
			c-0.7,3.4-0.4,7.1,0.9,10.4c0,0.1,0.1,0.2,0.1,0.2c-1.9-1-3.8-1.9-5.8-2.7c-1.8-0.7-3.6-1.4-5.4-2c0.1-0.6,0.2-1.2,0.3-1.5
			c0.3-0.9,0.6-1.7,0.9-2.5c0.7-2,1.4-4,1.4-6.1c0-2.1-0.7-4.3-2.4-5.5c-0.3-0.2-0.7-0.4-1-0.4c-0.5,0-0.8,0.4-1.1,0.7
			c-0.9,1.1-1.3,2.4-1.6,3.8c-0.7,3.4-0.4,7.1,0.9,10.4c0,0.1,0.1,0.1,0.1,0.2c-2.5-0.9-5.1-1.7-7.6-2.6c-1.5-0.6-3-1.2-4.4-1.8
			c0.2-0.5,0.4-1,0.6-1.2c0.5-0.8,1-1.5,1.5-2.2c1.2-1.7,2.3-3.5,2.9-5.5c0.5-2,0.4-4.3-0.9-6c-0.2-0.3-0.5-0.6-0.9-0.7
			c-0.4-0.1-0.9,0.1-1.3,0.4c-1.1,0.8-1.9,2-2.5,3.2c-1.5,3.2-2.2,6.7-1.8,10.2c0,0.1,0,0.3,0.1,0.6c-2.6-1.4-5-3-7.1-5
			c-1.1-1.1-2.1-2.3-3-3.7c0.5-0.3,1.1-1,1.4-1.2c0.6-0.4,1.3-0.8,1.9-1.2c1.5-1,3-2,4.1-3.4c1.1-1.4,1.8-3.3,1.3-5
			c-0.1-0.3-0.2-0.6-0.5-0.8c-0.3-0.2-0.8-0.2-1.1-0.1c-1.1,0.3-2.2,0.9-3,1.7c-2.3,1.9-4,4.6-4.9,7.4c-0.1,0.2-0.2,0.6-0.3,1
			c-0.2-0.4-0.4-0.7-0.6-1.1c-1.2-2.4-2-5-2.6-7.7c-0.1-0.3-0.1-0.6-0.2-0.9c0.3-0.3,0.7-0.7,1-0.8c0.5-0.3,1-0.6,1.5-0.9
			c1.2-0.7,2.3-1.5,3.2-2.6c0.8-1.1,1.3-2.5,1-3.8c-0.1-0.2-0.2-0.5-0.4-0.6c-0.2-0.2-0.6-0.1-0.9-0.1c-0.9,0.2-1.6,0.7-2.3,1.3
			c-1.6,1.3-2.8,3.1-3.5,5c-0.7-4.3-0.9-8.6-1.1-13l-0.3,0c-0.2,2.8-0.2,5.6-0.2,8.4c0,1.9,0.1,3.8,0.3,5.7c-0.1,0-0.1,0-0.2-0.1
			c-0.5-0.2-1-0.5-1.6-0.8c-1.2-0.6-2.5-1.2-3.8-1.4c-1.3-0.2-2.8,0.1-3.8,1.1c-0.2,0.2-0.3,0.4-0.3,0.6c0,0.3,0.2,0.6,0.4,0.8
			c0.6,0.6,1.5,1,2.3,1.3c2.2,0.7,4.5,0.8,6.8,0.3c0.1,0,0.3-0.1,0.5-0.1c0,0.3,0.1,0.6,0.1,0.9c0.5,2.8,1.2,5.6,2.4,8.2
			c0.2,0.3,0.3,0.7,0.5,1c-0.2,0-0.4-0.1-0.6-0.1c-0.7-0.2-1.4-0.5-2.1-0.8c-1.7-0.6-3.4-1.2-5.2-1.3c-1.8,0-3.7,0.6-4.8,2
			c-0.2,0.3-0.4,0.6-0.4,0.9c0,0.4,0.3,0.7,0.6,1c0.9,0.8,2,1.2,3.2,1.4c2.9,0.7,6.1,0.5,8.9-0.5c0.3-0.1,0.9-0.3,1.4-0.6
			c0.9,1.5,2,3,3.3,4.3c1.6,1.7,3.4,3.1,5.3,4.3c-0.1,0-0.2-0.1-0.4-0.1c-1.7-0.4-3.5-0.8-5.3-0.6c-1.8,0.2-3.6,1-4.5,2.6
			c-0.2,0.3-0.3,0.6-0.3,0.9c0.1,0.4,0.4,0.7,0.7,0.9c1,0.6,2.2,0.9,3.3,1c3,0.3,6.1-0.3,8.8-1.7c0.3-0.2,1-0.5,1.4-0.8
			c1.8,0.9,3.6,1.7,5.4,2.4c1.7,0.7,3.5,1.3,5.2,1.9c-1.7,0.2-3.5,0.4-5.1,1.2c-1.6,0.8-3,2.2-3.3,3.9c-0.1,0.3-0.1,0.7,0.1,1
			c0.2,0.3,0.6,0.5,1,0.6c1.1,0.3,2.3,0.1,3.5-0.2c2.9-0.8,5.6-2.4,7.7-4.5c0.1-0.1,0.3-0.3,0.5-0.5c2.1,0.7,4.2,1.4,6.3,2.2
			c2,0.7,3.9,1.5,5.8,2.4c0,0,0,0,0,0c-0.8,0.1-1.5,0.2-2.3,0.3c-1.8,0.2-3.6,0.4-5.2,1.2c-1.6,0.8-3,2.2-3.3,3.9
			c-0.1,0.3-0.1,0.7,0.1,1c0.2,0.3,0.6,0.5,1,0.6c1.1,0.3,2.3,0.1,3.5-0.2c2.9-0.8,5.6-2.4,7.7-4.5c0.2-0.2,0.6-0.6,0.9-1
			c2.1,1.2,4.1,2.7,5.8,4.5c0.9,1,1.7,2,2.5,3.2c0.3,0.5,0.6,1,0.8,1.5c-0.5,0-1.1,0-1.4,0c-0.8-0.1-1.5-0.2-2.3-0.4
			c-1.8-0.3-3.6-0.6-5.3-0.3c-1.8,0.3-3.5,1.3-4.3,2.8c-0.1,0.3-0.3,0.6-0.2,0.9c0.1,0.4,0.4,0.6,0.8,0.8c1,0.6,2.2,0.7,3.4,0.8
			c3,0.1,6-0.7,8.6-2.2c0.3-0.2,1-0.6,1.4-1c0.1,0.2,0.2,0.4,0.2,0.6l0.7,1.9c0.2,0.7,0.3,1.3,0.5,2l0.2,1l0.1,1l0.2,2
			c0.1,1.6,0.1,3.2,0.1,4.8c-0.5-0.3-1.4-0.5-1.7-0.7c-0.7-0.3-1.3-0.7-2-1.1c-1.6-0.9-3.2-1.7-4.9-2c-1.8-0.3-3.7,0-5,1.2
			c-0.2,0.2-0.5,0.5-0.5,0.8c0,0.4,0.2,0.8,0.4,1c0.8,0.9,1.8,1.4,2.9,1.9c2.8,1.1,5.9,1.3,8.9,0.8c0.4-0.1,1.3-0.3,1.9-0.6
			c-0.2,3.4-0.5,6.9-0.8,10.4c-0.1,1.1-0.2,2.1-0.2,3.2c-0.5-0.3-1.1-0.5-1.4-0.7c-0.6-0.4-1.2-0.9-1.8-1.3
			c-1.4-1.1-2.9-2.1-4.6-2.7c-1.7-0.5-3.7-0.5-5.1,0.6c-0.3,0.2-0.5,0.4-0.6,0.8c-0.1,0.4,0.1,0.8,0.3,1.1c0.7,1,1.6,1.7,2.7,2.2
			c2.6,1.4,5.7,2.1,8.7,1.9c0.4,0,1.2-0.1,1.8-0.3c-0.1,1.2-0.1,2.4-0.1,3.6c0.1,2.8,0.3,5.7,1.2,8.4c0.1,0.5,0.3,1,0.5,1.6
			c-0.1-0.1-0.2-0.1-0.3-0.2c-0.6-0.5-1.2-1-1.8-1.4c-1.4-1.1-2.8-2.3-4.5-2.9c-1.7-0.6-3.7-0.7-5.2,0.3c-0.3,0.2-0.5,0.4-0.6,0.7
			c-0.1,0.4,0,0.8,0.2,1.1c0.6,1,1.6,1.8,2.6,2.4c2.6,1.6,5.6,2.4,8.6,2.4c0.4,0,1.2,0,1.8-0.2c0,0.1,0.1,0.2,0.1,0.3
			c0.7,1.3,1.4,2.6,2.3,3.7c1.7,2.3,3.9,4.3,6.3,5.9c0.7,0.4,1.3,0.9,2,1.2c-1.6-0.2-3.3-0.3-4.9,0.1c-1.7,0.4-3.4,1.4-4.2,3.1
			c-0.1,0.3-0.2,0.6-0.1,0.9c0.1,0.4,0.5,0.6,0.8,0.8c1.1,0.5,2.3,0.6,3.4,0.6c3-0.1,6-1,8.5-2.7c0.2-0.1,0.5-0.3,0.8-0.6
			c3,1.3,6.1,2.3,9.2,3.2c3.4,0.9,6.8,1.7,10.1,2.6c-0.4,0.1-0.8,0.1-1.3,0.2c-1.8,0.3-3.6,0.6-5.1,1.4c-1.6,0.8-2.9,2.3-3.2,4
			c0,0.3-0.1,0.7,0.1,1c0.2,0.3,0.6,0.5,1,0.6c1.1,0.2,2.3,0,3.5-0.3c2.9-0.9,5.5-2.5,7.5-4.8c0.2-0.3,0.6-0.7,0.9-1.2
			c0.9,0.2,1.8,0.5,2.6,0.7c2.6,0.7,5.2,1.7,7.8,2.5c1.4,0.6,2.7,1.1,4.1,1.7c-0.3,0-0.5,0.1-0.8,0.1c-1.8,0.1-3.6,0.3-5.2,1.1
			c-1.6,0.7-3.1,2.1-3.5,3.8c-0.1,0.3-0.1,0.7,0.1,1c0.2,0.3,0.6,0.5,1,0.6c1.1,0.3,2.3,0.2,3.5-0.1c2.9-0.7,5.7-2.2,7.8-4.3
			c0.1-0.1,0.4-0.4,0.6-0.6c0,0,0,0,0.1,0c4,1.9,7.8,4,11.5,6.4c-0.7,0-1.4,0.1-2.1,0.1c-1.8,0-3.6,0.1-5.3,0.7
			c-1.7,0.6-3.2,1.9-3.7,3.6c-0.1,0.3-0.1,0.7,0,1c0.2,0.4,0.5,0.6,0.9,0.7c1.1,0.4,2.3,0.3,3.5,0.1c3-0.5,5.8-1.8,8-3.8
			c0.2-0.2,0.6-0.5,0.9-0.9c0.1,0.1,0.3,0.2,0.4,0.3c4.5,3.1,8.8,6.6,12.5,10.6c0.2,0.2,0.4,0.4,0.6,0.6c-0.3,0-0.6,0.1-0.8,0.1
			c-0.8,0-1.5,0-2.3-0.1c-1.8-0.1-3.6-0.1-5.3,0.4c-1.7,0.5-3.3,1.7-3.9,3.4c-0.1,0.3-0.2,0.7-0.1,1c0.1,0.4,0.5,0.6,0.9,0.7
			c1.1,0.4,2.3,0.4,3.5,0.3c3-0.3,5.9-1.5,8.3-3.3c0.3-0.2,0.8-0.6,1.2-1c3,3.4,5.8,6.9,8.2,10.8c1.3,2.4,2.8,4.8,3.9,7.3l0.9,1.9
			l0.7,1.9c0.5,1.3,1,2.6,1.4,3.9l0.3-0.1C624.6,453.6,622.7,448.3,620.1,443.3z"/>
	</g>
	<g>
		<g>
			<g>
				<path class="st4" d="M1053.8,210.7c9-7.5,16.7-17.9,21.7-28.5c2.4-5,4.3-10.2,5.6-15.6c0.8-3,1.3-6.1,1.7-9.2
					c0.3-2.6,0.1-5.6,0.9-8.1c0.1-0.4,0.6-0.2,0.7,0.1c0.7,2.5,0,5.6-0.4,8.2c-0.4,2.9-0.9,5.7-1.6,8.6c-1.5,6-3.6,11.9-6.4,17.5
					c-2.6,5.2-5.6,10.1-9.2,14.6C1063.1,203,1058.8,206.8,1053.8,210.7C1053.9,210.8,1053.8,210.7,1053.8,210.7L1053.8,210.7z"/>
			</g>
			<path class="st4" d="M1062.2,202.9c-0.3-0.2,1.7,0.6,3.5,0c4.1-1.5,4.4-1.9,9-2.8c0.5-0.1,1.7-0.1,2.1,0.2c0.4,0.4,0.4,1,0.2,1.5
				c-0.2,0.5-0.6,0.8-1,1.1c-4.2,2.8-8.8,1.2-13.9,0.4L1062.2,202.9z"/>
			<path class="st4" d="M1068,195.4c-0.4-0.2,1.7,0.6,3.7,0.4c3.1-0.8,4-2.4,8.8-3.7c0.5-0.1,1.8-0.3,2.3,0.1
				c0.5,0.4,0.7,1.1,0.6,1.7c-0.1,0.6-0.5,1-0.9,1.3c-3.9,3.5-12,2.1-14.6,0.8L1068,195.4z"/>
			<path class="st4" d="M1072.2,188.8c-0.5-0.1,1.6,0.7,3.4-0.6c4.2-3.1,4-3.6,9.1-6.1c0.6-0.3,1.9-0.7,2.5-0.4
				c0.6,0.3,0.8,1,0.8,1.7c-0.1,0.6-0.4,1.1-0.8,1.6c-3.9,4.6-10.2,4.8-15.1,4.5L1072.2,188.8z"/>
			<path class="st4" d="M1076.4,181.1c-0.5-0.1,2.7-1.2,4.4-2.8c4.9-4.2,4-5.3,8.8-8.6c0.5-0.4,1.8-1,2.4-0.8c0.6,0.2,1,0.9,1,1.5
				c0,0.6-0.3,1.2-0.6,1.7C1089,177.4,1082.4,179.4,1076.4,181.1L1076.4,181.1z"/>
			<path class="st4" d="M1080.5,169.7c-0.4-0.1,2.3-0.3,3.7-1.8c3.7-2.7,3.4-4.8,7.4-7.9c0.4-0.3,1.6-0.9,2.1-0.7
				c0.6,0.2,0.9,0.9,1,1.5c0,0.6-0.2,1.2-0.5,1.7C1091.6,167.4,1083.1,170.6,1080.5,169.7L1080.5,169.7z"/>
			<path class="st4" d="M1083,160.9c-0.4-0.1,1.2-0.9,2.2-2.2c2.3-3,2.8-4.3,6-6.9c0.3-0.3,1.3-0.8,1.8-0.6c0.6,0.2,1.1,0.8,1.2,1.3
				c0.2,0.5,0,1-0.1,1.4C1092.6,158,1087.6,159.6,1083,160.9L1083,160.9z"/>
			<path class="st4" d="M1083.6,154.1c-0.4,0.1,1.1-0.9,1.6-2.4c1.7-3.1,0.7-4.5,2.5-7.6c0.2-0.3,0.8-1.1,1.3-1.1
				c0.5-0.1,1.1,0.2,1.3,0.6c0.3,0.3,0.3,0.7,0.3,1.1C1090.6,148.4,1087,151.4,1083.6,154.1L1083.6,154.1z"/>
			<path class="st4" d="M1060.3,204.7c0.3,0.2-1.3-1.2-1.5-2.8c-0.3-3.8-0.1-4.2-1.2-8.2c-0.1-0.4-0.6-1.4-1.1-1.6
				c-0.5-0.2-1.1,0-1.5,0.3s-0.5,0.8-0.6,1.2c-0.8,4.3,2.5,7.5,5.4,11.4L1060.3,204.7z"/>
			<path class="st4" d="M1066,198c0.4,0.2-1.4-1.1-2.3-2.9c-0.9-2.9,0-4.4-1.4-9c-0.1-0.5-0.7-1.6-1.3-1.8c-0.6-0.2-1.3,0-1.8,0.3
				c-0.4,0.4-0.6,0.9-0.7,1.4c-1,4.9,4.4,10.9,6.8,12.4L1066,198z"/>
			<path class="st4" d="M1071.1,191.1c0.4,0.2-1.5-0.7-1.7-2.7c-0.2-4.6,0.3-4.7-1-9.6c-0.1-0.5-0.6-1.7-1.2-2
				c-0.6-0.2-1.3,0-1.8,0.3c-0.4,0.4-0.6,0.9-0.7,1.4c-1.1,5.1,2.7,9.7,6.1,12.9L1071.1,191.1z"/>
			<path class="st4" d="M1076.2,182.1c0.4,0.2-1.7-2.1-2.2-4c-1.9-5.2-0.6-5.7-2.8-10.2c-0.2-0.5-1-1.5-1.6-1.6
				c-0.6-0.1-1.3,0.2-1.6,0.7c-0.3,0.5-0.4,1-0.4,1.6C1067.6,173.9,1072,178.2,1076.2,182.1L1076.2,182.1z"/>
			<path class="st4" d="M1079.8,172.9c0.4,0.1-1.8-1.3-2.2-3c-1.8-3.7-0.4-5.2-2.3-9.3c-0.2-0.5-0.9-1.4-1.5-1.5
				c-0.6-0.1-1.3,0.3-1.6,0.8c-0.3,0.5-0.4,1-0.4,1.5C1071.5,166.3,1077.1,172.5,1079.8,172.9L1079.8,172.9z"/>
			<path class="st4" d="M1082.5,163.2c0.4,0.1-0.7-1.3-1.1-2.9c-0.9-3.7-0.9-5.1-2.7-8.7c-0.2-0.4-0.8-1.2-1.4-1.3
				c-0.6-0.1-1.3,0.3-1.6,0.7c-0.3,0.4-0.4,0.9-0.5,1.3C1074.8,156.7,1078.8,160.2,1082.5,163.2L1082.5,163.2z"/>
			<path class="st4" d="M1083.6,154.9c0.3,0.2-1-1-1.2-2.3c-1.1-2.9,0.3-3.8-1-6.8c-0.1-0.3-0.6-1.1-1.1-1.2c-0.5-0.2-1.1,0-1.5,0.2
				c-0.3,0.2-0.5,0.6-0.5,0.9C1077.6,148.8,1080.7,152,1083.6,154.9L1083.6,154.9z"/>
		</g>
		<g>
			<path class="st6" d="M1064.8,223.8c-3.3-5.6,4.1-9.6,10.3-7.3c5.3,1.9,11.5,6.2,14.8,3c1.1-4.9-2.3-10.1-4.6-15.2
				c-2.4-5.1-2.5-11.7,3.8-13.3c7-1.6,13.9,3.6,20.2,6.7c2.9,1.4,7,2.4,9.6,0.7c5.3-3.2-2.6-11.8,4.6-13.1c3.2,0.1,6.1,1.5,7.2,3.4
				c1.2,2.2,1.5,5.9,5.1,5.4c4.2-0.5,2.1-5.2,5.5-7c2.1-1.1,5.6-0.5,7.1,0.8c1.4,1.3,1.4,3,1.4,4.6c4.9-0.4,3.7-4.2,12.5-4.5
				c5.7-0.2,4.8,5.5-0.4,7c-4.3,1.2-11,0.9-11.6,3.6c-0.4,1.9,3.3,2.8,2.8,4.7c-0.6,2.4-6,2.8-9.2,2.2c-3.2-0.6-8.6-0.5-9.1,2.1
				c5,1.3,10.2,2.7,12.1,5.9c1.7,3.1-1.6,8.8-6.6,9.9c-3.5,0.9-6.2-0.9-8.8-2.3c-2.7-1.4-7-2.3-9.7,0c1.8,3.3,2.9,8.1-0.8,10.8
				c-5,4-12.6-2.9-17.3,1.2c2.3,2.6,4.5,5.3,5.2,8.6c0.7,3.3-0.2,7.5-2.8,9.5c-5,4.1-14.1-4.1-17.3,2.1c-1.2,2.6,0,6.5-0.9,9.3
				c-1,4-5.4,3.8-9,1.7c-5.7-3.3-15.8-13.5-14.8-21.1c0.7-3.9,6.4-4.1,7.1-8C1072.4,230.2,1067.4,228.3,1064.8,223.8z"/>
			<g>
				<g>
					<path class="st7" d="M1137.5,198c-8.1,1.4-15.2,5.4-21.4,9c-7,4.4-13.3,9.1-19.2,14c-5.5,5.2-10.4,10.8-14.6,16.6
						c-3.8,6-8,12.3-9.5,19.6c-0.1,0.3,0.4,0.8,0.5,0.5c3.2-5.2,5.5-12,8.8-17.5c4-5.7,8.5-11.1,13.6-16.2c5.6-5,11.6-9.7,18.3-14.3
						C1121.2,205.1,1128.9,201.5,1137.5,198C1137.6,198.1,1137.6,198,1137.5,198L1137.5,198z"/>
				</g>
				<g>
					<path class="st7" d="M1103.2,214.2c1.4-4.6,0.2-10.1-2.3-14.5c-0.3-0.5-1.3-0.3-1,0.2c2.5,4.9,2.9,9.2,3,14.3
						C1102.9,214.4,1103.2,214.4,1103.2,214.2L1103.2,214.2z"/>
				</g>
				<g>
					<path class="st7" d="M1124.9,200.7c0,0-0.1,0-0.1,0c-0.1,0-0.1,0.1-0.1,0.1c0,0,0,0.1,0,0.1c0,0.1,0.1,0.1,0.2,0.1
						c1.3-0.2,1.5-2.3,1.7-2.9c0.4-1.4,0.9-3.2,0.1-4.5c-0.1-0.1-0.5-0.1-0.5,0c-0.4,1.2-0.2,2.4-0.4,3.6
						C1125.7,198.3,1125.3,199.6,1124.9,200.7C1125,200.7,1125,200.7,1124.9,200.7L1124.9,200.7z"/>
				</g>
				<g>
					<path class="st7" d="M1116.3,209.5c2.8,0.2,5.5,0.6,7.8,1.7c1.2,0.5,2.4,1.9,3.8,2c0.2,0,0.3-0.1,0.3-0.2
						c-0.2-1.2-2.5-2-3.8-2.5c-2.4-0.9-5.2-1.3-8-1.5C1116,208.8,1115.9,209.4,1116.3,209.5L1116.3,209.5z"/>
				</g>
				<g>
					<path class="st7" d="M1087.9,236.8c4.4,0,7.8,1.1,11.2,4c0.3,0.3,0.8-0.2,0.5-0.6c-2.8-3.1-7.8-4.9-11.8-3.9
						C1087.5,236.5,1087.6,236.8,1087.9,236.8L1087.9,236.8z"/>
				</g>
				<g>
					<path class="st7" d="M1081.2,237.6c-0.4-4.2-2.4-10-6.6-12.9c-0.4-0.3-0.9,0.2-0.5,0.6c4,3.8,4.9,7.7,6.8,12.3
						C1080.9,237.8,1081.2,237.8,1081.2,237.6L1081.2,237.6z"/>
				</g>
				<g>
					<path class="st7" d="M1098.6,222.8c5.6-0.5,11.5-1.6,15.7,2c0.4,0.3,1-0.3,0.6-0.6c-4.1-3.4-11-3.1-16.3-1.6
						C1098.5,222.7,1098.6,222.8,1098.6,222.8L1098.6,222.8z"/>
				</g>
			</g>
		</g>
		<g>
			<path class="st8" d="M1047.9,269.2c11.7-0.7,17.7,15.5,29.1,2.2c1.8-2,3-4.5,3.7-7.2c2.5-9.1,14.5-17,24-10.6
				c4.9,3.3,8.1,9.7,13.7,10.3c2,0.2,3.9-0.4,5.8-1c7.8-2.5,16.4-4.8,25.1-2.9c9.5,2.1,17.5,9.1,18.7,16.6
				c1.1,7.3-4.1,14.9-12.2,18.5c-6.9,3.3-15.3,3.7-21.1,8.2c-6,4.9-8,13.4-14.5,17.6c-11.1,7.9-26.4-5-36.4,4
				c-3.6,3.6-5.1,9.6-8.5,13.5c-3.7,4.6-9.1,5.5-13.9,4.4c-4.8-1.1-9.3-4.1-14-6.3c-5.8-2.7-11.1-7.1-16.7-9.2
				c-3.3-1.3-5.8-6.2-5.4-11C1028.2,286.5,1031.9,270.6,1047.9,269.2z"/>
			<g>
				<path class="st9" d="M1146.1,281.5c-6.6-0.6-13.2-0.7-19.6-0.4c3-2.7,6.2-6.3,6.7-10.2c0-0.2-0.3-0.4-0.5-0.2
					c-1.1,1.6-1.6,3.5-2.7,5.1c-1.2,1.9-2.6,3.6-4.1,5.2c0,0,0,0,0,0.1c-2.8,0.1-5.6,0.3-8.4,0.6c-10.1,1.4-19.8,4-28,6.5
					c-1.8,0.6-3.5,1.3-5.2,1.9c2.3-2.7,4.5-5.6,6.5-8.6c1.5-0.6,2.8-1.5,4.2-2.1c1.9-0.9,3.9-1.8,5.9-2.7c0.5-0.2-0.1-1-0.6-0.8
					c-2,0.9-3.9,1.9-5.8,2.9c-0.9,0.5-2,1-3,1.6c2.2-3.4,4-7,5.3-10.9c0.2-0.5-0.7-1-0.9-0.5c-3.7,7.2-7.2,14.2-12.3,20.7
					c-0.1,0.2,0,0.4,0.2,0.5c-12.7,4.9-23.9,10-33.8,15.6c1-3.8,1.9-7.7,2.6-11.6c1-1.2,1.8-2.6,2.8-3.8c1.3-1.7,2.6-3.4,4-5.1
					c0.3-0.4-0.5-1.1-0.8-0.7c-1.3,1.7-2.6,3.5-3.8,5.3c-0.6,1-1.3,1.9-2,3c0.6-4.5,0.9-9,0.7-13.7c0-0.6-0.9-0.8-0.9-0.2
					c-0.5,9.2-1.1,18-3.2,26.7c0,0.2,0.1,0.4,0.2,0.4c-1.7,0.9-3.3,1.9-4.9,2.8c0,0-0.1-0.1-0.1-0.1c-0.3-0.3-0.6,0-0.4,0.4
					c0,0,0,0,0,0c-6.5,3.9-12.4,8-17.9,12.4c-7.7,7.4-14.8,15.8-21,25.1c-0.2,0.3-0.1,0.8,0.2,1.1c0.1,0.1,0.2,0.1,0.3,0.1
					c0.3,0.1,0.6-0.1,0.8-0.3c6.1-9.2,13.1-17.5,20.7-24.8c5.4-4.3,11.3-8.4,17.7-12.3c5.8,8.3,15,12.7,22.4,17.2
					c0.1,0.1,0.3-0.2,0.1-0.3c-3.7-2.5-7.6-5-11.4-7.6c-3.9-2.7-7.1-6-10.5-9.7c8.7-5.2,18.3-10,29.2-14.6c0.6,0.8,1.3,1.3,2.3,2.2
					c2.8,2.4,5.6,4.7,8.4,7c3.9,3.2,7.8,7.8,12.7,9c0.3,0.1,0.4-0.3,0.1-0.5c-4.6-2-8.4-5.8-12.4-9c-3.3-2.7-7.7-5.5-10.7-8.9
					c4.6-1.9,9.5-3.9,14.6-5.7c5.6-1.7,12-3.5,18.7-4.9c4.5,1.6,8.8,3.3,12.3,6.4c3.5,3.1,5.8,7,8.9,10.2c0,0,0.1,0,0.1,0
					c-2.5-3.9-5.6-8.5-9.7-11.7c-2.9-2.3-6.5-3.8-10.1-5.1c2.5-0.5,5-0.9,7.6-1.3c9.1-1,18.6-1.1,28.2-0.2c0.4,0,0.8-0.3,0.8-0.7
					C1146.8,281.9,1146.5,281.5,1146.1,281.5z"/>
				<path class="st9" d="M1127.7,272.8c0.5,1.2,0.7,2.5,1.6,3.6c0.1,0.1,0.2,0.1,0.2,0c0-1.2-0.7-2.5-1.1-3.6
					c-0.5-1.4-0.9-2.8-1.5-4.1c-0.2-0.4-0.9-0.3-0.8,0.1C1126.6,270,1127.2,271.4,1127.7,272.8z"/>
				<path class="st9" d="M1121.8,290.2c-0.2,0-0.1,0.2,0,0.3c2.3,0.7,4.7,0.8,7,1.4c2.7,0.7,5.2,1.6,7.7,2.6c0.1,0,0.1,0,0.1-0.1
					C1132.5,292.2,1126.5,289.8,1121.8,290.2z"/>
				<path class="st9" d="M1085.7,302.9c-0.3,0-0.2,0.4,0,0.4c6.4,0.6,12.5,2.6,18.8,3.5c0.2,0,0.3-0.2,0.1-0.3
					C1098.9,304,1091.7,303.3,1085.7,302.9z"/>
				<path class="st9" d="M1059.8,323.5C1059.8,323.4,1059.7,323.4,1059.8,323.5c0.1,2.2,1.1,4.5,1.9,6.5c0.8,1.9,1.6,4.4,3.1,5.6
					c0.1,0.1,0.2,0,0.2-0.1c-0.5-1.9-1.8-3.6-2.6-5.4C1061.4,327.9,1060.9,325.5,1059.8,323.5z"/>
			</g>
		</g>
		<path class="st4" d="M1150.2,332c-0.9-1.2-2.6-1.8-4.1-1.8c-1.6,0-3.1,0.5-4.5,1c-0.6,0.2-1.2,0.4-1.9,0.6c-0.1,0-0.3,0.1-0.5,0.1
			c0.2-0.3,0.3-0.6,0.5-0.9c1.1-2.3,1.8-4.7,2.3-7.1c0.1-0.3,0.1-0.5,0.1-0.8c0.2,0,0.3,0.1,0.4,0.1c1.9,0.5,4,0.5,5.9-0.1
			c0.7-0.2,1.5-0.5,2-1.1c0.2-0.2,0.4-0.4,0.3-0.7c0-0.2-0.1-0.4-0.3-0.6c-0.8-0.9-2.1-1.2-3.3-1.1c-1.2,0.1-2.3,0.6-3.4,1.1
			c-0.5,0.2-0.9,0.4-1.4,0.6c0,0-0.1,0-0.2,0.1c0.2-1.6,0.3-3.3,0.4-4.9c0.1-2.4,0.1-4.9,0-7.3l-0.3,0c-0.3,3.8-0.6,7.6-1.2,11.3
			c-0.6-1.7-1.6-3.2-2.9-4.4c-0.6-0.5-1.2-1-2-1.2c-0.3-0.1-0.5-0.1-0.8,0.1c-0.2,0.1-0.3,0.3-0.3,0.5c-0.3,1.1,0.1,2.4,0.8,3.3
			c0.7,0.9,1.7,1.6,2.7,2.3c0.4,0.3,0.8,0.6,1.3,0.9c0.2,0.1,0.5,0.5,0.8,0.7c-0.1,0.3-0.1,0.5-0.2,0.8c-0.6,2.3-1.3,4.5-2.5,6.6
			c-0.2,0.3-0.4,0.6-0.5,0.9c-0.1-0.3-0.2-0.6-0.2-0.8c-0.7-2.5-2.2-4.8-4.1-6.6c-0.8-0.7-1.6-1.3-2.6-1.5c-0.3-0.1-0.7-0.1-1,0.1
			c-0.2,0.2-0.4,0.4-0.4,0.7c-0.4,1.5,0.1,3.1,1,4.4c0.9,1.2,2.2,2.1,3.5,3c0.6,0.4,1.1,0.7,1.6,1.1c0.3,0.2,0.8,0.8,1.2,1.1
			c-0.8,1.1-1.7,2.2-2.7,3.1c-1.8,1.7-4,3.1-6.3,4.2c0-0.2,0.1-0.4,0.1-0.5c0.4-3-0.1-6.2-1.4-8.9c-0.5-1.1-1.1-2.1-2.1-2.9
			c-0.3-0.2-0.7-0.5-1.1-0.4c-0.3,0.1-0.6,0.3-0.8,0.6c-1.2,1.4-1.4,3.4-0.9,5.2c0.4,1.8,1.4,3.3,2.4,4.9c0.4,0.7,0.8,1.3,1.2,2
			c0.1,0.2,0.3,0.7,0.5,1.1c-1.3,0.5-2.6,1-3.9,1.5c-2.2,0.8-4.4,1.4-6.6,2.1c0-0.1,0.1-0.1,0.1-0.2c1.1-2.8,1.5-6,1-9
			c-0.2-1.2-0.6-2.4-1.3-3.3c-0.2-0.3-0.6-0.6-1-0.7c-0.3,0-0.6,0.1-0.9,0.3c-1.5,1-2.2,2.9-2.2,4.8s0.5,3.6,1.1,5.3
			c0.2,0.7,0.5,1.5,0.7,2.2c0.1,0.3,0.1,0.8,0.2,1.3c-1.6,0.5-3.2,1-4.8,1.6c-1.7,0.7-3.4,1.4-5.1,2.3c0-0.1,0.1-0.1,0.1-0.2
			c1.1-2.8,1.5-6,1-9c-0.2-1.2-0.6-2.4-1.3-3.3c-0.2-0.3-0.6-0.6-1-0.7c-0.3,0-0.6,0.1-0.9,0.3c-1.5,1-2.2,2.9-2.2,4.8
			c0,1.8,0.5,3.6,1.1,5.3c0.2,0.7,0.5,1.5,0.7,2.2c0.1,0.4,0.2,1.3,0.3,1.8c-1.9,1.2-3.7,2.6-5.2,4.3c-0.9,0.9-1.6,2-2.2,3
			c-0.2,0.3-0.3,0.6-0.5,0.9c-0.1-0.5-0.3-1-0.3-1.2c-0.3-3-1-5.9-2.9-8.3c-0.7-0.9-1.6-1.8-2.7-2.3c-0.4-0.2-0.8-0.3-1.1-0.1
			c-0.3,0.1-0.5,0.4-0.7,0.7c-0.8,1.6-0.6,3.6,0.2,5.2c0.8,1.6,2.1,2.9,3.4,4.2c0.6,0.5,1.1,1.1,1.7,1.6c0.3,0.3,1.1,1.2,1.7,1.6
			c-0.1,0.3-0.3,0.7-0.4,1l-0.6,1.8c-0.2,0.6-0.3,1.2-0.4,1.8l-0.2,0.9l-0.1,0.9l-0.2,1.8c-0.1,1.2-0.1,2.5-0.1,3.7
			c-0.2-0.3-0.5-0.6-0.6-0.9c-1.3-2.8-3-5.7-5.5-7.4c-1-0.6-2.1-1.2-3.3-1.3c-0.4,0-0.8,0-1.1,0.3c-0.2,0.2-0.3,0.6-0.4,0.9
			c-0.2,1.8,0.7,3.6,2,4.9c1.3,1.3,3,2.1,4.6,2.8c0.7,0.3,1.7,1.1,2.3,1.4c0.5,0.2,1.4,0.5,1.9,0.6c0,0,0,0,0,0
			c0,3.2,0.2,6.4,0.4,9.5c0,1,0.1,2,0.1,3c-0.3-0.4-0.6-0.8-0.8-1.1c-1.3-2.8-3-5.7-5.5-7.4c-1-0.6-2.1-1.2-3.3-1.3
			c-0.4,0-0.8,0-1.1,0.3c-0.2,0.2-0.3,0.6-0.4,0.9c-0.2,1.8,0.7,3.6,2,4.9c1.3,1.3,3,2.1,4.6,2.8c0.7,0.3,1.7,1.1,2.3,1.4
			c0.5,0.2,1.4,0.5,1.9,0.6c0.1,0,0.1,0,0.2,0c-0.1,3.5-0.4,6.9-1.6,10.1c-0.2,0.8-0.7,1.6-1.1,2.4c-0.2-0.4-0.5-0.8-0.6-1.1
			c-1-2.9-2.3-6-4.7-7.9c-0.9-0.7-2-1.4-3.1-1.6c-0.4-0.1-0.8-0.1-1.1,0.1c-0.3,0.2-0.4,0.5-0.5,0.8c-0.4,1.8,0.3,3.7,1.4,5
			c1.2,1.4,2.7,2.4,4.3,3.3c0.7,0.4,1.5,1.3,2.2,1.7c0.4,0.3,1.1,0.6,1.6,0.7c-0.6,0.9-1.1,1.8-1.9,2.6c-1.5,1.7-3.3,3.2-5.3,4.4
			c-2.4,1.4-4.9,2.4-7.5,3.3c0-0.3,0-0.6,0-0.8c0.4-3,0.7-6.4-0.5-9.2c-0.5-1.1-1.1-2.2-2-2.9c-0.3-0.2-0.7-0.5-1.1-0.4
			c-0.3,0.1-0.6,0.3-0.8,0.5c-1.2,1.4-1.4,3.4-1,5.1c0.4,1.8,1.3,3.4,2.3,4.9c0.4,0.7,0.8,1.8,1.2,2.5c0.1,0.2,0.3,0.4,0.5,0.7
			c-1.4,0.4-2.8,0.8-4.2,1.1c-3.4,0.8-6.9,1.4-10.4,2.2c0,0,0,0,0-0.1c2-2.3,4.1-5,4.5-8c0.2-1.2,0.2-2.4-0.1-3.5
			c-0.1-0.4-0.3-0.8-0.7-0.9c-0.3-0.1-0.7-0.1-1,0c-1.7,0.5-3,2.1-3.6,3.8c-0.6,1.7-0.7,3.6-0.7,5.4c0,0.8-0.3,2-0.4,2.7
			c0,0.3,0,0.7,0.1,1.1c-0.6,0.1-1.2,0.3-1.8,0.4c-2.4,0.5-4.7,1.3-7.1,2c-2,0.8-4,1.5-5.9,2.3c0.1-0.3,0.1-0.6,0.2-0.8
			c1.3-2.8,2.6-5.9,2.2-9c-0.1-1.2-0.4-2.4-1.1-3.4c-0.2-0.3-0.5-0.6-0.9-0.7c-0.3,0-0.7,0.1-0.9,0.3c-1.5,1-2.4,2.8-2.5,4.6
			c-0.1,1.8,0.3,3.6,0.8,5.4c0.2,0.7,0.2,2,0.4,2.7c0.1,0.4,0.3,1,0.5,1.4c-3.5,1.6-6.8,3.4-10,5.5c1.2-2.7,2.4-5.7,2-8.6
			c-0.1-1.2-0.4-2.4-1.1-3.4c-0.2-0.3-0.5-0.6-0.9-0.7c-0.3,0-0.7,0.1-0.9,0.3c-1.5,1-2.4,2.8-2.5,4.6c-0.1,1.8,0.3,3.6,0.8,5.4
			c0.2,0.7,0.2,2,0.4,2.7c0.1,0.3,0.2,0.6,0.3,1c-4,2.8-7.7,5.9-11.1,9.4c1-2.6,1.8-5.5,1.4-8.2c-0.2-1.2-0.6-2.4-1.3-3.3
			c-0.2-0.3-0.6-0.6-1-0.7c-0.3,0-0.6,0.1-0.9,0.3c-1.5,1-2.2,2.9-2.2,4.8c0,1.8,0.5,3.6,1.1,5.3c0.2,0.7,0.3,2,0.5,2.7
			c0.1,0.3,0.3,0.8,0.5,1.2c-2.8,3.1-5.2,6.5-7.3,10.1c-2.4,4.3-4.2,8.8-5.5,13.5l0.2,0.1c0.4-1.1,0.9-2.2,1.3-3.4l0.7-1.7l0.8-1.6
			c1-2.2,2.3-4.2,3.5-6.3c2.2-3.3,4.7-6.4,7.4-9.2c0.3,0.4,0.8,0.7,1,0.9c2,1.7,4.5,2.7,7.1,3.1c1,0.1,2.1,0.1,3-0.2
			c0.3-0.1,0.6-0.3,0.8-0.6c0.1-0.3,0.1-0.6,0-0.8c-0.5-1.5-1.8-2.5-3.3-3c-1.5-0.5-3.1-0.5-4.6-0.5c-0.7,0-1.3,0-2,0
			c-0.2,0-0.4-0.1-0.7-0.1c0.2-0.2,0.3-0.4,0.5-0.5c3.4-3.4,7.2-6.3,11.1-8.9c0.1-0.1,0.3-0.2,0.4-0.3c0.3,0.3,0.6,0.6,0.8,0.8
			c1.9,1.8,4.3,3,6.9,3.5c1,0.2,2.1,0.3,3,0c0.3-0.1,0.7-0.3,0.8-0.6c0.1-0.3,0.1-0.6,0-0.8c-0.4-1.5-1.7-2.6-3.1-3.2
			c-1.4-0.6-3-0.7-4.6-0.8c-0.6,0-1.2-0.1-1.8-0.1c3.3-2,6.7-3.8,10.2-5.3c0,0,0,0,0.1,0c0.2,0.2,0.4,0.4,0.5,0.5
			c1.8,1.9,4.2,3.3,6.7,3.9c1,0.3,2,0.4,3,0.2c0.3-0.1,0.7-0.2,0.8-0.5c0.1-0.2,0.1-0.6,0.1-0.8c-0.3-1.5-1.5-2.7-2.9-3.4
			c-1.4-0.7-3-0.9-4.5-1c-0.2,0-0.4-0.1-0.7-0.1c1.2-0.5,2.4-0.9,3.6-1.4c2.3-0.7,4.5-1.5,6.8-2c1.4-0.4,2.7-0.7,4.1-1
			c0.2,0.5,0.7,1,0.9,1.3c1.7,2,3.9,3.5,6.4,4.3c1,0.3,2,0.5,3,0.4c0.3-0.1,0.7-0.2,0.9-0.5c0.2-0.2,0.2-0.5,0.1-0.8
			c-0.2-1.5-1.3-2.8-2.7-3.6c-1.4-0.8-2.9-1.1-4.4-1.3c-0.6-0.1-1.2-0.2-1.8-0.3c2.5-0.5,5-1.1,7.6-1.7c1.6-0.4,3.1-0.8,4.7-1.3
			c0.2,0.2,0.4,0.4,0.5,0.5c1.8,1.9,4.1,3.3,6.7,3.9c1,0.3,2,0.4,3,0.2c0.3-0.1,0.7-0.2,0.8-0.5c0.1-0.2,0.1-0.6,0.1-0.8
			c-0.3-1.5-1.5-2.7-2.9-3.4c-1.4-0.7-3-0.9-4.5-1c-0.1,0-0.2,0-0.3,0c2-0.8,3.9-1.7,5.7-2.9c2.1-1.3,4.1-3,5.6-5
			c0.8-1,1.4-2.1,2.1-3.1c0-0.1,0.1-0.1,0.1-0.2c0.5,0.2,1.2,0.2,1.6,0.2c2.6,0.1,5.3-0.6,7.5-1.9c0.9-0.5,1.7-1.1,2.3-2
			c0.2-0.3,0.3-0.6,0.2-1c-0.1-0.3-0.3-0.5-0.5-0.6c-1.3-0.9-3-0.9-4.5-0.4c-1.5,0.5-2.7,1.5-4,2.4c-0.5,0.4-1,0.8-1.6,1.2
			c-0.1,0-0.1,0.1-0.2,0.1c0.2-0.4,0.3-0.9,0.5-1.3c0.8-2.4,1.1-4.9,1.2-7.3c0-1.1,0.1-2.1,0-3.2c0.5,0.2,1.2,0.2,1.6,0.3
			c2.6,0.2,5.3-0.3,7.6-1.5c0.9-0.5,1.8-1,2.4-1.9c0.2-0.3,0.4-0.6,0.3-0.9c-0.1-0.3-0.3-0.5-0.5-0.7c-1.2-0.9-3-1-4.5-0.6
			c-1.5,0.4-2.8,1.3-4.1,2.2c-0.5,0.4-1.1,0.8-1.6,1.1c-0.3,0.2-0.8,0.4-1.2,0.6c0-0.9-0.1-1.8-0.1-2.8c-0.2-3-0.4-6-0.5-9
			c0.5,0.3,1.3,0.4,1.6,0.5c2.6,0.6,5.3,0.4,7.7-0.5c1-0.3,1.9-0.8,2.6-1.6c0.2-0.2,0.4-0.6,0.4-0.9c0-0.3-0.2-0.5-0.4-0.7
			c-1.1-1.1-2.8-1.4-4.3-1.2c-1.5,0.2-3,0.9-4.3,1.7c-0.6,0.3-1.2,0.6-1.8,0.9c-0.3,0.2-1.1,0.3-1.5,0.5c0-1.4,0-2.8,0.2-4.2
			l0.3-1.8l0.1-0.9l0.2-0.9c0.1-0.6,0.3-1.2,0.4-1.7l0.6-1.7c0.1-0.2,0.1-0.3,0.2-0.5c0.4,0.4,0.9,0.7,1.2,0.9
			c2.2,1.4,4.8,2.1,7.5,2.1c1,0,2.1-0.1,3-0.6c0.3-0.2,0.6-0.4,0.7-0.7c0.1-0.3,0-0.6-0.1-0.8c-0.7-1.4-2.2-2.3-3.7-2.6
			s-3.1-0.1-4.6,0.1c-0.7,0.1-1.3,0.2-2,0.3c-0.3,0-0.8,0-1.2,0c0.2-0.4,0.5-0.9,0.7-1.3c0.7-1,1.4-1.9,2.2-2.7
			c1.5-1.5,3.3-2.8,5.1-3.8c0.3,0.4,0.6,0.7,0.8,0.9c1.8,1.9,4.1,3.4,6.6,4.1c1,0.3,2,0.5,3,0.2c0.3-0.1,0.7-0.2,0.9-0.5
			c0.1-0.2,0.1-0.5,0.1-0.8c-0.3-1.5-1.4-2.8-2.8-3.5c-1.4-0.7-2.9-1-4.5-1.2c-0.7-0.1-1.3-0.2-2-0.3c0,0,0,0,0,0
			c1.6-0.8,3.4-1.4,5.1-2c1.8-0.6,3.7-1.2,5.5-1.7c0.2,0.2,0.3,0.4,0.4,0.5c1.8,1.9,4.1,3.4,6.6,4.1c1,0.3,2,0.5,3,0.2
			c0.3-0.1,0.7-0.2,0.9-0.5c0.1-0.2,0.1-0.5,0.1-0.8c-0.3-1.5-1.4-2.8-2.8-3.5c-1.3-0.7-2.9-0.9-4.4-1.2c1.5-0.5,3-1,4.5-1.5
			c1.6-0.6,3.2-1.2,4.8-2c0.4,0.3,0.9,0.6,1.2,0.8c2.3,1.2,5,1.8,7.6,1.6c1-0.1,2.1-0.3,2.9-0.8c0.3-0.2,0.6-0.4,0.6-0.8
			c0.1-0.3-0.1-0.6-0.2-0.8c-0.8-1.4-2.3-2.1-3.8-2.3c-1.5-0.2-3.1,0.1-4.6,0.4c-0.1,0-0.2,0-0.3,0.1c1.7-1,3.3-2.2,4.7-3.6
			c1.1-1.1,2.1-2.3,2.9-3.7c0.4,0.2,0.9,0.4,1.2,0.6c2.4,0.9,5.2,1.2,7.7,0.6c1-0.2,2-0.5,2.8-1.2c0.3-0.2,0.5-0.5,0.5-0.8
			C1150.5,332.5,1150.4,332.2,1150.2,332z"/>
	</g>
	<g>
		<g>
			<g>
				<g>
					<path class="st10" d="M1078.2,560.9c-6.3-17.6-22-55.7-7.7-110.9c24.9,30.8,26.5,75.3,23.9,115.4"/>
					<path class="st11" d="M1070.5,450c0,0,5.4,70.2,15.2,114.5"/>
					<path class="st11" d="M1070.5,450c0,0-5.8,50.1,10.6,113.6"/>
					<path class="st11" d="M1088.6,563.9c0,0-7.3-88-18.1-113.9"/>
					<path class="st11" d="M1091.3,564c0,0,1-82.8-20.8-114"/>
				</g>
				<g>
					<path class="st10" d="M1065.3,569.3c-9.5-12.6-31.9-39.4-27.8-83.5c30.2,20,39.9,53.7,44.7,84.7"/>
					<path class="st11" d="M1037.5,485.8c0,0,10.3,52.7,31.6,83.4"/>
					<path class="st11" d="M1073.2,570.5c0,0-26.8-72.8-35.7-84.7"/>
					<path class="st11" d="M1078.2,570.5c0,0-16-65.5-40.7-84.7"/>
				</g>
				<g>
					<path class="st10" d="M1109.1,560c8.1-18.2,27.8-57.5,14.9-115.9c-29.6,31.2-33.9,77.7-33.3,119.9"/>
					<path class="st11" d="M1124,444.1c0,0-10,73.3-23.5,119.3"/>
					<path class="st11" d="M1124,444.1c0,0,3.6,52.8-18.4,118.6"/>
					<path class="st11" d="M1097.3,562.7c0,0,13.2-91.9,26.7-118.6"/>
					<path class="st11" d="M1094.2,562.7c0,0,3.6-86.8,29.8-118.6"/>
				</g>
				<g>
					<path class="st10" d="M1114.1,582c9.9-14.6,33.1-45.5,34.2-99.6c-29.4,21.9-41.8,62.2-49.6,99.6"/>
					<path class="st11" d="M1148.3,482.4c0,0-15.1,63.4-37.7,99.2"/>
					<path class="st11" d="M1106.9,582.8c0,0,32.2-86.5,41.5-100.4"/>
					<path class="st11" d="M1102.4,582.4c0,0,21.6-78.6,46-99.9"/>
				</g>
				<path id="XMLID_12_" class="st5" d="M1130.9,559.9v16.7c0,36.9-15,60.7-15,60.7h-46.6c0,0-15-23.8-15-60.7v-16.7H1130.9z"/>
			</g>
		</g>
		<g>
			<g>
				<g>
					<path class="st10" d="M522.7,559.5c-5.6-24.8-19.7-78.3-2.7-157c23.7,42.7,23.3,105.8,18.9,162.8"/>
					<path class="st11" d="M520,402.5c0,0,2.2,99.4,10.1,161.8"/>
					<path class="st11" d="M520,402.5c0,0-8.1,71.3,5.6,160.7"/>
					<path class="st11" d="M533.1,563.4c0,0-3.4-124.6-13.1-160.9"/>
					<path class="st11" d="M535.8,563.5c0,0,4.8-117.5-15.8-161"/>
				</g>
				<g>
					<path class="st10" d="M510.8,569c-9.5-15.6-31.9-48.8-27.8-103.5c30.2,24.7,39.9,66.5,44.7,104.9"/>
					<path class="st11" d="M483,465.6c0,0,10.3,65.3,31.6,103.3"/>
					<path class="st11" d="M518.7,570.5c0,0-26.8-90.1-35.7-104.9"/>
					<path class="st11" d="M523.7,570.5c0,0-16-81.2-40.7-104.9"/>
				</g>
				<g>
					<path class="st10" d="M556.1,559.2c7.7-21.8,26.3-68.8,13.6-138.9c-28.2,37.3-32,93.1-31.2,143.7"/>
					<path class="st11" d="M569.7,420.3c0,0-9.2,87.9-21.8,143"/>
					<path class="st11" d="M569.7,420.3c0,0,3.8,63.3-16.9,142.1"/>
					<path class="st11" d="M544.8,562.4c0,0,12.1-110.2,24.9-142.1"/>
					<path class="st11" d="M541.9,562.4c0,0,2.9-104.1,27.8-142.1"/>
				</g>
				<g>
					<path class="st10" d="M561.8,582c9.9-14.6,33.1-45.5,34.2-99.6c-29.4,21.9-41.8,62.2-49.6,99.6"/>
					<path class="st11" d="M596,482.4c0,0-15.1,63.4-37.7,99.2"/>
					<path class="st11" d="M554.6,582.8c0,0,32.2-86.5,41.5-100.4"/>
					<path class="st11" d="M550.1,582.4c0,0,21.6-78.6,46-99.9"/>
				</g>
				<path id="XMLID_11_" class="st5" d="M578.6,559.9v16.7c0,36.9-15,60.7-15,60.7H517c0,0-15-23.8-15-60.7v-16.7H578.6z"/>
			</g>
		</g>
		<g>
			<g>
				<g>
					<path class="st10" d="M950.7,582.4c-3.8-12.8-13.6-40.8,2.5-76.6c18.3,26.1,15.8,54.7,10.5,81.8"/>
					<path class="st11" d="M953.2,505.8c0,0-6.2,33.9,2.2,79.3"/>
					<path class="st11" d="M956.6,585.4c0,0,3.4-60.6-3.4-79.6"/>
					<path class="st11" d="M958.8,585.8c0,0,9.8-56-5.6-80"/>
				</g>
				<g>
					<path class="st10" d="M938.1,591c-7.6-6.8-25.4-21-27.6-52c22.1,8,32.2,29.3,38.9,49.6"/>
					<path class="st11" d="M910.4,539c0,0,7.7,26.1,31.2,52.5"/>
					<path class="st11" d="M945.3,589.5c0,0-25.8-37.4-34.9-50.5"/>
					<path class="st11" d="M947,588.8c0,0-17.9-37.6-36.6-49.8"/>
				</g>
				<g>
					<path class="st10" d="M945.3,583.3c-6.1-8.9-23.8-35.8-18.3-64.3c20.4,15.3,28.6,45.7,30.3,66.3"/>
					<path class="st11" d="M927,519c0,0,7.6,42.8,21.1,64.5"/>
					<path class="st11" d="M950.9,584.6c0,0-18.3-57.2-23.9-65.6"/>
					<path class="st11" d="M954.5,585c0,0-11-51.6-27.5-66"/>
				</g>
				<g>
					<path class="st10" d="M974.5,582.8c5.2-11.6,17.8-36.4,9.2-73.6c-19.1,19.8-21.7,49.3-21.2,76.1"/>
					<path class="st11" d="M983.7,509.2c0,0-9,42.9-15.8,74.9"/>
					<path class="st11" d="M983.7,509.2c0,0,2.1,33.5-11.9,75.3"/>
					<path class="st11" d="M964.9,584.5c0,0,3.9-50.3,18.9-75.3"/>
				</g>
				<g>
					<path class="st10" d="M975.1,594.9c6.7-7.7,24-26.9,25.4-52.7c-19.9,11.6-28.3,32.9-33.6,52.8"/>
					<path class="st11" d="M1000.5,542.1c0,0-12.4,32.7-27.7,51.6"/>
					<path class="st11" d="M969.1,593.7c0,0,18.6-39.2,31.4-51.6"/>
				</g>
				<path id="XMLID_9_" class="st5" d="M990.1,580.7v12.2c0,27-13.1,44.4-13.1,44.4h-40.6c0,0-13.1-17.4-13.1-44.4v-12.2H990.1z"/>
			</g>
		</g>
	</g>
	
		<rect x="628.7" y="72.7" transform="matrix(-4.096911e-08 1 -1 -4.096911e-08 1158.5632 -464.5291)" class="st12" width="365.8" height="548.6"/>
	<rect x="555.1" y="181.9" class="st13" width="513" height="330.2"/>
	<g>
		<rect x="569.2" y="391.8" class="st14" width="171.3" height="95"/>
		<rect x="571.1" y="393.9" class="st15" width="164.5" height="86.5"/>
		<g class="st16">
			<g>
				<path class="st14" d="M729.7,473.6l-156,0c-0.2,0-0.4-0.2-0.4-0.4l0-78.1c0-0.2,0.2-0.4,0.4-0.4l156,0c0.2,0,0.4,0.2,0.4,0.4
					l0,78.1C730.1,473.4,729.9,473.6,729.7,473.6z M574.1,472.8l155.2,0v-77.4l-155.2,0V472.8z"/>
			</g>
			<g>
				<path class="st14" d="M729.7,460.6l-156,0c-0.2,0-0.4-0.2-0.4-0.4s0.2-0.4,0.4-0.4l156,0c0.2,0,0.4,0.2,0.4,0.4
					S729.9,460.6,729.7,460.6z"/>
			</g>
			<g>
				<path class="st14" d="M729.7,447.6l-156,0c-0.2,0-0.4-0.2-0.4-0.4s0.2-0.4,0.4-0.4l156,0c0.2,0,0.4,0.2,0.4,0.4
					S729.9,447.6,729.7,447.6z"/>
			</g>
			<g>
				<path class="st14" d="M729.7,434.5l-156,0c-0.2,0-0.4-0.2-0.4-0.4s0.2-0.4,0.4-0.4l156,0c0.2,0,0.4,0.2,0.4,0.4
					S729.9,434.5,729.7,434.5z"/>
			</g>
			<g>
				<path class="st14" d="M729.7,421.5l-156,0c-0.2,0-0.4-0.2-0.4-0.4s0.2-0.4,0.4-0.4l156,0c0.2,0,0.4,0.2,0.4,0.4
					S729.9,421.5,729.7,421.5z"/>
			</g>
			<g>
				<path class="st14" d="M729.7,408.5l-156,0c-0.2,0-0.4-0.2-0.4-0.4s0.2-0.4,0.4-0.4l156,0c0.2,0,0.4,0.2,0.4,0.4
					S729.9,408.5,729.7,408.5z"/>
			</g>
			<g>
				<path class="st14" d="M703.7,473.6c-0.2,0-0.4-0.2-0.4-0.4v-78.1c0-0.2,0.2-0.4,0.4-0.4s0.4,0.2,0.4,0.4v78.1
					C704.1,473.4,703.9,473.6,703.7,473.6z"/>
			</g>
			<g>
				<path class="st14" d="M677.7,473.6c-0.2,0-0.4-0.2-0.4-0.4v-78.1c0-0.2,0.2-0.4,0.4-0.4s0.4,0.2,0.4,0.4v78.1
					C678.1,473.4,677.9,473.6,677.7,473.6z"/>
			</g>
			<g>
				<path class="st14" d="M651.7,473.6c-0.2,0-0.4-0.2-0.4-0.4v-78.1c0-0.2,0.2-0.4,0.4-0.4s0.4,0.2,0.4,0.4l0,78.1
					C652.1,473.4,651.9,473.6,651.7,473.6z"/>
			</g>
			<g>
				<path class="st14" d="M625.7,473.6c-0.2,0-0.4-0.2-0.4-0.4v-78.1c0-0.2,0.2-0.4,0.4-0.4s0.4,0.2,0.4,0.4v78.1
					C626.1,473.4,625.9,473.6,625.7,473.6z"/>
			</g>
			<g>
				<path class="st14" d="M599.7,473.6c-0.2,0-0.4-0.2-0.4-0.4v-78.1c0-0.2,0.2-0.4,0.4-0.4s0.4,0.2,0.4,0.4v78.1
					C600.1,473.4,599.9,473.6,599.7,473.6z"/>
			</g>
		</g>
		<g>
			<path class="st17" d="M573.7,474c-0.3,0-0.5-0.2-0.7-0.4c-0.2-0.4,0-0.8,0.3-1l25.9-13l13.4-12.9l12.4-25.9
				c0-0.1,0.1-0.2,0.2-0.2l14.1-12.6c0.2-0.2,0.4-0.2,0.7-0.2c0.2,0,0.4,0.2,0.5,0.4l11.9,25.6l14.1,25.1l10.6-12.2
				c0.1-0.2,0.3-0.3,0.5-0.3c0.2,0,0.4,0.1,0.6,0.2l12.1,12.2l12.6-37.9c0-0.1,0.1-0.2,0.2-0.3l26-26c0.3-0.3,0.8-0.3,1.1,0
				c0.3,0.3,0.3,0.8,0,1.1l-25.9,25.9l-13,38.9c-0.1,0.2-0.3,0.4-0.5,0.5c-0.3,0.1-0.5,0-0.7-0.2l-12.4-12.5l-10.8,12.4
				c-0.2,0.2-0.4,0.3-0.6,0.3c-0.2,0-0.5-0.2-0.6-0.4l-14.7-26c0,0,0,0,0-0.1l-11.5-24.7l-13.2,11.8l-12.4,25.9
				c0,0.1-0.1,0.2-0.2,0.2l-13.5,13c-0.1,0.1-0.1,0.1-0.2,0.1l-26,13C573.9,474,573.8,474,573.7,474z"/>
		</g>
		<g>
			<path class="st14" d="M573.7,474c-0.2,0-0.4-0.1-0.5-0.2c-0.3-0.3-0.3-0.8,0-1.1l38.1-39.1c0.3-0.3,0.8-0.3,1.1,0l13.3,12.5
				l25.5-25.5c0.3-0.3,0.8-0.3,1.1,0l13,12.5l11.9-12.5c0.1-0.1,0.3-0.2,0.5-0.2c0.2,0,0.4,0.1,0.5,0.2l25.3,25.3l25.5-51.2
				c0.2-0.4,0.6-0.5,1-0.3c0.4,0.2,0.5,0.6,0.3,1l-26,52.1c-0.1,0.2-0.3,0.4-0.6,0.4c-0.2,0-0.5,0-0.7-0.2l-25.5-25.5l-11.9,12.5
				c-0.1,0.1-0.3,0.2-0.5,0.2c-0.2,0-0.4-0.1-0.5-0.2l-13-12.5l-25.5,25.5c-0.3,0.3-0.8,0.3-1,0l-13.3-12.5l-37.6,38.5
				C574.1,473.9,573.9,474,573.7,474z"/>
		</g>
	</g>
	<g>
		<defs>
			<path id="SVGID_1_" d="M991.2,236.4c-28.7,0-51.9,23.3-51.9,51.9c0,28.7,23.3,51.9,51.9,51.9s51.9-23.3,51.9-51.9
				C1043.1,259.6,1019.9,236.4,991.2,236.4z M991.2,315.8c-15.2,0-27.5-12.3-27.5-27.5c0-15.2,12.3-27.5,27.5-27.5
				c15.2,0,27.5,12.3,27.5,27.5C1018.7,303.5,1006.4,315.8,991.2,315.8z"/>
		</defs>
		<clipPath id="SVGID_2_">
			<use xlink:href="#SVGID_1_"  style="overflow:visible;"/>
		</clipPath>
		<path class="st18" d="M1038.1,317l-46.9-28.7l-8.5,54.4C1004.7,346.2,1026.6,335.8,1038.1,317z"/>
		<path class="st19" d="M1038.2,317c0.1-0.2,0.3-0.5,0.3-0.5c9.9-16.6,10.3-37.2,1.2-54.2c-16.6,8.7-6.7,3.4-48.5,26
			C1038.2,317.1,1030.9,312.6,1038.2,317z"/>
		<path class="st20" d="M939.6,269.3l51.6,19l48.4-26.2C1016.9,220.3,956,225.3,939.6,269.3z"/>
		<path class="st21" d="M982.7,342.7l8.5-54.4l-51.6-19C927.3,302.2,949.1,337.4,982.7,342.7z"/>
		<path class="st22" d="M1040.6,316.4c9.3-16.4,9.9-36.6,1.4-53.5l0,0l-0.9-1.6c0,0,0-0.1-0.1-0.1l-0.7-1.3l0,0
			c-5.5-9.5-13.3-17.1-22.7-22c-9.2-4.8-19.7-6.9-30.2-6.2c-22.1,1.5-40.7,15-48.9,35.3l0,0l-0.6,1.7l-0.6,1.7l0,0
			c-5.2,15.4-3.5,32.2,4.8,46.4c8.4,14.4,22.4,24.3,38.5,27.4l0,0l1.8,0.3c0,0,1.8,0.3,1.8,0.3l0,0c2.3,0.3,4.7,0.4,7,0.4
			c8.2,0,16.3-1.8,23.9-5.3c9.7-4.5,17.8-11.6,23.6-20.4l0,0l0.4-0.6c0,0,0.6-1,0.6-1c0.1-0.1,0.2-0.3,0.3-0.4l0-0.1c0,0,0,0,0,0
			L1040.6,316.4L1040.6,316.4z M1035.1,266.8c1.1-0.6,2.3-1.2,3.8-2c7.7,15.7,7.2,34.4-1.4,49.7c0,0-0.3-0.2-0.3-0.2
			c-1.9-1.1-2.8-1.6-6.6-4l-35.8-21.9l29.7-16.1C1028.9,270,1030.7,269.1,1035.1,266.8z M941.9,268.2c7.8-18.9,25.2-31.5,45.8-32.9
			c20.4-1.4,39.1,8.6,49.4,26.1l-14.3,7.7c-3,1.6-7.1,3.8-14,7.6c-4.4,2.4-10,5.4-17.1,9.3l-0.4,0.2l-1.4-0.9l-0.1,0.5l-22.6-8.3
			L941.9,268.2z M945.2,314.9c-7.7-13.2-9.3-28.9-4.5-43.3l34,12.5l14.5,5.3l-8,51C966.1,337.7,953.1,328.4,945.2,314.9z
			 M984.8,341.1l7.8-49.8l20.3,12.4c8.2,5,12.8,7.9,15.8,9.6l7,4.3C1024.4,334.5,1004.8,343.6,984.8,341.1z"/>
	</g>
	<g>
		
			<rect x="1036.7" y="403.1" transform="matrix(-1 -1.135152e-06 1.135152e-06 -1 2087.325 882.6875)" class="st14" width="14" height="76.5"/>
		
			<rect x="977.3" y="425.4" transform="matrix(-1 -1.135151e-06 1.135151e-06 -1 1968.5195 904.9327)" class="st14" width="14" height="54.2"/>
		
			<rect x="947.6" y="403.1" transform="matrix(-1 -1.135152e-06 1.135152e-06 -1 1909.1168 882.6872)" class="st14" width="14" height="76.5"/>
		
			<rect x="917.8" y="452.5" transform="matrix(-1 -1.135151e-06 1.135151e-06 -1 1849.7141 932.043)" class="st14" width="14" height="27.1"/>
		
			<rect x="1007" y="379.8" transform="matrix(-1 -1.135152e-06 1.135152e-06 -1 2027.9224 859.4069)" class="st14" width="14" height="99.7"/>
		
			<rect x="888" y="425.4" transform="matrix(-1 -1.135152e-06 1.135152e-06 -1 1790.1124 904.9324)" class="st14" width="14" height="54.2"/>
	</g>
	<g>
		<path class="st14" d="M732.3,329l-153.1,0c-4.5,0-8.2-3.7-8.2-8.2l0-62.2c0-4.5,3.7-8.2,8.2-8.2l153.1,0c4.5,0,8.2,3.7,8.2,8.2
			l0,62.2C740.5,325.4,736.8,329,732.3,329z"/>
		<path class="st15" d="M729.3,325.4l-146.9,0c-3.6,0-6.6-3-6.6-6.6l0-41c0-3.6,3-6.6,6.6-6.6l146.9,0c3.6,0,6.6,3,6.6,6.6l0,41
			C735.9,322.4,732.9,325.4,729.3,325.4z"/>
		<g>
			<path class="st15" d="M582,262.4l-1.3,0c-1.5,0-2.7-1.2-2.7-2.7V259c0-1.5,1.2-2.7,2.7-2.7l1.3,0c1.5,0,2.7,1.2,2.7,2.7v0.8
				C584.7,261.2,583.5,262.4,582,262.4z"/>
			<path class="st15" d="M594.1,262.4h-1.3c-1.5,0-2.7-1.2-2.7-2.7V259c0-1.5,1.2-2.7,2.7-2.7h1.3c1.5,0,2.7,1.2,2.7,2.7v0.8
				C596.8,261.2,595.6,262.4,594.1,262.4z"/>
			<path class="st15" d="M606.2,262.4l-1.3,0c-1.5,0-2.7-1.2-2.7-2.7V259c0-1.5,1.2-2.7,2.7-2.7h1.3c1.5,0,2.7,1.2,2.7,2.7v0.8
				C608.8,261.2,607.6,262.4,606.2,262.4z"/>
		</g>
		<path class="st14" d="M729.3,283l-84.7,0c-1.4,0-2.5-1.2-2.5-2.6c0-1.4,1.1-2.6,2.5-2.6l84.7,0c1.4,0,2.5,1.2,2.5,2.6
			C731.9,281.8,730.7,283,729.3,283z"/>
		<path class="st14" d="M665.6,323.1l-84.7,0c-1.4,0-2.5-1.2-2.5-2.6c0-1.4,1.1-2.6,2.5-2.6l84.7,0c1.4,0,2.5,1.2,2.5,2.6
			C668.2,322,667,323.1,665.6,323.1z"/>
		<path class="st14" d="M679.9,323.1l-6.1,0c-1.2,0-2.2-1-2.2-2.2v-0.8c0-1.2,1-2.2,2.2-2.2h6.1c1.2,0,2.2,1,2.2,2.2v0.8
			C682.1,322.1,681.1,323.1,679.9,323.1z"/>
		<path class="st14" d="M693.1,323.1l-6.1,0c-1.2,0-2.2-1-2.2-2.2v-0.8c0-1.2,1-2.2,2.2-2.2l6.1,0c1.2,0,2.2,1,2.2,2.2v0.8
			C695.3,322.1,694.3,323.1,693.1,323.1z"/>
		<path class="st14" d="M730.2,294.3l-140.3,0c-0.9,0-1.7-0.8-1.7-1.8c0-1,0.8-1.8,1.7-1.8l140.3,0c0.9,0,1.7,0.8,1.7,1.8
			C731.9,293.5,731.1,294.3,730.2,294.3z"/>
		<path class="st14" d="M730.2,302l-140.3,0c-0.9,0-1.7-0.8-1.7-1.8c0-1,0.8-1.8,1.7-1.8l140.3,0c0.9,0,1.7,0.8,1.7,1.8
			C731.9,301.2,731.1,302,730.2,302z"/>
	</g>
	<g>
		<g>
			<path class="st23" d="M608.4,369c0,0,3,0.3,6.4,0.3c4.7-0.1,15.9,0.7,12.5-1.4c-0.6-0.3-2.6-1.6-3.7-4.1l0,0
				c0-0.1-0.1-0.2-0.1-0.3c-0.9-4.1-1.1-7.4-1.1-7.4l-16.4,2.8l0,0.2C607.1,364.1,608.4,369,608.4,369z"/>
			<path class="st24" d="M608.4,369c0,0,2.7,0.4,5.7,0.4l0,0c0,0,7.6-3.3,7.7-5.2l0,0c0-0.1-0.1-0.2-0.1-0.3
				c-0.1-0.2-0.4-0.4-0.8-0.6c-2.3-0.8-5.7-0.7-8.2-0.4c-1.9,0.2-3.6-1-4.1-2.9c-0.1-0.6-0.2-1.1-0.2-1.1l-2.4,0.2
				C607.1,364.1,608.4,369,608.4,369z"/>
			<path class="st23" d="M596,336.7c-0.8-11.2,7.4-16.4,15.1-17.2c7.7-0.8,11.9,4.2,14.7,9.4c0,0,0.7,2.6,1.5,6.1
				c0.5,2.2,1.2,4.3,2.1,6.3c0.8,1.7,1.5,2.3,1.6,3.5c0.1,1.1-2.4,1.3-2.5,2.1c0.3,1.9,2,7,1.6,8.6c-1.1,4.4-9.2,4.3-9.2,4.3l0-0.1
				c-2.2,0.8-5.2,1.2-9,1.2C598.5,360.5,596.7,346.1,596,336.7z"/>
			<path class="st24" d="M623.3,329.7c0,0-3.9,1.1-3.5,4.8c0.4,3.8,1.6,4.3-0.1,6.1c-1.7,1.7-3.3,1.9-3.2,3.5
				c0.1,1.7,2,9.5,0.8,12.2c-1.3,2.7-9.2-18-9.2-18l3.5-8.2L623.3,329.7z"/>
			<path class="st25" d="M620.9,330.5c-3.3,1.1-1.7,7.5-1.6,8.6c0.1,0.6-1.6,1.4-2.8,2.2c-1.1,0.8-1.2,2.4-0.9,3.8
				c1,4.2,2.7,12.9,1,13.9c-2.3,1.4-9.6,3.6-10.8,2.6c-1.2-1-8.5-6.3-10.5-19.1c-2-12.6-0.9-14.4,3-19.3c2.4-3,11.8-5.3,14.9-5
				c6.8,0.6,8.7,0.5,11.1,4.4C625.9,325.3,626.6,328.7,620.9,330.5z"/>
		</g>
		<g>
			<path class="st26" d="M591.3,614c0,0-0.8,6.1-0.9,7.1c-0.1,0.9-9.3-0.5-9.3-0.5l-0.7-7.3C580.3,613.2,590.1,613.2,591.3,614z"/>
		</g>
		<g>
			<g>
				<path class="st27" d="M590.4,620.3c0,0,2.9,3.7,5.7,5.3c2.8,1.6,7.3,2.3,8.9,3.9c1.2,1.2,4.4,6.4-7.3,6.3
					c-11.7-0.1-17.4,0.7-18.6-1.3c-1.3-2,1.8-14.7,1.8-14.7S583.8,620.7,590.4,620.3z"/>
			</g>
		</g>
		<g>
			<path class="st26" d="M655,614c0,0-0.8,6.1-0.9,7.1c-0.1,0.9-9.3-0.5-9.3-0.5l-0.7-7.3C644,613.2,653.9,613.2,655,614z"/>
		</g>
		<g>
			<g>
				<path class="st27" d="M654.2,620.3c0,0,2.9,3.7,5.7,5.3c2.8,1.6,13.2,2.9,14.9,4.6c1.2,1.2,3.2,6.1-13.3,5.6
					c-11.7-0.3-17.4,0.7-18.6-1.3c-1.3-2,1.8-14.7,1.8-14.7S648.4,620.5,654.2,620.3z"/>
			</g>
		</g>
		<g>
			<path class="st28" d="M594.4,461.2c0,0-4.7,14.7-4.1,27.3c0.6,12.6-2.4,26.5-3.7,39.7c-1.4,14.7-7.1,49.6-7.3,57.4
				c-0.2,7.9,0.9,33,0.9,33l11.4,0.3c0,0,9.6-60.9,12.1-67.1c2.5-6.2,14.8-50.5,15.2-55.5C619.3,491.3,594.4,461.2,594.4,461.2z"/>
		</g>
		<g>
			<path class="st29" d="M641.8,459.7c0,0,6.9,38.8,7.8,46.5c0.8,7.7,1.4,37.4,1.8,42.3c0.4,4.8,2.8,63.3,5,70.5h-12.7
				c0,0-13.1-42.5-13.1-62.6c0-20.1-8.7-43.7-14.3-57c-5.6-13.3-18.4-13.6-21.8-38.2C594.4,461.2,637.1,451.9,641.8,459.7z"/>
		</g>
		<g>
			<path class="st28" d="M593.5,464.4c0,0,7.1,7.3,49-1.1l-0.6-3.6l-47.6,1.8L593.5,464.4z"/>
		</g>
		<g>
			<g>
				<path class="st23" d="M629,369c0,0,7.3,0.7,9.4,1.1c2.1,0.4,16.2-2.5,19.1-2.8s15.2-8.7,15.6-9.7c0.4-1,7.5-18.9,7.9-22.8
					c0.4-3.9,6.9-1.9,6.3,0.8c-1,5-2.4,17.2-3.1,20.7c-0.8,3.8-2.9,12.4-4.1,13.5c-1.2,1.1-12.3,9.5-23.1,13.1
					c-10.9,3.6-19,8.9-19,8.9h-53.5c0,0-20.8-29.7-21.2-34.2c-0.4-4.5,14.5-34.3,17.5-38c3-3.7,7.3,1.2,7.3,1.2s-8.9,26.3-10.1,30
					c-1.2,3.7,10.4,20.1,13.6,20.2c3.2,0.1,11.4-1,15-1.1c3.6-0.1,7.5-1.7,7.5-1.7L629,369z"/>
			</g>
		</g>
		<g>
			<path class="st30" d="M652,388.9c0,0-6.5,4.4-7.1,11.8c-0.6,7.5-3,19.3-4.2,23.3c-1.2,4,1,33.3,1.3,35.4s-41.4,7.1-47.8,2.1
				c0,0-1.8-27.3-2.5-35.1c-0.7-7.8-4.3-26.6-5.5-29.1c-1.2-2.5-15.7-22.9-16.3-25.5c0,0,7.5-11.9,12.9-12.1c0,0,8.5,10,11.3,10.5
				c2.8,0.4,19.8-2.7,19.8-2.7c0,0,1.9,2.5,11.8-0.5c0,0,11.8,1.3,13.7,1.6c2.3,0.3,18.5-2,18.5-2s6.5,10.9,5.3,16.5L652,388.9z"/>
		</g>
		<g>
			<path class="st23" d="M680.5,337.1c0,0,1.5-6.9-0.3-8.9c-1-1.1-3.4-4.1-3.6-4.6c-0.2-0.4-2.8-1.9-2.8-2.6c0-0.7,2.5-1.6,4.7,0.4
				c2.2,2,3.6,2.5,4.5,2.3c0.9-0.2,2.1-7.5,2.3-9.4c0.1-1.8,0.8-6.6,1.9-6.3c1.1,0.3,1.1,2.4,1.1,2.4s1.3-3.6,2.2-2.9
				c0.9,0.7,0.8,2.5,0.8,2.5s1.6-2,2.1-0.6c0.4,1.5,0,2.8,0,2.8s1.7-0.9,1.8,1.4c0.1,2.3-0.5,9.1-1.7,11.5
				c-1.2,2.4-5.7,8.8-6.3,11.2C686.6,338.9,680.5,337.1,680.5,337.1z"/>
		</g>
		<g>
			<g>
				<path class="st23" d="M586.5,325c0,0,5-8.4,6.7-9.1c1.7-0.7,4.1-1.2,6.2-2.7c2.1-1.5,4.9-2.7,4.7-3.2c-0.2-0.5-2.6-0.3-5.3,0.8
					c-2.6,1.1-3.8,0.6-4,0c-0.2-0.6,1.4-4.8,2.2-5.8c0.8-1,6.5-6.7,5.5-7.5c-0.9-0.8-4.6,2.3-5.2,2.9c0,0,2.9-6.2,1.8-6.5
					c-1.1-0.3-3.3,1.9-3.3,1.9s0.2-5.3-5.4,3.3c0,0,1.2-2.8-0.5-1.9c-1.7,0.9-3.4,6.3-4,9c-0.5,2.7-3,11.3-5.2,13.3
					C578.5,321.6,586.5,325,586.5,325z"/>
			</g>
		</g>
		<g>
			<path class="st30" d="M626,368.1l-0.6-2.7c0,0-11.4-0.2-17.6,0.7l-0.7,3.3C607.1,369.3,615,372.9,626,368.1z"/>
		</g>
		<g>
			<path class="st31" d="M680.8,335.6c0,0,4.1,0.1,6.1,1.9c0,0,0.1,1.1-0.3,2c0,0-3.6-1.7-6.3-2
				C680.3,337.6,680.3,336.1,680.8,335.6z"/>
		</g>
		<g>
			<path class="st32" d="M685.6,336.6c0.4,0.9,0,1.9-0.9,2.3c-0.9,0.4-1.9,0-2.3-0.9c-0.4-0.9,0-1.9,0.9-2.3
				C684.2,335.3,685.3,335.7,685.6,336.6z"/>
		</g>
	</g>
	<path class="st33" d="M1169.5,637.2l-717.3,0c-0.1,0-0.1,0-0.1-0.1v-1.8c0-0.1,0-0.1,0.1-0.1l717.3,0c0,0,0.1,0,0.1,0.1
		L1169.5,637.2C1169.6,637.2,1169.5,637.2,1169.5,637.2z"/>
	<g>
		<g>
			<g>
				<g>
					<g>
						<g>
							<path class="st23" d="M1039.8,475c0,0-0.6,3.3-2.5,3.8c-1.6,0.4-3.3,2.1-3.9,2.6c-0.7,0.7-3.7,2-2.9,2.9
								c0.9,0.9,5.1-1.9,6-2.3c1-0.4-0.4,4.2,0,5.2c0.4,1.1,8.2,3,8.8-0.3c0.6-3.3-0.9-7.2-0.7-7.7c0.2-0.6,0.5-2.4,0.5-2.4
								L1039.8,475z"/>
						</g>
					</g>
				</g>
			</g>
		</g>
		<g>
			<g>
				<g>
					<g>
						<path class="st23" d="M1036.6,486.5c0,0-1.2,10.2-0.7,10.9c0.5,0.7,1,0.8,1.2-0.2c0.2-0.9,1.5-9.8,1.5-9.8s0.6,12.3,0.9,13
							c0.2,0.4,1.2,0.5,1.4,0c0.1-0.5,0.2-12.7,0.2-12.7s0.6,11.5,1,12c0.3,0.5,1.4,0.3,1.4-0.5c0-0.9,0.1-11.5,0.1-11.5
							s0.9,8.3,1.5,8.6c0.4,0.1,1.3,0.3,1-1.8c-0.3-2.1-0.5-7.3-0.5-7.3L1036.6,486.5z"/>
					</g>
				</g>
			</g>
		</g>
		<g>
			<g>
				<path class="st23" d="M930.7,350.3c0,0-1.7-3.1-2.2-5.6c-0.6-2.5-3.7-5.8-4.9-6.6c-1.3-0.8-10.4-7.4-11.5-7.4
					c-1.1,0-0.4,2,0.5,2.6c0.9,0.6,8.4,6.4,8.4,6.4s-9.3-6.4-10.2-6.2c-1,0.2-1.7,1.4-0.6,2.7c0,0-2.1,1.4,0.1,3.1l4.4,3.4
					c0,0-2.6-1.3-1.6,0.7c0.5,1.1,5.9,4.3,6.8,5.3c0.9,1,7.7,4.3,7.7,4.3L930.7,350.3z"/>
			</g>
		</g>
		<g>
			<path class="st23" d="M985,635.1h-2.3c0,0,0.8-8.7-1.4-8.8c-2.1-0.1-7.4,7.1-10.5,8.2c-3.1,1.1-19.3,2-19.4-0.9
				c-0.1-3,6.2-4.2,8.2-5c2-0.9,11.5-10.1,13.2-11.2c1.7-1.1,4.5-6.7,4.5-6.7h8.7c0,0,1,4.7,1.5,8.5c0.2,1.4,0.4,2.7,0.4,3.6
				C987.9,625.9,985,635.1,985,635.1z"/>
		</g>
		<g>
			<path class="st23" d="M1024.9,633.4h-1.9v-8.1c-1.6,0.1-7,5.2-8.6,6.7c-1.7,1.5-3.9,1.4-10.9,1.8c-7,0.4-7.6-3.7-6.5-5.2
				c1.1-1.4,4.7-2,6.5-2.9c1.9-0.9,9.2-9.2,11.2-11.1c2-2,3.1-7.6,3.1-7.6l8.2,0.7c0,0-0.1,5.1,0.9,9.4v0c0,0,0,0,0,0
				c0.1,0.4,0.2,0.7,0.3,1.1C1028.3,622.8,1024.9,633.4,1024.9,633.4z"/>
		</g>
		<g>
			<path class="st23" d="M1005.8,363.5c0,0,4,8.4,1.9,15.3c0,0,12.3-1.7,12.6-3.1c0.4-1.4-1.5-14.3-0.1-18.3
				C1021.6,353.5,1005.8,363.5,1005.8,363.5z"/>
		</g>
		<g>
			<path class="st34" d="M1005.5,376c0,0-7.1,3-10.3,4c-3.2,0.9-9.9,4.6-8.5,16.5c1.4,11.9,4.2,22.1,5.3,27.2
				c1.1,5.1,1.6,18.2,0.8,24.6c0,0,17.8,3,38-2.8c0,0-4.4-10.6-4.5-13.4c-0.1-2.8,10.3-26.7,10.6-30.4c0.3-3.7,1.6-19.9-4.2-23.1
				c-5.8-3.1-10.2-2.4-12.7-3.8C1017.6,373.5,1008.8,374.6,1005.5,376z"/>
		</g>
		<g>
			<path class="st34" d="M1005.5,394.5c0,0,2.7-14.3-11.1-14.3c-12.2,0-23.7-2.3-25.6-3.4c-1.9-1.1-9.4-4.7-13.3-8.8
				c-3.9-4-25.1-20.2-25.1-20.2l-5.9,5.9c0,0,22.4,24.3,26,26.7c3.6,2.4,33.9,19.3,37.7,19.8C992,400.9,1002.8,403.8,1005.5,394.5z"
				/>
		</g>
		<g>
			<path class="st34" d="M1049.1,438.7c0.4,5-2.3,39.8-2.3,39.8l-9.9,1.1c0,0,0.7-34.3,1.3-42.3c0.2-2.3-0.4-5.9-1.2-9.8v0
				c-0.5-2.5-1.2-5-1.9-7.5c-1.9-6.8-3.9-12.7-3.9-12.7s-11-28.7,2.8-27.6c0,0,5.1,5.3,7.3,14c2.2,8.7,4.7,21.8,4.8,27
				C1046.2,426,1048.8,435,1049.1,438.7z"/>
		</g>
		<g>
			<path class="st35" d="M1033.6,515c-1,6.6,0.1,15.2,2.1,39.1c2.1,24-3.6,53-3.6,53c-7.1,2.4-15.3,0-15.3,0
				c0.2-1.7-1.4-55-1.4-60.1c0-5.1-1.3-12.1-1.6-17.9c-0.3-4-0.9-13.3-3-20.8c-0.6-2.2-1.3-4.5-1.9-6.6c0,0,0,0,0,0
				c-0.4-1.2-0.7-2.4-1-3.6c-2.9-10.1-6.8-49.1-6.8-49.1s21.7-17.5,32.3-1c10.6,16.5,5.1,28.4,4.8,30.5
				C1037.7,480.6,1034.6,508.5,1033.6,515z"/>
		</g>
		<g>
			<path class="st36" d="M995.3,448c0,0-3.2,7.5-3.5,9.4c-0.3,1.9-10.3,26.7-10.9,34c-0.7,7.3-2.8,26.9-3.6,29.8
				c-0.7,2.8,1.7,15.3,2.1,18.2c0.4,2.8,0.2,48.7-3.2,71.3c0,0,7.9,3.4,13.8,0c0,0,9.9-35.4,9.4-55.8c-0.6-20.4-3.1-29,0-37.2
				c3.2-8.2,21.7-32.9,23.6-35.6c1.9-2.6,13.6-17.1,2.5-32.8C1014.3,433.6,995.3,448,995.3,448z"/>
		</g>
		<g>
			<path class="st34" d="M991.5,418.6c0,0,1.9,31-3.8,48.4c0,0,22.9,3.8,52.2-6c0,0-8-20.8-7.8-24.1c0.3-3.3,8.7-41.2,4.7-49.7
				C1032.7,378.7,992.9,390.8,991.5,418.6z"/>
		</g>
		<g>
			<g>
				<path class="st23" d="M1010.2,328.9c-5.2-0.2-18.6,1.8-16.1,22c2.5,20.2,9.8,18.4,17,15.7c7.2-2.7,14.9-19,14.5-23.2
					C1025.3,339.3,1025.2,329.6,1010.2,328.9z"/>
			</g>
		</g>
		<g>
			<path class="st37" d="M994.2,341.6c0,0,6.4,7,12.4,8.4c0,0,5.1,7.8,13.2,9.3c0,0,15.7-17.4,0.6-28.5
				C1005.3,319.7,993.6,335.4,994.2,341.6z"/>
		</g>
		<g>
			<path class="st26" d="M1005.3,347.3c0.1-1.1,2.4-3.6,4.5-1.2c2.1,2.4-1,8.5-2.3,8.6C1006.2,354.9,1004.8,351.6,1005.3,347.3z"/>
		</g>
		<g>
			<path class="st38" d="M1024.6,479.8c-0.2,0.4-11,24.4-13.8,28.6c-0.6-2.2-1.3-4.5-1.9-6.6c0,0,0,0,0,0S1024.2,480.4,1024.6,479.8
				z"/>
		</g>
		<g>
			<path class="st34" d="M1037.4,403c0,0,0.8,15.3-0.5,24.6c-0.5-2.5-1.2-5-1.9-7.5C1035.1,419.7,1037.2,405.4,1037.4,403z"/>
		</g>
		<g>
			<path class="st37" d="M1014.3,327.6c0,0,18.2-4.7,19,34.2c0.5,26.2,14.2,42,13,45.5c-1.2,3.5-38.6,1.8-45.5-1.6
				c-1.6-0.8,16.1-36.5,10.9-47.2c-5.1-10.7-16.4-15.7-16.4-15.7S997.3,324.5,1014.3,327.6z"/>
		</g>
		<g>
			<path class="st39" d="M989.6,391.1c0,0-4.2,14.9-5.2,18.4c-1.3,4.6,4.7,13.2,10,10.5C999.8,417.4,989.6,391.1,989.6,391.1z"/>
		</g>
		<g>
			<path class="st38" d="M1025.2,634.9h-2l-0.2-9.6c-1.6,0.1-7.4,7.1-9,8.6c-1.7,1.5-3.2,0.6-10.2,1c-7,0.4-7.9-4.8-6.8-6.2
				c1.1-1.4,4.7-2,6.5-2.9c7.5,0.4,16.6-10.1,21-10.1c2.3,0,2.3,1.3,2.4,1.5v0c0,0,0,0,0,0c0.1,0.4,0.2,0.7,0.3,1.1
				C1028.3,622.8,1025.2,634.9,1025.2,634.9z"/>
		</g>
		<g>
			<path class="st38" d="M985,635.1h-2.3c0,0,0.8-8.7-1.4-8.8c-2.1-0.1-7.3,7.5-10.5,8.2c-3.3,0.6-19.3,2-19.4-0.9
				c-0.1-3,6.2-4.2,8.2-5c6.7,0,17.5-7.4,20.9-8.8c3.4-1.5,7-0.6,7-0.6c0.2,1.4,0.4,2.7,0.4,3.6C987.9,625.9,985,635.1,985,635.1z"
				/>
		</g>
	</g>
	<g>
		<g>
			<g>
				<g>
					<path class="st8" d="M880.5,366.4c16.6-17,25.3-38.9,25.3-61.6c-0.1-50.3-42.8-90.7-94.1-90.7c-50.4,0-86.8,37.6-92.6,77.9
						c-3.6,26.9,5.1,53.1,23.2,73c15.9,17,24.6,39.7,24.6,63l0,2.2h90.5l0-2.2C857.3,404,865.3,382,880.5,366.4z"/>
					<path class="st40" d="M765.9,415c0,0,17.5,5.6,46.1,5.6s46.1-5.6,46.1-5.6s-2.7,55.1-2.8,59.2c-0.2,5.2-26.1,11.6-40.3,11.6
						c-21.2,0-46.1-6.1-46.9-10.8C767.5,470.3,765.9,415,765.9,415z"/>
					<g>
						<path class="st15" d="M832.6,404c0,0-0.1,0-0.1,0c-1.1-0.1-1.9-1-1.8-2l2.8-45.5c0-0.2,0-0.3,0.1-0.5
							c0.8-2.6,4.6-13.9,9.1-26.4c-0.2,0-0.4,0-0.6,0c-8.6,0-16.5-3-20-7.6c-2.9-3.8-4.1-7.8-5-11c-1.2-4.3-1.8-5.8-4-6h-2
							c-2.2,0.2-2.8,1.7-4,6c-0.9,3.2-2.1,7.2-5,11c-3.5,4.6-11.4,7.6-20,7.6c-0.2,0-0.4,0-0.6,0c4.5,12.5,8.2,23.9,9.1,26.4
							c0.1,0.2,0.1,0.3,0.1,0.5l2.8,45.5c0.1,1.1-0.7,2-1.8,2c-1,0.1-2-0.7-2-1.8l-2.8-45.3c-2.7-8.3-6.1-18.2-9.6-27.7
							c-8.8-1.1-16.6-5.5-21.9-12.3c-8.5-10.9-7-20.6-1.9-25c3.6-3.2,8.4-3,11.7,0.4c3.4,3.5,9.5,18.6,14.8,33.3
							c0.7,0,1.4,0.1,2,0.1c7.2,0,14.2-2.5,17-6.1c2.5-3.3,3.5-6.7,4.4-9.7c1.2-4.1,2.4-8.3,7.4-8.8c0.1,0,0.1,0,0.2,0h2.2
							c0.1,0,0.1,0,0.2,0c5.1,0.5,6.3,4.7,7.4,8.8c0.9,3,1.9,6.5,4.4,9.7c2.7,3.6,9.7,6.1,17,6.1c0.6,0,1.3,0,2-0.1
							c5.4-14.7,11.5-29.9,14.8-33.3c3.3-3.4,8.1-3.5,11.7-0.4c5.1,4.4,6.6,14.1-1.9,25c-6.7,8.6-15.4,11.5-21.9,12.3
							c-3.4,9.5-6.8,19.4-9.6,27.7l-2.8,45.3C834.5,403.2,833.6,404,832.6,404z M864.9,293.5c-1.1,0-2.2,0.4-3.2,1.5
							c-2.6,2.7-7.9,15.5-13.3,30.1c5.5-1,12.1-3.8,17.4-10.5c7-8.9,6.1-16.5,2.4-19.8C867.3,294.1,866.1,293.5,864.9,293.5z
							 M759.2,293.5c-1.2,0-2.4,0.6-3.3,1.3c-3.7,3.3-4.6,10.8,2.4,19.8c5.3,6.7,11.9,9.5,17.4,10.5c-5.4-14.7-10.7-27.5-13.3-30.1
							C761.4,293.9,760.3,293.5,759.2,293.5z"/>
					</g>
					<g class="st41">
						<path class="st15" d="M771.2,424.2c3.3,1.1,6.6,1.9,10,2.5c3.4,0.7,6.7,1.2,10.1,1.5c6.8,0.7,13.6,1.1,20.5,1.1
							c6.8,0,13.7-0.3,20.5-1c3.4-0.4,6.8-0.8,10.1-1.5c3.4-0.6,6.7-1.4,9.9-2.6c-1.5,0.8-3.1,1.4-4.8,2c-1.6,0.6-3.3,1.1-4.9,1.5
							c-3.3,0.9-6.7,1.5-10.2,2.1c-6.8,1.1-13.8,1.5-20.7,1.5c-6.9,0-13.8-0.5-20.7-1.5C784.2,428.6,777.4,427.1,771.2,424.2z"/>
						<path class="st15" d="M771.2,435.4c3.3,1.1,6.6,1.9,10,2.5c3.4,0.7,6.7,1.2,10.1,1.5c6.8,0.7,13.6,1.1,20.5,1.1
							c6.8,0,13.7-0.3,20.5-1c3.4-0.4,6.8-0.8,10.1-1.5c3.4-0.6,6.7-1.4,9.9-2.6c-1.5,0.8-3.1,1.4-4.8,2c-1.6,0.6-3.3,1.1-4.9,1.5
							c-3.3,0.9-6.7,1.5-10.2,2.1c-6.8,1.1-13.8,1.5-20.7,1.5c-6.9,0-13.8-0.5-20.7-1.5C784.2,439.8,777.4,438.3,771.2,435.4z"/>
						<path class="st15" d="M771.2,446.5c3.3,1.1,6.6,1.9,10,2.5c3.4,0.7,6.7,1.2,10.1,1.5c6.8,0.7,13.6,1.1,20.5,1.1
							c6.8,0,13.7-0.3,20.5-1c3.4-0.4,6.8-0.8,10.1-1.5c3.4-0.6,6.7-1.4,9.9-2.6c-1.5,0.8-3.1,1.4-4.8,2c-1.6,0.6-3.3,1.1-4.9,1.5
							c-3.3,0.9-6.7,1.5-10.2,2.1c-6.8,1.1-13.8,1.5-20.7,1.5c-6.9,0-13.8-0.5-20.7-1.5C784.2,451,777.4,449.5,771.2,446.5z"/>
						<path class="st15" d="M771.2,457.7c3.3,1.1,6.6,1.9,10,2.5c3.4,0.7,6.7,1.2,10.1,1.5c6.8,0.7,13.6,1.1,20.5,1.1
							c6.8,0,13.7-0.3,20.5-1c3.4-0.4,6.8-0.8,10.1-1.5c3.4-0.6,6.7-1.4,9.9-2.6c-1.5,0.8-3.1,1.4-4.8,2c-1.6,0.6-3.3,1.1-4.9,1.5
							c-3.3,0.9-6.7,1.5-10.2,2.1c-6.8,1.1-13.8,1.5-20.7,1.5c-6.9,0-13.8-0.5-20.7-1.5C784.2,462.2,777.4,460.7,771.2,457.7z"/>
						<path class="st15" d="M771.2,468.9c3.3,1.1,6.6,1.9,10,2.5c3.4,0.7,6.7,1.2,10.1,1.5c6.8,0.7,13.6,1.1,20.5,1.1
							c6.8,0,13.7-0.3,20.5-1c3.4-0.4,6.8-0.8,10.1-1.5c3.4-0.6,6.7-1.4,9.9-2.6c-1.5,0.8-3.1,1.4-4.8,2c-1.6,0.6-3.3,1.1-4.9,1.5
							c-3.3,0.9-6.7,1.5-10.2,2.1c-6.8,1.1-13.8,1.5-20.7,1.5c-6.9,0-13.8-0.5-20.7-1.5C784.2,473.4,777.4,471.8,771.2,468.9z"/>
					</g>
				</g>
				<ellipse class="st42" cx="840.7" cy="306.3" rx="51.9" ry="53.8"/>
			</g>
		</g>
		<line class="st43" x1="781.2" y1="158.3" x2="790.1" y2="192.3"/>
		<line class="st44" x1="837.4" y1="159.2" x2="830.5" y2="192.5"/>
		<line class="st45" x1="686.3" y1="221.4" x2="717.5" y2="244"/>
		<line class="st46" x1="721.5" y1="183.5" x2="745.7" y2="211.2"/>
		<line class="st47" x1="925.4" y1="212.9" x2="897.9" y2="237.6"/>
		<line class="st48" x1="889.8" y1="180.1" x2="870.2" y2="210.5"/>
	</g>
</g>
</svg>
