<?xml version="1.0" encoding="utf-8"?>
<!-- Generator: Adobe Illustrator 23.0.2, SVG Export Plug-In . SVG Version: 6.00 Build 0)  -->
<svg version="1.1" id="Слой_1" xmlns="http://www.w3.org/2000/svg" xmlns:xlink="http://www.w3.org/1999/xlink" x="0px" y="0px"
	 viewBox="0 0 882 779" style="enable-background:new 0 0 882 779;" xml:space="preserve">
<style type="text/css">
	.st0{fill:#F5F5F5;}
	.st1{fill:#EBEBEB;}
	.st2{fill:#E0E0E0;}
	.st3{fill:#FFFFFF;}
	.st4{fill:#9E9D9D;}
	.st5{fill:#D3D3D3;}
	.st6{fill:#E6E6E6;}
	.st7{fill:#B5B4B4;}
	.st8{fill:#F1A34F;}
	.st9{opacity:0.22;}
	.st10{fill:#3F3D56;}
	.st11{fill:#E9F3FE;}
	.st12{fill:#504F6D;}
	.st13{fill:#ADCBF9;}
	.st14{opacity:0.43;}
	.st15{fill:#DBDBDB;}
	.st16{fill:#BABABA;}
	.st17{fill:#F2D23A;}
	.st18{fill:#8D725F;}
	.st19{fill:#D09271;}
	.st20{fill:#E2A32E;}
	.st21{fill:#ECB648;}
	.st22{fill:#CB6141;}
	.st23{fill:#A6BBF6;}
	.st24{fill:#9BB4E6;}
	.st25{fill:#8BA2D4;}
	.st26{fill:#37316E;}
	.st27{fill:#C9D4E0;}
	.st28{fill:#545475;}
	.st29{fill:#FFBE3D;}
	.st30{fill:#564B5E;}
	.st31{fill:#4A4251;}
	.st32{fill:#E9B899;}
	.st33{fill:#DBAA90;}
	.st34{fill:#404059;}
	.st35{fill:#493C34;}
	.st36{fill:#2F2E41;}
	.st37{fill:#3F3F70;}
	.st38{fill:#414668;}
	.st39{fill:#E1A07D;}
	.st40{fill:#D4D4D4;}
	.st41{fill:#4D517A;}
	.st42{fill:#575A89;}
	.st43{opacity:0.08;}
	.st44{fill:#C29D9A;}
	.st45{fill:#392F29;}
	.st46{fill:#E5A638;}
	.st47{filter:url(#Adobe_OpacityMaskFilter);}
	.st48{filter:url(#Adobe_OpacityMaskFilter_1_);}
	.st49{mask:url(#SVGID_1_);fill:url(#SVGID_2_);}
	.st50{fill:#464544;}
	.st51{fill:#FF645F;}
	.st52{fill:#29266B;}
	.st53{fill:#2B79E6;}
	.st54{fill:#8CB3DE;}
	.st55{fill:#FF9F9F;}
</style>
<g>
	<g>
		<g>
			<polygon class="st0" points="93.99,597.33 93.99,646.07 165.27,646.07 243.88,646.07 243.88,597.33 			"/>
			<polygon class="st1" points="87.7,583.71 87.7,597.33 249.13,597.33 249.13,583.71 165.27,583.71 			"/>
			<polygon class="st2" points="168.41,646.07 243.88,646.07 243.88,597.33 249.13,597.33 249.13,583.71 165.27,583.71 
				165.27,596.07 			"/>
			<rect x="114.95" y="605.2" class="st2" width="30.4" height="7.34"/>
			<rect x="111.04" y="621.71" class="st2" width="39.03" height="15.49"/>
		</g>
		<g>
			<path class="st1" d="M276.79,767.65L273.22,9l-14.69,0l0,149.4l-37.94,0L219.88,9l-14.69,0l0,149.4l-126.21,0h-4.31L73.96,9
				L59.28,9l0,149.4l-37.83,0L20.74,9L6.05,9l0,758.65l18.27,0l-0.49-101.82h35.44l0,101.82h18.27l-0.48-101.82l128.13,0l0,101.82
				l18.27,0l-0.48-101.82h35.55l0,101.82H276.79z M40.59,565.3l-13.12-56.23h26.95L40.59,565.3z M59.28,512.52l0,132.83l-15.9-68.13
				L59.28,512.52z M59.28,319.43l-15.9-68.13l15.9-64.7L59.28,319.43z M56.43,331.63l-32.79,0l16.82-68.44L56.43,331.63z
				 M40.59,239.39l-15.03-64.41l30.86,0L40.59,239.39z M37.68,251.27l-15.5,63.06L21.56,182.2L37.68,251.27z M23.13,514.85
				l14.55,62.34l-13.99,56.92L23.13,514.85z M40.45,589.1l14.04,60.15H25.67L40.45,589.1z M23.6,492.49l-0.12-0.52l-0.46,0.11
				l-0.68-143.87h36.94l0,144.29L23.6,492.49z M75.57,348.21l129.63,0l0,144.29l-126.21,0h-2.74L75.57,348.21z M238.68,263.18
				l15.97,68.45l-32.79,0L238.68,263.18z M221.3,310.67l-0.59-124.45l15.19,65.05L221.3,310.67z M258.53,323.83L241.6,251.3
				l16.93-68.88L258.53,323.83z M258.53,331.39v0.24h-1.03L258.53,331.39z M258.53,516.46l0,124.74l-14.93-63.98L258.53,516.46z
				 M240.82,565.3l-13.12-56.23h26.94L240.82,565.3z M238.82,239.38l-15.04-64.4l30.86,0L238.82,239.38z M258.53,348.21l0,144.29
				l-34.7,0l-0.12-0.52l-1.54,0.36l-0.68-144.13H258.53z M237.9,577.19l-15.05,61.22l-0.6-128.28L237.9,577.19z M240.68,589.1
				l14.04,60.15H225.9L240.68,589.1z M205.19,174.98l0,156.65l-126.21,0h-3.5l-0.74-156.65L205.19,174.98z M79.33,649.25h-2.34
				l-0.66-140.18l128.87,0l0,140.18L79.33,649.25z"/>
		</g>
		<g>
			<polygon class="st2" points="79.31,328.1 79.31,310.97 200.24,310.97 200.63,328.1 			"/>
			<path class="st3" d="M200.3,313.77c0,0-107.26,0.79-114.2,2.43c-1.49,0.35-3.01,6.94,0,7.54c3.01,0.6,114.2,1.51,114.2,1.51
				V313.77z"/>
		</g>
		<g>
			<polygon class="st1" points="93.36,310.3 93.36,293.17 189.16,293.17 189.47,310.3 			"/>
			<path class="st3" d="M189.21,295.97c0,0-84.96,0.79-90.46,2.42c-1.19,0.35-2.39,6.94,0,7.54c2.39,0.61,90.46,1.51,90.46,1.51
				L189.21,295.97z"/>
		</g>
		<g>
			<polygon class="st2" points="92.93,293.38 92.93,276.26 188.73,276.26 189.03,293.38 			"/>
			<path class="st3" d="M188.78,279.06c0,0-84.96,0.79-90.46,2.42c-1.19,0.35-2.39,6.94,0,7.54c2.39,0.6,90.46,1.51,90.46,1.51
				L188.78,279.06z"/>
		</g>
		<g>
			<rect x="180.93" y="40.75" class="st2" width="24.26" height="113.08"/>
			<path class="st3" d="M198.36,126.7c0,2.65-2.15,4.81-4.81,4.81c-2.66,0-4.8-2.15-4.8-4.81c0-2.65,2.15-4.81,4.8-4.81
				C196.2,121.89,198.36,124.04,198.36,126.7z"/>
			<rect x="189.63" y="70.71" class="st3" width="7.42" height="46.22"/>
		</g>
		<g>
			<rect x="156.28" y="40.75" class="st1" width="24.26" height="113.08"/>
			<circle class="st3" cx="168.9" cy="126.7" r="4.81"/>
			<rect x="164.98" y="70.71" class="st3" width="7.42" height="46.22"/>
		</g>
		<g>
			<rect x="132.81" y="40.75" class="st0" width="24.26" height="113.08"/>
			<path class="st3" d="M150.24,126.7c0,2.65-2.15,4.81-4.81,4.81c-2.66,0-4.81-2.15-4.81-4.81c0-2.65,2.15-4.81,4.81-4.81
				C148.09,121.89,150.24,124.04,150.24,126.7z"/>
			<rect x="141.51" y="70.71" class="st3" width="7.42" height="46.22"/>
		</g>
		<g>
			<rect x="180.93" y="375.42" class="st2" width="24.26" height="113.08"/>
			<path class="st3" d="M198.36,461.38c0,2.65-2.15,4.8-4.81,4.8c-2.66,0-4.8-2.15-4.8-4.8c0-2.65,2.15-4.81,4.8-4.81
				C196.2,456.57,198.36,458.72,198.36,461.38z"/>
			<rect x="189.63" y="405.38" class="st3" width="7.42" height="46.22"/>
		</g>
		<g>
			<rect x="156.28" y="375.42" class="st1" width="24.26" height="113.08"/>
			<path class="st3" d="M173.71,461.38c0,2.65-2.15,4.8-4.81,4.8c-2.65,0-4.81-2.15-4.81-4.8c0-2.65,2.16-4.81,4.81-4.81
				C171.56,456.57,173.71,458.72,173.71,461.38z"/>
			<rect x="164.98" y="405.38" class="st3" width="7.42" height="46.22"/>
		</g>
		<g>
			<rect x="132.81" y="375.42" class="st0" width="24.26" height="113.08"/>
			<path class="st3" d="M150.24,461.38c0,2.65-2.15,4.8-4.81,4.8c-2.66,0-4.81-2.15-4.81-4.8c0-2.65,2.15-4.81,4.81-4.81
				C148.09,456.57,150.24,458.72,150.24,461.38z"/>
			<rect x="141.51" y="405.38" class="st3" width="7.42" height="46.22"/>
		</g>
		<polygon class="st2" points="102.81,152.11 131.96,52.63 121.91,48.22 92.01,148.5 		"/>
	</g>
	<g>
		<path class="st4" d="M448.8,295.16l10.51,124.98c0,0,1.1,7.58-4.53,7.59c-9.27,0.02-46.12,0-46.12,0s6.97-1.58,6.89-5.13
			c-0.1-4.18-12.29-128.63-12.29-128.63L448.8,295.16z"/>
		<path class="st5" d="M405.67,425.46c1.82,0.01,37.02,0.12,46.04,0c3.93-0.05,4.62-3.5,4.65-5.73c0.02-1.07-0.12-1.86-0.12-1.86
			l-0.27-3.25l-0.7-8.28l-0.62-7.31l-0.79-9.4l-0.67-7.93l-7.47-88.81l-45.54-1.18c0,0,5.13,52.08,8.76,89.99
			c0.41,4.22,0.79,8.27,1.15,12.05c0.12,1.21,0.23,2.39,0.33,3.54c0.34,3.59,0.64,6.88,0.91,9.79c0.14,1.53,0.27,2.96,0.39,4.26
			c0.46,5.11,0.73,8.38,0.74,9c0,0.36-0.03,0.7-0.09,1.01C411.65,425.33,406.35,425.46,405.67,425.46z"/>
		<polygon class="st5" points="559.39,227.15 533.78,329.99 530.28,344.08 518.35,391.98 296.81,391.98 340.77,227.15 		"/>
		<polygon class="st6" points="559.39,227.15 562.94,228.34 523.07,395.56 518.35,391.98 		"/>
		<polygon class="st7" points="523.07,395.56 302.89,395.56 296.81,391.98 518.35,391.98 		"/>
		<rect x="398.08" y="425.51" class="st8" width="47.67" height="2.27"/>
		<polygon class="st4" points="410.2,395.56 410.45,397.29 455.28,406.35 454.66,399.03 454.37,395.56 		"/>
		<path class="st9" d="M405.67,425.46c1.82,0.01,37.02,0.12,46.04,0c3.93-0.05,4.62-3.5,4.65-5.73l-44.62-8.4
			c0.46,5.11,0.73,8.38,0.74,9c0,0.36-0.03,0.7-0.09,1.01C411.65,425.33,406.35,425.46,405.67,425.46z"/>
		<polygon class="st9" points="421.04,358.61 518.35,391.98 530.28,344.08 		"/>
		<polygon class="st10" points="559.39,227.15 340.77,227.15 305.29,359.62 527.54,359.62 		"/>
	</g>
	<path class="st10" d="M401.71,376.37c0.63-3.25,3.78-5.88,7.03-5.88c3.25,0,5.37,2.63,4.74,5.88c-0.63,3.25-3.78,5.88-7.03,5.88
		C403.2,382.25,401.08,379.62,401.71,376.37z"/>
	<polygon class="st11" points="315.6,353.88 520.3,353.88 543.48,261.53 545.26,254.45 546.78,248.41 547.99,243.58 550.33,234.25 
		348.59,234.25 348.44,234.76 346.02,243.58 344.68,248.41 343.02,254.45 341.06,261.53 	"/>
	<polygon class="st11" points="315.6,354.2 520.3,354.2 543.48,261.85 545.26,254.77 546.78,248.73 547.99,243.89 550.33,234.56 
		348.59,234.56 348.44,235.08 346.02,243.89 344.68,248.73 343.02,254.77 341.06,261.85 	"/>
	<polygon class="st12" points="345.45,244.31 548.1,244.31 551.12,232.55 348.78,232.55 348.52,233.2 	"/>
	<g>
		<path class="st11" d="M544.72,238.91c0.24-0.98-0.35-1.77-1.33-1.77c-0.98,0-1.97,0.79-2.21,1.77c-0.24,0.98,0.35,1.77,1.33,1.77
			C543.49,240.68,544.48,239.89,544.72,238.91z"/>
		
			<ellipse transform="matrix(0.7495 -0.662 0.662 0.7495 -23.6366 415.3536)" class="st11" cx="537.07" cy="238.91" rx="2.01" ry="1.56"/>
		<path class="st11" d="M532.5,238.91c0.24-0.98-0.35-1.77-1.33-1.77s-1.97,0.79-2.21,1.77c-0.24,0.98,0.35,1.77,1.33,1.77
			C531.27,240.68,532.26,239.89,532.5,238.91z"/>
	</g>
	<g>
		<g>
			<polygon class="st3" points="330.56,344.61 404.92,344.89 426.32,262.96 416.63,252.53 354.67,252.3 			"/>
			<polygon class="st13" points="375.16,266.15 401.36,266.24 401.66,265.09 375.46,265 			"/>
			<polygon class="st13" points="370.97,269.33 403.87,269.46 404.17,268.31 371.27,268.19 			"/>
			<g>
				<polygon class="st13" points="361.93,285.13 404.66,285.28 404.96,284.14 362.23,283.98 				"/>
				<polygon class="st13" points="360.94,288.91 403.67,289.07 403.97,287.92 361.24,287.76 				"/>
				<polygon class="st13" points="359.95,292.69 402.68,292.85 402.98,291.7 360.25,291.54 				"/>
				<polygon class="st13" points="358.96,296.47 401.7,296.63 402,295.48 359.26,295.33 				"/>
				<polygon class="st13" points="357.97,300.26 400.71,300.42 401.01,299.27 358.27,299.11 				"/>
			</g>
			<g>
				<polygon class="st13" points="355.57,309.46 398.3,309.62 398.6,308.47 355.87,308.32 				"/>
				<polygon class="st13" points="354.58,313.25 397.31,313.41 397.61,312.26 354.88,312.1 				"/>
				<polygon class="st13" points="353.59,317.03 396.33,317.19 396.63,316.04 353.89,315.88 				"/>
				<polygon class="st13" points="352.6,320.81 395.34,320.97 395.64,319.82 352.9,319.67 				"/>
				<polygon class="st13" points="351.62,324.6 394.35,324.75 394.65,323.61 351.92,323.45 				"/>
			</g>
		</g>
		<polygon class="st13" points="426.32,262.96 413.92,262.91 416.63,252.53 		"/>
	</g>
	<g>
		<path class="st10" d="M690.81,767.45h-9.13c-1.37,0-2.59-1.04-2.93-2.5l-70.64-301.26l-4.04-17.27l41.37,0l2.63,17.27
			l45.73,299.88C694.1,765.59,692.67,767.45,690.81,767.45z"/>
		<path class="st10" d="M135.89,446.41l-4.04,17.27L61.21,764.94c-0.33,1.47-1.55,2.5-2.93,2.5h-9.13c-1.86,0-3.3-1.86-2.98-3.89
			l45.73-299.88l2.63-17.27L135.89,446.41z"/>
		<polygon class="st14" points="94.52,446.41 135.89,446.41 131.85,463.68 91.89,463.68 		"/>
		<polygon class="st14" points="648.06,463.68 608.11,463.68 604.06,446.41 645.43,446.41 		"/>
		<g id="XMLID_609_">
			<path id="XMLID_27_" class="st10" d="M44.99,446.41l656.22,0c4.75,0,8.6-4.23,8.6-9.46l0,0c0-5.22-3.85-9.46-8.6-9.46l-656.22,0
				c-4.75,0-8.6,4.23-8.6,9.46l0,0C36.39,442.18,40.24,446.41,44.99,446.41z"/>
			<path class="st9" d="M709.81,436.95c0,5.22-3.85,9.46-8.6,9.46l-656.22,0c-2.38,0-4.54-1.06-6.09-2.76
				c-1.55-1.71-2.51-4.08-2.51-6.69L709.81,436.95z"/>
		</g>
	</g>
	<g>
		<g>
			
				<rect x="602.58" y="280.72" transform="matrix(-0.9996 -0.0278 0.0278 -0.9996 1211.0331 709.99)" class="st15" width="15.73" height="131.71"/>
			<g>
				
					<rect x="604.28" y="285.13" transform="matrix(-0.9996 -0.0278 0.0278 -0.9996 1206.3735 588.1554)" class="st16" width="6" height="1.1"/>
				
					<rect x="604.2" y="288.03" transform="matrix(-0.9996 -0.0278 0.0278 -0.9996 1206.1322 593.9462)" class="st16" width="6" height="1.1"/>
				
					<rect x="604.12" y="290.93" transform="matrix(-0.9996 -0.0278 0.0278 -0.9996 1205.8903 599.7384)" class="st16" width="6" height="1.1"/>
				
					<rect x="603.95" y="296.72" transform="matrix(-0.9996 -0.0278 0.0278 -0.9996 1205.4071 611.3204)" class="st16" width="6" height="1.1"/>
				
					<rect x="603.87" y="299.62" transform="matrix(-0.9996 -0.0278 0.0278 -0.9996 1205.1649 617.1124)" class="st16" width="6" height="1.1"/>
				
					<rect x="603.79" y="302.52" transform="matrix(-0.9996 -0.0278 0.0278 -0.9996 1204.9236 622.9032)" class="st16" width="6" height="1.1"/>
				
					<rect x="603.63" y="308.31" transform="matrix(-0.9996 -0.0278 0.0278 -0.9996 1204.4534 634.4606)" class="st16" width="6" height="1.1"/>
				
					<rect x="603.55" y="311.21" transform="matrix(-0.9996 -0.0278 0.0278 -0.9996 1204.2118 640.2521)" class="st16" width="6" height="1.1"/>
				
					<rect x="603.47" y="314.11" transform="matrix(-0.9996 -0.0278 0.0278 -0.9996 1203.9561 646.069)" class="st16" width="6" height="1.1"/>
				
					<rect x="603.31" y="319.9" transform="matrix(-0.9996 -0.0278 0.0278 -0.9996 1203.4723 657.652)" class="st16" width="6" height="1.1"/>
				
					<rect x="603.23" y="322.8" transform="matrix(-0.9996 -0.0278 0.0278 -0.9996 1203.2451 663.4176)" class="st16" width="6" height="1.1"/>
				
					<rect x="603.15" y="325.7" transform="matrix(-0.9996 -0.0278 0.0278 -0.9996 1202.9891 669.2339)" class="st16" width="6" height="1.1"/>
				
					<rect x="602.99" y="331.49" transform="matrix(-0.9996 -0.0278 0.0278 -0.9996 1202.5056 680.8169)" class="st16" width="6" height="1.1"/>
				
					<rect x="602.91" y="334.39" transform="matrix(-0.9996 -0.0278 0.0278 -0.9996 1202.2781 686.584)" class="st16" width="6" height="1.1"/>
				
					<rect x="602.83" y="337.29" transform="matrix(-0.9996 -0.0278 0.0278 -0.9996 1202.0367 692.3748)" class="st16" width="6" height="1.1"/>
				
					<rect x="602.66" y="343.08" transform="matrix(-0.9996 -0.0278 0.0278 -0.9996 1201.5381 703.9829)" class="st16" width="6" height="1.1"/>
				
					<rect x="602.58" y="345.98" transform="matrix(-0.9996 -0.0278 0.0278 -0.9996 1201.2966 709.7735)" class="st16" width="6" height="1.1"/>
				
					<rect x="602.5" y="348.88" transform="matrix(-0.9996 -0.0278 0.0278 -0.9996 1201.0697 715.5407)" class="st16" width="6" height="1.1"/>
				
					<rect x="602.34" y="354.67" transform="matrix(-0.9996 -0.0278 0.0278 -0.9996 1200.5713 727.1475)" class="st16" width="6" height="1.1"/>
				
					<rect x="602.26" y="357.57" transform="matrix(-0.9996 -0.0278 0.0278 -0.9996 1200.3291 732.9397)" class="st16" width="6" height="1.1"/>
				
					<rect x="602.18" y="360.46" transform="matrix(-0.9996 -0.0278 0.0278 -0.9996 1200.0876 738.7305)" class="st16" width="6" height="1.1"/>
				
					<rect x="602.02" y="366.26" transform="matrix(-0.9996 -0.0278 0.0278 -0.9996 1199.604 750.3132)" class="st16" width="6" height="1.1"/>
				
					<rect x="601.94" y="369.16" transform="matrix(-0.9996 -0.0278 0.0278 -0.9996 1199.3623 756.1046)" class="st16" width="6" height="1.1"/>
				
					<rect x="601.86" y="372.05" transform="matrix(-0.9996 -0.0278 0.0278 -0.9996 1199.1201 761.8968)" class="st16" width="6" height="1.1"/>
				
					<rect x="601.7" y="377.85" transform="matrix(-0.9996 -0.0278 0.0278 -0.9996 1198.653 773.4548)" class="st16" width="6" height="1.1"/>
				
					<rect x="601.62" y="380.75" transform="matrix(-0.9996 -0.0278 0.0278 -0.9996 1198.395 779.2701)" class="st16" width="6" height="1.1"/>
				
					<rect x="601.54" y="383.64" transform="matrix(-0.9996 -0.0279 0.0279 -0.9996 1198.1366 785.0861)" class="st16" width="6" height="1.1"/>
				
					<rect x="601.37" y="389.44" transform="matrix(-0.9996 -0.0278 0.0278 -0.9996 1197.6699 796.6442)" class="st16" width="6" height="1.1"/>
				
					<rect x="601.29" y="392.34" transform="matrix(-0.9996 -0.0278 0.0278 -0.9996 1197.4445 802.412)" class="st16" width="6" height="1.1"/>
				
					<rect x="601.21" y="395.23" transform="matrix(-0.9996 -0.0278 0.0278 -0.9996 1197.1866 808.2267)" class="st16" width="6" height="1.1"/>
				
					<rect x="601.05" y="401.03" transform="matrix(-0.9996 -0.0278 0.0278 -0.9996 1196.7025 819.8104)" class="st16" width="6" height="1.1"/>
				
					<rect x="600.97" y="403.93" transform="matrix(-0.9996 -0.0278 0.0278 -0.9996 1196.4788 825.5762)" class="st16" width="6" height="1.1"/>
				
					<rect x="600.89" y="406.82" transform="matrix(-0.9996 -0.0278 0.0278 -0.9996 1196.2367 831.3685)" class="st16" width="6" height="1.1"/>
			</g>
			<g>
				
					<rect x="601.13" y="398.17" transform="matrix(-0.9996 -0.0278 0.0278 -0.9996 1199.7047 814.1302)" class="st16" width="8.76" height="1.1"/>
				
					<rect x="600.81" y="409.76" transform="matrix(-0.9996 -0.0278 0.0278 -0.9996 1198.7377 837.2957)" class="st16" width="8.76" height="1.1"/>
				
					<rect x="604.36" y="282.27" transform="matrix(-0.9996 -0.0278 0.0278 -0.9996 1209.3752 582.4751)" class="st16" width="8.76" height="1.1"/>
				
					<rect x="604.03" y="293.86" transform="matrix(-0.9996 -0.0278 0.0278 -0.9996 1208.4171 605.6237)" class="st16" width="8.76" height="1.1"/>
				
					<rect x="603.71" y="305.45" transform="matrix(-0.9996 -0.0278 0.0278 -0.9996 1207.4504 628.7892)" class="st16" width="8.76" height="1.1"/>
				
					<rect x="603.39" y="317.04" transform="matrix(-0.9996 -0.0278 0.0278 -0.9996 1206.4741 651.9718)" class="st16" width="8.76" height="1.1"/>
				
					<rect x="603.07" y="328.63" transform="matrix(-0.9996 -0.0278 0.0278 -0.9996 1205.5071 675.1371)" class="st16" width="8.76" height="1.1"/>
				
					<rect x="602.74" y="340.22" transform="matrix(-0.9996 -0.0278 0.0278 -0.9996 1204.5398 698.3029)" class="st16" width="8.76" height="1.1"/>
				
					<rect x="602.42" y="351.81" transform="matrix(-0.9996 -0.0278 0.0278 -0.9996 1203.5726 721.4684)" class="st16" width="8.76" height="1.1"/>
				
					<rect x="602.1" y="363.4" transform="matrix(-0.9996 -0.0278 0.0278 -0.9996 1202.6056 744.634)" class="st16" width="8.76" height="1.1"/>
				
					<rect x="601.78" y="374.99" transform="matrix(-0.9996 -0.0278 0.0278 -0.9996 1201.6499 767.7823)" class="st16" width="8.76" height="1.1"/>
				
					<rect x="601.45" y="386.58" transform="matrix(-0.9996 -0.0278 0.0278 -0.9996 1200.6721 790.9642)" class="st16" width="8.76" height="1.1"/>
			</g>
		</g>
		<g>
			
				<rect x="616.42" y="313.58" transform="matrix(-0.9872 -0.1593 0.1593 -0.9872 1174.1384 815.264)" class="st17" width="6.63" height="94"/>
			
				<rect x="624.01" y="312.96" transform="matrix(-0.9872 -0.1593 0.1593 -0.9872 1196.6814 723.0732)" class="st18" width="6.63" height="1.24"/>
			<path class="st17" d="M624.15,312.44l6.54,1.06l0.13-0.82c0.29-1.81-0.94-3.51-2.74-3.8l0,0c-1.81-0.29-3.51,0.94-3.8,2.74
				L624.15,312.44z"/>
			<polygon class="st19" points="608.98,406.44 609.98,410.27 611.04,414.47 613.37,410.84 615.52,407.5 			"/>
			<path class="st17" d="M609.98,410.27l1.07,4.2l2.33-3.63c-0.48-0.32-1.05-0.55-1.66-0.65
				C611.12,410.1,610.53,410.14,609.98,410.27z"/>
			
				<rect x="616.45" y="313.32" transform="matrix(-0.9872 -0.1593 0.1593 -0.9872 1170.917 814.4969)" class="st20" width="3.31" height="94"/>
			
				<rect x="618.08" y="313.58" transform="matrix(-0.9872 -0.1593 0.1593 -0.9872 1174.1243 815.2816)" class="st21" width="3.31" height="94"/>
		</g>
		<g>
			
				<rect x="578.35" y="311.55" transform="matrix(0.9871 -0.1604 0.1604 0.9871 -49.9774 97.9343)" class="st17" width="6.63" height="94"/>
			
				<rect x="585.99" y="404.94" transform="matrix(0.987 -0.1604 0.1604 0.987 -57.4284 99.7921)" class="st18" width="6.63" height="1.24"/>
			<path class="st22" d="M592.67,405.63l-6.54,1.06l0.13,0.82c0.29,1.81,2,3.03,3.8,2.74l0,0c1.81-0.29,3.03-2,2.74-3.8
				L592.67,405.63z"/>
			<polygon class="st19" points="577.4,311.64 575.25,308.32 572.91,304.67 571.84,308.85 570.86,312.7 			"/>
			<path class="st17" d="M575.25,308.32l-2.34-3.65l-1.07,4.18c0.56,0.15,1.17,0.19,1.78,0.09
				C574.22,308.85,574.76,308.62,575.25,308.32z"/>
			
				<rect x="581.65" y="311.29" transform="matrix(0.987 -0.1604 0.1604 0.987 -49.9252 98.2214)" class="st20" width="3.31" height="94"/>
			
				<rect x="580.01" y="311.55" transform="matrix(0.987 -0.1604 0.1604 0.987 -49.9855 97.9541)" class="st21" width="3.31" height="94"/>
		</g>
		<g>
			
				<rect x="597.45" y="297.1" transform="matrix(0.9986 -0.0538 0.0538 0.9986 -17.6394 32.8131)" class="st23" width="6.63" height="94"/>
			
				<rect x="600.01" y="391.03" transform="matrix(0.9986 -0.0538 0.0538 0.9986 -20.1804 32.9972)" class="st18" width="6.63" height="1.24"/>
			<path class="st22" d="M606.66,392.09l-6.62,0.36l0.04,0.83c0.1,1.83,1.66,3.23,3.49,3.13l0,0c1.83-0.1,3.23-1.66,3.13-3.49
				L606.66,392.09z"/>
			<polygon class="st19" points="601.55,297 599.76,293.47 597.83,289.59 596.32,293.63 594.93,297.36 			"/>
			<path class="st24" d="M599.76,293.47l-1.93-3.88l-1.51,4.04c0.54,0.21,1.14,0.31,1.76,0.28
				C598.68,293.88,599.25,293.72,599.76,293.47z"/>
			
				<rect x="600.76" y="297.01" transform="matrix(0.9986 -0.0538 0.0538 0.9986 -17.6446 32.9267)" class="st25" width="3.31" height="94"/>
			
				<rect x="599.11" y="297.1" transform="matrix(0.9986 -0.0538 0.0538 0.9986 -17.6282 32.791)" class="st24" width="3.31" height="94"/>
		</g>
		<g>
			
				<rect x="582.22" y="305.19" transform="matrix(0.9927 -0.1206 0.1206 0.9927 -34.2712 73.2092)" class="st26" width="10.67" height="28.97"/>
			
				<rect x="587.99" y="333.81" transform="matrix(0.9927 -0.1207 0.1207 0.9927 -39.9658 74.2687)" class="st27" width="10.67" height="66.72"/>
			
				<rect x="584.37" y="335.79" transform="matrix(0.9927 -0.1206 0.1206 0.9927 -36.388 73.5991)" class="st26" width="10.67" height="3.11"/>
			
				<rect x="586.27" y="305.37" transform="matrix(0.9927 -0.1207 0.1207 0.9927 -38.3268 73.544)" class="st27" width="3.57" height="95.69"/>
		</g>
		<g>
			<polygon class="st28" points="626.14,360.83 620.33,422.68 619.89,427.5 583.94,427.5 577.69,360.83 			"/>
			<polygon class="st10" points="626.14,360.83 620.33,422.68 590.3,422.68 584.49,360.83 			"/>
		</g>
	</g>
	<g>
		<g>
			<g>
				<path class="st29" d="M85.04,398.18c0,0-18.45-10.8-22.45-32c0,0,17.38,3.6,26.09,32"/>
				<path class="st29" d="M92.32,398.18c0,0,18.45-10.8,22.45-32c0,0-17.38,3.6-26.09,32"/>
				<path class="st29" d="M86.74,396.45c0,0-13.3-16.73-9.38-37.95c0,0,14.91,9.63,12.77,39.26"/>
				<path class="st29" d="M91.04,396.51c0,0,12.9-17.04,8.48-38.16c0,0-14.67,9.98-11.84,39.55"/>
			</g>
		</g>
		<g>
			<rect x="68.14" y="393.88" class="st30" width="40.2" height="33.62"/>
			<rect x="100.44" y="393.88" class="st31" width="7.9" height="33.62"/>
		</g>
	</g>
	<g>
		<path class="st32" d="M252.34,308.25c0,0,6.28,2.15,13.54,3.81c9.97,2.23,21.77,3.52,21.56-3.05c-0.04-1.44-0.04-2.87,0-4.24
			v-0.04c-0.04-0.25-0.04-0.47,0-0.72c0.16-9.12,1.38-16.26,1.38-16.26l-36.48-2.23v0.43C251.98,297.09,252.34,308.25,252.34,308.25
			z"/>
		<path class="st33" d="M252.33,308.25c0,0,5.56,2.15,11.99,3.81l0.11-0.04c0,0,17.77-3.2,18.99-7.25v-0.04
			c-0.04-0.25-0.04-0.47,0-0.72c-0.11-0.54-0.57-1.11-1.51-1.72c-4.58-2.9-11.87-4.26-17.3-4.89c-4.16-0.48-7.27-4.04-7.2-8.23
			c0.02-1.44,0.05-2.5,0.05-2.5l-5.13-0.72C252,297.09,252.33,308.25,252.33,308.25z"/>
		<g>
			<g>
				<path id="XMLID_412_" class="st32" d="M427.33,746.63c0,0,3.4,2.9,7.84,2.9c4.93,0,8.12-2.9,8.12-2.9l-1.88-18.47l-17.92,0.95
					L427.33,746.63z"/>
				<path class="st34" d="M444.94,738.4c0,0-0.07,0.02-0.2,0.07c-1.22,0.35-7.97,2.26-17.57,2.17c-0.89,0-1.85-0.04-2.8-0.09
					c-1.82-8.95-10.01-48.32-13.42-60.07c-2.15-7.3-14.27-55.21-20.15-87.37c-1.54-8.45-2-17.07-1.32-25.63
					c0.15-1.85,0.3-3.65,0.46-5.19c0,0,0,0,0-0.02c-0.09-2-1.02-3.04-2.41-3.45c-4.3-1.35-12.88,3.28-12.88,3.28
					c-3.61,1.28-7.84,2.71-12.42,4.08c-6.82,2.06-14.4,4.02-21.59,5.26c-18.94,3.3-31.04,6.06-47.37,1.17
					c-10.97-3.3-12.9-14.96-13.01-22.26c14.44-3-20.91-41.89-2.22-43.28c0,0,115.48,2.85,132.63,10.84c4,1.87,7.25,3.45,9.86,5.3
					c0,0,7.78,9.66,9.51,15.62c1.76,5.95,3.24,13.77,4.6,23.96C439.75,600.23,444.94,738.4,444.94,738.4z"/>
				<path class="st35" d="M273.86,746.63c0,0,3.35,1.67,7.94,1.67c3.81,0,8.02-1.66,8.06-1.67l0,0l0,0l0,0l0,0
					c0.11,0.03,20.13,6,26.09,7.14c6.48,1.24,13.66,3.17,14.37,8.87c0.79,6.42-3.47,6.91-3.47,6.91l0,0
					c-0.15,0.06-0.32,0.1-0.49,0.1l-55.02,0c-0.65,0-1.25-0.39-1.48-1C265.52,757.05,273.86,746.63,273.86,746.63z"/>
			</g>
			<path class="st36" d="M427.17,740.64c-0.89,0-1.85-0.04-2.8-0.09c-1.82-8.95-10.01-48.32-13.42-60.07
				c-2.15-7.3-14.27-55.21-20.15-87.37c-1.54-8.45-2-17.07-1.32-25.63c0.15-1.85,0.3-3.65,0.46-5.19c0,0,0,0,0-0.02
				c-0.09-2-1.02-3.04-2.41-3.45l1.91-11.34c0,0,7.34,2.24,7.62,12.05c0.26,9.82-1.65,26.65,5.15,60.31
				C408.99,653.51,427.17,740.64,427.17,740.64z"/>
			<g>
				<path class="st35" d="M427.29,746.63c0,0,3.35,1.67,7.94,1.67c3.81,0,8.02-1.66,8.06-1.67l0,0l0,0l0,0l0,0
					c0.11,0.03,20.13,6,26.09,7.14c6.48,1.24,13.66,3.17,14.37,8.87c0.79,6.42-3.47,6.91-3.47,6.91l0,0
					c-0.15,0.06-0.32,0.1-0.49,0.1l-53.59,0c-0.65,0-1.25-0.39-1.48-1C420.38,757.05,427.29,746.63,427.29,746.63z"/>
				<path id="XMLID_103_" class="st32" d="M273.86,746.63c0,0,3.73,2.9,8.17,2.9c4.93,0,7.83-2.9,7.83-2.9l1.73-8.9l-17.4-2.37
					L273.86,746.63z"/>
				<path class="st34" d="M221.45,572.32c2.3-0.18,4.92-0.54,7.9-0.9c3.05-0.39,6.17-0.93,9.26-1.62
					c7.43-1.65,14.72-4.02,20.78-6.14c4.56-1.65,8.44-3.16,11.09-4.2c1-0.36,1.97,0.47,1.76,1.51c-0.22,0.93-0.36,2.01-0.54,3.3
					c-0.5,4.2-0.86,10.27-1.11,17.45c-1.08,32.56,0.39,87.88,1.08,95.85c1.22,13.78,1.54,63.4,1.54,63.4s0.9,0.25,2.19,0.57
					c0.93,0.25,2.05,0.5,3.23,0.68c1.04,0.14,2.12,0.25,3.12,0.25c4.09,0,10.3-0.75,10.3-0.75s23.48-137.27,25.78-175
					c2.3-37.73-0.11-47.06-17.27-55.03c-4.31-2.01-11.52-3.37-19.89-4.31c-0.14-0.04-0.29-0.04-0.39-0.04
					c-16.62-1.83-37.73-1.97-50.04-1.83h-1.83C227.52,507.42,206.99,555.23,221.45,572.32z"/>
			</g>
			<path class="st36" d="M270.6,581.72c-1.08,32.56,0.39,87.88,1.08,95.85c1.22,13.78,1.54,63.4,1.54,63.4s0.9,0.25,2.19,0.57
				c1.47-23.01,2.76-61.24,2.3-97.64c-0.57-46.38,5.06-71.8,5.06-71.8s-6.78-5.64-11.06-7.83
				C271.21,568.48,270.85,574.54,270.6,581.72z"/>
			<path class="st37" d="M221.45,572.32c1.54,1.83,3.45,3.37,5.82,4.56c12.24,6.1,29.19,6.28,43.33,4.85
				c14.93-1.54,26.74-4.85,26.74-4.85l-16.66-69.5v-0.04h-0.39l-50.04-1.83l-1.79-0.07c0,0,0,0.04-0.04,0.07
				C227.52,507.41,206.99,555.23,221.45,572.32z"/>
			<path class="st38" d="M325.84,508.86c0,0-4.15,0.04-7.27-11.25l-87.52-2.69l-7.32,22.78L325.84,508.86z"/>
		</g>
		<path class="st39" d="M515.69,419.23c0,0-2.24,1.94-5.98,1.57c0,0-1.05,0.9-3.52,0.9c-2.47,0-6.81-1.23-6.81-1.23
			s0.52,1.53-2.02,2.06c-1.54,0.32-5.69-0.05-8.74-0.39c-2.28-0.25-4.56,0.05-6.72,0.84c-1.83,0.67-4.09,1.38-5.78,1.57
			c-3.37,0.37-8.15-1.2-8.15-1.2s14.81-9.8,15.11-9.8c0.3,0,12.12-2.09,12.56-2.02C496.1,411.6,515.69,419.23,515.69,419.23z"/>
		
			<rect x="305.43" y="419.68" transform="matrix(-1 -6.018154e-07 6.018154e-07 -1 852.6058 847.4274)" class="st40" width="241.75" height="8.07"/>
		
			<rect x="494.6" y="419.68" transform="matrix(-1 -6.018154e-07 6.018154e-07 -1 1041.7793 847.4276)" class="st16" width="52.58" height="8.07"/>
		<path class="st32" d="M457.66,428.5c0,0,9.05-3,10.69-3.14c1.65-0.14,7.2,1.33,15.31-4.02c2.52-1.66,3.6-3.43,5.12-4.39
			c3.4-2.17,7.5-2.73,11.76-1.55c2.93,0.81,6.37,2.5,9.82,3.37c5.31,1.85,9.82,1.09,8.02-0.7c-0.9-0.9-4.79-2.55-12.51-5.86
			c-7.62-3.27-19.07-8.22-22.04-7.18c-5.98,2.09-12.56,5.68-12.56,5.68l-12.12,2.54"/>
		<path class="st41" d="M296.34,315.44c0,0-3.2-8.03-6.27-10.59c-3.07-2.56-33.44-7.72-40.52-3.67c-7.08,4.06-5.24,12.71-5.24,12.71
			"/>
		<path class="st42" d="M207.27,424.63c4.2,31.66,11.2,60.63,19.35,70.29c0,0,0.04,0,0.04,0.04c1.15,1.33,2.3,2.3,3.48,2.84
			c8.15,3.73,24.63,0.32,35.61-0.11c10.98-0.47,29.83,3.12,41.07,2.23c11.2-0.9,11.74-2.3,11.74-2.3s3.98-1.01,6.78-4.77
			c2.26-3.05,2.3-7.11,0.75-10.55c-8.11-18.31-3.73-56.47-0.25-92.98c0.47-4.88,1.11-9.62,1.8-14.18
			c4.16-26.67,10.66-46.99-1.8-54.03c-18.38-10.37-60.24-17.59-89.6-11.92c0,0-0.11,0.04-0.29,0.07
			c-11.38,2.23-20.86,6.46-26.31,13.17C200.99,333.17,201.53,381.41,207.27,424.63z"/>
		<path class="st43" d="M207.27,424.63c3.55-6.61,3.75-17.84,2.17-34.86c-2.37-25.72-2.5-44.35,1.63-56.43
			c6.95-20.33,22.88-23.44,24.88-24.09c-11.38,2.23-20.86,6.46-26.31,13.17C200.99,333.17,201.53,381.41,207.27,424.63z"/>
		<path class="st43" d="M226.66,494.96c1.15,1.33,2.3,2.3,3.48,2.84c8.15,3.73,24.63,0.32,35.61-0.11
			c10.98-0.47,29.83,3.12,41.07,2.23c11.2-0.9,11.74-2.3,11.74-2.3s3.98-1.01,6.78-4.77c2.26-3.05,2.3-7.11,0.75-10.55
			c-8.11-18.31-3.73-56.47-0.25-92.98c0.47-4.88,1.11-9.62,1.8-14.18c-8.4-3.98-29.4-7-29.4-7s8.18,31.2,13.57,45.41
			c0,0,1.79,45.16,4.2,58.62c2.41,13.46-6.57,23.33-30.8,22.76C261.01,494.31,236.35,501.49,226.66,494.96z"/>
		<g>
			<path class="st44" d="M159.86,769.61L159.86,769.61c2.17,0.68,4.4-0.77,5.03-3.27l49.96-198.25l-14.73-4.63l-43.18,200.38
				C156.4,766.36,157.7,768.93,159.86,769.61z"/>
			<path class="st44" d="M369.42,769.61L369.42,769.61c-2.17,0.68-4.4-0.77-5.03-3.27l-49.96-198.25l14.73-4.63l43.18,200.38
				C372.89,766.36,371.59,768.93,369.42,769.61z"/>
			<path class="st44" d="M308.25,769.72L308.25,769.72c-2.22,0.38-4.29-1.37-4.67-3.93l-29.57-203.67l15.09-2.59l22.63,204.86
				C312.02,766.97,310.47,769.34,308.25,769.72z"/>
			<path class="st44" d="M218.37,769.72L218.37,769.72c2.22,0.38,4.29-1.37,4.67-3.93l29.57-203.67l-15.09-2.59l-22.63,204.86
				C214.6,766.97,216.15,769.34,218.37,769.72z"/>
			<g id="XMLID_415_">
				<path class="st29" d="M145.24,383.39v0.22c0.11,0.75,0.25,1.62,0.47,2.58c2.08,8.76,7.75,20.1,8.83,45.91
					c0.75,18.2-2.33,42.9-0.97,65.37c1.36,22.44,5.28,53.92,28.79,70.75c23.84,17.91,71.8,14.83,100.91,14.14
					c29.11-0.68,101.27-13.82,107.05-24.52c1.33-2.41,1.65-4.49,1.33-6.21c-0.04-0.32-0.11-0.65-0.22-0.97
					c-0.39-1.26-1.11-2.3-2.01-3.19c-2.73-2.76-6.89-3.63-10.66-2.66c-11.74,2.94-46.74,9.66-62.46-10.3
					c-19.06-24.16-10.77-22.11-18.95-80.99c-7.72-55.68-23.3-66.91-52.05-78.04c-24.66-9.48-61.24-8.11-81.17-5.28
					c-4.92,0.68-8.87,1.47-11.31,2.23C148.04,373.87,144.74,378.4,145.24,383.39z"/>
			</g>
		</g>
		<path class="st32" d="M350.66,378.22c0,0,23.8,58.6,24.61,64.61c0.81,6.01-4.52,19.28-16.59,21.17
			c-11.46-1.36-43.32-77.36-43.32-77.36"/>
		<path class="st42" d="M292.89,351.4c0.61,7.12,9.23,27.84,19.52,48.78c18.96-4.04,31.43-11.71,38.59-17.46
			c1.24-1,2.32-1.93,3.24-2.78c-8.45-20.87-17.27-41.09-21.61-51.02c-2.26-5.08-6.8-8.88-11.99-10.01
			c-1.98-0.43-4.02-0.46-6.08-0.07C302.68,321.15,291.91,340.39,292.89,351.4z"/>
		<path class="st43" d="M320.65,318.91c7.58,6.04,20.55,37.59,30.36,63.81c1.24-1,2.32-1.93,3.24-2.78
			c-8.45-20.87-17.27-41.09-21.61-51.02C330.38,323.84,325.84,320.04,320.65,318.91z"/>
		<path class="st32" d="M238.23,232.56c3.89-24.23,27.82-30.81,44.57-28.72c16.75,2.09,23.33,14.96,26.62,27.52
			c0,0,0.24,5.86,0.09,13.67c-0.09,4.85,0.34,9.7,1.29,14.45c0.78,3.91,2.08,5.65,1.72,8.22c-0.32,2.34-5.69,1.58-6.43,3.22
			c-0.3,4.31,0.72,15.85-0.91,19.08c-4.45,8.8-21.77,4.47-21.77,4.47l0.09-0.22c-5.18,0.51-11.62,0.03-19.84-2.05
			C235.32,285.02,234.95,252.97,238.23,232.56z"/>
		<path class="st33" d="M303.69,231.75c0,0-8.77,0.36-9.82,8.58c-1.05,8.23,1.2,10.02-3.29,12.86c-4.49,2.84-7.94,2.39-8.54,5.98
			c-0.6,3.59-0.39,21.26-4.45,26.34c-4.06,5.08-10.64-43.09-10.64-43.09l11.67-15.71L303.69,231.75z"/>
		<path class="st45" d="M298.36,232.26c-7.67,0.59-7.48,15.26-7.78,17.65c-0.16,1.3-4.23,2.18-7.17,3.34
			c-2.83,1.12-3.86,4.53-3.88,7.57c-0.06,9.52-0.69,28.83-4.88,30.22c-5.57,1.85-22.42,2.92-24.39,0.22
			c-1.97-2.69-14.97-17.73-12.79-46.08c2.14-27.88,5.36-31.09,16.08-39.67c6.54-5.23,27.88-5.36,34.31-3.22
			c14.17,4.72,18.24,5.41,21.44,15.01C311.46,223.74,311.46,231.24,298.36,232.26z"/>
		<path class="st46" d="M200.34,368.16c-8.14-0.17-8.79,11.9-0.67,12.56c0.33,0.03,0.66,0.05,1,0.08
			c33.67,2.66,63.11,9.01,73.52,37.26c10.41,28.22,10.84,83.43,18.7,106.76c7.86,23.33,23.12,32.16,48.25,34.71
			c17.7,1.8,39.16-4.81,50.29-8.87c-0.39-1.26-1.11-2.3-2.01-3.19c-2.73-2.76-6.89-3.63-10.66-2.66
			c-11.74,2.94-46.74,9.66-62.46-10.3c-19.06-24.16-10.77-22.11-18.95-80.99c-7.72-55.68-23.3-66.91-52.05-78.04
			C232.23,370.47,215.84,368.49,200.34,368.16z"/>
		<path class="st32" d="M462.36,412.57c0,0-57.58,12.38-69.17,14.52c-12.61,2.33-29.14,4.56-34.57,7.01s-10.53,15.52-10.53,15.52
			s6.95,11.67,10.6,14.39c3.65,2.72,103.67-37.01,103.67-37.01"/>
	</g>
	<g>
		<g>
			
				<rect x="818.82" y="556.11" transform="matrix(0.9977 -0.0674 0.0674 0.9977 -39.975 56.658)" class="st10" width="1.52" height="129.15"/>
		</g>
		<g>
			
				<rect x="790.66" y="332.72" transform="matrix(0.9982 -0.0604 0.0604 0.9982 -29.2038 48.6916)" class="st10" width="1.52" height="350.12"/>
		</g>
		<g>
			<rect x="810.79" y="282.3" class="st10" width="1.52" height="407.69"/>
		</g>
		<g>
			
				<rect x="706.18" y="564.24" transform="matrix(0.0224 -0.9997 0.9997 0.0224 244.8548 1380.3997)" class="st10" width="244.16" height="1.52"/>
		</g>
		<g>
			<path class="st6" d="M810.66,365.7c0,0-42.38-36.14-29.8-72.21c12.58-36.07,74.67-16.55,54.95,48.52
				C835.8,342.01,829.39,358.8,810.66,365.7z"/>
		</g>
		<g>
			<polygon class="st10" points="823.6,347.51 822.09,347.39 825.37,308.69 827.38,302.95 			"/>
		</g>
		<g>
			<polygon class="st10" points="802.75,348.44 801.23,348.41 802.47,287.25 803.79,297 			"/>
		</g>
		<g>
			<polygon class="st10" points="794.91,338.47 787.52,296.51 790.2,302.95 796.4,338.21 			"/>
		</g>
		<g>
			<path class="st29" d="M783.88,425.01c0,0-36.73-47.54-17.61-81.13c19.12-33.6,142.17-5.82,86.54,115.42
				c-55.63,121.24-98.61,39.69-98.61,39.69L783.88,425.01z"/>
		</g>
		<g>
			<polygon class="st10" points="816.05,511.6 814.58,511.21 847.95,385.65 851.93,376.6 			"/>
		</g>
		<g>
			<polygon class="st10" points="805.49,499.65 803.98,499.58 810.4,358.07 812.28,350.09 			"/>
		</g>
		<g>
			<polygon class="st10" points="790.66,453.24 784.36,352.05 786.41,360.54 792.18,453.15 			"/>
		</g>
		<g>
			<path class="st6" d="M811.55,467.76c0,0-5.53-81.57-52.33-51.52c-46.79,30.05-58.36,147.83,52.33,183.62L811.55,467.76z"/>
		</g>
		<g>
			<polygon class="st10" points="818.88,546.16 771.5,431.66 769.13,421.98 820.28,545.58 			"/>
		</g>
		<g>
			<path class="st10" d="M826.6,554.24c-4.24-0.15-11.24-5.45-21.39-16.17c-7.91-8.36-17.65-19.97-28.95-34.5
				c-19.22-24.72-31.01-41.85-31.19-42.1l-4.27-8.71c0.17,0.25,17.47,25.19,36.66,49.88c31.94,41.08,44.38,49.91,49.19,50.09
				L826.6,554.24z"/>
		</g>
		<g>
			<path class="st10" d="M833.68,569.62c-9.75,0-29.71-10.84-59.31-32.21c-21.97-15.87-41.37-31.94-41.56-32.1l6.08,2.99
				c7.38,5.99,72.2,59.8,94.79,59.8V569.62z"/>
		</g>
		<g>
			<path class="st10" d="M767.52,564.41c1.16,0.64,8.24,1.81,26.5,4.96c10.17,1.75,34.99,5.86,45.65,6.12l-0.04,1.52
				c-10.9-0.26-36.2-4.47-46.58-6.26c-8.42-1.46-16.96-3.04-23.43-4.35c-10.35-2.09-10.71-2.48-10.96-2.73L767.52,564.41z"/>
		</g>
		<g>
			<path class="st29" d="M826.56,646.7c0,0-38.66-40.74-29.61-103.34c9.06-62.59,79.49-62.52,78.99-1.72
				C875.44,602.46,862.7,619.37,826.56,646.7z"/>
		</g>
		<g>
			<polygon class="st10" points="829.6,641.76 828.26,641.4 847.56,513.43 850.3,504.83 831.02,633.36 868.11,527.72 868.39,531.61 
							"/>
		</g>
		<g>
			<polygon class="st10" points="826.17,642.73 805.46,543.7 805.28,536.08 825.82,633.55 820.33,510.13 822.57,522.74 
				827.57,642.33 			"/>
		</g>
		<polygon class="st10" points="863.37,682.56 838.89,766.61 784.2,766.61 759.72,682.56 		"/>
		<defs>
			<filter id="Adobe_OpacityMaskFilter" filterUnits="userSpaceOnUse" x="759.72" y="682.56" width="103.64" height="84.05">
				<feFlood  style="flood-color:white;flood-opacity:1" result="back"/>
				<feBlend  in="SourceGraphic" in2="back" mode="normal"/>
			</filter>
		</defs>
		<mask maskUnits="userSpaceOnUse" x="759.72" y="682.56" width="103.64" height="84.05" id="SVGID_1_">
			<g class="st47">
				<defs>
					<filter id="Adobe_OpacityMaskFilter_1_" filterUnits="userSpaceOnUse" x="759.72" y="682.56" width="103.64" height="84.05">
						<feFlood  style="flood-color:white;flood-opacity:1" result="back"/>
						<feBlend  in="SourceGraphic" in2="back" mode="normal"/>
					</filter>
				</defs>
				<mask maskUnits="userSpaceOnUse" x="759.72" y="682.56" width="103.64" height="84.05" id="SVGID_1_">
					<g class="st48">
					</g>
				</mask>
				<linearGradient id="SVGID_2_" gradientUnits="userSpaceOnUse" x1="759.7245" y1="724.5839" x2="863.3693" y2="724.5839">
					<stop  offset="0" style="stop-color:#FFFFFF"/>
					<stop  offset="0.9948" style="stop-color:#000000"/>
				</linearGradient>
				<path class="st49" d="M863.37,682.56c0,0-53.88,9.16-53.88,84.05H784.2l-24.47-84.05L863.37,682.56z"/>
			</g>
		</mask>
		<path class="st9" d="M863.37,682.56c0,0-53.88,9.16-53.88,84.05H784.2l-24.47-84.05L863.37,682.56z"/>
		<path class="st50" d="M775.01,766.65L775.01,766.65c0-0.02,0.01-0.03,0.01-0.05L775.01,766.65z"/>
	</g>
	<g>
		<g>
			<path class="st51" d="M473.79,284.41c-2.46-1.33-3.6-3.84-3.29-6.6l-18.48,1.87c-1.15,8.57,2.49,16.4,10.41,20.25L473.79,284.41z
				"/>
		</g>
		<g>
			<path class="st52" d="M486.66,268.99c3.56,2.17,4.08,6.98,1.04,11.13c-3.12,4.27-8.86,6.3-13.05,4.69l-11.36,15.53
				c12.35,5.36,29.79-0.57,39.18-13.42c9.31-12.73,7.27-27.52-4.45-33.48L486.66,268.99z"/>
		</g>
		<g>
			<path class="st53" d="M470.68,276.82c0.29-1.24,0.88-2.51,1.76-3.73c3.21-4.39,9.17-6.4,13.38-4.55l11.35-15.52
				c-12.37-5.61-30.04,0.31-39.51,13.27c-2.96,4.04-4.77,8.29-5.49,12.4L470.68,276.82z"/>
		</g>
	</g>
	<g>
		<g>
			<polygon class="st54" points="432.17,347.05 423.14,347.05 428.35,328.01 437.38,328.01 			"/>
		</g>
		<g>
			<polygon class="st53" points="443.3,347.05 434.28,347.05 441.69,319.95 450.72,319.95 			"/>
		</g>
		<g>
			<polygon class="st51" points="454.44,347.05 445.41,347.05 454.92,312.32 463.94,312.32 			"/>
		</g>
		<g>
			<polygon class="st52" points="465.57,347.05 456.54,347.05 464.31,318.68 473.33,318.68 			"/>
		</g>
		<g>
			<polygon class="st54" points="476.7,347.05 467.67,347.05 476.37,315.29 485.4,315.29 			"/>
		</g>
		<g>
			<polygon class="st53" points="487.83,347.05 478.81,347.05 489.48,308.08 498.5,308.08 			"/>
		</g>
		<g>
			<polygon class="st55" points="498.97,347.05 489.94,347.05 502.47,301.3 511.49,301.3 			"/>
		</g>
		<g>
			<polygon class="st52" points="510.1,347.05 501.07,347.05 515.46,294.51 524.48,294.51 			"/>
		</g>
	</g>
	<g>
		<g>
			<g>
				<polygon class="st1" points="553.63,7.73 553.63,150.4 739.68,150.4 743.26,7.73 				"/>
			</g>
		</g>
		<g>
			<g>
				<polygon class="st3" points="560.25,17.12 560.25,141.96 728.99,141.96 733.2,17.12 				"/>
			</g>
		</g>
		<g>
			<g>
				<polygon class="st1" points="590.91,38.98 587.76,121.83 705.7,121.83 705.7,38.98 				"/>
			</g>
		</g>
		<g>
			<g>
				<polygon class="st0" points="705.7,121.83 645.1,38.98 587.76,121.83 				"/>
			</g>
		</g>
	</g>
	<g>
		<path class="st0" d="M546.03,751.28c-2.64-2.26-8.54-9.4-3.99-17.72c1.67-3.05,5.21-4.56,8.41-5.9c3.2-1.34,6.57-2.51,9.22-4.76
			c5-4.23,6.38-11.27,9.7-16.92c3.81-6.48,10.92-11.34,18.44-11c8.6,0.39,15.78,7.38,19.03,15.36c3.25,7.98,3.37,16.83,3.43,25.44
			c0.04,4.76-0.17,10.13-3.69,13.35c-3.24,2.97-8.11,3-12.5,2.87c-15.67-0.48-31.35-0.96-47.02-1.44"/>
		<path class="st1" d="M628.39,639.62l-112.43,0l20.25,120.2c0.88,5.25,4.7,9.3,9.6,10.7c0.13,0.04,0.26,0.07,0.39,0.11
			c0.33,0.09,0.66,0.2,1,0.26c0.74,0.15,1.51,0.23,2.29,0.26c0.01,0.04,0.01,0.08,0.02,0.12l0.55-0.09h0h50.11
			c0.94,0,1.86-0.1,2.75-0.27c5.92-0.91,10.65-5.64,11.37-11.75l9.76-82.82l0.44-3.29h-0.05l3.87-32.8L628.39,639.62z M607.18,716.3
			h-11.54l1.17-34.89h13.37L607.18,716.3z M611.29,681.41h11.05l-4.11,34.89l-9.93,0L611.29,681.41z M578.33,754.97l-0.7-30.31
			h16.62l-1.01,30.31H578.33z M560.37,724.66h16.14l0.7,30.31h-14.48L560.37,724.66z M561.62,754.97h-13.54
			c-1.29-8.18-2.96-18.81-4.77-30.31h15.94L561.62,754.97z M559.71,716.3l-2.72-34.89h18.52l0.81,34.89H559.71z M577.44,716.3
			l-0.81-34.89l19.06,0l-1.17,34.89H577.44z M576.43,673.04l-0.75-32.31h21.36l-1.08,32.31L576.43,673.04z M575.32,673.04h-18.98
			l-2.52-32.31h20.75L575.32,673.04z M555.22,673.04h-20.08c-0.71-4.46-1.38-8.69-1.99-12.48c-2.1-13.06-2.88-17.97-3.32-19.82
			h22.87L555.22,673.04z M555.87,681.41l2.72,34.89h-16.61c-0.56-3.54-1.12-7.12-1.69-10.7c-1.3-8.23-2.61-16.47-3.83-24.18H555.87z
			 M540.86,716.3h-10.85l-5.88-34.89h11.21C537.05,692.19,538.95,704.19,540.86,716.3z M542.18,724.66
			c1.65,10.49,3.28,20.83,4.77,30.31h-10.42l-5.11-30.31H542.18z M594.35,754.97l1.01-30.31l11.1,0l-2.6,30.31H594.35z
			 M596.66,666.54l1.51-25.81h15.5l-2.77,32.31L596.66,666.54z M528.76,640.74c0.45,2.34,2.5,15.05,5.25,32.31h-11.28l-5.44-32.31
			L528.76,640.74z M613.67,754.97h-8.69l2.6-30.31h9.66L613.67,754.97z M623.32,673.04h-11.31l2.77-32.31l12.35,0L623.32,673.04z"/>
	</g>
</g>
</svg>
