<?xml version="1.0" encoding="utf-8"?>
<!-- Generator: Adobe Illustrator 23.0.2, SVG Export Plug-In . SVG Version: 6.00 Build 0)  -->
<svg version="1.1" id="Слой_1" xmlns="http://www.w3.org/2000/svg" xmlns:xlink="http://www.w3.org/1999/xlink" x="0px" y="0px"
	 viewBox="0 0 1920 1080" style="enable-background:new 0 0 1920 1080;" xml:space="preserve">
<style type="text/css">
	.st0{fill:#D9E9FE;}
	.st1{fill:#AED3FF;}
	.st2{fill:#739AF0;}
	.st3{fill:#F3F9FF;}
	.st4{fill:#3A4ACE;}
	.st5{fill:#6D89D0;}
	.st6{fill:#A6C7F9;}
	.st7{opacity:0.1;}
	.st8{fill:#3315E8;}
	.st9{fill:#8781F5;}
	.st10{fill:#C2C0F5;}
	.st11{fill:#699DEE;}
	.st12{fill:#FFFFFF;}
	.st13{fill:#FB7369;}
	.st14{fill:#3F3D56;}
	.st15{fill:#B8A7F3;}
	.st16{fill:#AD97F0;}
	.st17{fill:#EDB94E;}
	.st18{fill:#9898F8;}
	.st19{fill:#FFBF29;}
	.st20{fill:none;stroke:#C4C6EC;stroke-width:1.8168;stroke-linejoin:round;stroke-miterlimit:10;}
	.st21{fill:#FFFFFF;stroke:#7F89D3;stroke-width:2.9669;stroke-linejoin:round;stroke-miterlimit:10;}
	.st22{fill:none;stroke:#7F89D3;stroke-width:2.9669;stroke-linejoin:round;stroke-miterlimit:10;}
	.st23{fill:#A9C6FC;}
	.st24{opacity:0.5;}
	.st25{fill:#DC9690;}
	.st26{clip-path:url(#SVGID_2_);fill:#B4DDF0;}
	.st27{clip-path:url(#SVGID_2_);fill:#ACD29A;}
	.st28{clip-path:url(#SVGID_2_);fill:#A9C6FC;}
	.st29{clip-path:url(#SVGID_2_);fill:#DC9690;}
	.st30{clip-path:url(#SVGID_2_);fill:#E9F2FD;}
	.st31{fill:#E9B899;}
	.st32{fill:#DBAA90;}
	.st33{fill:#392F29;}
	.st34{fill:#DBA585;}
	.st35{fill:#493C34;}
	.st36{fill:#343D57;}
	.st37{fill:#404059;}
	.st38{fill:#575A89;}
	.st39{fill:#C75454;}
	.st40{fill:#393D3F;}
	.st41{fill:#1C468A;}
	.st42{fill:#E37970;}
	.st43{fill:#F2564B;}
	.st44{fill:#163560;}
	.st45{fill:#C45446;}
	.st46{fill:#E27D58;}
	.st47{fill:#2F2661;}
	.st48{opacity:0.2;}
	.st49{opacity:0.2;fill:#FFFFFF;}
	.st50{fill:none;stroke:#EDB94E;stroke-width:7.3089;stroke-linecap:round;stroke-miterlimit:10;}
	.st51{fill:none;stroke:#EDB94E;stroke-width:7.1829;stroke-linecap:round;stroke-miterlimit:10;}
	.st52{fill:none;stroke:#EDB94E;stroke-width:7.6626;stroke-linecap:round;stroke-miterlimit:10;}
	.st53{fill:none;stroke:#EDB94E;stroke-width:7.5023;stroke-linecap:round;stroke-miterlimit:10;}
	.st54{fill:none;stroke:#EDB94E;stroke-width:7.5157;stroke-linecap:round;stroke-miterlimit:10;}
	.st55{fill:none;stroke:#EDB94E;stroke-width:7.441;stroke-linecap:round;stroke-miterlimit:10;}
	.st56{fill:#E57970;}
	.st57{fill:#FC9490;}
	.st58{fill:#FCA56B;}
	.st59{fill:#DBA686;}
	.st60{fill:#DFD1CB;}
	.st61{fill:#404347;}
	.st62{fill:#F0C75E;}
	.st63{fill:#263643;}
	.st64{fill:#997761;}
	.st65{fill:#DCA787;}
</style>
<path class="st0" d="M1890,874c-1.2,57.3-38.2,79.3-48,133c-5.5,30.2-23,49.9-48.3,62.2c-2.5,1.2-5,2.3-7.6,3.4h-290.5
	c-15.9-1.5-31.3-2.7-45.7-3.4c-10.5-0.5-20.6-0.8-30-0.6c-17.8,0.2-35.1,0.5-51.9,0.6c-141.6,1.5-248.3,0.7-352.7,0
	c-85-0.5-168.6-1-268.4,0c-40.4,0.4-83.4,1-130.3,2c-1.6,0-6.5,0.6-14.2,1.4H177.9c-3.8-1.1-7.4-2.2-10.9-3.4
	c-21.6-7.3-38.9-16.8-50-29.2c-52.8-58.7-103-71-97-111c45-299.7-12-186.8-5-292c4.9-73.2,292-185.8,322-221
	c29.4-34.5,92.7,0.5,118-42c28-47,96.1-78.3,98.4-134.9c4.2-104,85.7-159.1,177.8-159.6c92-0.5,163.4,52.1,181.2,154.3
	c9.4,54,20.9,107.3,29.9,161.4c9,54.1,78.5,108.6,127.2,109.7c40.3,0.9,73.3-36,94.3-74.9s21.1-139.7,50.3-171
	c42.8-45.9,172.2-68.7,225-39c52.8,29.7,167.3,74.9,175,141s222.6-29.8,189,25c-11.1,18,60,12,75,118c13.7,96.8-82,136.8-68,140
	c40.9,9.3,29,57,80,87C1938.6,759.6,1891.4,804.8,1890,874z"/>
<g>
	<g>
		<rect x="1596.6" y="395.6" class="st1" width="266.3" height="149.9"/>
		<rect x="1605.2" y="395.6" class="st2" width="266.3" height="149.9"/>
		
			<ellipse transform="matrix(0.7071 -0.7071 0.7071 0.7071 161.136 1323.4172)" class="st3" cx="1678.1" cy="467.2" rx="48.1" ry="48.1"/>
		<g>
			<path class="st3" d="M1841.6,440.3h-79.8c-2.9,0-5.3,2.4-5.3,5.3l0,0c0,2.9,2.4,5.3,5.3,5.3h79.8c2.9,0,5.3-2.4,5.3-5.3l0,0
				C1846.9,442.7,1844.5,440.3,1841.6,440.3z"/>
			<path class="st3" d="M1841.6,461.9h-79.8c-2.9,0-5.3,2.4-5.3,5.3l0,0c0,2.9,2.4,5.3,5.3,5.3h79.8c2.9,0,5.3-2.4,5.3-5.3l0,0
				C1846.9,464.3,1844.5,461.9,1841.6,461.9z"/>
			<path class="st3" d="M1841.6,483.6h-79.8c-2.9,0-5.3,2.4-5.3,5.3c0,2.9,2.4,5.3,5.3,5.3h79.8c2.9,0,5.3-2.4,5.3-5.3
				C1846.9,486,1844.5,483.6,1841.6,483.6z"/>
		</g>
		<path class="st4" d="M1634,466.5h44.1v-44.1C1653.7,422.4,1634,442.2,1634,466.5z"/>
		<path class="st4" d="M1722.2,467.9h-44.1h0H1634c0,24.3,19.7,44.1,44.1,44.1l0,0l0,0c0,0,0,0,0,0h0
			C1702.4,512,1722.2,492.3,1722.2,467.9z"/>
		<g>
			<path class="st5" d="M1670.5,443.8h-23.9c-1.4,0-2.5,1.1-2.5,2.5c0,1.4,1.1,2.5,2.5,2.5h23.9c1.4,0,2.5-1.1,2.5-2.5
				C1672.9,445,1671.8,443.8,1670.5,443.8z"/>
			<path class="st5" d="M1652,452.8h-5.4c-1.4,0-2.5,1.1-2.5,2.5c0,1.4,1.1,2.5,2.5,2.5h5.4c1.4,0,2.5-1.1,2.5-2.5
				C1654.5,454,1653.3,452.8,1652,452.8z"/>
		</g>
		<g>
			<path class="st6" d="M1706,478.7h-23.9c-1.4,0-2.5,1.1-2.5,2.5c0,1.4,1.1,2.5,2.5,2.5h23.9c1.4,0,2.5-1.1,2.5-2.5
				C1708.5,479.8,1707.3,478.7,1706,478.7z"/>
			<path class="st6" d="M1687.5,487.7h-5.4c-1.4,0-2.5,1.1-2.5,2.5l0,0c0,1.4,1.1,2.5,2.5,2.5h5.4c1.4,0,2.5-1.1,2.5-2.5l0,0
				C1690,488.8,1688.9,487.7,1687.5,487.7z"/>
		</g>
	</g>
	<g>
		<path class="st1" d="M1577.8,572.4v153.3h266.3V572.4H1577.8z"/>
		<path class="st2" d="M1586.5,572.4v153.3h266.3V572.4H1586.5z"/>
		
			<ellipse transform="matrix(0.4314 -0.9022 0.9022 0.4314 362.1992 1863.3124)" class="st3" cx="1659.3" cy="644.3" rx="48.1" ry="48.1"/>
		<g>
			<path class="st3" d="M1743.1,627.9h79.8c2.9,0,5.3-2.4,5.3-5.3c0-2.9-2.4-5.3-5.3-5.3h-79.8c-2.9,0-5.3,2.4-5.3,5.3
				C1737.8,625.6,1740.2,627.9,1743.1,627.9z"/>
			<path class="st3" d="M1822.8,639.1h-79.8c-2.9,0-5.3,2.4-5.3,5.3c0,2.9,2.4,5.3,5.3,5.3h79.8c2.9,0,5.3-2.4,5.3-5.3
				C1828.1,641.4,1825.7,639.1,1822.8,639.1z"/>
			<path class="st3" d="M1822.8,660.7h-79.8c-2.9,0-5.3,2.4-5.3,5.3l0,0c0,2.9,2.4,5.3,5.3,5.3h79.8c2.9,0,5.3-2.4,5.3-5.3l0,0
				C1828.1,663.1,1825.7,660.7,1822.8,660.7z"/>
		</g>
		<path class="st4" d="M1659.3,645.1l-44.1-0.6c0,0.2,0,0.4,0,0.6c0,24.3,19.7,44.1,44.1,44.1c8.7,0,16.8-2.5,23.7-6.9L1659.3,645.1
			z"/>
		<g>
			<path class="st6" d="M1660.9,659H1637c-1.4,0-2.5,1.1-2.5,2.5v0c0,1.4,1.1,2.5,2.5,2.5h23.9c1.4,0,2.5-1.1,2.5-2.5v0
				C1663.4,660.1,1662.3,659,1660.9,659z"/>
			<path class="st6" d="M1642.5,668h-5.4c-1.4,0-2.5,1.1-2.5,2.5c0,1.4,1.1,2.5,2.5,2.5h5.4c1.4,0,2.5-1.1,2.5-2.5
				C1644.9,669.1,1643.8,668,1642.5,668z"/>
		</g>
	</g>
	<g>
		<rect x="1577.8" y="232.1" class="st1" width="266.3" height="138.9"/>
		<rect x="1586.5" y="232.1" class="st2" width="266.3" height="138.9"/>
		
			<ellipse transform="matrix(0.9579 -0.2872 0.2872 0.9579 -17.3042 489.3033)" class="st3" cx="1659.3" cy="303.6" rx="48.1" ry="48.1"/>
		<path class="st4" d="M1659.3,259.6c-24.3,0-44.1,19.7-44.1,44.1c0,16.7,9.3,31.2,22.9,38.7c7.1-13.1,21.2-38.7,21.2-38.7
			l20.9,38.8c13.8-7.4,23.2-22,23.2-38.8C1703.4,279.3,1683.7,259.6,1659.3,259.6z"/>
		<g>
			<path class="st3" d="M1822.8,276.7h-79.8c-2.9,0-5.3,2.4-5.3,5.3v0c0,2.9,2.4,5.3,5.3,5.3h79.8c2.9,0,5.3-2.4,5.3-5.3v0
				C1828.1,279.1,1825.7,276.7,1822.8,276.7z"/>
			<path class="st3" d="M1822.8,298.4h-79.8c-2.9,0-5.3,2.4-5.3,5.3c0,2.9,2.4,5.3,5.3,5.3h79.8c2.9,0,5.3-2.4,5.3-5.3
				C1828.1,300.7,1825.7,298.4,1822.8,298.4z"/>
			<path class="st3" d="M1822.8,320h-79.8c-2.9,0-5.3,2.4-5.3,5.3c0,2.9,2.4,5.3,5.3,5.3h79.8c2.9,0,5.3-2.4,5.3-5.3
				C1828.1,322.4,1825.7,320,1822.8,320z"/>
		</g>
		<g>
			<path class="st5" d="M1660.9,282.6H1637c-1.4,0-2.5,1.1-2.5,2.5c0,1.4,1.1,2.5,2.5,2.5h23.9c1.4,0,2.5-1.1,2.5-2.5
				C1663.4,283.7,1662.3,282.6,1660.9,282.6z"/>
			<path class="st5" d="M1642.5,291.6h-5.4c-1.4,0-2.5,1.1-2.5,2.5l0,0c0,1.4,1.1,2.5,2.5,2.5h5.4c1.4,0,2.5-1.1,2.5-2.5l0,0
				C1644.9,292.7,1643.8,291.6,1642.5,291.6z"/>
		</g>
	</g>
</g>
<g>
	<g class="st7">
		<path class="st8" d="M433.3,159.9c-5.1-0.1-11.8,0.6-26.6-3.7c-12.6-3.7-15.7-13.5-14.3-18.3c1.4-5.1,6.9-13.5,11.8-15.4
			c11.5-4.2,17.8-4.5,31.7-1.7c-8.8-2.7-11.3-4.8-16.5-10.8c-3.3-3.8-2.9-13.2,0.4-16.2c11.5-10.4,22.3-5.4,38.3,2.4
			c-8.6-5-8.7-5.9-12.2-9.6c-2.6-2.9-4.4-7.2-3.8-11c0.9-5.8,11.5-10.7,17.3-11.3c12.9-1.4,22.8,1.7,34.7,6.9
			c11.9,5.2,21.9,16,23.3,28.8c0.6-8.3,9.5-14.7,17.8-13.7c8.3,1,15.1,8.2,16.9,16.4s-1,16.9-6,23.5c7.6-2.4,13.7-6.1,21.5-4.1
			c7.8,2,16.6,9.2,14,21.4c-0.7,3.5-5.7,14.4-18.8,16.2c-21.3,3.1-26.8,3.2-50.5,2.4L433.3,159.9z"/>
	</g>
	<g class="st7">
		<path class="st8" d="M1262.6,96.8c-5.5-0.1-12.9,0.6-29-3.3c-13.8-3.3-17.1-12.1-15.6-16.4c1.5-4.6,7.5-12.1,12.9-13.7
			c12.6-3.8,19.4-4,34.6-1.5c-9.6-2.4-12.4-4.3-18.1-9.7c-3.6-3.4-3.1-11.8,0.5-14.5c12.6-9.3,24.4-4.9,41.8,2.2
			c-9.4-4.4-9.5-5.2-13.3-8.6c-2.8-2.6-4.8-6.4-4.2-9.8c0.9-5.2,12.6-9.6,18.9-10.2c14.1-1.2,24.9,1.5,37.9,6.1
			c13,4.6,23.9,14.3,25.5,25.8c0.7-7.5,10.3-13.1,19.4-12.3c9.1,0.9,16.5,7.3,18.4,14.7c1.9,7.3-1,15.1-6.5,21.1
			c8.3-2.2,15-5.5,23.4-3.7c8.5,1.8,18.1,8.3,15.3,19.2c-0.8,3.1-6.2,12.9-20.5,14.5c-23.3,2.8-29.3,2.9-55.1,2.2L1262.6,96.8z"/>
	</g>
</g>
<g>
	<g>
		<path class="st9" d="M1089.9,968.3c-3.2,2.8-7.7,1.6-7.7-3.9v-13.2c0-4-3.3-7.2-7.2-7.2h-9.3c1.1,2.1,1.6,4.5,1.6,6.8
			c0,8.1-6.3,14.3-15.1,14.6h-0.3h-0.3c-8.7-0.4-15.1-6.5-15.1-14.6c0-2.4,0.6-4.7,1.6-6.8h-9.6h0h-0.1c-3.9,0-7.1,3.2-7.1,7.1v13.3
			c0,5.5-4.6,6.7-7.7,3.9c-5.2-4.6-13.2-2.1-13.6,6.3c0.4,8.4,8.3,10.9,13.5,6.3c3.2-2.8,7.8-1.6,7.8,3.9v13.1
			c0,3.9,3.2,7.1,7.1,7.1h13.2c5.5,0,6.7,4.6,3.9,7.8c-4.6,5.2-2.1,13.3,6.3,13.7c8.4-0.4,10.9-8.4,6.3-13.7
			c-2.8-3.2-1.6-7.8,3.9-7.8h13.2c3.9,0,7.1-3.2,7.1-7.1v-13.1c0-5.5,4.5-6.7,7.6-3.9c5.2,4.6,13.2,2.1,13.5-6.2
			C1103.1,966.2,1095.1,963.7,1089.9,968.3z"/>
	</g>
</g>
<g>
	<g>
		<path class="st9" d="M1004.6,70.8h-14.1c-5.8,0-7.1-4.8-4.1-8.2c4.9-5.5,2.3-14-6.6-14.3c-8.9,0.4-11.5,8.8-6.6,14.3
			c3,3.3,1.7,8.2-4.1,8.2h-13.8c-4.1,0-7.5,3.3-7.5,7.5v14c0,5.8-4.9,7.1-8.2,4.1c-5.5-4.9-14-2.3-14.4,6.6
			c0.3,8.8,8.9,11.4,14.4,6.5c3.3-3,8.2-1.7,8.2,4.1v13.9c0,4.1,3.3,7.5,7.5,7.5h13.8c5.8,0,7.1,4.7,4.1,8.1
			c-4.9,5.5-2.3,14,6.6,14.3c8.9-0.4,11.5-8.8,6.6-14.3c-3-3.3-1.7-8.1,4.1-8.1h13.9c4.2,0,7.6-3.5,7.6-7.6v-9.8
			c-2.3,1.1-4.7,1.7-7.2,1.7c-8.6,0-15.1-6.7-15.4-15.9v-0.3v-0.3c0.4-9.2,6.9-15.9,15.4-15.9c2.5,0,4.9,0.6,7.2,1.7V78.4v0v-0.1
			C1012.1,74.1,1008.8,70.8,1004.6,70.8z"/>
	</g>
</g>
<path class="st10" d="M1372.3,175.4l4.7-4.7l-4.7-4.7c-2.1-2.1-2.1-5.6,0-7.8c2.1-2.1,5.6-2.1,7.8,0l4.7,4.7l4.7-4.7
	c2.1-2.1,5.6-2.1,7.8,0c2.1,2.1,2.1,5.6,0,7.8l-4.7,4.7l4.7,4.7c2.1,2.1,2.1,5.6,0,7.8c-2.1,2.1-5.6,2.1-7.8,0l-4.7-4.7l-4.7,4.7
	c-2.1,2.1-5.6,2.1-7.8,0C1370.2,181,1370.2,177.6,1372.3,175.4z"/>
<path class="st8" d="M420.4,252.6l4.7-4.7l-4.7-4.7c-2.1-2.1-2.1-5.6,0-7.8c2.1-2.1,5.6-2.1,7.8,0l4.7,4.7l4.7-4.7
	c2.1-2.1,5.6-2.1,7.8,0c2.1,2.1,2.1,5.6,0,7.8l-4.7,4.7l4.7,4.7c2.1,2.1,2.1,5.6,0,7.8c-2.1,2.1-5.6,2.1-7.8,0l-4.7-4.7l-4.7,4.7
	c-2.1,2.1-5.6,2.1-7.8,0C418.3,258.2,418.3,254.7,420.4,252.6z"/>
<path class="st8" d="M1521.2,1030.2l4.7-4.7l-4.7-4.7c-2.1-2.1-2.1-5.6,0-7.8c2.1-2.1,5.6-2.1,7.8,0l4.7,4.7l4.7-4.7
	c2.1-2.1,5.6-2.1,7.8,0c2.1,2.1,2.1,5.6,0,7.8l-4.7,4.7l4.7,4.7c2.1,2.1,2.1,5.6,0,7.8c-2.1,2.1-5.6,2.1-7.8,0l-4.7-4.7l-4.7,4.7
	c-2.1,2.1-5.6,2.1-7.8,0C1519,1035.8,1519,1032.3,1521.2,1030.2z"/>
<path class="st10" d="M20,865.1l4.7-4.7l-4.7-4.7c-2.1-2.1-2.1-5.6,0-7.8c2.1-2.1,5.6-2.1,7.8,0l4.7,4.7l4.7-4.7
	c2.1-2.1,5.6-2.1,7.8,0s2.1,5.6,0,7.8l-4.7,4.7l4.7,4.7c2.1,2.1,2.1,5.6,0,7.8c-2.1,2.1-5.6,2.1-7.8,0l-4.7-4.7l-4.7,4.7
	c-2.1,2.1-5.6,2.1-7.8,0C17.9,870.7,17.9,867.3,20,865.1z"/>
<g>
	<g>
		<path class="st11" d="M413.9,860.5l44.3,35.9c10.2,8.3,18.5,18.4,24.7,30c5.9,11.2,9.6,23.2,10.9,35.8c1.3,12.6,0.2,25.2-3.3,37.3
			c-3.6,12.6-9.7,24.2-17.9,34.4c-8.3,10.2-18.4,18.5-30,24.7c-11.2,5.9-23.2,9.6-35.8,10.9c-12.6,1.3-25.2,0.2-37.3-3.3
			c-12.6-3.6-24.2-9.7-34.4-17.9l-44.3-35.9L321,975l44.3,35.9c10.2,8.3,23.2,12.1,36.4,10.7c13.2-1.4,25.1-7.8,33.4-18
			c8.3-10.2,12.1-23.2,10.7-36.4c-1.4-13.2-7.8-25.1-18-33.4l-44.3-35.9L413.9,860.5z"/>
	</g>
	
		<rect x="260.6" y="949.2" transform="matrix(0.6298 -0.7767 0.7767 0.6298 -653.0835 582.6006)" class="st12" width="48.2" height="54.5"/>
	
		<rect x="353.4" y="834.8" transform="matrix(0.6298 -0.7767 0.7767 0.6298 -529.8458 612.3199)" class="st12" width="48.2" height="54.5"/>
	<path class="st13" d="M435.2,1003.7l37.4,30.3c-8.3,10.2-18.4,18.5-30,24.7c-11.2,5.9-23.2,9.6-35.8,10.9
		c-12.6,1.3-25.2,0.2-37.3-3.3c-12.6-3.6-24.2-9.7-34.4-17.9l-44.3-35.9L321,975l44.3,35.9c10.2,8.3,23.2,12.1,36.4,10.7
		C415,1020.3,426.9,1013.9,435.2,1003.7z"/>
</g>
<path class="st10" d="M546.7,53.3l4.7-4.7l-4.7-4.7c-2.1-2.1-2.1-5.6,0-7.8c2.1-2.1,5.6-2.1,7.8,0l4.7,4.7l4.7-4.7
	c2.1-2.1,5.6-2.1,7.8,0c2.1,2.1,2.1,5.6,0,7.8l-4.7,4.7l4.7,4.7c2.1,2.1,2.1,5.6,0,7.8c-2.1,2.1-5.6,2.1-7.8,0l-4.7-4.7l-4.7,4.7
	c-2.1,2.1-5.6,2.1-7.8,0C544.6,58.9,544.6,55.4,546.7,53.3z"/>
<g>
	<g>
		<path class="st14" d="M426,625.4c-19.4,5.1-30.9,25-25.8,44.4c5.1,19.4,25,30.9,44.4,25.8c19.4-5.1,30.9-25,25.8-44.4
			C465.2,631.8,445.4,620.3,426,625.4z M440.1,678.9c-10.2,2.7-20.6-3.4-23.3-13.6c-2.7-10.2,3.4-20.6,13.6-23.3
			c10.2-2.7,20.6,3.4,23.3,13.6C456.4,665.8,450.3,676.2,440.1,678.9z"/>
	</g>
	<g>
		<path class="st14" d="M436.3,631.4l-15.8,4.2c0,0-6-11.9-4-15.3c2.1-3.5,12.5-6.6,15.8-4.2C435.5,618.4,436.3,631.4,436.3,631.4z"
			/>
	</g>
	<g>
		<path class="st14" d="M449.1,686l-15.8,4.2c0,0,0.6,13.3,4,15.3c3.5,2.1,14.1-0.4,15.8-4.2C454.8,697.7,449.1,686,449.1,686z"/>
	</g>
	<g>
		<path class="st14" d="M414.2,639.4l-6.4,15.1c0,0-13.1-2.5-14.6-6.2c-1.5-3.8,2.4-13.9,6.4-15.1
			C403.4,632.1,414.2,639.4,414.2,639.4z"/>
	</g>
	<g>
		<path class="st14" d="M407.3,661.6l1.5,16.3c0,0-12.7,4-15.8,1.5c-3.2-2.6-4.5-13.4-1.5-16.3C394.4,660.3,407.3,661.6,407.3,661.6
			z"/>
	</g>
	<g>
		<path class="st14" d="M464.5,662.2l-3.5-16c0,0,12.1-5.6,15.5-3.4c3.4,2.2,6.1,12.8,3.5,16C477.5,661.9,464.5,662.2,464.5,662.2z"
			/>
	</g>
	<g>
		<path class="st14" d="M442.7,631.3l13,10c0,0,10.2-8.6,9.6-12.6c-0.5-4.1-9-10.9-13-10C448.5,619.7,442.7,631.3,442.7,631.3z"/>
	</g>
	<g>
		<path class="st14" d="M425.4,691.1l-13-10c0,0-10.2,8.6-9.6,12.6c0.5,4.1,9,10.9,13,10C419.6,702.7,425.4,691.1,425.4,691.1z"/>
	</g>
	<g>
		<path class="st14" d="M457.1,683.3l6.4-15.1c0,0,13.1,2.5,14.6,6.2c1.5,3.8-2.4,13.9-6.4,15.1
			C467.8,690.5,457.1,683.3,457.1,683.3z"/>
	</g>
</g>
<g>
	<g>
		<path class="st14" d="M707,170.8c-41.6,11-66.4,53.6-55.4,95.2c11,41.6,53.6,66.4,95.2,55.4c41.6-11,66.4-53.6,55.4-95.2
			C791.2,184.6,748.6,159.8,707,170.8z M737.4,285.7c-21.9,5.8-44.3-7.3-50.1-29.1c-5.8-21.9,7.3-44.3,29.2-50.1
			c21.9-5.8,44.3,7.3,50,29.1C772.3,257.5,759.2,279.9,737.4,285.7z"/>
	</g>
	<g>
		<path class="st14" d="M729.2,183.7l-33.9,9c0,0-13-25.5-8.7-32.9c4.4-7.6,26.9-14.1,33.9-9C727.3,155.8,729.2,183.7,729.2,183.7z"
			/>
	</g>
	<g>
		<path class="st14" d="M756.7,300.9l-33.9,9c0,0,1.3,28.6,8.7,32.9c7.6,4.4,30.3-1,33.9-9C768.8,326,756.7,300.9,756.7,300.9z"/>
	</g>
	<g>
		<path class="st14" d="M681.8,200.8l-13.7,32.3c0,0-28.1-5.4-31.3-13.2c-3.3-8.1,5.2-29.9,13.7-32.3
			C658.6,185.2,681.8,200.8,681.8,200.8z"/>
	</g>
	<g>
		<path class="st14" d="M667,248.5l3.3,34.9c0,0-27.3,8.6-33.9,3.2c-6.8-5.6-9.6-28.8-3.3-34.9C639.2,245.8,667,248.5,667,248.5z"/>
	</g>
	<g>
		<path class="st14" d="M789.6,249.9l-7.6-34.3c0,0,26-11.9,33.2-7.3c7.4,4.7,13,27.4,7.6,34.3C817.5,249.2,789.6,249.9,789.6,249.9
			z"/>
	</g>
	<g>
		<path class="st14" d="M742.8,183.6l27.9,21.4c0,0,21.8-18.5,20.7-27c-1.2-8.7-19.3-23.4-27.8-21.4
			C755.3,158.6,742.8,183.6,742.8,183.6z"/>
	</g>
	<g>
		<path class="st14" d="M705.7,311.8l-27.8-21.4c0,0-21.8,18.5-20.7,27c1.1,8.7,19.3,23.4,27.8,21.4
			C693.3,336.8,705.7,311.8,705.7,311.8z"/>
	</g>
	<g>
		<path class="st14" d="M773.7,295l13.7-32.3c0,0,28.1,5.4,31.3,13.2c3.3,8.1-5.2,29.9-13.7,32.3C796.8,310.6,773.7,295,773.7,295z"
			/>
	</g>
</g>
<g>
	<g>
		<path class="st14" d="M453.1,727c-16.3,4.3-26,21-21.7,37.2c4.3,16.3,21,26,37.2,21.7c16.3-4.3,26-21,21.7-37.2
			C486,732.4,469.4,722.7,453.1,727z M465,771.9c-8.6,2.3-17.3-2.8-19.6-11.4c-2.3-8.6,2.8-17.3,11.4-19.6
			c8.6-2.3,17.3,2.8,19.6,11.4C478.6,760.9,473.5,769.7,465,771.9z"/>
	</g>
	<g>
		<path class="st14" d="M461.8,732l-13.3,3.5c0,0-5.1-10-3.4-12.9c1.7-3,10.5-5.5,13.3-3.5C461,721.1,461.8,732,461.8,732z"/>
	</g>
	<g>
		<path class="st14" d="M472.5,777.9l-13.3,3.5c0,0,0.5,11.2,3.4,12.9c3,1.7,11.9-0.4,13.3-3.5C477.3,787.7,472.5,777.9,472.5,777.9
			z"/>
	</g>
	<g>
		<path class="st14" d="M443.2,738.7l-5.3,12.7c0,0-11-2.1-12.3-5.2c-1.3-3.2,2-11.7,5.4-12.6C434.2,732.6,443.2,738.7,443.2,738.7z
			"/>
	</g>
	<g>
		<path class="st14" d="M437.4,757.4l1.3,13.7c0,0-10.7,3.4-13.2,1.3c-2.6-2.2-3.7-11.3-1.3-13.7
			C426.6,756.3,437.4,757.4,437.4,757.4z"/>
	</g>
	<g>
		<path class="st14" d="M485.4,757.9l-3-13.4c0,0,10.2-4.7,13-2.9c2.9,1.8,5.1,10.7,3,13.4C496.3,757.7,485.4,757.9,485.4,757.9z"/>
	</g>
	<g>
		<path class="st14" d="M467.1,732l10.9,8.4c0,0,8.5-7.3,8.1-10.6c-0.5-3.4-7.6-9.2-10.9-8.4C472,722.2,467.1,732,467.1,732z"/>
	</g>
	<g>
		<path class="st14" d="M452.6,782.2l-10.9-8.4c0,0-8.5,7.3-8.1,10.6c0.4,3.4,7.6,9.2,10.9,8.4C447.7,792,452.6,782.2,452.6,782.2z"
			/>
	</g>
	<g>
		<path class="st14" d="M479.2,775.6l5.4-12.6c0,0,11,2.1,12.3,5.2c1.3,3.2-2,11.7-5.4,12.7C488.2,781.7,479.2,775.6,479.2,775.6z"
			/>
	</g>
</g>
<g>
	<g>
		<path class="st14" d="M1502.1,750.1c-19.4,5.1-30.9,25-25.8,44.4c5.1,19.4,25,30.9,44.4,25.8c19.4-5.1,30.9-25,25.8-44.4
			C1541.3,756.5,1521.5,745,1502.1,750.1z M1516.2,803.6c-10.2,2.7-20.6-3.4-23.3-13.6c-2.7-10.2,3.4-20.6,13.6-23.3
			c10.2-2.7,20.6,3.4,23.3,13.6C1532.5,790.5,1526.4,800.9,1516.2,803.6z"/>
	</g>
	<g>
		<path class="st14" d="M1512.4,756.1l-15.8,4.2c0,0-6-11.9-4-15.3c2.1-3.5,12.5-6.6,15.8-4.2
			C1511.6,743.1,1512.4,756.1,1512.4,756.1z"/>
	</g>
	<g>
		<path class="st14" d="M1525.3,810.7l-15.8,4.2c0,0,0.6,13.3,4,15.3c3.5,2.1,14.1-0.4,15.8-4.2
			C1530.9,822.4,1525.3,810.7,1525.3,810.7z"/>
	</g>
	<g>
		<path class="st14" d="M1490.3,764.1l-6.4,15.1c0,0-13.1-2.5-14.6-6.2c-1.5-3.8,2.4-13.9,6.4-15.1
			C1479.6,756.8,1490.3,764.1,1490.3,764.1z"/>
	</g>
	<g>
		<path class="st14" d="M1483.5,786.3l1.5,16.3c0,0-12.7,4-15.8,1.5c-3.2-2.6-4.5-13.4-1.5-16.3
			C1470.5,785,1483.5,786.3,1483.5,786.3z"/>
	</g>
	<g>
		<path class="st14" d="M1540.6,786.9l-3.5-16c0,0,12.1-5.6,15.5-3.4c3.4,2.2,6.1,12.8,3.5,16
			C1553.6,786.6,1540.6,786.9,1540.6,786.9z"/>
	</g>
	<g>
		<path class="st14" d="M1518.8,756l13,10c0,0,10.2-8.6,9.6-12.6c-0.5-4.1-9-10.9-13-10C1524.6,744.4,1518.8,756,1518.8,756z"/>
	</g>
	<g>
		<path class="st14" d="M1501.5,815.8l-13-10c0,0-10.2,8.6-9.6,12.6c0.5,4.1,9,10.9,13,10C1495.7,827.4,1501.5,815.8,1501.5,815.8z"
			/>
	</g>
	<g>
		<path class="st14" d="M1533.2,808l6.4-15.1c0,0,13.1,2.5,14.6,6.2c1.5,3.8-2.4,13.9-6.4,15.1C1544,815.2,1533.2,808,1533.2,808z"
			/>
	</g>
</g>
<g>
	<g>
		<path class="st14" d="M1493.5,664.6c-14,3.7-22.3,18-18.7,32c3.7,14,18,22.3,32,18.7c14-3.7,22.3-18,18.7-32
			C1521.9,669.2,1507.5,660.9,1493.5,664.6z M1503.7,703.3c-7.4,1.9-14.9-2.4-16.9-9.8c-1.9-7.4,2.5-14.9,9.8-16.8
			c7.4-1.9,14.9,2.5,16.8,9.8C1515.5,693.8,1511.1,701.3,1503.7,703.3z"/>
	</g>
	<g>
		<path class="st14" d="M1501,668.9l-11.4,3c0,0-4.4-8.6-2.9-11.1c1.5-2.6,9-4.8,11.4-3C1500.3,659.6,1501,668.9,1501,668.9z"/>
	</g>
	<g>
		<path class="st14" d="M1510.2,708.4l-11.4,3c0,0,0.4,9.6,2.9,11.1c2.6,1.5,10.2-0.3,11.4-3
			C1514.3,716.8,1510.2,708.4,1510.2,708.4z"/>
	</g>
	<g>
		<path class="st14" d="M1485,674.7l-4.6,10.9c0,0-9.5-1.8-10.5-4.5c-1.1-2.7,1.8-10.1,4.6-10.9C1477.2,669.5,1485,674.7,1485,674.7
			z"/>
	</g>
	<g>
		<path class="st14" d="M1480,690.7l1.1,11.8c0,0-9.2,2.9-11.4,1.1c-2.3-1.9-3.2-9.7-1.1-11.8C1470.7,689.8,1480,690.7,1480,690.7z"
			/>
	</g>
	<g>
		<path class="st14" d="M1521.3,691.2l-2.6-11.5c0,0,8.8-4,11.2-2.5c2.5,1.6,4.4,9.2,2.5,11.5C1530.7,691,1521.3,691.2,1521.3,691.2
			z"/>
	</g>
	<g>
		<path class="st14" d="M1505.6,668.9l9.4,7.2c0,0,7.3-6.2,7-9.1c-0.4-2.9-6.5-7.9-9.4-7.2C1509.8,660.5,1505.6,668.9,1505.6,668.9z
			"/>
	</g>
	<g>
		<path class="st14" d="M1493.1,712.1l-9.4-7.2c0,0-7.3,6.2-7,9.1c0.4,2.9,6.5,7.9,9.4,7.2C1488.9,720.5,1493.1,712.1,1493.1,712.1z
			"/>
	</g>
	<g>
		<path class="st14" d="M1515.9,706.4l4.6-10.9c0,0,9.5,1.8,10.5,4.5c1.1,2.7-1.8,10.1-4.6,10.9
			C1523.7,711.6,1515.9,706.4,1515.9,706.4z"/>
	</g>
</g>
<g>
	<g>
		<g>
			<path class="st10" d="M572.9,324.7c-14.9-12.8-27.3-30.3-35.5-48c-3.9-8.4-6.9-17.2-9-26.2c-1.2-5.1-2.1-10.3-2.7-15.5
				c-0.5-4.4,0-9.3-1.4-13.5c-0.2-0.6-1-0.4-1.1,0.1c-1.2,4.2-0.1,9.3,0.4,13.6c0.6,4.8,1.4,9.6,2.5,14.3c2.3,10.1,5.7,20,10.2,29.3
				c4.1,8.7,9.1,16.9,15,24.6c6.4,8.3,13.5,14.8,21.5,21.4C572.8,324.9,572.9,324.8,572.9,324.7L572.9,324.7z"/>
		</g>
		<path class="st10" d="M559.1,311.5c0.6-0.4-2.9,1-5.8-0.1c-6.8-2.7-7.3-3.3-14.9-4.8c-0.8-0.2-2.8-0.3-3.5,0.3
			c-0.7,0.6-0.8,1.7-0.4,2.5c0.3,0.8,1,1.4,1.7,1.8c6.9,4.7,14.7,2.3,23.2,1L559.1,311.5z"/>
		<path class="st10" d="M549.7,298.8c0.7-0.4-2.8,1-6.2,0.6c-5.2-1.4-6.6-4-14.6-6.4c-0.9-0.3-3-0.5-3.8,0.1c-0.9,0.6-1.2,1.9-1,2.8
			c0.2,0.9,0.8,1.6,1.5,2.2c6.4,6,20,3.7,24.4,1.7L549.7,298.8z"/>
		<path class="st10" d="M542.8,287.8c0.8-0.2-2.6,1.2-5.6-1c-6.9-5.3-6.6-6.1-15-10.4c-0.9-0.5-3.1-1.3-4.1-0.8
			c-1,0.5-1.4,1.7-1.3,2.7c0.1,1,0.7,1.9,1.4,2.7c6.3,7.8,16.9,8.3,25.1,7.8L542.8,287.8z"/>
		<path class="st10" d="M536,274.8c0.8-0.1-4.6-2.1-7.2-4.8c-8.1-7-6.6-9-14.4-14.6c-0.9-0.6-3-1.7-4-1.4c-1,0.3-1.7,1.5-1.7,2.6
			c0,1.1,0.5,2,1,2.9C515.1,268.3,526,271.9,536,274.8L536,274.8z"/>
		<path class="st10" d="M529.4,255.7c0.7-0.1-3.8-0.6-6.1-3.1c-6-4.5-5.5-8.1-12.2-13.3c-0.7-0.6-2.6-1.6-3.6-1.2
			c-1,0.4-1.6,1.5-1.7,2.5c-0.1,1,0.3,1.9,0.7,2.8C511,251.7,525,257.2,529.4,255.7L529.4,255.7z"/>
		<path class="st10" d="M525.5,241c0.7-0.1-2-1.6-3.6-3.7c-3.7-5.1-4.6-7.3-9.8-11.7c-0.6-0.5-2.1-1.4-3-1.1c-1,0.3-1.8,1.2-2,2.1
			c-0.3,0.9-0.1,1.6,0.1,2.3C509.5,236,517.8,238.7,525.5,241L525.5,241z"/>
		<path class="st10" d="M524.7,229.5c0.6,0.2-1.8-1.5-2.7-4c-2.7-5.2-1-7.5-3.9-12.8c-0.3-0.6-1.3-1.8-2.2-1.9
			c-0.9-0.1-1.8,0.3-2.2,0.9c-0.4,0.6-0.5,1.2-0.5,1.9C513.2,219.9,519.1,225,524.7,229.5L524.7,229.5z"/>
		<path class="st10" d="M562.3,314.6c-0.6,0.3,2.2-1.9,2.5-4.6c0.6-6.4,0.2-7,2.3-13.7c0.2-0.7,1-2.3,1.8-2.6c0.8-0.3,1.9,0,2.4,0.6
			c0.6,0.6,0.8,1.3,0.9,2c1.2,7.2-4.4,12.5-9.3,18.8L562.3,314.6z"/>
		<path class="st10" d="M553,303.3c-0.7,0.4,2.3-1.8,3.9-4.7c1.6-4.9,0.2-7.4,2.5-15c0.3-0.8,1.1-2.7,2.2-3c1-0.4,2.2,0,2.9,0.6
			c0.7,0.6,0.9,1.5,1.1,2.3c1.6,8.2-7.7,18-11.7,20.5L553,303.3z"/>
		<path class="st10" d="M544.6,291.6c-0.7,0.4,2.6-1.1,2.9-4.4c0.5-7.7-0.3-7.9,1.9-16c0.2-0.9,1.1-2.8,2.1-3.2c1-0.4,2.2,0,2.9,0.6
			c0.7,0.7,1,1.5,1.1,2.4c1.8,8.6-4.7,16.1-10.4,21.4L544.6,291.6z"/>
		<path class="st10" d="M536.2,276.6c-0.7,0.2,2.8-3.4,3.8-6.6c3.3-8.6,1.1-9.5,4.9-16.9c0.4-0.8,1.7-2.5,2.8-2.7
			c1.1-0.2,2.2,0.4,2.7,1.2c0.5,0.8,0.6,1.7,0.6,2.6C550.9,263,543.3,270.2,536.2,276.6L536.2,276.6z"/>
		<path class="st10" d="M530.4,261.1c-0.7,0.2,3-2,3.8-4.9c3-6.1,0.8-8.6,4.1-15.5c0.4-0.8,1.5-2.3,2.5-2.4c1-0.1,2.1,0.5,2.7,1.3
			c0.6,0.8,0.7,1.6,0.7,2.5C544.6,250.3,535,260.5,530.4,261.1L530.4,261.1z"/>
		<path class="st10" d="M526.2,244.9c-0.7,0.2,1.3-2.2,2-4.8c1.5-6.1,1.6-8.5,4.7-14.5c0.3-0.7,1.4-2,2.4-2.1c1-0.1,2.1,0.5,2.7,1.2
			c0.6,0.7,0.7,1.5,0.7,2.2C539.3,234.2,532.6,239.9,526.2,244.9L526.2,244.9z"/>
		<path class="st10" d="M524.6,231c-0.6,0.3,1.6-1.6,2-3.8c1.8-4.8-0.3-6.4,1.8-11.4c0.2-0.5,1-1.7,1.9-2c0.9-0.3,1.9,0,2.4,0.3
			c0.6,0.4,0.8,0.9,0.9,1.5C534.8,220.9,529.5,226.2,524.6,231L524.6,231z"/>
	</g>
	<g>
		<path class="st15" d="M562.4,379.2c6.7-7.7-3.5-15.9-13.8-14.2c-8.7,1.4-19.5,6.3-23.7,0.4c-0.3-7.9,6.5-15,11.5-22.1
			c5.1-7.2,7.2-17.3-2.1-21.5c-10.4-4.5-22.5,1.5-33.1,4.5c-4.9,1.4-11.5,1.6-15-1.7c-7.3-6.5,7.4-17.4-3.3-21.5
			c-5-0.7-9.9,0.6-12,3.2c-2.5,3.1-4,8.6-9.5,6.8c-6.3-2-1.8-8.6-6.5-12.4c-3-2.4-8.5-2.4-11.1-0.9c-2.6,1.6-3.1,4.2-3.5,6.7
			c-7.4-2-4.5-7.6-18-10.6c-8.7-1.9-9.1,7.1-1.3,10.9c6.2,3.2,16.6,4.6,16.8,9c0.1,3.1-6,3.4-5.7,6.4c0.3,3.9,8.5,6.1,13.6,6
			c5.2-0.1,13.3,1.8,13.5,5.8c-8.1,0.5-16.5,1.2-20.4,5.6c-3.6,4.3-0.1,14,7.3,17.2c5.2,2.3,9.8,0.4,14.2-1c4.6-1.4,11.4-1.5,15,2.9
			c-3.7,4.6-6.8,11.7-2,16.9c6.5,7.6,20.3-0.9,26.4,6.8c-4.2,3.4-8.4,6.9-10.5,11.8c-2,4.9-1.8,11.7,1.6,15.5
			c6.5,7.7,22.9-2.2,26,8.2c1.1,4.4-1.8,10-1.3,14.5c0.5,6.4,7.2,7.4,13.4,5.2c9.8-3.4,28.2-16.3,28.8-28.3c0-6.3-8.7-8.2-8.7-14.3
			C548.8,386.8,557.1,385.4,562.4,379.2z"/>
		<g>
			<g>
				<path class="st16" d="M457.8,318.5c12.1,4.5,21.9,12.7,30.4,20c9.5,8.8,17.9,17.8,25.5,27.1c7,9.7,12.9,19.6,17.8,29.7
					c4.1,10.3,8.9,21.2,9,32.9c0,0.5-0.8,1.1-1,0.6c-3.4-8.9-5-20-8.5-29.5c-4.5-9.9-9.9-19.5-16.2-28.9
					c-7.1-9.3-15.1-18.4-24.1-27.3c-9.9-8.9-20.6-16.6-33-24.4C457.6,318.5,457.7,318.4,457.8,318.5L457.8,318.5z"/>
			</g>
			<g>
				<path class="st16" d="M505.9,353.3c-0.8-7.5,2.6-15.5,7.8-21.7c0.6-0.7,2-0.1,1.5,0.6c-5.2,6.8-7.1,13.4-8.8,21.1
					C506.3,353.6,505.9,353.6,505.9,353.3L505.9,353.3z"/>
			</g>
			<g>
				<path class="st16" d="M476.3,326.2c0.1,0,0.1,0,0.2,0.1c0.1,0,0.1,0.1,0.1,0.2c0,0.1,0,0.1-0.1,0.2c0,0.1-0.2,0.1-0.4,0.1
					c-1.9-0.7-1.6-3.9-1.7-5c-0.2-2.3-0.5-5.1,1.1-7c0.2-0.2,0.8,0,0.8,0.2c0.3,1.9-0.5,3.7-0.5,5.6
					C475.8,322.3,476.1,324.5,476.3,326.2C476.3,326.2,476.3,326.2,476.3,326.2L476.3,326.2z"/>
			</g>
			<g>
				<path class="st16" d="M487.1,342.2c-4.3-0.5-8.6-0.6-12.5,0.3c-2,0.5-4.3,2.2-6.5,1.9c-0.2,0-0.4-0.2-0.4-0.4
					c0.7-1.7,4.5-2.4,6.6-2.8c4-0.8,8.4-0.5,12.8,0C487.8,341.4,487.8,342.3,487.1,342.2L487.1,342.2z"/>
			</g>
			<g>
				<path class="st16" d="M523,392.6c-6.8-1.2-12.3-0.5-18.4,3c-0.6,0.4-1.2-0.6-0.6-1.1c5.3-4,13.5-5.3,19.3-2.5
					C523.7,392.1,523.4,392.7,523,392.6L523,392.6z"/>
			</g>
			<g>
				<path class="st16" d="M533.2,395.7c1.9-6.4,6.5-14.7,13.9-17.9c0.8-0.3,1.4,0.5,0.6,1c-7.3,4.7-9.8,10.5-14,17
					C533.5,396,533.1,396,533.2,395.7L533.2,395.7z"/>
			</g>
			<g>
				<path class="st16" d="M510.5,367.9c-8.4-2.4-17.3-5.8-24.8-1.4c-0.7,0.4-1.5-0.7-0.8-1.1c7.3-4,17.8-1.7,25.6,2.3
					C510.7,367.7,510.6,367.9,510.5,367.9L510.5,367.9z"/>
			</g>
		</g>
	</g>
	<g>
		<path class="st17" d="M582.6,438.4c-19.1-4.6-33.6,20.3-48.4-4.9c-2.4-3.7-3.6-8.3-4-13c-1.4-15.7-18.8-32.2-36.3-24.3
			c-9,4-16.1,13.6-25.4,12.9c-3.4-0.2-6.3-1.8-9.2-3.4c-12.1-6.3-25.5-12.7-40.5-12c-16.3,0.7-31.3,10-35.6,21.9
			c-4,11.7,2.4,25.7,14.6,33.9c10.3,7.4,24.1,10.5,32.3,19.6c8.4,9.8,9.3,24.4,18.7,33.1c15.9,16.2,44.8-0.5,58.6,17.2
			c4.9,7,5.6,17.3,10,24.7c4.8,8.6,13.4,11.7,21.5,11.3c8.2-0.5,16.4-4.1,24.8-6.3c10.4-2.7,20.2-8.4,30.1-10.3
			c5.8-1.1,11.3-8.5,12.1-16.4C609.9,472.5,608.6,445.3,582.6,438.4z"/>
		<g>
			<path class="st18" d="M417.7,430.1c11,0.9,21.8,2.7,32.3,5c-4.2-5.4-8.4-12.2-8-18.7c0-0.3,0.7-0.5,0.8-0.2
				c1.3,3,1.7,6.2,2.9,9.2c1.4,3.4,3.2,6.6,5.3,9.8c0,0,0,0.1,0,0.1c4.6,1,9.1,2.2,13.6,3.5c16.3,5.2,31.4,12.4,44.1,18.8
				c2.7,1.6,5.3,3.1,7.9,4.7c-3-5.1-5.8-10.5-8.2-16c-2.2-1.4-4.2-3.2-6.2-4.7c-2.9-2.1-5.9-4.2-9-6.2c-0.8-0.5,0.5-1.7,1.2-1.1
				c2.9,2.1,5.8,4.2,8.6,6.5c1.4,1.1,3,2.3,4.4,3.5c-2.6-6.3-4.6-12.7-5.6-19.4c-0.1-0.9,1.4-1.4,1.7-0.5c4,13,7.7,25.5,14.2,37.7
				c0.2,0.3-0.1,0.7-0.4,0.8c19.5,11.8,36.3,23.4,51,35.4c-0.6-6.5-1-13.1-0.9-19.9c-1.3-2.2-2.3-4.8-3.4-7.1
				c-1.6-3.2-3.3-6.4-5.1-9.5c-0.5-0.8,1.1-1.7,1.5-0.9c1.6,3.2,3.2,6.5,4.7,9.8c0.8,1.8,1.7,3.6,2.4,5.4c0.2-7.5,1.1-15.1,2.9-22.7
				c0.2-1,1.7-1.1,1.6-0.1c-1.9,15.2-3.5,29.9-2.6,44.8c0,0.3-0.2,0.6-0.5,0.7c2.5,2,4.9,4.1,7.2,6.1c0.1-0.1,0.1-0.1,0.2-0.2
				c0.6-0.4,1,0.2,0.5,0.7c0,0,0,0,0,0c9.5,8.3,18,16.8,25.8,25.6c10.6,14.4,19.7,30.3,27.2,47.3c0.3,0.6,0,1.4-0.6,1.7
				c-0.2,0.1-0.3,0.1-0.5,0.1c-0.5,0-1-0.3-1.2-0.8c-7.4-16.8-16.4-32.6-26.9-46.7c-7.7-8.7-16.1-17.1-25.5-25.4
				c-12,11.9-28.3,16.5-41.8,21.7c-0.3,0.1-0.4-0.3-0.1-0.5c6.9-3,13.9-6,20.9-9.2c7.2-3.3,13.4-7.9,20-12.9
				c-12.7-11-27.2-21.8-43.8-32.5c-1.2,1.2-2.5,1.8-4.4,3c-5.3,3.2-10.6,6.1-15.8,9.1c-7.3,4.2-15.1,10.5-23.4,11.1
				c-0.5,0-0.6-0.7-0.1-0.8c8.2-2,15.5-7,23-11.3c6.2-3.5,14.3-6.8,20.2-11.5c-7.1-4.5-14.5-9.1-22.3-13.7
				c-8.7-4.4-18.7-9.2-29.3-13.5c-7.9,1.4-15.4,2.8-22.1,7c-6.7,4.1-11.6,9.7-17.5,14.1c-0.1,0-0.2,0-0.1-0.1
				c5.2-5.7,11.7-12.3,19.4-16.5c5.5-3,11.8-4.4,18.2-5.4c-4-1.5-8-3-12.1-4.3c-14.6-4.3-30.2-7.2-46.3-8.6
				c-0.7-0.1-1.2-0.7-1.2-1.4C416.4,430.5,417.1,430,417.7,430.1z"/>
			<path class="st18" d="M450.5,421.1c-1.1,1.8-1.9,3.9-3.6,5.4c-0.1,0.1-0.3,0-0.3-0.1c0.3-1.9,1.8-3.9,2.8-5.7
				c1.2-2.1,2.4-4.3,3.7-6.4c0.4-0.6,1.6-0.3,1.2,0.4C453.1,416.9,451.8,419,450.5,421.1z"/>
			<path class="st18" d="M455.1,451.3c0.3,0.1,0.1,0.4-0.1,0.4c-3.9,0.5-7.9,0-11.9,0.3c-4.6,0.4-9,1.1-13.4,2
				c-0.1,0-0.2-0.1-0.1-0.2C436.9,451.5,447.5,449.3,455.1,451.3z"/>
			<path class="st18" d="M510.8,482.8c0.4,0,0.3,0.7-0.1,0.7c-10.7-0.8-21.3,0.6-31.9,0.3c-0.3,0-0.4-0.4-0.1-0.5
				C488.7,480.7,500.7,481.7,510.8,482.8z"/>
			<path class="st18" d="M547.4,524.1C547.4,524,547.4,524,547.4,524.1c-0.7,3.5-3.1,7.1-5,10.1c-1.8,2.8-3.9,6.7-6.7,8.3
				c-0.2,0.1-0.4-0.1-0.3-0.3c1.3-2.9,4-5.3,5.9-8C543.4,530.9,545,527.1,547.4,524.1z"/>
		</g>
	</g>
	<path class="st10" d="M659.8,749.1c-3.9-7-8.4-13.6-13.6-19.7c0.4-0.8,0.8-1.6,1-2.2c0.4-1.4,0.7-3.8,1.1-5.2
		c1.2-3.3,2.3-6.7,2.3-10.1c0-3.5-1.2-7.1-4-9.2c-0.5-0.4-1.1-0.7-1.7-0.7c-0.8,0-1.4,0.6-1.9,1.2c-1.4,1.8-2.2,4-2.6,6.3
		c-1,5.2,0.4,10.8,2.2,15.8c-6.3-6.8-13.3-13.1-20.9-18.5c0.3-0.7,0.6-1.4,0.7-1.9c0.4-1.4,0.4-3.8,0.8-5.2c1-3.3,1.9-6.8,1.7-10.3
		c-0.2-3.5-1.7-7.1-4.6-9c-0.5-0.3-1.1-0.6-1.8-0.6c-0.8,0.1-1.3,0.7-1.8,1.3c-1.3,1.9-1.9,4.1-2.2,6.4c-0.8,5.6,1.3,11.4,3.5,16.6
		c-6-4.1-12.3-7.8-18.9-10.9c0.5-0.8,0.9-2,1.1-2.7c0.4-1.4,0.4-3.8,0.8-5.2c1-3.3,1.9-6.8,1.7-10.3c-0.2-3.5-1.7-7.1-4.6-9
		c-0.5-0.3-1.1-0.6-1.8-0.6c-0.8,0.1-1.3,0.7-1.8,1.3c-1.3,1.9-1.9,4.1-2.2,6.4c-0.8,5.8,1.4,11.9,3.8,17.3c0.2,0.4,0.3,0.9,0.4,1.5
		c-3.7-1.7-7.5-3.2-11.3-4.8c-4.5-1.5-8.9-3.1-13.5-4.3c-1.4-0.4-2.8-0.7-4.2-1.1c0.1-0.3,0.1-0.5,0.2-0.7c0.3-1.5,0.2-3.8,0.5-5.3
		c0.8-3.4,1.4-6.9,1-10.3c-0.4-3.5-2.1-6.9-5.1-8.7c-0.6-0.3-1.2-0.6-1.8-0.5c-0.7,0.1-1.3,0.8-1.7,1.4c-1.2,1.9-1.7,4.3-1.8,6.5
		c-0.4,5.7,2,11.4,4.6,16.5c-6.3-1.5-12.6-2.8-18.8-4.4c-5-1.3-10-2.8-14.7-4.7c0.7-0.7,1.5-1.6,1.8-2.2c0.8-1.3,1.5-3.5,2.3-4.7
		c1.9-2.9,3.8-5.9,4.6-9.3c0.8-3.4,0.5-7.2-1.7-9.9c-0.4-0.5-0.9-1-1.5-1.1c-0.7-0.1-1.5,0.3-2.1,0.7c-1.8,1.4-3.1,3.4-4,5.5
		c-2.5,5.3-2.1,11.8-1.5,17.6c0.1,0.6-0.1,1.7-0.1,2.6c-2.9-1.2-5.7-2.6-8.3-4.3c-3.8-2.3-7.2-5.3-10-8.7c-1.4-1.5-2.4-3.3-3.5-5
		c1-0.2,2.3-0.8,3.1-1.3c1.3-0.8,3-2.4,4.3-3.1c3-1.7,6.1-3.5,8.4-6.1c2.3-2.6,3.7-6.2,3-9.6c-0.1-0.6-0.4-1.3-0.9-1.7
		c-0.6-0.5-1.4-0.4-2.2-0.3c-2.2,0.4-4.3,1.6-6.1,3c-4.6,3.6-7.3,9.5-9.4,15c-0.2,0.6-0.8,1.4-1.2,2.1c-0.7-1.5-1.5-3-1.9-4.6
		c-2.1-6.2-2.7-12.7-2.6-19.4c0.1,0,0.2,0.1,0.4,0c0.9,0,2.8-0.5,3.7-1c1.3-0.6,3.2-2.1,4.6-2.7c3.2-1.4,6.4-2.8,9-5.2
		c2.6-2.4,4.4-5.8,4-9.2c-0.1-0.6-0.2-1.3-0.7-1.7c-0.5-0.5-1.4-0.6-2.1-0.6c-2.3,0.1-4.4,1.1-6.4,2.3c-5,3.1-8.3,8.7-10.9,13.9
		c-0.3,0.6-1,1.4-1.6,2.1c0.1-1.9,0.1-3.9,0.3-5.8c0.4-6,0.9-12.1,1.1-18.2c0,0,0,0,0.1,0c0.9,0,2.8-0.5,3.7-1
		c1.3-0.6,3.2-2.1,4.6-2.7c3.2-1.4,6.4-2.8,9-5.2c2.6-2.4,4.4-5.8,4-9.2c-0.1-0.6-0.2-1.3-0.7-1.7c-0.5-0.5-1.4-0.6-2.1-0.6
		c-2.3,0.1-4.4,1.1-6.4,2.3c-5,3.1-8.3,8.7-10.9,13.9c-0.2,0.5-0.7,1-1.2,1.6c0-2.4,0-4.8-0.1-7.1l-0.3-3.5l-0.2-1.8l-0.3-1.7
		c-0.2-1.2-0.4-2.3-0.7-3.5l-1.1-3.4c-0.2-0.7-0.4-1.3-0.7-1.9c1.1-0.8,2.7-2.4,3.3-3c1-1.1,2.2-2.1,3.2-3.1
		c2.6-2.4,5.1-4.8,6.7-7.9c1.6-3.1,2.2-6.9,0.7-10c-0.3-0.6-0.6-1.1-1.2-1.4c-0.7-0.3-1.5-0.1-2.2,0.2c-2.1,0.9-3.8,2.5-5.2,4.3
		c-3.7,4.5-5.2,9.9-6,15.7c-0.1,0.5-0.4,1.4-0.7,2.3c-0.3-0.6-0.5-1.2-0.9-1.7c-1.2-2.1-2.5-4.1-4.1-5.9c-2.8-3.3-6.1-6.1-9.7-8.4
		c0.3-1.1,0.4-2.8,0.7-3.5c0.4-1.4,0.9-2.8,1.4-4.2c1.2-3.3,2.3-6.7,2.3-10.1c0-3.5-1.3-7.1-4-9.2c-0.5-0.4-1.1-0.7-1.7-0.7
		c-0.8,0-1.4,0.6-1.9,1.2c-1.4,1.8-2.2,4-2.6,6.3c-1.2,5.7-0.6,11.8,1.4,17.3c0,0.1,0.1,0.3,0.2,0.4c-3.1-1.7-6.3-3.3-9.6-4.6
		c-3-1.2-6-2.3-9.1-3.4c0.2-0.9,0.3-1.9,0.4-2.5c0.4-1.4,0.9-2.8,1.4-4.2c1.2-3.3,2.3-6.7,2.3-10.1c0-3.5-1.3-7.1-4-9.2
		c-0.5-0.4-1.1-0.7-1.7-0.7c-0.8,0-1.4,0.6-1.9,1.2c-1.4,1.8-2.2,4-2.6,6.3c-1.2,5.7-0.6,11.8,1.4,17.3c0,0.1,0.1,0.2,0.1,0.4
		c-4.2-1.4-8.5-2.8-12.6-4.4c-2.5-0.9-4.9-2-7.4-3.1c0.4-0.8,0.7-1.6,1-2.1c0.8-1.3,1.6-2.5,2.5-3.7c2-2.9,3.9-5.9,4.8-9.2
		c0.9-3.4,0.6-7.2-1.6-9.9c-0.4-0.5-0.9-1-1.5-1.1c-0.7-0.1-1.5,0.2-2.1,0.7c-1.8,1.3-3.1,3.3-4.1,5.4c-2.6,5.3-3.6,11.3-3,17.1
		c0,0.2,0.1,0.6,0.1,0.9c-4.3-2.3-8.4-5-11.8-8.4c-1.9-1.9-3.6-3.9-5.1-6.1c0.8-0.5,1.8-1.6,2.4-2c1-0.7,2.1-1.4,3.2-2.1
		c2.5-1.6,5.1-3.3,6.9-5.6s3-5.5,2.2-8.3c-0.1-0.5-0.4-1.1-0.8-1.4c-0.5-0.4-1.3-0.3-1.9-0.2c-1.9,0.4-3.6,1.6-5.1,2.8
		c-3.8,3.2-6.7,7.6-8.2,12.4c-0.1,0.4-0.3,1-0.5,1.6c-0.3-0.6-0.7-1.2-1-1.8c-2-4-3.4-8.3-4.4-12.8c-0.1-0.5-0.2-1-0.3-1.5
		c0.6-0.4,1.2-1.1,1.6-1.4c0.8-0.6,1.6-1.1,2.4-1.6c1.9-1.2,3.9-2.5,5.3-4.3c1.4-1.8,2.2-4.2,1.7-6.3c-0.1-0.4-0.3-0.8-0.6-1
		c-0.4-0.3-1-0.2-1.4-0.1c-1.5,0.3-2.7,1.2-3.9,2.1c-2.6,2.2-4.6,5.1-5.8,8.3c-1.1-7.1-1.5-14.4-1.8-21.7l-0.5,0
		c-0.3,4.6-0.4,9.3-0.3,13.9c0.1,3.1,0.2,6.3,0.5,9.4c-0.1,0-0.2-0.1-0.3-0.1c-0.9-0.4-1.7-0.8-2.6-1.3c-2-1-4.1-2-6.4-2.3
		c-2.3-0.3-4.7,0.2-6.3,1.9c-0.3,0.3-0.6,0.7-0.6,1.1c0,0.5,0.3,0.9,0.6,1.3c1,1.1,2.4,1.7,3.8,2.2c3.6,1.2,7.6,1.4,11.3,0.5
		c0.2,0,0.5-0.1,0.8-0.2c0.1,0.5,0.1,1,0.2,1.5c0.8,4.6,2,9.3,4,13.7c0.3,0.6,0.5,1.1,0.8,1.7c-0.4-0.1-0.7-0.1-1-0.2
		c-1.2-0.4-2.4-0.9-3.6-1.3c-2.8-1.1-5.7-2.1-8.6-2.2c-3-0.1-6.1,0.9-8,3.3c-0.3,0.4-0.6,0.9-0.6,1.5c0,0.7,0.5,1.2,1,1.6
		c1.5,1.3,3.4,1.9,5.3,2.4c4.9,1.1,10.1,0.8,14.8-0.9c0.6-0.2,1.5-0.5,2.4-1c1.6,2.6,3.4,5,5.5,7.1c2.7,2.8,5.7,5.1,8.8,7.2
		c-0.2,0-0.4-0.1-0.6-0.1c-2.9-0.7-5.9-1.3-8.8-1c-3,0.3-6,1.7-7.5,4.3c-0.3,0.5-0.5,1-0.4,1.5c0.1,0.6,0.6,1.1,1.2,1.5
		c1.6,1.1,3.6,1.5,5.6,1.7c5,0.5,10.1-0.5,14.6-2.8c0.6-0.3,1.6-0.8,2.4-1.4c3,1.5,6,2.8,9.1,4c2.9,1.1,5.8,2.1,8.6,3.1
		c-2.9,0.3-5.8,0.7-8.4,2c-2.7,1.3-5,3.6-5.6,6.6c-0.1,0.5-0.1,1.1,0.1,1.6c0.3,0.6,1,0.8,1.6,1c1.9,0.4,3.9,0.2,5.8-0.3
		c4.9-1.3,9.3-3.9,12.8-7.6c0.2-0.2,0.5-0.5,0.8-0.9c3.5,1.2,7.1,2.3,10.5,3.6c3.3,1.2,6.5,2.5,9.6,4.1c0,0,0,0,0,0
		c-1.3,0.2-2.5,0.3-3.8,0.5c-3,0.3-6,0.7-8.7,2c-2.7,1.3-5,3.6-5.6,6.6c-0.1,0.5-0.1,1.1,0.1,1.6c0.3,0.6,1,0.8,1.6,1
		c1.9,0.4,3.9,0.2,5.8-0.3c4.9-1.3,9.3-3.9,12.8-7.6c0.4-0.4,1-1,1.5-1.7c3.6,2.1,6.9,4.5,9.7,7.6c1.6,1.6,2.9,3.4,4.1,5.3
		c0.5,0.8,0.9,1.7,1.4,2.5c-0.8,0-1.8,0-2.3,0c-1.3-0.2-2.5-0.4-3.8-0.6c-2.9-0.5-5.9-0.9-8.9-0.5c-2.9,0.5-5.8,2.1-7.2,4.8
		c-0.2,0.5-0.4,1-0.3,1.6c0.1,0.6,0.7,1.1,1.3,1.4c1.7,1,3.7,1.2,5.7,1.3c5,0.1,10.1-1.2,14.4-3.7c0.6-0.3,1.6-1,2.4-1.7
		c0.1,0.3,0.3,0.6,0.4,0.9l1.1,3.2c0.3,1.1,0.5,2.2,0.8,3.3l0.4,1.7l0.2,1.7l0.4,3.4c0.2,2.7,0.2,5.3,0.1,8
		c-0.9-0.4-2.3-0.8-2.9-1.1c-1.1-0.6-2.2-1.2-3.4-1.8c-2.6-1.5-5.3-2.9-8.2-3.4c-2.9-0.5-6.2,0-8.4,2.1c-0.4,0.4-0.8,0.8-0.8,1.4
		c-0.1,0.6,0.3,1.3,0.7,1.7c1.3,1.5,3.1,2.4,4.9,3.1c4.7,1.8,9.9,2.2,14.8,1.3c0.7-0.1,2.2-0.4,3.1-0.9c-0.3,5.7-0.9,11.5-1.3,17.3
		c-0.1,1.8-0.3,3.5-0.3,5.3c-0.8-0.5-1.8-0.9-2.3-1.2c-1.1-0.7-2.1-1.5-3.1-2.2c-2.4-1.8-4.9-3.5-7.7-4.4c-2.8-0.9-6.2-0.8-8.6,1
		c-0.4,0.3-0.9,0.7-1,1.3c-0.2,0.6,0.1,1.3,0.5,1.8c1.1,1.6,2.7,2.8,4.5,3.7c4.4,2.4,9.5,3.5,14.5,3.2c0.7,0,2.1-0.1,3.1-0.4
		c-0.1,2-0.1,4-0.1,6.1c0.2,4.7,0.6,9.5,2,14c0.2,0.9,0.5,1.7,0.8,2.6c-0.2-0.1-0.3-0.2-0.4-0.3c-1-0.8-2-1.6-3-2.4
		c-2.3-1.9-4.7-3.8-7.5-4.8c-2.8-1-6.1-1.1-8.6,0.5c-0.5,0.3-0.9,0.7-1.1,1.2c-0.2,0.6,0.1,1.3,0.4,1.9c1,1.7,2.6,2.9,4.3,3.9
		c4.3,2.6,9.3,4,14.3,4c0.7,0,2,0,3.1-0.3c0.1,0.1,0.1,0.3,0.2,0.4c1.2,2.1,2.3,4.3,3.8,6.1c2.9,3.9,6.5,7.2,10.5,9.8
		c1.1,0.7,2.2,1.4,3.4,2.1c-2.7-0.3-5.5-0.5-8.1,0.1c-2.9,0.6-5.7,2.4-6.9,5.1c-0.2,0.5-0.4,1.1-0.2,1.6c0.2,0.6,0.8,1,1.4,1.3
		c1.8,0.9,3.8,1,5.7,1c5-0.1,10-1.7,14.2-4.5c0.3-0.2,0.9-0.6,1.4-1c5,2.2,10.2,3.8,15.4,5.3c5.6,1.6,11.3,2.9,16.9,4.3
		c-0.7,0.1-1.4,0.2-2.1,0.3c-2.9,0.4-5.9,0.9-8.6,2.3c-2.6,1.4-4.9,3.8-5.4,6.8c-0.1,0.5-0.1,1.1,0.2,1.6c0.3,0.6,1,0.8,1.7,0.9
		c1.9,0.4,3.9,0,5.8-0.5c4.8-1.4,9.2-4.3,12.5-8c0.4-0.4,1-1.2,1.5-1.9c1.5,0.4,3,0.8,4.4,1.2c4.4,1.2,8.7,2.8,13,4.2
		c2.3,0.9,4.5,1.8,6.8,2.8c-0.4,0-0.9,0.1-1.3,0.1c-3,0.2-6,0.6-8.7,1.8c-2.7,1.2-5.1,3.5-5.8,6.4c-0.1,0.5-0.2,1.1,0.1,1.6
		c0.3,0.6,1,0.9,1.6,1c1.9,0.5,3.9,0.3,5.8-0.2c4.9-1.1,9.4-3.7,13-7.2c0.2-0.2,0.6-0.6,1-1c0,0,0.1,0,0.1,0
		c6.6,3.1,13.1,6.6,19.2,10.6c-1.2,0.1-2.4,0.1-3.5,0.1c-3,0.1-6,0.2-8.8,1.2c-2.8,1-5.3,3.2-6.2,6c-0.1,0.5-0.2,1.1,0,1.6
		c0.3,0.6,0.9,0.9,1.5,1.1c1.9,0.6,3.9,0.5,5.8,0.2c5-0.8,9.7-3.1,13.4-6.4c0.4-0.3,1-0.8,1.5-1.4c0.2,0.2,0.5,0.3,0.7,0.5
		c7.4,5.3,14.6,11,20.9,17.7c0.3,0.3,0.6,0.7,1,1.1c-0.5,0.1-1.1,0.2-1.4,0.2c-1.3,0-2.5-0.1-3.8-0.1c-3-0.1-6-0.2-8.9,0.7
		c-2.8,0.9-5.5,2.8-6.5,5.7c-0.2,0.5-0.3,1.1-0.1,1.6c0.2,0.6,0.9,1,1.5,1.2c1.8,0.7,3.8,0.7,5.8,0.5c5-0.5,9.8-2.5,13.8-5.6
		c0.5-0.4,1.3-1,2-1.7c5,5.6,9.7,11.6,13.7,18c2.2,4,4.6,7.9,6.4,12.2l1.5,3.1l1.2,3.2c0.8,2.2,1.7,4.3,2.4,6.5l0.5-0.1
		C667.4,766.2,664.2,757.4,659.8,749.1z"/>
</g>
<g>
	<g>
		<g>
			<path class="st10" d="M1383.5,361c15.1-12.5,27.8-29.9,36.2-47.5c4-8.3,7.2-17.1,9.4-26c1.3-5.1,2.3-10.2,2.9-15.4
				c0.6-4.4,0.1-9.3,1.6-13.5c0.2-0.6,1-0.4,1.1,0.1c1.1,4.2,0,9.3-0.6,13.6c-0.6,4.8-1.6,9.6-2.7,14.3c-2.4,10.1-6,19.9-10.6,29.2
				c-4.3,8.6-9.4,16.8-15.3,24.3c-6.5,8.2-13.7,14.5-21.8,21.1C1383.5,361.1,1383.4,361,1383.5,361L1383.5,361z"/>
		</g>
		<path class="st10" d="M1397.5,348c-0.6-0.4,2.9,1.1,5.8,0c6.8-2.6,7.3-3.2,15-4.6c0.9-0.2,2.8-0.2,3.5,0.4
			c0.7,0.6,0.7,1.7,0.4,2.5c-0.4,0.8-1,1.3-1.7,1.8c-6.9,4.6-14.7,2.1-23.2,0.7L1397.5,348z"/>
		<path class="st10" d="M1407.1,335.5c-0.7-0.4,2.8,1,6.2,0.7c5.2-1.3,6.6-3.9,14.7-6.2c0.9-0.2,3-0.5,3.8,0.2
			c0.9,0.7,1.2,1.9,1,2.8c-0.2,0.9-0.8,1.6-1.5,2.2c-6.5,5.9-20,3.4-24.4,1.4L1407.1,335.5z"/>
		<path class="st10" d="M1414.1,324.5c-0.8-0.2,2.6,1.2,5.6-1c7-5.2,6.7-6,15.1-10.2c0.9-0.5,3.1-1.2,4.1-0.7c1,0.5,1.4,1.7,1.3,2.8
			c-0.1,1-0.8,1.9-1.4,2.7c-6.4,7.7-17,8.1-25.2,7.4L1414.1,324.5z"/>
		<path class="st10" d="M1421.1,311.7c-0.8-0.1,4.6-2,7.3-4.6c8.2-6.9,6.7-8.9,14.6-14.4c0.9-0.6,3-1.7,4-1.3c1,0.4,1.6,1.5,1.6,2.6
			c0,1.1-0.5,2-1.1,2.9C1442.1,305.5,1431.2,308.9,1421.1,311.7L1421.1,311.7z"/>
		<path class="st10" d="M1428,292.6c-0.7-0.1,3.8-0.6,6.1-3c6.1-4.5,5.6-8.1,12.4-13.1c0.7-0.6,2.6-1.5,3.6-1.1
			c1,0.4,1.6,1.5,1.6,2.6c0.1,1-0.3,1.9-0.8,2.8C1446.5,288.9,1432.3,294.2,1428,292.6L1428,292.6z"/>
		<path class="st10" d="M1432.1,278c-0.7-0.1,2-1.6,3.7-3.7c3.8-5.1,4.7-7.2,10-11.6c0.6-0.5,2.1-1.3,3.1-1c1,0.3,1.8,1.3,2,2.1
			c0.3,0.9,0.1,1.6-0.2,2.3C1448.2,273.2,1439.9,275.8,1432.1,278L1432.1,278z"/>
		<path class="st10" d="M1433.1,266.6c-0.6,0.2,1.9-1.5,2.7-4c2.8-5.2,1.1-7.4,4.1-12.7c0.3-0.6,1.3-1.8,2.2-1.9
			c0.9-0.1,1.8,0.3,2.2,0.9c0.4,0.6,0.5,1.2,0.5,1.9C1444.8,257.1,1438.8,262.1,1433.1,266.6L1433.1,266.6z"/>
		<path class="st10" d="M1394.2,351c0.6,0.3-2.2-2-2.4-4.7c-0.5-6.4-0.1-7-2-13.7c-0.2-0.7-0.9-2.3-1.8-2.7c-0.8-0.3-1.9,0-2.4,0.6
			c-0.6,0.6-0.8,1.3-0.9,2c-1.3,7.2,4.2,12.6,9,19L1394.2,351z"/>
		<path class="st10" d="M1403.7,339.9c0.7,0.4-2.3-1.8-3.8-4.8c-1.5-4.9,0-7.4-2.3-15.1c-0.2-0.8-1.1-2.7-2.1-3.1
			c-1-0.4-2.2,0-2.9,0.6c-0.7,0.6-1,1.5-1.1,2.3c-1.7,8.2,7.4,18.1,11.4,20.7L1403.7,339.9z"/>
		<path class="st10" d="M1412.2,328.3c0.7,0.4-2.6-1.2-2.8-4.4c-0.4-7.7,0.4-7.9-1.6-16c-0.2-0.9-1-2.8-2.1-3.3
			c-1-0.4-2.2-0.1-2.9,0.6c-0.7,0.6-1,1.5-1.2,2.4c-1.9,8.6,4.5,16.2,10.1,21.6L1412.2,328.3z"/>
		<path class="st10" d="M1420.9,313.4c0.7,0.3-2.8-3.5-3.7-6.6c-3.2-8.7-0.9-9.5-4.7-17c-0.4-0.8-1.6-2.5-2.7-2.7
			c-1.1-0.2-2.2,0.4-2.7,1.2c-0.6,0.8-0.6,1.7-0.6,2.6C1406.4,299.6,1413.8,306.9,1420.9,313.4L1420.9,313.4z"/>
		<path class="st10" d="M1426.9,298c0.7,0.2-3-2.1-3.7-5c-2.9-6.1-0.7-8.7-3.9-15.5c-0.4-0.8-1.4-2.3-2.5-2.4
			c-1-0.1-2.1,0.5-2.7,1.3c-0.6,0.8-0.7,1.6-0.7,2.5C1412.9,287,1422.3,297.3,1426.9,298L1426.9,298z"/>
		<path class="st10" d="M1431.3,281.8c0.7,0.2-1.2-2.2-1.9-4.8c-1.4-6.1-1.5-8.5-4.5-14.6c-0.3-0.7-1.4-2.1-2.4-2.2
			c-1-0.1-2.1,0.5-2.7,1.1c-0.6,0.7-0.7,1.5-0.8,2.2C1418.5,271,1425,276.8,1431.3,281.8L1431.3,281.8z"/>
		<path class="st10" d="M1433.2,268c0.6,0.3-1.6-1.6-2-3.8c-1.8-4.9,0.4-6.4-1.6-11.4c-0.2-0.6-1-1.8-1.9-2
			c-0.9-0.3-1.9-0.1-2.5,0.3c-0.6,0.4-0.8,0.9-0.9,1.5C1423.2,257.7,1428.3,263.1,1433.2,268L1433.2,268z"/>
	</g>
	<g>
		<path class="st15" d="M1401.7,382.9c-5.5-9.3,6.8-15.9,17.2-12.2c8.8,3.1,19.2,10.4,24.7,5.1c1.9-8.2-3.9-16.9-7.7-25.4
			c-3.9-8.5-4.1-19.5,6.4-22.1c11.7-2.7,23.3,6,33.7,11.2c4.8,2.4,11.7,4,16,1.2c8.9-5.4-4.3-19.7,7.7-21.9c5.3,0.2,10.2,2.6,12,5.7
			c2,3.7,2.5,9.8,8.6,9c7-0.9,3.5-8.6,9.2-11.7c3.6-1.9,9.3-0.9,11.8,1.3c2.4,2.1,2.4,5,2.4,7.7c8.2-0.6,6.2-7.1,20.9-7.6
			c9.5-0.3,8.1,9.2-0.7,11.6c-7.1,2.1-18.3,1.5-19.4,6.1c-0.7,3.2,5.6,4.7,4.8,7.8c-1.1,4-10.1,4.7-15.4,3.6
			c-5.4-1.1-14.3-0.8-15.2,3.5c8.4,2.1,17,4.4,20.2,9.8c2.9,5.2-2.6,14.6-11,16.6c-5.9,1.4-10.3-1.5-14.7-3.8
			c-4.6-2.3-11.6-3.8-16.3,0.1c3,5.6,4.8,13.6-1.3,18.1c-8.3,6.7-21.1-4.9-28.9,2c3.8,4.4,7.5,8.8,8.7,14.4
			c1.2,5.5-0.4,12.6-4.7,15.9c-8.3,6.8-23.6-6.8-28.8,3.5c-2,4.4,0,10.8-1.4,15.5c-1.7,6.6-9,6.4-15,2.8
			c-9.6-5.5-26.3-22.5-24.6-35.3c1.2-6.6,10.7-6.9,11.9-13.3C1414.5,393.6,1406.1,390.5,1401.7,382.9z"/>
		<g>
			<g>
				<path class="st16" d="M1523,339.9c-13.5,2.3-25.3,9-35.7,14.9c-11.6,7.3-22.2,15.2-32,23.4c-9.2,8.7-17.3,18-24.4,27.6
					c-6.3,10-13.4,20.5-15.8,32.6c-0.1,0.5,0.6,1.3,0.9,0.8c5.3-8.6,9.1-20,14.7-29.2c6.6-9.4,14.2-18.5,22.7-27.1
					c9.3-8.3,19.4-16.3,30.5-23.8c12.1-7.4,24.8-13.3,39.3-19.1C1523.2,340,1523.1,339.9,1523,339.9L1523,339.9z"/>
			</g>
			<g>
				<path class="st16" d="M1465.9,366.9c2.4-7.7,0.3-16.8-3.9-24.2c-0.5-0.8-2.1-0.5-1.7,0.4c4.1,8.1,4.8,15.4,5.1,23.8
					C1465.4,367.2,1465.8,367.2,1465.9,366.9L1465.9,366.9z"/>
			</g>
			<g>
				<path class="st16" d="M1502.1,344.3c-0.1,0-0.1,0-0.2,0c-0.1,0-0.1,0.1-0.1,0.2c0,0.1,0,0.1,0,0.2c0,0.1,0.2,0.2,0.4,0.2
					c2.1-0.3,2.5-3.8,2.8-4.9c0.7-2.4,1.5-5.3,0.2-7.5c-0.1-0.2-0.8-0.2-0.9,0.1c-0.7,1.9-0.3,4-0.6,6
					C1503.4,340.4,1502.7,342.6,1502.1,344.3C1502.2,344.3,1502.1,344.3,1502.1,344.3L1502.1,344.3z"/>
			</g>
			<g>
				<path class="st16" d="M1487.7,359c4.6,0.4,9.1,1.1,13,2.8c2,0.9,4,3.1,6.4,3.3c0.3,0,0.5-0.1,0.5-0.3c-0.4-1.9-4.2-3.4-6.3-4.2
					c-4.1-1.6-8.7-2.2-13.4-2.5C1487.2,358,1487,358.9,1487.7,359L1487.7,359z"/>
			</g>
			<g>
				<path class="st16" d="M1440.3,404.6c7.4,0,13,1.8,18.7,6.7c0.6,0.5,1.4-0.4,0.9-1c-4.7-5.2-13-8.1-19.7-6.4
					C1439.7,404,1439.8,404.6,1440.3,404.6L1440.3,404.6z"/>
			</g>
			<g>
				<path class="st16" d="M1429,405.9c-0.7-7.1-3.9-16.7-11-21.5c-0.7-0.5-1.5,0.3-0.8,0.9c6.8,6.3,8.2,12.9,11.3,20.5
					C1428.6,406.2,1429.1,406.3,1429,405.9L1429,405.9z"/>
			</g>
			<g>
				<path class="st16" d="M1458.2,381.2c9.3-0.9,19.2-2.7,26.2,3.4c0.6,0.6,1.7-0.5,1-1c-6.8-5.6-18.3-5.2-27.3-2.6
					C1458,381.1,1458.1,381.2,1458.2,381.2L1458.2,381.2z"/>
			</g>
		</g>
	</g>
	<g>
		<path class="st17" d="M1373.6,458.7c19.6-1.2,29.5,25.8,48.6,3.6c3.1-3.3,5-7.5,6.2-12.1c4.2-15.3,24.1-28.4,40-17.6
			c8.2,5.5,13.4,16.2,22.8,17.2c3.4,0.3,6.6-0.7,9.6-1.7c13.1-4.1,27.3-8,41.9-4.8c15.9,3.6,29.1,15.3,31.3,27.7
			c1.9,12.2-6.8,24.9-20.3,30.9c-11.5,5.5-25.5,6.1-35.3,13.6c-10,8.2-13.4,22.4-24.2,29.4c-18.5,13.2-44-8.3-60.7,6.7
			c-6.1,6-8.5,16-14.1,22.6c-6.2,7.6-15.2,9.2-23.2,7.4c-7.9-1.9-15.4-6.9-23.3-10.5c-9.7-4.5-18.5-11.8-27.9-15.4
			c-5.6-2.1-9.7-10.3-9.1-18.3C1340.8,487.5,1346.8,460.9,1373.6,458.7z"/>
		<g>
			<path class="st18" d="M1537.4,479.2c-11-1-21.9-1.2-32.6-0.7c5.1-4.5,10.4-10.5,11.1-17c0-0.3-0.6-0.6-0.8-0.3
				c-1.8,2.7-2.7,5.8-4.4,8.6c-1.9,3.1-4.3,6-6.9,8.7c0,0,0,0.1,0,0.1c-4.7,0.2-9.4,0.6-14,1.1c-16.9,2.3-33.1,6.8-46.7,10.9
				c-2.9,1.1-5.8,2.2-8.6,3.2c3.9-4.5,7.6-9.3,10.9-14.3c2.4-1,4.7-2.5,6.9-3.6c3.2-1.6,6.5-3.1,9.9-4.5c0.9-0.4-0.2-1.7-1-1.3
				c-3.3,1.6-6.5,3.2-9.6,4.9c-1.6,0.9-3.4,1.7-5,2.7c3.6-5.7,6.7-11.8,8.9-18.1c0.3-0.8-1.1-1.6-1.6-0.8
				c-6.2,12.1-12,23.8-20.5,34.6c-0.2,0.3,0,0.7,0.3,0.8c-21.3,8.2-39.9,16.8-56.4,26c1.7-6.3,3.2-12.8,4.3-19.4
				c1.7-1.9,3.1-4.3,4.6-6.4c2.2-2.9,4.4-5.7,6.7-8.5c0.6-0.7-0.8-1.8-1.3-1.1c-2.2,2.9-4.3,5.8-6.3,8.8c-1.1,1.6-2.2,3.2-3.3,4.9
				c1.1-7.4,1.6-15.1,1.1-22.8c-0.1-1-1.5-1.4-1.6-0.4c-0.8,15.3-1.8,30.1-5.3,44.6c-0.1,0.3,0.1,0.6,0.4,0.7
				c-2.8,1.6-5.5,3.1-8.1,4.7c-0.1-0.1-0.1-0.1-0.2-0.2c-0.5-0.5-1,0-0.7,0.6c0,0,0,0,0,0c-10.8,6.5-20.7,13.4-29.8,20.7
				c-12.9,12.3-24.7,26.4-35,41.8c-0.4,0.6-0.2,1.4,0.3,1.8c0.1,0.1,0.3,0.2,0.4,0.2c0.5,0.1,1-0.1,1.3-0.5
				c10.2-15.3,21.9-29.2,34.6-41.3c9.1-7.3,18.9-14.1,29.6-20.5c9.7,13.8,25,21.2,37.4,28.6c0.2,0.1,0.4-0.3,0.2-0.4
				c-6.2-4.2-12.6-8.3-19-12.7c-6.5-4.5-11.8-10.1-17.5-16.2c14.5-8.7,30.6-16.7,48.8-24.4c0.9,1.3,2.2,2.2,3.9,3.7
				c4.7,4,9.4,7.9,14,11.8c6.4,5.4,13,13,21.1,15c0.5,0.1,0.7-0.6,0.2-0.8c-7.7-3.4-14-9.6-20.7-15.1c-5.5-4.5-12.8-9.2-17.9-14.9
				c7.7-3.2,15.9-6.4,24.4-9.6c9.4-2.8,20-5.8,31.2-8.1c7.6,2.7,14.7,5.5,20.5,10.7c5.9,5.2,9.7,11.6,14.8,17c0.1,0.1,0.2,0,0.1-0.1
				c-4.2-6.5-9.4-14.1-16.2-19.6c-4.9-3.9-10.9-6.4-16.9-8.5c4.2-0.8,8.4-1.5,12.7-2.1c15.2-1.7,31-1.8,47.1-0.4
				c0.7,0.1,1.3-0.5,1.4-1.1C1538.6,479.9,1538,479.2,1537.4,479.2z"/>
			<path class="st18" d="M1506.7,464.6c0.8,1.9,1.2,4.2,2.6,6c0.1,0.1,0.3,0.1,0.3,0c0.1-1.9-1.1-4.1-1.8-6.1
				c-0.8-2.3-1.6-4.6-2.5-6.9c-0.3-0.7-1.5-0.5-1.3,0.2C1504.9,460,1505.8,462.3,1506.7,464.6z"/>
			<path class="st18" d="M1496.9,493.6c-0.3,0-0.2,0.4,0,0.4c3.8,1.2,7.8,1.4,11.7,2.4c4.4,1.1,8.6,2.7,12.8,4.3
				c0.1,0,0.2-0.1,0.1-0.1C1514.8,497,1504.7,493,1496.9,493.6z"/>
			<path class="st18" d="M1436.6,514.9c-0.4,0-0.4,0.7,0,0.7c10.6,1.1,20.8,4.3,31.4,5.9c0.3,0,0.5-0.3,0.2-0.5
				C1458.7,516.7,1446.6,515.6,1436.6,514.9z"/>
			<path class="st18" d="M1393.4,549.2C1393.3,549.1,1393.3,549.1,1393.4,549.2c0.1,3.6,1.8,7.5,3.2,10.8c1.3,3.1,2.7,7.3,5.2,9.3
				c0.2,0.1,0.4,0,0.3-0.2c-0.8-3.1-3-6-4.4-8.9C1396.1,556.5,1395.2,552.6,1393.4,549.2z"/>
		</g>
	</g>
	<path class="st10" d="M1544.2,563.4c-1.5-2.1-4.3-3-6.9-3c-2.6,0-5.1,0.8-7.6,1.7c-1,0.4-2.1,0.7-3.1,1.1c-0.2,0.1-0.5,0.1-0.8,0.2
		c0.3-0.5,0.5-0.9,0.8-1.4c1.8-3.8,3-7.8,3.8-11.8c0.1-0.4,0.2-0.9,0.2-1.3c0.3,0.1,0.5,0.1,0.7,0.2c3.2,0.8,6.7,0.8,9.8-0.2
		c1.2-0.4,2.5-0.9,3.4-1.8c0.3-0.3,0.6-0.7,0.6-1.1c0-0.4-0.2-0.7-0.5-0.9c-1.3-1.5-3.5-2-5.4-1.8c-2,0.2-3.8,1-5.6,1.9
		c-0.8,0.4-1.5,0.7-2.3,1.1c-0.1,0-0.2,0.1-0.3,0.1c0.4-2.7,0.6-5.5,0.7-8.2c0.2-4.1,0.1-8.1,0-12.1l-0.4,0
		c-0.4,6.3-0.9,12.6-2,18.8c-1-2.8-2.7-5.4-4.9-7.4c-1-0.9-2.1-1.6-3.3-1.9c-0.4-0.1-0.9-0.1-1.3,0.1c-0.3,0.2-0.5,0.6-0.6,0.9
		c-0.6,1.9,0.1,4,1.3,5.6c1.2,1.6,2.8,2.7,4.5,3.8c0.7,0.5,1.4,0.9,2.1,1.4c0.3,0.2,0.9,0.9,1.4,1.2c-0.1,0.4-0.2,0.9-0.3,1.3
		c-0.9,3.8-2.3,7.6-4.1,11c-0.3,0.5-0.6,1-0.9,1.5c-0.1-0.6-0.3-1.1-0.4-1.4c-1.2-4.2-3.6-8-6.9-10.9c-1.3-1.1-2.7-2.1-4.4-2.6
		c-0.5-0.1-1.2-0.2-1.6,0.1c-0.4,0.3-0.6,0.7-0.7,1.2c-0.7,2.5,0.2,5.2,1.7,7.3c1.6,2.1,3.7,3.6,5.9,5c0.9,0.6,1.9,1.2,2.7,1.9
		c0.5,0.4,1.4,1.3,2,1.8c-1.4,1.9-2.9,3.6-4.5,5.2c-3.1,2.9-6.6,5.1-10.5,7c0-0.3,0.1-0.6,0.1-0.8c0.6-5.1-0.1-10.3-2.3-14.9
		c-0.8-1.8-1.9-3.6-3.5-4.8c-0.5-0.4-1.2-0.8-1.8-0.6c-0.5,0.1-1,0.5-1.3,0.9c-1.9,2.3-2.3,5.7-1.6,8.6s2.3,5.6,4,8.1
		c0.7,1.1,1.4,2.2,2.1,3.3c0.2,0.4,0.5,1.1,0.8,1.8c-2.1,0.9-4.3,1.7-6.5,2.5c-3.6,1.3-7.3,2.4-11.1,3.5c0-0.1,0.1-0.2,0.1-0.3
		c1.9-4.7,2.5-10,1.6-15c-0.3-2-0.9-3.9-2.1-5.5c-0.4-0.5-0.9-1-1.6-1.1c-0.6,0-1.1,0.2-1.5,0.5c-2.5,1.7-3.7,4.9-3.7,7.9
		c-0.1,3,0.8,6,1.8,8.9c0.4,1.2,0.8,2.5,1.2,3.7c0.1,0.5,0.2,1.3,0.3,2.1c-2.7,0.9-5.3,1.7-8,2.7c-2.9,1.1-5.7,2.3-8.5,3.8
		c0.1-0.1,0.1-0.2,0.1-0.3c1.9-4.7,2.5-10,1.6-15c-0.3-2-0.9-3.9-2.1-5.5c-0.4-0.5-0.9-1-1.6-1.1c-0.6,0-1.1,0.2-1.5,0.5
		c-2.5,1.7-3.7,4.9-3.7,7.9c-0.1,3,0.8,6,1.8,8.9c0.4,1.2,0.8,2.5,1.2,3.7c0.2,0.7,0.3,2.1,0.5,3.1c-3.2,2-6.1,4.3-8.6,7.1
		c-1.4,1.5-2.6,3.3-3.7,5c-0.3,0.5-0.5,1-0.8,1.5c-0.2-0.8-0.5-1.6-0.5-2c-0.5-5.1-1.7-9.8-4.9-13.8c-1.2-1.6-2.6-3-4.5-3.9
		c-0.6-0.3-1.3-0.5-1.9-0.2c-0.5,0.2-0.8,0.7-1.1,1.2c-1.4,2.7-0.9,6,0.4,8.7c1.4,2.7,3.5,4.9,5.7,7c0.9,0.9,1.9,1.8,2.8,2.7
		c0.5,0.5,1.9,2,2.8,2.7c-0.2,0.5-0.5,1.1-0.6,1.7l-1,2.9c-0.3,1-0.4,2-0.7,3l-0.3,1.5l-0.2,1.5l-0.4,3c-0.1,2.1-0.2,4.1-0.2,6.2
		c-0.4-0.5-0.8-1-1-1.4c-2.2-4.6-4.9-9.6-9.2-12.3c-1.7-1.1-3.5-2-5.5-2.2c-0.7-0.1-1.4,0-1.9,0.4c-0.4,0.4-0.6,0.9-0.6,1.5
		c-0.4,3,1.1,6,3.3,8.1c2.2,2.1,5,3.5,7.7,4.7c1.2,0.5,2.8,1.8,3.9,2.4c0.8,0.4,2.4,0.9,3.2,0.9c0,0,0,0,0.1,0
		c0.1,5.3,0.4,10.6,0.6,15.9c0.1,1.7,0.1,3.4,0.1,5.1c-0.5-0.7-1.1-1.4-1.3-1.9c-2.2-4.6-4.9-9.6-9.2-12.3c-1.7-1.1-3.5-2-5.5-2.2
		c-0.7-0.1-1.4,0-1.9,0.4c-0.4,0.4-0.6,0.9-0.6,1.5c-0.4,3,1.1,6,3.3,8.1c2.2,2.1,5,3.5,7.7,4.7c1.2,0.5,2.8,1.8,3.9,2.4
		c0.8,0.4,2.4,0.9,3.2,0.9c0.2,0,0.2,0,0.4,0c-0.1,5.8-0.7,11.5-2.7,16.8c-0.4,1.4-1.1,2.7-1.8,4c-0.4-0.7-0.8-1.4-1-1.9
		c-1.7-4.8-3.9-10.1-7.8-13.3c-1.5-1.2-3.3-2.4-5.2-2.7c-0.6-0.1-1.4-0.2-1.9,0.2c-0.4,0.3-0.7,0.9-0.8,1.4
		c-0.7,2.9,0.5,6.1,2.4,8.4c1.9,2.3,4.6,4,7.2,5.5c1.1,0.7,2.6,2.1,3.6,2.8c0.6,0.4,1.8,0.9,2.7,1.2c-1,1.5-1.9,3-3.1,4.3
		c-2.5,2.9-5.5,5.4-8.9,7.3c-3.9,2.3-8.2,4-12.6,5.4c0-0.5-0.1-0.9,0-1.3c0.7-5,1.2-10.7-0.9-15.4c-0.8-1.8-1.8-3.6-3.4-4.8
		c-0.5-0.4-1.2-0.8-1.8-0.7c-0.5,0.1-1,0.5-1.4,0.9c-2,2.3-2.4,5.6-1.7,8.6c0.7,3,2.2,5.6,3.8,8.2c0.7,1.1,1.3,3,1.9,4.2
		c0.2,0.3,0.5,0.7,0.8,1.1c-2.3,0.7-4.6,1.3-6.9,1.8c-5.7,1.4-11.6,2.4-17.4,3.6c0,0,0.1-0.1,0.1-0.1c3.3-3.9,6.8-8.4,7.5-13.4
		c0.3-2,0.4-4-0.2-5.9c-0.2-0.6-0.6-1.3-1.2-1.5c-0.5-0.2-1.1-0.1-1.6,0c-2.9,0.9-5,3.5-6.1,6.3c-1,2.8-1.1,5.9-1.2,9
		c0,1.3-0.5,3.3-0.6,4.6c0,0.5,0,1.2,0.1,1.8c-1,0.2-2.1,0.4-3.1,0.7c-4,0.9-7.9,2.2-11.8,3.4c-3.3,1.3-6.7,2.5-9.9,3.9
		c0.1-0.5,0.2-1,0.4-1.3c2.2-4.6,4.3-9.9,3.7-15c-0.2-2-0.7-4-1.8-5.6c-0.4-0.5-0.9-1.1-1.5-1.2c-0.5-0.1-1.1,0.2-1.6,0.5
		c-2.6,1.6-3.9,4.7-4.2,7.7c-0.2,3,0.5,6,1.3,9c0.3,1.2,0.3,3.3,0.6,4.6c0.1,0.6,0.5,1.6,0.9,2.4c-5.8,2.6-11.3,5.7-16.7,9.1
		c2.1-4.5,4-9.5,3.4-14.4c-0.2-2-0.7-4-1.8-5.6c-0.4-0.5-0.9-1.1-1.5-1.2c-0.5-0.1-1.1,0.2-1.6,0.5c-2.6,1.6-3.9,4.7-4.2,7.7
		c-0.2,3,0.5,6,1.3,9c0.3,1.2,0.3,3.3,0.6,4.6c0.1,0.4,0.3,1.1,0.6,1.6c-6.7,4.6-12.9,9.9-18.6,15.7c1.7-4.4,3.1-9.2,2.3-13.7
		c-0.3-2-0.9-3.9-2.1-5.5c-0.4-0.5-0.9-1-1.6-1.1c-0.6,0-1.1,0.2-1.5,0.5c-2.5,1.7-3.6,4.9-3.7,7.9c-0.1,3,0.8,6,1.8,8.9
		c0.4,1.2,0.5,3.3,0.9,4.5c0.2,0.5,0.5,1.3,0.9,2c-4.6,5.2-8.7,10.9-12.2,16.9c-4,7.1-7,14.7-9.2,22.5l0.4,0.1
		c0.7-1.9,1.5-3.7,2.2-5.6l1.1-2.8l1.4-2.7c1.7-3.6,3.8-7,5.9-10.4c3.6-5.5,7.8-10.6,12.3-15.4c0.5,0.6,1.3,1.2,1.7,1.5
		c3.4,2.8,7.5,4.6,11.9,5.2c1.7,0.2,3.4,0.2,5-0.3c0.5-0.2,1.1-0.5,1.3-1c0.2-0.4,0.1-0.9-0.1-1.4c-0.8-2.5-3.1-4.2-5.5-5.1
		c-2.5-0.8-5.1-0.9-7.7-0.8c-1.1,0-2.2,0-3.3,0c-0.3,0-0.7-0.1-1.2-0.2c0.3-0.3,0.6-0.6,0.9-0.9c5.6-5.6,12-10.5,18.5-14.9
		c0.2-0.1,0.4-0.3,0.7-0.4c0.5,0.5,1,1,1.3,1.3c3.2,3,7.2,5,11.5,5.8c1.7,0.3,3.4,0.4,5.1,0c0.5-0.2,1.1-0.4,1.4-0.9
		c0.2-0.4,0.1-0.9,0-1.4c-0.7-2.5-2.8-4.4-5.2-5.4c-2.4-1-5-1.1-7.6-1.3c-1,0-2.1-0.1-3.1-0.2c5.4-3.3,11.1-6.3,16.9-8.8
		c0,0,0.1,0,0.1,0c0.3,0.4,0.6,0.7,0.8,0.9c3,3.1,6.9,5.5,11.2,6.5c1.6,0.4,3.4,0.7,5,0.3c0.6-0.1,1.1-0.4,1.4-0.9
		c0.2-0.4,0.2-0.9,0.1-1.4c-0.5-2.5-2.5-4.6-4.9-5.7c-2.3-1.1-5-1.5-7.5-1.7c-0.4,0-0.7-0.1-1.1-0.1c2-0.8,4-1.5,6-2.3
		c3.8-1.2,7.5-2.5,11.4-3.4c2.3-0.6,4.5-1.1,6.9-1.7c0.4,0.8,1.2,1.7,1.6,2.2c2.8,3.3,6.6,5.9,10.7,7.2c1.6,0.5,3.3,0.9,5,0.6
		c0.6-0.1,1.2-0.3,1.5-0.8c0.3-0.4,0.3-0.9,0.2-1.4c-0.3-2.6-2.3-4.7-4.5-6c-2.3-1.3-4.9-1.8-7.4-2.2c-1-0.2-2-0.3-2.9-0.5
		c4.2-0.9,8.4-1.8,12.6-2.9c2.6-0.7,5.2-1.4,7.8-2.2c0.3,0.4,0.6,0.7,0.8,0.9c3,3.2,6.9,5.5,11.1,6.6c1.6,0.4,3.4,0.7,5,0.3
		c0.6-0.1,1.1-0.4,1.4-0.9c0.2-0.4,0.2-0.9,0.1-1.4c-0.5-2.5-2.5-4.6-4.9-5.7c-2.3-1.1-5-1.5-7.5-1.8c-0.2,0-0.3,0-0.5-0.1
		c3.3-1.3,6.5-2.9,9.5-4.8c3.6-2.2,6.8-5,9.4-8.3c1.4-1.6,2.4-3.5,3.5-5.3c0.1-0.1,0.1-0.2,0.2-0.4c0.9,0.3,2.1,0.3,2.7,0.3
		c4.4,0.1,8.8-0.9,12.5-3.1c1.5-0.9,2.9-1.9,3.8-3.3c0.3-0.5,0.6-1.1,0.4-1.6c-0.1-0.5-0.5-0.8-0.9-1.1c-2.1-1.5-5-1.5-7.5-0.6
		c-2.5,0.8-4.6,2.4-6.6,4c-0.9,0.7-1.7,1.4-2.6,2c-0.1,0.1-0.2,0.2-0.4,0.2c0.3-0.7,0.6-1.5,0.8-2.2c1.4-3.9,1.8-8.1,2.1-12.2
		c0-1.8,0.1-3.5,0-5.3c0.9,0.3,2.1,0.4,2.7,0.4c4.3,0.4,8.8-0.5,12.7-2.5c1.5-0.8,3-1.8,4-3.1c0.3-0.5,0.6-1,0.5-1.6
		c-0.1-0.5-0.5-0.8-0.8-1.1c-2.1-1.6-4.9-1.7-7.4-1c-2.5,0.7-4.7,2.2-6.8,3.7c-0.9,0.6-1.8,1.3-2.7,1.9c-0.4,0.3-1.3,0.6-2,1
		c0-1.5-0.1-3.1-0.2-4.6c-0.3-5-0.7-10.1-0.8-15.1c0.8,0.5,2.1,0.7,2.7,0.9c4.3,0.9,8.8,0.7,12.9-0.8c1.6-0.6,3.2-1.3,4.3-2.6
		c0.4-0.4,0.7-0.9,0.7-1.5c0-0.5-0.3-0.9-0.7-1.2c-1.8-1.8-4.7-2.4-7.2-2c-2.6,0.4-4.9,1.6-7.2,2.8c-1,0.5-2,1-3,1.5
		c-0.5,0.3-1.8,0.5-2.6,0.9c0-2.3,0.1-4.6,0.3-7l0.4-3l0.2-1.5l0.4-1.4c0.2-1,0.5-1.9,0.7-2.9l1.1-2.8c0.1-0.3,0.2-0.5,0.3-0.8
		c0.6,0.6,1.6,1.2,2,1.5c3.7,2.3,8.1,3.6,12.4,3.5c1.7,0,3.4-0.2,5-1c0.5-0.3,1-0.6,1.1-1.2c0.1-0.5,0-0.9-0.2-1.4
		c-1.1-2.3-3.6-3.8-6.2-4.3c-2.5-0.5-5.2-0.2-7.7,0.2c-1.1,0.2-2.2,0.3-3.3,0.4c-0.5,0-1.3,0-2,0c0.4-0.7,0.8-1.5,1.3-2.2
		c1.1-1.6,2.3-3.2,3.7-4.5c2.5-2.6,5.4-4.6,8.6-6.4c0.4,0.6,1,1.2,1.3,1.5c2.9,3.2,6.8,5.7,11,6.9c1.6,0.5,3.4,0.8,5,0.4
		c0.6-0.1,1.1-0.3,1.4-0.8c0.2-0.4,0.2-0.9,0.2-1.4c-0.4-2.6-2.4-4.6-4.7-5.8c-2.3-1.2-4.9-1.6-7.5-2c-1.1-0.2-2.2-0.3-3.3-0.5
		c0,0,0,0,0,0c2.7-1.3,5.6-2.4,8.5-3.3c3-1,6.1-2,9.2-2.9c0.3,0.3,0.5,0.6,0.7,0.8c2.9,3.2,6.8,5.7,11,6.9c1.6,0.5,3.4,0.8,5,0.4
		c0.6-0.1,1.1-0.3,1.4-0.8c0.2-0.4,0.2-0.9,0.2-1.4c-0.4-2.6-2.4-4.6-4.7-5.8c-2.3-1.2-4.8-1.6-7.3-1.9c2.5-0.8,5.1-1.6,7.6-2.5
		c2.7-1,5.4-2,8-3.3c0.7,0.5,1.6,1,2,1.3c3.9,2,8.3,3,12.6,2.7c1.7-0.1,3.4-0.4,4.9-1.3c0.5-0.3,1-0.7,1.1-1.3
		c0.1-0.5-0.1-0.9-0.3-1.4c-1.3-2.3-3.8-3.6-6.4-3.9c-2.6-0.3-5.2,0.2-7.7,0.7c-0.2,0-0.4,0.1-0.5,0.1c2.8-1.7,5.5-3.7,7.8-6
		c1.9-1.8,3.5-3.9,4.9-6.1c0.7,0.4,1.6,0.7,2.1,0.9c4.1,1.5,8.6,1.9,12.9,1.1c1.7-0.3,3.3-0.9,4.7-1.9c0.4-0.4,0.9-0.8,0.9-1.4
		C1544.7,564.3,1544.5,563.8,1544.2,563.4z"/>
</g>
<g>
	<g>
		<g>
			<g>
				<path class="st19" d="M1424,945.3c-10.6-29.4-36.8-93-12.8-185c41.5,51.4,44.2,125.6,39.9,192.5"/>
				<path class="st20" d="M1411.2,760.3c0,0,9,117.1,25.3,191"/>
				<path class="st20" d="M1411.2,760.3c0,0-9.6,83.6,17.8,189.5"/>
				<path class="st20" d="M1441.4,950.3c0,0-12.2-146.8-30.2-190"/>
				<path class="st20" d="M1446,950.5c0,0,1.7-138.1-34.7-190.2"/>
			</g>
			<g>
				<path class="st19" d="M1402.6,959.3c-15.8-21-53.2-65.8-46.4-139.4c50.3,33.3,66.5,89.6,74.5,141.3"/>
				<path class="st20" d="M1356.2,819.9c0,0,17.2,87.9,52.7,139.2"/>
				<path class="st20" d="M1415.7,961.3c0,0-44.8-121.4-59.5-141.3"/>
				<path class="st20" d="M1424.1,961.3c0,0-26.7-109.3-67.9-141.3"/>
			</g>
			<g>
				<path class="st19" d="M1475.7,943.8c13.5-30.4,46.4-95.9,24.8-193.3c-49.4,52.1-56.6,129.7-55.6,200.1"/>
				<path class="st20" d="M1500.5,750.5c0,0-16.7,122.3-39.2,199.1"/>
				<path class="st20" d="M1500.5,750.5c0,0,6,88-30.6,197.8"/>
				<path class="st20" d="M1455.9,948.3c0,0,22-153.3,44.6-197.9"/>
				<path class="st20" d="M1450.8,948.3c0,0,5.9-144.8,49.7-197.9"/>
			</g>
			<g>
				<path class="st19" d="M1484,980.5c16.6-24.3,55.2-75.9,57.1-166.1c-49,36.5-69.8,103.8-82.7,166.2"/>
				<path class="st20" d="M1541.1,814.4c0,0-25.2,105.8-62.8,165.4"/>
				<path class="st20" d="M1472,981.8c0,0,53.7-144.4,69.2-167.4"/>
				<path class="st20" d="M1464.4,981.1c0,0,36.1-131.1,76.7-166.7"/>
			</g>
			<path id="XMLID_12_" class="st14" d="M1512,943.6v27.8c0,61.6-25.1,101.2-25.1,101.2h-77.7c0,0-25.1-39.6-25.1-101.2v-27.8H1512z
				"/>
		</g>
	</g>
	<g>
		<g>
			<g>
				<path class="st19" d="M497.4,942.9c-9.3-41.4-32.8-130.6-4.6-262c39.5,71.3,38.9,176.5,31.6,271.7"/>
				<path class="st20" d="M492.8,681c0,0,3.8,165.8,16.9,270"/>
				<path class="st20" d="M492.8,681c0,0-13.5,119,9.3,268.2"/>
				<path class="st20" d="M514.7,949.5c0,0-5.7-207.8-21.9-268.5"/>
				<path class="st20" d="M519.2,949.6c0,0,7.9-196-26.4-268.6"/>
			</g>
			<g>
				<path class="st19" d="M477.6,958.9c-15.8-26-53.2-81.4-46.4-172.6c50.3,41.2,66.5,110.9,74.5,175"/>
				<path class="st20" d="M431.2,786.3c0,0,17.2,108.9,52.7,172.4"/>
				<path class="st20" d="M490.7,961.3c0,0-44.8-150.4-59.5-175"/>
				<path class="st20" d="M499.1,961.3c0,0-26.7-135.4-67.9-175"/>
			</g>
			<g>
				<path class="st19" d="M553.2,942.4c12.8-36.4,43.9-114.8,22.7-231.7c-47,62.2-53.4,155.3-52.1,239.7"/>
				<path class="st20" d="M575.9,710.7c0,0-15.3,146.6-36.4,238.6"/>
				<path class="st20" d="M575.9,710.7c0,0,6.3,105.6-28.2,237.1"/>
				<path class="st20" d="M534.3,947.8c0,0,20.2-183.8,41.5-237.1"/>
				<path class="st20" d="M529.5,947.8c0,0,4.9-173.7,46.4-237.1"/>
			</g>
			<g>
				<path class="st19" d="M562.6,980.5c16.6-24.3,55.2-75.9,57.1-166.1c-49,36.5-69.8,103.8-82.7,166.2"/>
				<path class="st20" d="M619.7,814.4c0,0-25.2,105.8-62.8,165.4"/>
				<path class="st20" d="M550.6,981.8c0,0,53.7-144.4,69.2-167.4"/>
				<path class="st20" d="M543,981.1c0,0,36.1-131.1,76.7-166.7"/>
			</g>
			<path id="XMLID_11_" class="st14" d="M590.6,943.6v27.8c0,61.6-25.1,101.2-25.1,101.2h-77.7c0,0-25.1-39.6-25.1-101.2v-27.8
				H590.6z"/>
		</g>
	</g>
	<g>
		<g>
			<g>
				<path class="st19" d="M1211.5,981.2c-6.3-21.4-22.7-68.1,4.1-127.9c30.6,43.6,26.3,91.2,17.5,136.4"/>
				<path class="st20" d="M1215.6,853.4c0,0-10.4,56.5,3.7,132.2"/>
				<path class="st20" d="M1221.2,986.2c0,0,5.7-101-5.6-132.8"/>
				<path class="st20" d="M1224.9,986.9c0,0,16.4-93.4-9.3-133.5"/>
			</g>
			<g>
				<path class="st19" d="M1190.3,995.4c-12.7-11.4-42.4-35.1-46.1-86.7c36.8,13.4,53.8,48.9,64.8,82.8"/>
				<path class="st20" d="M1144.2,908.7c0,0,12.9,43.6,52,87.6"/>
				<path class="st20" d="M1202.4,993c0,0-43.1-62.4-58.1-84.3"/>
				<path class="st20" d="M1205.3,991.8c0,0-29.8-62.7-61.1-83.1"/>
			</g>
			<g>
				<path class="st19" d="M1202.4,982.7c-10.1-14.9-39.6-59.7-30.6-107.2c34.1,25.5,47.8,76.2,50.6,110.6"/>
				<path class="st20" d="M1171.8,875.5c0,0,12.7,71.4,35.2,107.6"/>
				<path class="st20" d="M1211.7,984.9c0,0-30.5-95.4-39.9-109.4"/>
				<path class="st20" d="M1217.7,985.5c0,0-18.3-86.1-45.9-110.1"/>
			</g>
			<g>
				<path class="st19" d="M1251.1,981.8c8.7-19.3,29.7-60.8,15.4-122.7c-31.8,33-36.2,82.2-35.3,126.9"/>
				<path class="st20" d="M1266.5,859.1c0,0-15,71.6-26.3,124.9"/>
				<path class="st20" d="M1266.5,859.1c0,0,3.4,55.9-19.9,125.6"/>
				<path class="st20" d="M1235.1,984.7c0,0,6.5-84,31.4-125.6"/>
			</g>
			<g>
				<path class="st19" d="M1252.1,1002c11.2-12.9,40-44.9,42.3-88c-33.2,19.3-47.3,55-56,88"/>
				<path class="st20" d="M1294.4,914c0,0-20.6,54.5-46.1,86.1"/>
				<path class="st20" d="M1242.1,1000.1c0,0,31-65.4,52.3-86.1"/>
			</g>
			<path id="XMLID_9_" class="st14" d="M1277.2,978.3v20.3c0,45-21.9,74-21.9,74h-67.8c0,0-21.9-29-21.9-74v-20.3H1277.2z"/>
		</g>
	</g>
</g>
<rect x="674.2" y="130.9" transform="matrix(-4.096912e-08 1 -1 -4.096912e-08 1567.7313 -390.7934)" class="st21" width="610.2" height="915.2"/>
<rect x="551.4" y="313" class="st22" width="855.8" height="550.9"/>
<g>
	<rect x="575" y="663.1" class="st23" width="285.7" height="158.5"/>
	<rect x="578.2" y="666.6" class="st12" width="274.4" height="144.4"/>
	<g class="st24">
		<g>
			<path class="st23" d="M842.7,799.6l-260.2,0c-0.3,0-0.6-0.3-0.6-0.6l0-130.4c0-0.3,0.3-0.6,0.6-0.6l260.2,0
				c0.3,0,0.6,0.3,0.6,0.6l0,130.4C843.4,799.4,843.1,799.6,842.7,799.6z M583.1,798.4l259,0V669.3l-259,0V798.4z"/>
		</g>
		<g>
			<path class="st23" d="M842.7,777.9l-260.2,0c-0.3,0-0.6-0.3-0.6-0.6c0-0.3,0.3-0.6,0.6-0.6l260.2,0c0.3,0,0.6,0.3,0.6,0.6
				S843.1,777.9,842.7,777.9z"/>
		</g>
		<g>
			<path class="st23" d="M842.7,756.2l-260.2,0c-0.3,0-0.6-0.3-0.6-0.6s0.3-0.6,0.6-0.6l260.2,0c0.3,0,0.6,0.3,0.6,0.6
				C843.4,755.9,843.1,756.2,842.7,756.2z"/>
		</g>
		<g>
			<path class="st23" d="M842.7,734.5l-260.2,0c-0.3,0-0.6-0.3-0.6-0.6s0.3-0.6,0.6-0.6l260.2,0c0.3,0,0.6,0.3,0.6,0.6
				S843.1,734.5,842.7,734.5z"/>
		</g>
		<g>
			<path class="st23" d="M842.7,712.7l-260.2,0c-0.3,0-0.6-0.3-0.6-0.6s0.3-0.6,0.6-0.6l260.2,0c0.3,0,0.6,0.3,0.6,0.6
				S843.1,712.7,842.7,712.7z"/>
		</g>
		<g>
			<path class="st23" d="M842.7,691l-260.2,0c-0.3,0-0.6-0.3-0.6-0.6s0.3-0.6,0.6-0.6l260.2,0c0.3,0,0.6,0.3,0.6,0.6
				C843.4,690.7,843.1,691,842.7,691z"/>
		</g>
		<g>
			<path class="st23" d="M799.4,799.6c-0.3,0-0.6-0.3-0.6-0.6V668.6c0-0.3,0.3-0.6,0.6-0.6c0.3,0,0.6,0.3,0.6,0.6l0,130.4
				C800,799.4,799.7,799.6,799.4,799.6z"/>
		</g>
		<g>
			<path class="st23" d="M756,799.6c-0.3,0-0.6-0.3-0.6-0.6l0-130.4c0-0.3,0.3-0.6,0.6-0.6s0.6,0.3,0.6,0.6V799
				C756.6,799.4,756.3,799.6,756,799.6z"/>
		</g>
		<g>
			<path class="st23" d="M712.6,799.6c-0.3,0-0.6-0.3-0.6-0.6V668.6c0-0.3,0.3-0.6,0.6-0.6c0.3,0,0.6,0.3,0.6,0.6l0,130.4
				C713.2,799.4,713,799.6,712.6,799.6z"/>
		</g>
		<g>
			<path class="st23" d="M669.2,799.6c-0.3,0-0.6-0.3-0.6-0.6V668.6c0-0.3,0.3-0.6,0.6-0.6c0.3,0,0.6,0.3,0.6,0.6l0,130.4
				C669.9,799.4,669.6,799.6,669.2,799.6z"/>
		</g>
		<g>
			<path class="st23" d="M625.9,799.6c-0.3,0-0.6-0.3-0.6-0.6l0-130.4c0-0.3,0.3-0.6,0.6-0.6s0.6,0.3,0.6,0.6V799
				C626.5,799.4,626.2,799.6,625.9,799.6z"/>
		</g>
	</g>
	<g>
		<path class="st25" d="M582.5,800.3c-0.5,0-0.9-0.3-1.1-0.7c-0.3-0.6-0.1-1.4,0.6-1.7l43.2-21.6l22.3-21.4l20.7-43.3
			c0.1-0.2,0.2-0.3,0.3-0.4l23.5-21c0.3-0.3,0.7-0.4,1.1-0.3c0.4,0.1,0.7,0.3,0.9,0.7l19.8,42.6l23.6,41.9l17.7-20.4
			c0.2-0.3,0.6-0.4,0.9-0.4c0.4,0,0.7,0.1,0.9,0.4l20.2,20.3l21.1-63.3c0.1-0.2,0.2-0.4,0.3-0.5l43.4-43.5c0.5-0.5,1.3-0.5,1.8,0
			c0.5,0.5,0.5,1.3,0,1.8l-43.2,43.2l-21.7,64.9c-0.1,0.4-0.5,0.7-0.9,0.8c-0.4,0.1-0.9,0-1.2-0.3L756,757.4l-18,20.7
			c-0.3,0.3-0.7,0.5-1.1,0.4c-0.4,0-0.8-0.3-1-0.6l-24.5-43.5c0,0,0-0.1,0-0.1l-19.1-41.2l-22.1,19.7l-20.7,43.2
			c-0.1,0.1-0.2,0.3-0.3,0.4l-22.6,21.7c-0.1,0.1-0.2,0.2-0.3,0.2l-43.4,21.7C582.9,800.2,582.7,800.3,582.5,800.3z"/>
	</g>
	<g>
		<path class="st23" d="M582.5,800.3c-0.3,0-0.6-0.1-0.9-0.4c-0.5-0.5-0.5-1.3,0-1.8l63.6-65.2c0.5-0.5,1.3-0.5,1.8,0l22.3,20.9
			l42.5-42.6c0.5-0.5,1.3-0.5,1.8,0l21.7,20.9l19.9-20.8c0.2-0.2,0.6-0.4,0.9-0.4c0.3,0,0.7,0.1,0.9,0.4l42.1,42.2l42.6-85.4
			c0.3-0.6,1.1-0.9,1.7-0.6c0.6,0.3,0.9,1.1,0.6,1.7l-43.4,86.9c-0.2,0.4-0.5,0.6-0.9,0.7c-0.4,0.1-0.8-0.1-1.1-0.4L756,713.9
			l-19.9,20.8c-0.2,0.2-0.5,0.4-0.9,0.4c-0.3,0-0.7-0.1-0.9-0.4l-21.7-20.9l-42.5,42.6c-0.5,0.5-1.3,0.5-1.8,0l-22.2-20.9
			l-62.7,64.3C583.1,800.1,582.8,800.3,582.5,800.3z"/>
	</g>
</g>
<g>
	<defs>
		<path id="SVGID_1_" d="M1278.9,403.9c-47.9,0-86.6,38.8-86.6,86.6c0,47.9,38.8,86.6,86.6,86.6c47.9,0,86.6-38.8,86.6-86.6
			C1365.6,442.7,1326.8,403.9,1278.9,403.9z M1278.9,536.5c-25.4,0-45.9-20.6-45.9-45.9c0-25.4,20.6-45.9,45.9-45.9
			c25.4,0,45.9,20.6,45.9,45.9C1324.8,515.9,1304.3,536.5,1278.9,536.5z"/>
	</defs>
	<clipPath id="SVGID_2_">
		<use xlink:href="#SVGID_1_"  style="overflow:visible;"/>
	</clipPath>
	<path class="st26" d="M1357.2,538.4l-78.3-47.9l-14.2,90.7C1301.5,587.1,1338,569.8,1357.2,538.4z"/>
	<path class="st27" d="M1357.3,538.3c0.2-0.3,0.5-0.8,0.5-0.8c16.5-27.7,17.2-62.1,2-90.4c-27.7,14.5-11.2,5.7-80.9,43.4
		C1357.4,538.5,1345.2,531.1,1357.3,538.3z"/>
	<path class="st28" d="M1192.8,458.8l86.1,31.7l80.8-43.7C1321.9,377,1220.2,385.4,1192.8,458.8z"/>
	<path class="st29" d="M1264.8,581.3l14.2-90.7l-86.1-31.7C1172.4,513.7,1208.7,572.4,1264.8,581.3z"/>
	<path class="st30" d="M1361.4,537.4c15.6-27.4,16.4-61.1,2.4-89.3l0.1,0l-1.4-2.7c0-0.1-0.1-0.1-0.1-0.2l-1.2-2.2l0,0
		c-9.1-15.9-22.2-28.5-37.8-36.7c-15.3-8-32.8-11.6-50.5-10.3c-36.8,2.6-67.8,25-81.6,58.9l-0.1,0l-1.1,2.8l-1.1,2.9l0.1,0
		c-8.7,25.7-5.8,53.7,8,77.4c14,24,37.4,40.6,64.3,45.7l0,0.1l3,0.5c0,0,3,0.5,3,0.5l0-0.1c3.9,0.5,7.8,0.7,11.7,0.7
		c13.7,0,27.3-3,39.9-8.9c16.2-7.5,29.7-19.3,39.4-34.1l0.1,0l0.6-1c0,0,1-1.6,1-1.6c0.1-0.2,0.3-0.5,0.4-0.7l0.1-0.1
		c0,0,0-0.1,0-0.1L1361.4,537.4L1361.4,537.4z M1352.2,454.6c1.8-0.9,3.9-2,6.3-3.3c12.9,26.2,12.1,57.4-2.3,82.9
		c0,0-0.6-0.3-0.6-0.3c-3.2-1.9-4.6-2.7-11-6.6l-59.7-36.5l49.5-26.8C1341.8,460,1344.8,458.5,1352.2,454.6z M1196.8,457.1
		c13-31.6,42-52.5,76.4-54.9c34-2.4,65.2,14.3,82.3,43.6l-23.9,12.9c-4.9,2.6-11.8,6.4-23.3,12.6c-7.4,4-16.7,9-28.6,15.5l-0.7,0.4
		l-2.4-1.5l-0.1,0.8l-37.7-13.9L1196.8,457.1z M1202.3,535c-12.9-22.1-15.6-48.2-7.6-72.2l56.7,20.9l24.1,8.9l-13.3,85.2
		C1237.1,572.9,1215.4,557.4,1202.3,535z M1268.2,578.7l13-83.1l33.8,20.7c13.6,8.3,21.4,13.1,26.3,16.1l11.7,7.1
		C1334.4,567.7,1301.7,582.8,1268.2,578.7z"/>
</g>
<g>
	
		<rect x="1354.8" y="682" transform="matrix(-1 -1.135151e-06 1.135151e-06 -1 2733.0012 1491.6666)" class="st23" width="23.4" height="127.6"/>
	
		<rect x="1255.7" y="719.2" transform="matrix(-1 -1.135151e-06 1.135151e-06 -1 2534.7988 1528.7782)" class="st23" width="23.4" height="90.5"/>
	
		<rect x="1206.2" y="682" transform="matrix(-1 -1.135151e-06 1.135151e-06 -1 2435.6978 1491.6661)" class="st23" width="23.4" height="127.6"/>
	
		<rect x="1156.6" y="764.4" transform="matrix(-1 -1.135151e-06 1.135151e-06 -1 2336.5967 1574.0061)" class="st23" width="23.4" height="45.2"/>
	
		<rect x="1305.3" y="643.2" transform="matrix(-1 -1.135151e-06 1.135151e-06 -1 2633.9004 1452.8278)" class="st23" width="23.4" height="166.4"/>
	
		<rect x="1106.9" y="719.2" transform="matrix(-1 -1.135151e-06 1.135151e-06 -1 2237.1636 1528.7776)" class="st23" width="23.4" height="90.5"/>
</g>
<g>
	<path class="st23" d="M852.6,558.5l-266.3,0c-4.5,0-8.2-3.7-8.2-8.2l0-114.7c0-4.5,3.7-8.2,8.2-8.2l266.3,0c4.5,0,8.2,3.7,8.2,8.2
		l0,114.7C860.7,554.8,857.1,558.5,852.6,558.5z"/>
	<path class="st12" d="M846.4,552.3l-254,0c-3.6,0-6.6-3-6.6-6.6l0-77.3c0-3.6,3-6.6,6.6-6.6l254,0c3.6,0,6.6,3,6.6,6.6l0,77.3
		C853,549.4,850,552.3,846.4,552.3z"/>
	<g>
		<path class="st12" d="M598.2,447.3h-5.7c-1.5,0-2.7-1.2-2.7-2.7l0-4.9c0-1.5,1.2-2.7,2.7-2.7l5.7,0c1.5,0,2.7,1.2,2.7,2.7v4.9
			C600.8,446.1,599.6,447.3,598.2,447.3z"/>
		<path class="st12" d="M618.3,447.3l-5.7,0c-1.5,0-2.7-1.2-2.7-2.7v-4.9c0-1.5,1.2-2.7,2.7-2.7l5.7,0c1.5,0,2.7,1.2,2.7,2.7v4.9
			C621,446.1,619.8,447.3,618.3,447.3z"/>
		<path class="st12" d="M638.4,447.3h-5.7c-1.5,0-2.7-1.2-2.7-2.7v-4.9c0-1.5,1.2-2.7,2.7-2.7l5.7,0c1.5,0,2.7,1.2,2.7,2.7l0,4.9
			C641.1,446.1,639.9,447.3,638.4,447.3z"/>
	</g>
	<path class="st23" d="M842.1,481.7l-141.3,0c-2.3,0-4.2-2-4.2-4.3c0-2.4,1.9-4.3,4.2-4.3l141.3,0c2.3,0,4.2,2,4.2,4.3
		C846.4,479.7,844.5,481.7,842.1,481.7z"/>
	<path class="st23" d="M735.8,548.6l-141.3,0c-2.3,0-4.2-2-4.2-4.3c0-2.4,1.9-4.3,4.2-4.3l141.3,0c2.3,0,4.2,2,4.2,4.3
		C740.1,546.7,738.2,548.6,735.8,548.6z"/>
	<path class="st23" d="M761.1,548.6l-13.1,0c-1.2,0-2.2-1-2.2-2.2v-4.3c0-1.2,1-2.2,2.2-2.2l13.1,0c1.2,0,2.2,1,2.2,2.2v4.3
		C763.3,547.6,762.3,548.6,761.1,548.6z"/>
	<path class="st23" d="M783.2,548.6l-13.1,0c-1.2,0-2.2-1-2.2-2.2v-4.3c0-1.2,1-2.2,2.2-2.2h13.1c1.2,0,2.2,1,2.2,2.2v4.3
		C785.4,547.6,784.4,548.6,783.2,548.6z"/>
	<path class="st23" d="M843.5,500.6l-234,0c-1.6,0-2.9-1.3-2.9-2.9c0-1.6,1.3-2.9,2.9-2.9l234,0c1.6,0,2.9,1.3,2.9,2.9
		C846.4,499.3,845.1,500.6,843.5,500.6z"/>
	<path class="st23" d="M843.5,513.3l-234,0c-1.6,0-2.9-1.3-2.9-2.9c0-1.6,1.3-2.9,2.9-2.9l234,0c1.6,0,2.9,1.3,2.9,2.9
		C846.4,512,845.1,513.3,843.5,513.3z"/>
</g>
<g>
	<g>
		<path class="st31" d="M640.4,625.2c0,0,5,0.5,10.7,0.5c7.8-0.1,26.6,1.2,20.9-2.3c-0.9-0.6-4.3-2.6-6.2-6.8l0,0
			c-0.1-0.2-0.1-0.3-0.1-0.5c-1.5-6.8-1.8-12.3-1.8-12.3l-27.4,4.7l0.1,0.3C638.2,617,640.4,625.2,640.4,625.2z"/>
		<path class="st32" d="M640.4,625.2c0,0,4.5,0.6,9.5,0.7l0.1,0c0,0,12.6-5.5,12.8-8.7l0,0c-0.1-0.2-0.1-0.3-0.1-0.5
			c-0.2-0.4-0.6-0.7-1.4-1c-3.9-1.4-9.5-1.1-13.7-0.6c-3.2,0.4-6.1-1.7-6.8-4.8c-0.2-1.1-0.4-1.9-0.4-1.9l-3.9,0.4
			C638.2,617,640.4,625.2,640.4,625.2z"/>
		<path class="st31" d="M619.7,571.3c-1.3-18.6,12.4-27.3,25.1-28.7c12.8-1.4,19.9,7,24.5,15.7c0,0,1.2,4.3,2.4,10.1
			c0.8,3.6,1.9,7.1,3.5,10.5c1.3,2.8,2.5,3.8,2.7,5.8c0.2,1.8-3.9,2.2-4.2,3.5c0.5,3.2,3.3,11.6,2.6,14.3
			c-1.8,7.3-15.3,7.1-15.3,7.1l0-0.2c-3.7,1.3-8.6,2-15,1.9C623.8,610.9,620.8,586.9,619.7,571.3z"/>
		<path class="st32" d="M665.1,559.6c0,0-6.4,1.8-5.8,8.1c0.7,6.3,2.6,7.2-0.2,10.1c-2.8,2.9-5.5,3.2-5.3,5.9
			c0.2,2.8,3.4,15.8,1.3,20.3c-2.1,4.5-15.4-30-15.4-30l5.9-13.7L665.1,559.6z"/>
		<path class="st33" d="M661.3,560.9c-5.6,1.8-2.9,12.6-2.7,14.4c0.1,1-2.8,2.4-4.7,3.7c-1.9,1.3-2.1,4-1.6,6.3
			c1.6,7.1,4.5,21.5,1.6,23.2c-3.8,2.3-16.1,6.1-18,4.4c-1.9-1.6-14.2-10.5-17.5-31.9c-3.3-21-1.4-24,5-32.2
			c3.9-5,19.7-8.8,24.8-8.3c11.3,1,14.4,0.8,18.5,7.4C669.5,552.3,670.8,557.9,661.3,560.9z"/>
	</g>
	<g>
		<path class="st34" d="M611.8,1033.9c0,0-1.4,10.2-1.6,11.8c-0.2,1.5-15.5-0.9-15.5-0.9l-1.2-12.2
			C593.5,1032.6,609.9,1032.5,611.8,1033.9z"/>
	</g>
	<g>
		<g>
			<path class="st35" d="M610.4,1044.4c0,0,4.9,6.2,9.6,8.9c4.7,2.7,12.1,3.8,14.9,6.5c2,2,7.3,10.7-12.2,10.5
				c-19.5-0.2-29,1.2-31.1-2.1c-2.1-3.3,3-24.5,3-24.5S599.4,1045.1,610.4,1044.4z"/>
		</g>
	</g>
	<g>
		<path class="st34" d="M718.2,1033.9c0,0-1.4,10.2-1.6,11.8c-0.2,1.5-15.5-0.9-15.5-0.9l-1.2-12.2
			C699.8,1032.6,716.2,1032.5,718.2,1033.9z"/>
	</g>
	<g>
		<g>
			<path class="st35" d="M716.8,1044.4c0,0,4.9,6.2,9.6,8.9c4.7,2.7,22,4.9,24.8,7.7c2,2,5.4,10.1-22.2,9.3
				c-19.5-0.5-29,1.2-31.1-2.1c-2.1-3.3,3-24.5,3-24.5S707,1044.8,716.8,1044.4z"/>
		</g>
	</g>
	<g>
		<path class="st36" d="M617,779c0,0-7.9,24.5-6.8,45.6c1,21.1-4.1,44.2-6.2,66.2c-2.3,24.6-11.9,82.7-12.2,95.8
			c-0.3,13.1,1.5,55.1,1.5,55.1l19.1,0.5c0,0,16-101.6,20.2-112c4.2-10.4,24.7-84.3,25.4-92.6C658.6,829.2,617,779,617,779z"/>
	</g>
	<g>
		<path class="st37" d="M696.1,776.5c0,0,11.6,64.7,13,77.6c1.4,12.9,2.3,62.5,3,70.5c0.7,8.1,4.6,105.6,8.3,117.6h-21.3
			c0,0-21.8-70.9-21.8-104.4c0-33.5-14.5-72.9-23.8-95c-9.3-22.1-30.7-22.7-36.4-63.7C617,779,688.3,763.5,696.1,776.5z"/>
	</g>
	<g>
		<path class="st36" d="M615.5,784.4c0,0,11.9,12.2,81.7-1.9l-1.1-6l-79.3,3L615.5,784.4z"/>
	</g>
	<g>
		<g>
			<path class="st31" d="M674.6,625.2c0,0,12.2,1.2,15.7,1.9c3.5,0.7,27-4.2,31.8-4.7c4.8-0.5,25.4-14.6,26-16.2
				c0.7-1.7,12.5-31.6,13.2-38.1c0.7-6.5,11.5-3.1,10.6,1.3c-1.7,8.3-4,28.6-5.2,34.5c-1.3,6.3-4.9,20.7-6.9,22.5
				c-2,1.8-20.5,15.8-38.6,21.8c-18.1,6-31.7,14.8-31.7,14.8h-89.2c0,0-34.7-49.6-35.4-57.1c-0.7-7.5,24.2-57.1,29.2-63.4
				c5-6.2,12.2,2,12.2,2s-14.9,43.8-16.9,50c-2,6.2,17.4,33.6,22.7,33.7c5.3,0.1,19-1.7,25-1.9c6.1-0.2,12.5-2.9,12.5-2.9
				L674.6,625.2z"/>
		</g>
	</g>
	<g>
		<path class="st38" d="M713.1,658.4c0,0-10.9,7.3-11.9,19.7c-1,12.5-5,32.1-7,38.9c-2,6.7,1.7,55.6,2.2,59
			c0.5,3.5-69,11.8-79.7,3.5c0,0-3-45.6-4.2-58.5c-1.2-13-7.2-44.3-9.2-48.6c-2-4.2-26.2-38.1-27.2-42.6c0,0,12.5-19.9,21.5-20.2
			c0,0,14.2,16.7,18.9,17.4c4.6,0.7,33.1-4.5,33.1-4.5c0,0,3.1,4.2,19.6-0.8c0,0,19.7,2.2,22.9,2.6c3.9,0.5,30.8-3.4,30.8-3.4
			s10.8,18.2,8.9,27.5L713.1,658.4z"/>
	</g>
	<g>
		<path class="st31" d="M760.7,572c0,0,2.4-11.5-0.5-14.9c-1.7-1.9-5.7-6.9-6.1-7.6c-0.4-0.7-4.7-3.2-4.7-4.4c0-1.2,4.2-2.7,7.9,0.7
			c3.7,3.4,6,4.1,7.4,3.8c1.5-0.4,3.6-12.6,3.8-15.6c0.2-3,1.3-11,3.2-10.5c1.9,0.6,1.8,4,1.8,4s2.2-6.1,3.7-4.9
			c1.5,1.2,1.3,4.1,1.3,4.1s2.8-3.4,3.5-0.9c0.7,2.5,0,4.7,0,4.7s2.8-1.6,3,2.3c0.2,3.9-0.8,15.1-2.8,19.2c-2,4-9.6,14.6-10.5,18.7
			C770.8,575,760.7,572,760.7,572z"/>
	</g>
	<g>
		<g>
			<path class="st31" d="M603.8,551.7c0,0,8.3-14,11.1-15.2c2.8-1.2,6.8-2,10.3-4.4c3.5-2.5,8.1-4.6,7.8-5.4
				c-0.3-0.8-4.4-0.5-8.8,1.4c-4.4,1.9-6.3,1-6.7,0c-0.4-1,2.3-8,3.7-9.7c1.3-1.7,10.8-11.2,9.2-12.6c-1.6-1.4-7.7,3.8-8.7,4.9
				c0,0,4.9-10.3,3-10.8c-1.9-0.5-5.5,3.2-5.5,3.2s0.4-8.8-9.1,5.5c0,0,2-4.7-0.9-3.2c-2.9,1.6-5.7,10.5-6.6,14.9
				c-0.9,4.5-5.1,18.8-8.6,22.2C590.5,546,603.8,551.7,603.8,551.7z"/>
		</g>
	</g>
	<g>
		<path class="st38" d="M669.6,623.6l-1-4.6c0,0-19-0.4-29.4,1.1l-1.1,5.4C638.1,625.6,651.4,631.6,669.6,623.6z"/>
	</g>
	<g>
		<path class="st39" d="M761.1,569.4c0,0,6.9,0.2,10.2,3.2c0,0,0.2,1.9-0.6,3.4c0,0-5.9-2.8-10.5-3.3
			C760.3,572.7,760.3,570.2,761.1,569.4z"/>
	</g>
	<g>
		<path class="st40" d="M769.2,571.1c0.6,1.5-0.1,3.2-1.6,3.9c-1.5,0.6-3.2-0.1-3.9-1.6c-0.6-1.5,0.1-3.2,1.6-3.9
			C766.8,568.9,768.6,569.6,769.2,571.1z"/>
	</g>
</g>
<path class="st41" d="M1922,1069.3v3.2c0,0.1,0,0.1-0.1,0.1H2.1c-0.1,0-0.1,0-0.1-0.1v-3.2c0-0.1,0-0.1,0.1-0.1L1922,1069.3
	C1922,1069.2,1922,1069.2,1922,1069.3z"/>
<g>
	<g>
		<g>
			<g>
				<g>
					<g>
						<path class="st31" d="M1360.1,804c0,0-1,5.5-4.1,6.4c-2.6,0.7-5.6,3.5-6.5,4.4c-1.2,1.2-6.2,3.3-4.8,4.9
							c1.4,1.5,8.4-3.2,10.1-3.9c1.7-0.7-0.7,7,0,8.8c0.7,1.8,13.6,5,14.7-0.5c1-5.5-1.5-12-1.1-12.9c0.4-0.9,0.9-3.9,0.9-3.9
							L1360.1,804z"/>
					</g>
				</g>
			</g>
		</g>
	</g>
	<g>
		<g>
			<g>
				<g>
					<path class="st31" d="M1354.7,823.1c0,0-2,17-1.2,18.2c0.8,1.2,1.7,1.3,2-0.3c0.3-1.6,2.4-16.3,2.4-16.3s1,20.5,1.4,21.6
						c0.3,0.7,2,0.9,2.3,0.1c0.2-0.8,0.4-21.2,0.4-21.2s1,19.1,1.6,20c0.6,0.8,2.3,0.5,2.3-0.9c0-1.4,0.1-19.2,0.1-19.2
						s1.6,13.9,2.6,14.3c0.6,0.2,2.1,0.5,1.6-3.1c-0.5-3.6-0.9-12.1-0.9-12.1L1354.7,823.1z"/>
				</g>
			</g>
		</g>
	</g>
	<g>
		<g>
			<path class="st31" d="M1178,596c0,0-2.8-5.2-3.7-9.4c-1-4.2-6.1-9.7-8.2-11c-2.1-1.3-17.4-12.3-19.2-12.3c-1.8,0-0.7,3.4,0.8,4.4
				c1.5,1,14,10.7,14,10.7s-15.5-10.7-17.1-10.4c-1.6,0.3-2.8,2.3-1,4.5c0,0-3.5,2.3,0.1,5.1l7.3,5.6c0,0-4.3-2.2-2.7,1.2
				c0.8,1.8,9.8,7.2,11.3,8.8c1.4,1.6,12.8,7.2,12.8,7.2L1178,596z"/>
		</g>
	</g>
	<g>
		<path class="st31" d="M1273.3,1050.4c0.1,5.4-4.7,20.7-4.7,20.7h-3.8c0,0,1.3-14.5-2.3-14.6h-0.1c-3.6,0-12.3,11.8-17.5,13.6
			c-4.9-0.1-30.9,1.9-32.3-1.6c-0.1-4.3,7.9-6.4,12.1-7.8c0.6-0.2,1.1-0.4,1.5-0.6c3.3-1.4,19.2-16.9,22-18.7
			c2.8-1.8,7.5-11.2,7.5-11.2h14.5c0,0,1.6,7.9,2.5,14.2C1273,1046.8,1273.2,1049,1273.3,1050.4z"/>
	</g>
	<g>
		<path class="st31" d="M1335.2,1068.3h-3.2v-13.5c-2.7,0.2-11.6,8.7-14.4,11.1c-2.8,2.4-6.6,2.3-18.2,3.1
			c-11.7,0.7-12.8-6.2-10.9-8.6c1.8-2.4,7.8-3.4,10.9-4.9c3.1-1.5,15.3-15.3,18.6-18.6c3.3-3.3,5.3-12.6,5.3-12.6l13.6,1.2
			c0,0-0.1,8.6,1.5,15.7v0c0,0,0,0,0,0.1c0.1,0.6,0.3,1.2,0.4,1.8C1340.8,1050.6,1335.2,1068.3,1335.2,1068.3z"/>
	</g>
	<g>
		<path class="st31" d="M1303.3,618c0,0,6.6,14,3.1,25.5c0,0,20.5-2.8,21.1-5.2c0.6-2.4-2.6-23.9-0.2-30.5
			C1329.6,601.2,1303.3,618,1303.3,618z"/>
	</g>
	<g>
		<path class="st42" d="M1302.8,638.8c0,0-11.8,5.1-17.2,6.6c-5.4,1.6-16.5,7.7-14.1,27.6c2.4,19.9,7.1,36.9,8.9,45.4
			c1.9,8.5,2.7,30.3,1.4,41.1c0,0,29.6,5.1,63.4-4.6c0,0-7.4-17.6-7.6-22.3c-0.2-4.7,17.1-44.6,17.6-50.7c0.5-6.1,2.6-33.2-7-38.5
			c-9.6-5.3-17-3.9-21.1-6.3C1323,634.7,1308.4,636.5,1302.8,638.8z"/>
	</g>
	<g>
		<path class="st42" d="M1302.9,669.7c0,0,4.5-23.9-18.6-23.8c-20.3,0-39.5-3.8-42.8-5.6c-3.2-1.8-15.7-7.9-22.2-14.6
			c-6.5-6.7-41.9-33.6-41.9-33.6l-9.8,9.9c0,0,37.3,40.5,43.3,44.5c6,3.9,56.5,32.2,62.9,33.1
			C1280.4,680.4,1298.4,685.3,1302.9,669.7z"/>
	</g>
	<g>
		<path class="st42" d="M1375.5,743.4c0.7,8.4-3.9,66.4-3.9,66.4l-16.4,1.9c0,0,1.2-57.3,2.1-70.5c0.3-3.9-0.6-9.9-2-16.3v0
			c-0.9-4.1-2-8.4-3.1-12.5c-3.1-11.4-6.5-21.2-6.5-21.2s-18.4-47.9,4.7-46c0,0,8.6,8.9,12.2,23.4c3.6,14.5,7.8,36.3,8,45
			C1370.7,722.2,1375,737.3,1375.5,743.4z"/>
	</g>
	<g>
		<path class="st43" d="M1349.7,870.7c-1.6,10.9,0.1,25.3,3.5,65.3c3.4,40-6,88.3-6,88.3c-11.9,4.1-25.5,0-25.5,0
			c0.3-2.8-2.3-91.8-2.3-100.2s-2.1-20.1-2.7-29.8c-0.4-6.6-1.6-22.3-5-34.7c-1-3.7-2.1-7.5-3.1-11.1c0,0,0,0,0,0
			c-0.6-2-1.2-4-1.7-6c-4.9-16.9-11.4-82-11.4-82s36.2-29.2,53.9-1.7c17.6,27.5,8.6,47.4,8,50.9
			C1356.6,813.3,1351.3,859.8,1349.7,870.7z"/>
	</g>
	<g>
		<path class="st13" d="M1285.7,759c0,0-5.3,12.5-5.8,15.7c-0.5,3.2-17.1,44.6-18.3,56.7c-1.2,12.3-4.7,45-5.9,49.6
			c-1.2,4.7,2.8,25.6,3.4,30.3c0.6,4.7,0.3,81.2-5.3,118.9c0,0,13.1,5.6,23.1,0c0,0,16.5-59,15.6-93c-0.9-34-5.3-48.4,0-62.1
			c5.3-13.7,36.2-54.9,39.3-59.3c3.1-4.4,22.7-28.5,4.2-54.7C1317.6,734.9,1285.7,759,1285.7,759z"/>
	</g>
	<g>
		<path class="st42" d="M1279.5,709.9c0,0,3.2,51.7-6.4,80.8c0,0,38.3,6.4,87.1-10.1c0,0-13.4-34.8-13-40.2
			c0.5-5.4,14.6-68.7,7.8-82.9C1348.2,643.4,1281.9,663.5,1279.5,709.9z"/>
	</g>
	<g>
		<g>
			<path class="st31" d="M1310.7,560.3c-8.7-0.4-31.1,3-26.9,36.7c4.2,33.7,16.3,30.7,28.4,26.3c12-4.5,24.8-31.7,24.3-38.7
				C1335.9,577.6,1335.7,561.3,1310.7,560.3z"/>
		</g>
	</g>
	<g>
		<path class="st44" d="M1283.9,581.5c0,0,10.7,11.8,20.7,14c0,0,8.5,13,22,15.5c0,0,26.2-28.9,1.1-47.5
			C1302.5,545,1283,571.1,1283.9,581.5z"/>
	</g>
	<g>
		<path class="st34" d="M1302.4,591c0.2-1.9,4-5.9,7.5-1.9c3.5,4-1.6,14.2-3.8,14.4C1304,603.5,1301.7,598.1,1302.4,591z"/>
	</g>
	<g>
		<path class="st45" d="M1334.6,812c-0.3,0.6-18.3,40.7-23,47.6c-1-3.7-2.1-7.5-3.1-11.1c0,0,0,0,0,0S1334,812.9,1334.6,812z"/>
	</g>
	<g>
		<path class="st42" d="M1356.1,683.8c0,0,1.3,25.5-0.8,41.1c-0.9-4.1-2-8.4-3.1-12.5C1352.2,711.8,1355.7,687.8,1356.1,683.8z"/>
	</g>
	<g>
		<path class="st44" d="M1317.4,558.1c0,0,30.4-7.9,31.8,57.1c0.9,43.7,23.8,70,21.7,75.9c-2.1,5.9-64.4,3-75.9-2.7
			c-2.7-1.4,26.8-60.8,18.2-78.8c-8.6-17.9-27.4-26.2-27.4-26.2S1289.1,552.9,1317.4,558.1z"/>
	</g>
	<g>
		<path class="st46" d="M1276.4,664c0,0-6.9,24.8-8.6,30.7c-2.1,7.6,7.8,22,16.6,17.6C1293.2,707.9,1276.4,664,1276.4,664z"/>
	</g>
	<g>
		<path class="st45" d="M1335.2,1068.3h-3.2v-13.5c-2.7,0.2-11.6,8.7-14.4,11.1c-2.8,2.4-6.6,2.3-18.2,3.1
			c-11.7,0.7-12.8-6.2-10.9-8.6c1.8-2.4,7.8-3.4,10.9-4.9c12.5,0.7,27.7-16.9,35-16.8c3.9,0,3.8,2.2,4,2.6v0c0,0,0,0,0,0.1
			c0.1,0.6,0.3,1.2,0.4,1.8C1340.8,1050.6,1335.2,1068.3,1335.2,1068.3z"/>
	</g>
	<g>
		<path class="st45" d="M1273.3,1050.4c0.1,5.4-4.7,20.7-4.7,20.7h-3.8c0,0,1.3-14.5-2.3-14.6h-0.1c-3.6,0-12,13.8-17.5,13.6
			c-4.9-0.1-30.9,1.9-32.3-1.6c-1.7-4,7.6-6.3,12.1-7.8c0.6-0.2,1.1-0.4,1.5-0.6c11.1,0,29.2-12.3,34.8-14.7c5.6-2.5,11.7-1,11.7-1
			C1273,1046.8,1273.2,1049,1273.3,1050.4z"/>
	</g>
</g>
<g>
	<g>
		<g>
			<g>
				<path class="st17" d="M1094.3,620.9c27.8-28.3,42.3-64.9,42.3-102.8c-0.1-84-71.4-151.3-157.1-151.3
					c-84.1,0-144.8,62.7-154.5,130c-6,44.9,8.5,88.6,38.6,121.7c26.5,28.3,41,66.2,41,105.2l0,3.6h150.9l0-3.6
					C1055.6,683.5,1068.9,646.8,1094.3,620.9z"/>
				<path class="st47" d="M903.2,701.8c0,0,29.2,9.3,77,9.3s76.9-9.3,76.9-9.3s-4.5,92-4.7,98.8c-0.3,8.6-43.5,19.4-67.2,19.4
					c-35.4,0-77-10.3-78.2-18C905.7,794.2,903.2,701.8,903.2,701.8z"/>
				<g>
					<path class="st12" d="M1014.4,683.5c-0.1,0-0.1,0-0.2,0c-1.8-0.1-3.1-1.6-3-3.4l4.7-75.9c0-0.3,0.1-0.5,0.2-0.8
						c1.4-4.3,7.7-23.3,15.2-44.1c-0.4,0-0.7,0-1.1,0c-14.4-0.1-27.4-5-33.3-12.7c-4.9-6.4-6.8-13-8.3-18.4c-2.1-7.2-3.1-9.6-6.7-10
						h-3.3c-3.7,0.4-4.7,2.8-6.7,10c-1.5,5.3-3.4,12-8.3,18.4c-5.9,7.7-19,12.6-33.3,12.7c-0.4,0-0.7,0-1.1,0
						c7.5,20.8,13.8,39.8,15.2,44.1c0.1,0.3,0.1,0.5,0.2,0.8l4.7,75.9c0.1,1.8-1.2,3.3-3,3.4c-1.7,0.1-3.3-1.2-3.4-3l-4.7-75.5
						c-4.5-13.8-10.2-30.4-15.9-46.2c-14.6-1.9-27.6-9.1-36.5-20.5c-14.2-18.2-11.6-34.4-3.2-41.7c6-5.3,14.1-5,19.6,0.6
						c5.6,5.8,15.8,31.1,24.7,55.6c1.2,0.1,2.3,0.1,3.4,0.1c12.1,0,23.7-4.2,28.3-10.2c4.2-5.4,5.8-11.2,7.3-16.2
						c1.9-6.8,4-13.8,12.4-14.6c0.1,0,0.2,0,0.3,0h3.6c0.1,0,0.2,0,0.3,0c8.4,0.8,10.5,7.8,12.4,14.6c1.5,5.1,3.1,10.8,7.3,16.2
						c4.6,6,16.2,10.2,28.3,10.2c1.1,0,2.2,0,3.4-0.1c9-24.5,19.1-49.8,24.7-55.6c5.5-5.6,13.5-5.9,19.6-0.6
						c8.4,7.3,11,23.5-3.2,41.7c-11.2,14.3-25.7,19.1-36.5,20.5c-5.7,15.8-11.4,32.4-15.9,46.2l-4.7,75.5
						C1017.5,682.2,1016.1,683.5,1014.4,683.5z M1068.2,499.2c-1.8,0-3.6,0.7-5.4,2.5c-4.3,4.5-13.2,25.8-22.2,50.3
						c9.1-1.7,20.2-6.3,29-17.6c11.7-14.9,10.2-27.6,4-33C1072.3,500.2,1070.3,499.2,1068.2,499.2z M891.9,499.2c-2.1,0-4,1-5.5,2.2
						c-6.2,5.4-7.6,18.1,4,33c8.8,11.2,19.9,15.8,29,17.6c-9-24.5-17.9-45.8-22.2-50.3C895.6,499.9,893.7,499.2,891.9,499.2z"/>
				</g>
				<g class="st48">
					<path class="st12" d="M911.9,717.2c5.4,1.9,11,3.2,16.6,4.2c5.6,1.1,11.2,1.9,16.9,2.5c11.3,1.2,22.7,1.8,34.1,1.8
						c11.4,0,22.8-0.6,34.1-1.7c5.7-0.6,11.3-1.4,16.9-2.5c5.6-1,11.2-2.4,16.6-4.3c-2.6,1.3-5.2,2.4-8,3.3c-2.7,1-5.5,1.8-8.3,2.6
						c-5.6,1.5-11.2,2.5-16.9,3.5c-11.4,1.8-22.9,2.5-34.5,2.5c-11.5,0-23.1-0.8-34.5-2.6C933.7,724.6,922.3,722.1,911.9,717.2z"/>
					<path class="st12" d="M911.9,735.8c5.4,1.9,11,3.2,16.6,4.2c5.6,1.1,11.2,1.9,16.9,2.5c11.3,1.2,22.7,1.8,34.1,1.8
						c11.4,0,22.8-0.6,34.1-1.7c5.7-0.6,11.3-1.4,16.9-2.5c5.6-1,11.2-2.4,16.6-4.3c-2.6,1.3-5.2,2.4-8,3.3c-2.7,1-5.5,1.8-8.3,2.6
						c-5.6,1.5-11.2,2.5-16.9,3.5c-11.4,1.8-22.9,2.5-34.5,2.5c-11.5,0-23.1-0.8-34.5-2.6C933.7,743.3,922.3,740.7,911.9,735.8z"/>
					<path class="st12" d="M911.9,754.5c5.4,1.9,11,3.2,16.6,4.2c5.6,1.1,11.2,1.9,16.9,2.5c11.3,1.2,22.7,1.8,34.1,1.8
						c11.4,0,22.8-0.6,34.1-1.7c5.7-0.6,11.3-1.4,16.9-2.5c5.6-1,11.2-2.4,16.6-4.3c-2.6,1.3-5.2,2.4-8,3.3c-2.7,1-5.5,1.8-8.3,2.6
						c-5.6,1.5-11.2,2.5-16.9,3.5c-11.4,1.8-22.9,2.5-34.5,2.5c-11.5,0-23.1-0.8-34.5-2.6C933.7,761.9,922.3,759.4,911.9,754.5z"/>
					<path class="st12" d="M911.9,773.1c5.4,1.9,11,3.2,16.6,4.2c5.6,1.1,11.2,1.9,16.9,2.5c11.3,1.2,22.7,1.8,34.1,1.8
						c11.4,0,22.8-0.6,34.1-1.7c5.7-0.6,11.3-1.4,16.9-2.5c5.6-1,11.2-2.4,16.6-4.3c-2.6,1.3-5.2,2.4-8,3.3c-2.7,1-5.5,1.8-8.3,2.6
						c-5.6,1.5-11.2,2.5-16.9,3.5c-11.4,1.8-22.9,2.5-34.5,2.5c-11.5,0-23.1-0.8-34.5-2.6C933.7,780.6,922.3,778.1,911.9,773.1z"/>
					<path class="st12" d="M911.9,791.8c5.4,1.9,11,3.2,16.6,4.2c5.6,1.1,11.2,1.9,16.9,2.5c11.3,1.2,22.7,1.8,34.1,1.8
						c11.4,0,22.8-0.6,34.1-1.7c5.7-0.6,11.3-1.4,16.9-2.5c5.6-1,11.2-2.4,16.6-4.3c-2.6,1.3-5.2,2.4-8,3.3c-2.7,1-5.5,1.8-8.3,2.6
						c-5.6,1.5-11.2,2.5-16.9,3.5c-11.4,1.8-22.9,2.5-34.5,2.5c-11.5,0-23.1-0.8-34.5-2.6C933.7,799.2,922.3,796.7,911.9,791.8z"/>
				</g>
			</g>
			<ellipse class="st49" cx="1027.9" cy="520.5" rx="86.5" ry="89.7"/>
		</g>
	</g>
	<line class="st50" x1="928.6" y1="273.7" x2="943.5" y2="330.3"/>
	<line class="st51" x1="1022.4" y1="275.2" x2="1010.8" y2="330.6"/>
	<line class="st52" x1="770.3" y1="378.8" x2="822.3" y2="416.6"/>
	<line class="st53" x1="829" y1="315.7" x2="869.4" y2="362"/>
	<line class="st54" x1="1169.2" y1="364.6" x2="1123.4" y2="405.9"/>
	<line class="st55" x1="1109.7" y1="310" x2="1077" y2="360.8"/>
</g>
<g>
	
		<rect x="73.6" y="234.6" transform="matrix(-1 -1.224647e-16 1.224647e-16 -1 438.4122 958.6133)" class="st1" width="291.2" height="489.3"/>
	<rect x="64.5" y="234.6" class="st2" width="291.2" height="489.3"/>
	<rect x="84.3" y="262" class="st3" width="252.3" height="170.4"/>
	<rect x="196.8" y="592.4" class="st3" width="135.4" height="91"/>
	<path class="st13" d="M94.7,349c0,0,43.1-5.4,69.4,18.9c26.3,24.2,75.3,2.1,95.1,0c34.3-3.7,61.2,7.5,69.2,19.8v37H94.7V349z"/>
	<rect x="128.1" y="289.4" class="st6" width="1.8" height="57.8"/>
	<rect x="198.9" y="314.2" class="st6" width="1.8" height="57.8"/>
	<rect x="272" y="301.1" class="st6" width="1.8" height="57.8"/>
	<path class="st6" d="M150,298.2h-13.8c-0.8,0-1.5-0.7-1.5-1.5l0,0c0-0.8,0.7-1.5,1.5-1.5H150c0.8,0,1.5,0.7,1.5,1.5l0,0
		C151.5,297.6,150.9,298.2,150,298.2z"/>
	<path class="st6" d="M150,303.7h-13.8c-0.8,0-1.5-0.7-1.5-1.5l0,0c0-0.8,0.7-1.5,1.5-1.5H150c0.8,0,1.5,0.7,1.5,1.5l0,0
		C151.5,303,150.9,303.7,150,303.7z"/>
	<path class="st6" d="M219.8,327.7H206c-0.8,0-1.5-0.7-1.5-1.5l0,0c0-0.8,0.7-1.5,1.5-1.5h13.8c0.8,0,1.5,0.7,1.5,1.5l0,0
		C221.3,327,220.6,327.7,219.8,327.7z"/>
	<path class="st6" d="M219.8,333H206c-0.8,0-1.5-0.7-1.5-1.5l0,0c0-0.8,0.7-1.5,1.5-1.5h13.8c0.8,0,1.5,0.7,1.5,1.5l0,0
		C221.3,332.3,220.6,333,219.8,333z"/>
	<path class="st6" d="M294.1,305.9h-13.8c-0.8,0-1.5-0.7-1.5-1.5l0,0c0-0.8,0.7-1.5,1.5-1.5h13.8c0.8,0,1.5,0.7,1.5,1.5l0,0
		C295.6,305.2,294.9,305.9,294.1,305.9z"/>
	<path class="st6" d="M294.1,311.2h-13.8c-0.8,0-1.5-0.7-1.5-1.5l0,0c0-0.8,0.7-1.5,1.5-1.5h13.8c0.8,0,1.5,0.7,1.5,1.5l0,0
		C295.6,310.5,294.9,311.2,294.1,311.2z"/>
	<g>
		
			<ellipse transform="matrix(0.2013 -0.9795 0.9795 0.2013 -217.3628 685.4565)" class="st3" cx="311.6" cy="476" rx="24.9" ry="24.9"/>
		<path class="st13" d="M334.4,476c0,12.6-10.2,22.8-22.8,22.8c-5.9,0-11.4-2.3-15.4-6l15.4-16.8v-22.8
			C324.2,453.2,334.4,463.4,334.4,476z"/>
		<path class="st6" d="M303,472h-8.2c-0.4,0-0.7-0.3-0.7-0.7l0,0c0-0.4,0.3-0.7,0.7-0.7h8.2c0.4,0,0.7,0.3,0.7,0.7l0,0
			C303.6,471.7,303.3,472,303,472z"/>
	</g>
	<g>
		<path class="st3" d="M224.9,476c0-13.8,11.2-24.9,24.9-24.9c13.8,0,24.9,11.2,24.9,24.9c0,13.8-11.2,24.9-24.9,24.9
			C236,500.9,224.9,489.8,224.9,476z"/>
		<path class="st56" d="M249.8,476l14,18c-3.9,3-8.7,4.8-14,4.8c-12.6,0-22.8-10.2-22.8-22.8c0-12.6,10.2-22.8,22.8-22.8
			c11.9,0,21.6,9.1,22.7,20.7L249.8,476z"/>
		<path class="st6" d="M267.4,481.7h-5.7c-0.4,0-0.7-0.3-0.7-0.7l0,0c0-0.4,0.3-0.7,0.7-0.7h5.7c0.4,0,0.7,0.3,0.7,0.7l0,0
			C268,481.3,267.7,481.7,267.4,481.7z"/>
	</g>
	<g>
		<path class="st3" d="M286.7,544.6c0-13.8,11.2-24.9,24.9-24.9c13.8,0,24.9,11.2,24.9,24.9c0,13.8-11.2,24.9-24.9,24.9
			C297.9,569.5,286.7,558.4,286.7,544.6z"/>
		<path class="st13" d="M334.4,544.6c0,12.6-10.2,22.8-22.8,22.8c-5.9,0-11.4-2.3-15.4-6l15.4-16.8v-22.8
			C324.2,521.8,334.4,532,334.4,544.6z"/>
		<path class="st6" d="M303,540.6h-8.2c-0.4,0-0.7-0.3-0.7-0.7l0,0c0-0.4,0.3-0.7,0.7-0.7h8.2c0.4,0,0.7,0.3,0.7,0.7l0,0
			C303.6,540.3,303.3,540.6,303,540.6z"/>
	</g>
	<g>
		<path class="st3" d="M224.9,544.6c0-13.8,11.2-24.9,24.9-24.9c13.8,0,24.9,11.2,24.9,24.9c0,13.8-11.2,24.9-24.9,24.9
			C236,569.5,224.9,558.4,224.9,544.6z"/>
		<path class="st13" d="M272.5,542.5c-1.1-11.6-10.8-20.7-22.7-20.7c-12.6,0-22.8,10.2-22.8,22.8c0,12.6,10.2,22.8,22.8,22.8
			c5.3,0,10.1-1.8,14-4.8l-14-18L272.5,542.5z"/>
		<path class="st6" d="M267.4,550.3h-5.7c-0.4,0-0.7-0.3-0.7-0.7l0,0c0-0.4,0.3-0.7,0.7-0.7h5.7c0.4,0,0.7,0.3,0.7,0.7l0,0
			C268,549.9,267.7,550.3,267.4,550.3z"/>
	</g>
	<g>
		<polygon class="st6" points="326.4,677 202.1,677 202.1,603.6 203.6,603.6 203.6,675.5 326.4,675.5 		"/>
	</g>
	<g>
		<path class="st6" d="M240.9,650.5c-15.2-12.1-31.4,0-31.4,0v20.7h113.7v-53.5C292.4,618.4,256.2,662.6,240.9,650.5z"/>
		<path class="st6" d="M210.9,609.2h53c0.7,0,1.3-0.6,1.3-1.3c0-0.7-0.6-1.3-1.3-1.3h-53c-0.7,0-1.3,0.6-1.3,1.3
			C209.6,608.6,210.1,609.2,210.9,609.2z"/>
		<path class="st6" d="M210.9,615.5h53c0.7,0,1.3-0.6,1.3-1.3c0-0.7-0.6-1.3-1.3-1.3h-53c-0.7,0-1.3,0.6-1.3,1.3
			C209.6,615,210.1,615.5,210.9,615.5z"/>
		<path class="st6" d="M210.6,621.5h35.1c0.6,0,1.1-0.5,1.1-1.1V620c0-0.6-0.5-1.1-1.1-1.1h-35.1c-0.6,0-1.1,0.5-1.1,1.1v0.5
			C209.6,621.1,210,621.5,210.6,621.5z"/>
	</g>
</g>
<g>
	<path class="st43" d="M87.4,627.4c0,0-38.7,40.5-40.5,55.8c-1.8,15.3,18.5,39.1,18.5,39.1L87.4,627.4z"/>
	<path class="st44" d="M104.9,1047.6c0,0,1.4,21.5,5.5,21.8c0.5,0,20.9,0,20.9,0l25.9-0.2c0,0-0.2-6.3-7.8-7.6
		c-7.6-1.3-20.3-6.7-24.9-16.8C119.7,1034.1,104.9,1047.6,104.9,1047.6z"/>
	<path class="st44" d="M47.1,1047.7c0,0,1.4,21.5,5.5,21.8c0.5,0,20.9,0,20.9,0l25.9-0.2c0,0-0.2-6.3-7.8-7.6
		c-7.6-1.3-20.3-6.7-24.9-16.8C61.9,1034.2,47.1,1047.7,47.1,1047.7z"/>
	<path class="st44" d="M133.1,816.4c0,0-6.7,43.9-31.8,121.9c-25.1,78-28.5,111.7-28.5,111.7l-27.2-0.7c0,0,5-84.7,16.6-123.9
		c11.6-39.2-1.9-140.8-1.9-140.8L133.1,816.4z"/>
	<path class="st41" d="M146.3,785.9c0,0,1.1,66.1-10,147.3c-11.1,81.2-7.2,115.7-7.2,115.7l-27.1,1c0,0-10.4-82.9-5.8-123.6
		c4.6-40.6-28.5-137.7-28.5-137.7L146.3,785.9z"/>
	<path class="st57" d="M90.8,637.1l16.5,10.9l23.8-4.5c-0.3-1.9-1.9-10-3.4-17.3c-0.1-0.4-0.2-0.9-0.3-1.3
		c-1.2-6.2-2.3-11.5-2.3-11.5l-22.2-9.9l-8.3-3.7c0,0.1,0.7,6.9,0.7,7.9C96.9,625.2,90.8,637.1,90.8,637.1z"/>
	<path class="st43" d="M123.4,626.3c-0.4-0.2-25.1-7.5-27.8-6.6c-2.7,0.9-4.3,6.2-4.3,6.2l40.5,9.2
		C131.8,635.1,128.6,628.5,123.4,626.3z"/>
	<path class="st13" d="M60.3,794.3c1.8,19.7,67.1,21.5,85.1,3.9c2-2,2.7-11.9,1.9-24.4c-1.6-24.5-3.3-60.9-3.6-79.7
		c-0.1-9.1-1.4-18.4-3-26.8c-3.5-18-8.9-32.1-8.9-32.1s-34.1-11.1-40.5-9.2C60.7,635.1,59.3,783.6,60.3,794.3z"/>
	<path class="st43" d="M147.3,773.8c-1.6-24.5-3.3-60.9-3.6-79.7c-0.1-9.1-1.4-18.4-3-26.8l-20.5-3.6
		C120.2,663.6,97.2,745.9,147.3,773.8z"/>
	<path class="st57" d="M141.1,740.5c0,0-1.5,3.7,1.7,6.2c3.2,2.5,5.3,6.5,4.6,9.4c-0.7,2.9-7.8,7.8-10.2,7c-2.4-0.8-7.4-4.6-6.9-6.2
		c0.5-1.6-3.4-13.6,2.6-18.3C138.8,734,141.1,740.5,141.1,740.5z"/>
	<path class="st13" d="M116.4,631.1c0,0,21.2-7,38.8,19c17.5,26,29.1,45.3,25.9,54.7c-3.2,9.4-32.5,42-37.5,42
		c-5.1,0-13.2-3.7-13.7-12.1c0,0,20.6-31.3,16.5-36c-1.7-2-26.9-22.5-30.4-13.2C110,700.8,116.4,631.1,116.4,631.1z"/>
	<path class="st58" d="M97,608c4.9,8.3,23.1,15.5,30.7,18.2c-0.1-0.4-0.2-0.9-0.3-1.3c-1.2-6.2-2.3-11.5-2.3-11.5l-22.2-9.9
		C98,603.5,95,604.6,97,608z"/>
	<path class="st57" d="M133.5,612c0,0-35.8,11.4-42.4-11.3c-6.7-22.6-15.8-36.4,6.8-44.6c22.6-8.2,29.6-0.9,33.6,6.1
		C135.5,569.2,142.6,608.5,133.5,612z"/>
	<path class="st44" d="M130.1,560c0,0-2.2,26.4-7.6,25.2c-5.4-1.1-10.3-2-9.5,6c0.8,7.9,8.3,17.1-8.3,18.5
		c-16.6,1.4-40.6-41.8-36-50C81.7,536,149,531.1,130.1,560z"/>
</g>
<g>
	<path class="st57" d="M187.9,874.9c-6.1-18,3.5-37.6,21.6-43.7c18-6.1,37.6,3.5,43.7,21.6c6.1,18-3.5,37.6-21.6,43.7
		C213.6,902.6,194,893,187.9,874.9z"/>
	<path class="st13" d="M185.1,875.9c-6.1-18,3.5-37.6,21.6-43.7c18-6.1,37.6,3.5,43.7,21.6c6.1,18-3.5,37.6-21.6,43.7
		C210.8,903.6,191.2,893.9,185.1,875.9z"/>
	<g>
		<path class="st43" d="M227.9,894.9c-7.9,2.7-16.5,2.1-24-1.6c-7.5-3.7-13.2-10.1-15.9-18.1c-2.7-7.9-2.1-16.5,1.6-24
			c3.7-7.5,10.1-13.2,18.1-15.9c7.9-2.7,16.5-2.1,24,1.6c7.5,3.7,13.2,10.1,15.9,18.1c2.7,7.9,2.1,16.5-1.6,24
			C242.3,886.6,235.9,892.3,227.9,894.9z M208.3,837.2c-15.4,5.2-23.7,22-18.5,37.5c5.2,15.4,22,23.7,37.5,18.5
			c15.4-5.2,23.7-22,18.5-37.5C240.6,840.3,223.8,832,208.3,837.2z"/>
	</g>
	<g>
		<path class="st43" d="M224.9,872.4c-0.1-0.7-0.4-1.2-0.7-1.7c-0.3-0.5-0.7-0.9-1.2-1.2c-0.5-0.3-1.1-0.6-1.9-0.8
			c-0.7-0.2-1.6-0.4-2.7-0.5c-1.8-0.2-3.5-0.5-5-0.9c-1.5-0.4-2.8-0.8-4-1.5c-1.2-0.6-2.1-1.5-2.9-2.5c-0.8-1-1.3-2.3-1.7-3.9
			c-0.3-1.4-0.3-2.6-0.1-3.8c0.2-1.2,0.7-2.3,1.4-3.3c0.7-1,1.6-1.9,2.8-2.7c1.1-0.8,2.5-1.4,4-1.9l-1.1-5.1l4.1-0.9l1.1,5.2
			c1.5-0.1,2.9,0,4.3,0.3c1.3,0.3,2.5,0.9,3.5,1.6c1,0.8,1.9,1.7,2.6,2.9c0.7,1.2,1.3,2.6,1.6,4.2l-7.4,1.6c-0.4-1.9-1.1-3.2-2.2-4
			c-1-0.8-2.3-1-3.7-0.7c-0.8,0.2-1.4,0.4-1.9,0.7c-0.5,0.3-0.9,0.7-1.2,1.2c-0.3,0.4-0.5,0.9-0.5,1.5c-0.1,0.5,0,1.1,0.1,1.7
			c0.1,0.6,0.3,1.1,0.6,1.5c0.3,0.4,0.7,0.8,1.2,1.1c0.5,0.3,1.1,0.6,1.9,0.8c0.8,0.2,1.7,0.4,2.8,0.6c1.8,0.3,3.4,0.6,4.9,0.9
			c1.5,0.4,2.8,0.9,4,1.5c1.2,0.6,2.1,1.5,2.9,2.5c0.8,1,1.3,2.3,1.7,3.8c0.3,1.4,0.3,2.7,0.1,3.9c-0.3,1.2-0.7,2.3-1.5,3.3
			c-0.7,1-1.7,1.9-2.8,2.6c-1.2,0.8-2.5,1.4-4,1.8l1,4.7l-4.1,0.9l-1-4.7c-1.5,0.2-2.9,0.1-4.3-0.1c-1.4-0.2-2.7-0.6-4-1.3
			c-1.2-0.7-2.3-1.6-3.2-2.9c-0.9-1.2-1.6-2.8-2-4.7l7.4-1.6c0.2,1.1,0.6,2,1.1,2.7c0.5,0.7,1,1.2,1.7,1.5c0.6,0.3,1.3,0.5,2,0.6
			c0.7,0,1.4,0,2.1-0.2c0.8-0.2,1.5-0.4,2.1-0.8c0.6-0.3,1-0.7,1.3-1.2c0.3-0.5,0.5-1,0.6-1.5C225,873.6,225,873,224.9,872.4z"/>
	</g>
</g>
<g>
	
		<ellipse transform="matrix(0.9764 -0.2157 0.2157 0.9764 -165.7988 81.5231)" class="st57" cx="290.5" cy="800.2" rx="27.2" ry="27.2"/>
	<path class="st13" d="M262.5,809.7c-4.8-14.2,2.8-29.6,17-34.5c14.2-4.8,29.6,2.8,34.5,17c4.8,14.2-2.8,29.6-17,34.5
		C282.8,831.5,267.4,823.9,262.5,809.7z"/>
	<g>
		<path class="st43" d="M296.3,824.7c-6.3,2.1-13,1.7-18.9-1.2c-5.9-2.9-10.4-8-12.5-14.2c-2.1-6.3-1.7-13,1.2-18.9
			c2.9-5.9,8-10.4,14.2-12.5c6.3-2.1,13-1.7,18.9,1.2c5.9,2.9,10.4,8,12.5,14.2c2.1,6.3,1.7,13-1.2,18.9
			C307.6,818.1,302.6,822.6,296.3,824.7z M280.9,779.2c-12.2,4.1-18.7,17.4-14.6,29.5c4.1,12.2,17.4,18.7,29.5,14.6
			c12.2-4.1,18.7-17.4,14.6-29.5C306.3,781.6,293,775.1,280.9,779.2z"/>
	</g>
	<g>
		<path class="st43" d="M293.9,807c-0.1-0.5-0.3-1-0.5-1.3c-0.2-0.4-0.6-0.7-1-0.9c-0.4-0.3-0.9-0.5-1.5-0.6
			c-0.6-0.2-1.3-0.3-2.1-0.4c-1.4-0.2-2.7-0.4-3.9-0.7c-1.2-0.3-2.2-0.7-3.1-1.2c-0.9-0.5-1.7-1.1-2.3-1.9c-0.6-0.8-1.1-1.8-1.3-3
			c-0.2-1.1-0.2-2.1-0.1-3c0.2-1,0.6-1.8,1.1-2.6c0.6-0.8,1.3-1.5,2.2-2.1c0.9-0.6,1.9-1.1,3.1-1.5l-0.9-4l3.2-0.7l0.9,4.1
			c1.2-0.1,2.3,0,3.3,0.3c1,0.3,2,0.7,2.8,1.3c0.8,0.6,1.5,1.4,2.1,2.3c0.6,0.9,1,2,1.3,3.3l-5.8,1.2c-0.3-1.5-0.9-2.6-1.7-3.2
			c-0.8-0.6-1.8-0.8-2.9-0.5c-0.6,0.1-1.1,0.3-1.5,0.6c-0.4,0.3-0.7,0.6-0.9,0.9c-0.2,0.4-0.4,0.7-0.4,1.2c0,0.4,0,0.9,0.1,1.3
			c0.1,0.5,0.3,0.9,0.5,1.2c0.2,0.3,0.5,0.6,0.9,0.9c0.4,0.2,0.9,0.5,1.5,0.6c0.6,0.2,1.3,0.3,2.2,0.4c1.4,0.2,2.7,0.5,3.9,0.7
			c1.2,0.3,2.2,0.7,3.1,1.2c0.9,0.5,1.7,1.2,2.3,2c0.6,0.8,1,1.8,1.3,3c0.2,1.1,0.3,2.1,0.1,3.1c-0.2,1-0.6,1.8-1.1,2.6
			c-0.6,0.8-1.3,1.5-2.2,2.1c-0.9,0.6-2,1.1-3.1,1.5l0.8,3.7l-3.2,0.7l-0.8-3.7c-1.1,0.1-2.3,0.1-3.4,0c-1.1-0.2-2.2-0.5-3.1-1
			c-1-0.5-1.8-1.3-2.5-2.3c-0.7-1-1.2-2.2-1.5-3.7l5.8-1.2c0.2,0.9,0.5,1.6,0.8,2.1c0.4,0.5,0.8,0.9,1.3,1.2c0.5,0.3,1,0.4,1.6,0.4
			c0.6,0,1.1,0,1.7-0.1c0.6-0.1,1.2-0.3,1.6-0.6c0.4-0.3,0.8-0.6,1.1-0.9c0.3-0.4,0.4-0.7,0.5-1.2C294,807.9,294,807.4,293.9,807z"
			/>
	</g>
</g>
<g>
	
		<ellipse transform="matrix(0.9473 -0.3205 0.3205 0.9473 -267.2666 144.8321)" class="st57" cx="306.4" cy="884.3" rx="20.3" ry="20.3"/>
	<path class="st13" d="M285.4,891.5c-3.6-10.6,2.1-22.2,12.7-25.8c10.6-3.6,22.2,2.1,25.8,12.7c3.6,10.6-2.1,22.2-12.7,25.8
		C300.6,907.8,289,902.1,285.4,891.5z"/>
	<g>
		<path class="st43" d="M310.7,902.7c-4.7,1.6-9.7,1.3-14.1-0.9c-4.4-2.2-7.8-6-9.3-10.7c-1.6-4.7-1.3-9.7,0.9-14.1s6-7.8,10.7-9.3
			s9.7-1.3,14.1,0.9c4.4,2.2,7.8,6,9.3,10.7c1.6,4.7,1.3,9.7-0.9,14.1C319.2,897.8,315.4,901.1,310.7,902.7z M299.2,868.7
			c-9.1,3.1-14,13-10.9,22.1c3.1,9.1,13,14,22.1,10.9c9.1-3.1,14-13,10.9-22.1C318.2,870.5,308.2,865.6,299.2,868.7z"/>
	</g>
	<g>
		<path class="st43" d="M308.9,889.4c-0.1-0.4-0.2-0.7-0.4-1c-0.2-0.3-0.4-0.5-0.7-0.7c-0.3-0.2-0.7-0.3-1.1-0.5
			c-0.4-0.1-1-0.2-1.6-0.3c-1.1-0.1-2-0.3-2.9-0.5c-0.9-0.2-1.7-0.5-2.4-0.9c-0.7-0.4-1.2-0.9-1.7-1.5c-0.5-0.6-0.8-1.4-1-2.3
			c-0.2-0.8-0.2-1.6,0-2.3c0.1-0.7,0.4-1.4,0.8-2c0.4-0.6,1-1.1,1.6-1.6c0.7-0.5,1.4-0.8,2.3-1.1l-0.6-3l2.4-0.5l0.6,3
			c0.9-0.1,1.7,0,2.5,0.2c0.8,0.2,1.5,0.5,2.1,1c0.6,0.4,1.1,1,1.6,1.7c0.4,0.7,0.7,1.5,0.9,2.5l-4.4,0.9c-0.2-1.1-0.7-1.9-1.3-2.4
			c-0.6-0.5-1.3-0.6-2.2-0.4c-0.5,0.1-0.8,0.2-1.1,0.4c-0.3,0.2-0.5,0.4-0.7,0.7c-0.2,0.3-0.3,0.6-0.3,0.9c0,0.3,0,0.7,0.1,1
			c0.1,0.3,0.2,0.6,0.4,0.9c0.2,0.3,0.4,0.5,0.7,0.7c0.3,0.2,0.7,0.3,1.1,0.5c0.5,0.1,1,0.2,1.7,0.3c1.1,0.2,2,0.3,2.9,0.6
			c0.9,0.2,1.7,0.5,2.3,0.9c0.7,0.4,1.3,0.9,1.7,1.5c0.5,0.6,0.8,1.4,1,2.3c0.2,0.8,0.2,1.6,0,2.3c-0.1,0.7-0.4,1.4-0.9,2
			c-0.4,0.6-1,1.1-1.7,1.6s-1.5,0.8-2.4,1.1l0.6,2.8l-2.4,0.5l-0.6-2.8c-0.9,0.1-1.7,0.1-2.5,0c-0.8-0.1-1.6-0.4-2.3-0.8
			c-0.7-0.4-1.3-1-1.9-1.7c-0.5-0.7-0.9-1.7-1.2-2.8l4.4-0.9c0.1,0.7,0.4,1.2,0.6,1.6c0.3,0.4,0.6,0.7,1,0.9
			c0.4,0.2,0.8,0.3,1.2,0.3c0.4,0,0.8,0,1.3-0.1c0.5-0.1,0.9-0.2,1.2-0.4c0.3-0.2,0.6-0.4,0.8-0.7c0.2-0.3,0.3-0.6,0.4-0.9
			C309,890.1,309,889.8,308.9,889.4z"/>
	</g>
</g>
<g>
	<g>
		<path class="st59" d="M1672.8,559c0,0,4.7,5.2,6.6,2.9c1.9-2.3,4-5.5,4-5.5L1672.8,559z"/>
		<path class="st59" d="M1663.4,509.3l6.1,28.2c-1.9-2.3-5.1-6-6.2-4.9c-1.5,1.6,3.5,9.3,4.4,12.6c0.8,3,1.8,7.8,3.2,10.6l2.3,4.6
			l10.1-4.2c0,0-0.5-20.1-0.9-24.7c-0.6-7.4-14.8-23.3-16.2-23.5C1663.8,507.9,1663.4,509.3,1663.4,509.3z"/>
	</g>
	<path class="st60" d="M1871.3,1043.8c0,0,2.9,6.9,5.3,9.6c2.4,2.7,14.2,8,11.7,15.7c-0.3,0.9-15.2,1.2-21.3,0.9
		c-6.1-0.3-6.9,0.1-9.5-4.9c-2.6-5-5.2-4.1-5.6-8.1c-0.5-4,2-13,2-13L1871.3,1043.8z"/>
	<g>
		<path class="st60" d="M1727.6,1045.4c0,0-8.5,8.9-17.1,10.8c-8.6,1.9-14.7,4.3-14.7,9.4c-0.1,5.1,25.3,4.5,34.7,3.3
			c16.5-2,16.2-5.4,17.9-9.2c1.6-3.9-2-14.1-1.9-15.4C1746.6,1042.7,1727.6,1045.4,1727.6,1045.4z"/>
	</g>
	<g>
		<path class="st61" d="M1750.2,787.7c0,0-8.9,64.8-12.6,86.8c-4.3,25.6-5.7,46.8-6.9,60.1c-1.5,16.7-4.4,104.4-5.4,109.3
			c-1,4.9,23.4,2.4,23.4,2.4s17.7-113.8,22.2-131.5c4.1-16.5,15.6-84.7,19.3-80.2s27.5,84.3,30.3,97.4c2.8,13,29.8,115.2,29.8,115.2
			s20.2,4.3,25.3,0.3c0,0-17.6-93.8-19.4-118.3c-0.7-9.3-6.2-111.1-22-152.4C1826,754.8,1750.2,787.7,1750.2,787.7z"/>
	</g>
	<path class="st62" d="M1776.4,632.2c0,0-23.6,4.9-26.4,7.4c-3,2.6-8.4,28.5-8.7,35.7c-0.3,7.2,2.8,37.3,5.9,48.5
		c3,11.2,2.3,69.7,1,78.9c0,0,47.4,9.3,94.1,3.2c0,0-8.1-50.8-6.2-66.2c2.4-19.7,8.2-65,8.2-65s-6.2-30.5-10.4-34
		c-4.2-3.5-33.1-9.3-33.1-9.3L1776.4,632.2z"/>
	<path class="st34" d="M1786.2,559.1c0,0-28.4-10.5-26.6,27.2c1.8,37.8,8.4,41.6,27.1,36.3c18.7-5.3,20.3-29.1,22.7-40.6
		C1811.8,570.7,1795.5,560.8,1786.2,559.1z"/>
	<path class="st34" d="M1771.7,638.2c0,0,14.8,12,29-6.8c0,0-0.6-15.2,3.7-29.4c4.3-14.2-29.8,18.9-29.8,18.9
		c0.4,0.3,0.4,1.7,0.2,3.7c-0.2,1.7-0.5,3.8-1.1,5.9C1772.6,635.2,1772.9,634.3,1771.7,638.2z"/>
	<path class="st63" d="M1805.4,600.9c0,0,0.1-10.1-4.1-11c-4.2-0.9-6.4,4.9-6.4,4.9l-3.4-0.2c0,0,3-10.2-1-12.6
		c-4-2.3-27.9-0.3-30.9-3.7c-3-3.4,1.4-23.9,7.9-25.9c6.5-2,24.4-6.1,35.7,4c0,0,10.1,0.1,10.1,12.2
		C1813.3,576.7,1808.8,595.4,1805.4,600.9z"/>
	<path class="st64" d="M1773.8,630.4c22-3.7,25.3-16.2,25.4-16.4c-8.6,11-24.3,10.6-24.3,10.6
		C1774.7,626.3,1774.4,628.3,1773.8,630.4z"/>
	<path class="st34" d="M1796.6,585.6c1.3-3.3,8.3-2.9,7.6,2.4c-0.7,5.3-6.6,13.4-8.9,11.9C1792.9,598.3,1794.8,590.2,1796.6,585.6z"
		/>
	<path class="st34" d="M1808.4,633c0,0-13.3,26.9-32.9,24.7c-19.6-2.2-8.2-21-6.4-24C1769.1,633.8,1780.9,626.2,1808.4,633z"/>
	<g>
		<path class="st62" d="M1684.6,611.3c-5.5-10.8-17.7-52.4-17.7-52.4l17.2-3.6c0,0,9.2,20.9,13.5,35.4c2.1,7.1,5,14,5.6,15.1
			c0.6,1.1,30,23.3,33.2,25c3.2,1.6,15.5,5.9,21.4,11.9c5.9,6,3,14.1,3,14.1c-12.5,16-35.5-4.8-35.5-4.8S1692.4,626.4,1684.6,611.3z
			"/>
	</g>
	<path class="st62" d="M1713.4,642.1c0,0,27.2,29.7,28.1,40.7c0.7,7.9,5.6-23.6,5.6-23.6L1713.4,642.1z"/>
	<path class="st65" d="M1860.8,826c0,0,1-2.4,0.9-3.6c0,0-0.3-2.2-0.4-3.8c0-0.5-0.1-1,0-1.2c0.1-1.2,0.6-3.8-0.1-6.8
		c-0.7-2.9-4.1-13.1-4.1-13.1l-9.1,1.4l-7.9-1.1c0,0-5.9,17.3-5.6,20.1c0,0.3,0.1,0.5,0.1,0.8c0.5,2.4,1.8,3.9,2.2,5.1
		c0.1,0.4,1.9,4.7,3.2,5.1c1.8,0.6,3.3,0.2,4.4-0.6c0,0,3.6,1,6-0.1c0,0,3.3,1,5.8-1.1C1856.1,827,1859.6,827.7,1860.8,826z"/>
	<path class="st62" d="M1820.8,640c-3.1,1.2-6.4,8.7-3.9,23.4c2.6,15.8,7.8,22.5,9.9,26.2c2.1,3.7,15,28.3,15,31.9
		c-0.1,9.5,0.1,34.4-0.2,36.4c-0.5,3.3-2.6,40.9-2.6,40.9l20,4.8c0,0,3.9-42.4,5.7-55.3c0.7-5.1,2.3-19.3,0.5-33.3
		c-1.7-13.6-11.6-43.6-12.9-46C1850.9,666.6,1841.3,632.1,1820.8,640z"/>
</g>
</svg>
