<?xml version="1.0" encoding="utf-8"?>
<!-- Generator: Adobe Illustrator 23.0.2, SVG Export Plug-In . SVG Version: 6.00 Build 0)  -->
<svg version="1.1" id="Слой_1" xmlns="http://www.w3.org/2000/svg" xmlns:xlink="http://www.w3.org/1999/xlink" x="0px" y="0px"
	 viewBox="0 0 1024 1024" style="enable-background:new 0 0 1024 1024;" xml:space="preserve">
<style type="text/css">
	.st0{fill:#E6E6E6;}
	.st1{fill:#BEBCBA;}
	.st2{fill:#D9E9FE;}
	.st3{fill:#3F3D56;}
	.st4{fill:#FFBF29;}
	.st5{fill:#FFFFFF;stroke:#7F89D3;stroke-width:2.5382;stroke-linejoin:round;stroke-miterlimit:10;}
	.st6{fill:none;stroke:#7F89D3;stroke-width:2.5382;stroke-linejoin:round;stroke-miterlimit:10;}
	.st7{fill:#7DB6FD;}
	.st8{fill:#A9C6FC;}
	.st9{fill:#D4D4D4;}
	.st10{fill:#C0C0C0;}
	.st11{fill:#FFFFFF;}
	.st12{fill:#DC9690;}
	.st13{clip-path:url(#SVGID_2_);fill:#B4DDF0;}
	.st14{clip-path:url(#SVGID_2_);fill:#ACD29A;}
	.st15{clip-path:url(#SVGID_2_);fill:#A9C6FC;}
	.st16{clip-path:url(#SVGID_2_);fill:#DC9690;}
	.st17{clip-path:url(#SVGID_2_);fill:#E9F2FD;}
	.st18{fill:#56BAA9;}
	.st19{fill:#F78989;}
	.st20{fill:#FFB0B0;}
	.st21{fill:#ED7070;}
	.st22{fill:#5C5C7F;}
	.st23{fill:#404059;}
	.st24{fill:#ACD29A;}
	.st25{fill:#2B6B87;}
	.st26{fill:#95C0F4;}
	.st27{fill:#DFEDFB;}
	.st28{fill:#B0D4FF;}
	.st29{fill:#FFA412;}
	.st30{fill:#EEF6FF;}
	.st31{fill:#78ACEA;}
	.st32{fill:#BAE8E3;}
	.st33{fill:#A1D6CE;}
	.st34{fill:#F99746;}
	.st35{fill:#493C34;}
	.st36{fill:#343D57;}
	.st37{fill:#575A89;}
	.st38{fill:#E9B899;}
	.st39{fill:#E2915A;}
	.st40{fill:#392F29;}
	.st41{fill:#EDB94E;}
	.st42{fill:#2F2661;}
	.st43{opacity:0.2;}
	.st44{opacity:0.2;fill:#FFFFFF;}
	.st45{fill:none;stroke:#EDB94E;stroke-width:1.1533;stroke-linecap:round;stroke-miterlimit:10;}
	.st46{fill:none;stroke:#EDB94E;stroke-width:1.1334;stroke-linecap:round;stroke-miterlimit:10;}
	.st47{fill:none;stroke:#EDB94E;stroke-width:1.2091;stroke-linecap:round;stroke-miterlimit:10;}
	.st48{fill:none;stroke:#EDB94E;stroke-width:1.1838;stroke-linecap:round;stroke-miterlimit:10;}
	.st49{fill:none;stroke:#EDB94E;stroke-width:1.1859;stroke-linecap:round;stroke-miterlimit:10;}
	.st50{fill:none;stroke:#EDB94E;stroke-width:1.1741;stroke-linecap:round;stroke-miterlimit:10;}
	.st51{fill:#FC9490;}
	.st52{fill:#C45446;}
	.st53{fill:#B7D3F3;}
	.st54{fill:#D2E3FC;}
	.st55{fill:#C5DCF8;}
	.st56{fill:#F2564B;}
	.st57{fill:#FB7369;}
	.st58{fill:#2C3A64;}
	.st59{fill:#FF8585;}
	.st60{fill:#CCCCCE;}
	.st61{fill:#909091;}
	.st62{fill:#F5F5F5;}
	.st63{fill:#EBEBEB;}
	.st64{fill:#1C468A;}
</style>
<g>
	<path class="st0" d="M127.1,426.2c11.3,8.1,24.3,20.7,35.2,34l-19.6-61.9c-12.2,13.8-64.2-5.7-89.5-23.9
		c-25.7-18.6-34.6-50.8-26.7-61.1c5.3-7,40.7-12.5,66.4,6.1c11.9,8.6,25.9,22.7,36.4,36.9l-19.9-62.8c-0.3,0-0.5-0.1-0.8-0.2
		c-9.2,8.3-43.6-4.7-60.5-16.9c-17.5-12.7-23.6-34.7-18.2-41.7c3.6-4.8,27.8-8.5,45.3,4.1c8.1,5.9,17.7,15.5,24.9,25.2l-13.3-41.8
		c-0.3,0.2-0.6,0.4-1,0.5c-8.9,2.2-22.6-22-26.3-37c-3.8-15,3.1-29.9,9.3-31.2c4.2-0.9,19.1,8.2,22.9,23.2c3.4,13.8,3.1,38.3-3.8,44
		c4.3,11.7,10,27.1,16.5,45c3-12.7,8.9-27,15-36.4c11.7-18.2,33.4-25.3,40.7-20.3c4.9,3.4,9.9,27.3-1.8,45.5
		c-9.6,14.9-30.9,34.9-44.1,37.8c9.1,24.7,19.2,52.4,29.5,80.6c0.7-21.2,12.6-53.5,24.7-72.1c17.2-26.6,49-37.1,59.7-29.8
		c7.2,5,14.6,40-2.7,66.7c-16.9,26.1-58.1,63-74.6,54.8c11.7,32.1,23.5,64.2,34,93c1.3-24,14.6-59.5,28-80.1
		c19.5-30.2,55.6-42.1,67.7-33.8c8.2,5.6,16.5,45.4-3,75.6c-18.9,29.2-64.7,70.3-83.8,62.6c17.2,47.3,29.3,80.8,29.1,81.3l-17.9,2.4
		l-24.1-76.1c-17.8,10.7-71.7-10-98.7-29.5c-29.2-21.1-39.2-57.7-30.3-69.4C57.7,411.4,97.9,405.1,127.1,426.2z"/>
	<path class="st0" d="M835.1,305.8c6,12.6,11.3,29.8,14.4,46.8l12.7-63.7c-17.3,6.2-53.5-36-66.8-64.1c-13.6-28.7-5.7-61.2,6.2-66.4
		c8-3.5,41.7,8.7,55.2,37.4c6.3,13.2,11.7,32.4,14.1,49.9l12.9-64.6c-0.2-0.2-0.4-0.3-0.6-0.5c-12.1,2.8-35.9-25.2-44.8-44
		c-9.3-19.6-3.9-41.7,4.2-45.3c5.5-2.4,28.4,5.9,37.7,25.5c4.3,9.1,8,22.1,9.6,34.1l8.6-43.1c-0.4,0-0.7,0-1.1-0.1
		c-8.8-2.3-9.2-30.2-5.2-45.1c4-15,17.1-24.6,23.2-22.9C919.3,40.8,928,56,924,71c-3.6,13.7-15.8,35.1-24.6,36.7
		c-1.9,12.3-4.4,28.5-7.3,47.4c8.7-9.7,20.9-19.3,30.7-24.6c19.1-10.2,41.5-6,45.5,1.9c2.7,5.3-4.5,28.7-23.5,38.9
		c-15.6,8.4-43.9,15.7-56.9,11.8c-4,26-8.5,55.1-13,84.8c10.8-18.2,36.9-40.7,56.5-51.2c27.9-15,60.8-8.9,66.6,2.7
		c3.9,7.8-6.6,42.1-34.5,57.1c-27.4,14.7-81.3,27.1-91.8,12c-5.2,33.8-10.4,67.5-15.1,97.8c12.7-20.4,41.5-45,63.2-56.7
		c31.7-17,69-10.1,75.6,3.1c4.5,8.9-7.5,47.7-39.2,64.8c-30.6,16.5-90.6,30.4-103.6,14.3c-7.8,49.7-13.4,84.9-13.8,85.2l-16.8-6.6
		l15.6-78.3c-20.7,0.7-57.9-43.4-72.2-73.5c-15.4-32.5-6.5-69.4,7-75.4C781.5,259.4,819.7,273.3,835.1,305.8z"/>
	<g>
		<g>
			<path class="st1" d="M745.7,308l-0.6-2.4c4.3-1,6.5-1.9,6.6-1.9l0.9,2.3C752.5,306,750.1,306.9,745.7,308z"/>
		</g>
		<g>
			<path class="st1" d="M41.4,597.4c-1.5-4.2-2.9-8.7-4.3-13.3l2.3-0.7c1.3,4.6,2.7,9,4.2,13.2L41.4,597.4z M33.5,570.6
				c-1-4.4-2-9-2.9-13.6l2.4-0.5c0.9,4.6,1.8,9.1,2.9,13.5L33.5,570.6z M28.3,543.2c-0.7-4.5-1.3-9.2-1.8-13.8l2.4-0.3
				c0.5,4.6,1.1,9.2,1.8,13.7L28.3,543.2z M25.3,515.5c-0.3-4.6-0.6-9.3-0.7-13.9l2.4-0.1c0.2,4.6,0.4,9.3,0.7,13.8L25.3,515.5z
				 M26.8,487.7l-2.4,0c0-4.6,0.1-9.3,0.3-13.9l2.4,0.1C26.9,478.4,26.8,483.1,26.8,487.7z M27.8,460l-2.4-0.2
				c0.3-4.6,0.8-9.3,1.3-13.9l2.4,0.3C28.5,450.7,28.1,455.4,27.8,460z M30.8,432.5l-2.4-0.4c0.7-4.6,1.5-9.2,2.3-13.8l2.4,0.5
				C32.3,423.3,31.5,427.9,30.8,432.5z M36.1,405.3l-2.4-0.6c1.1-4.5,2.2-9.1,3.5-13.5l2.4,0.7C38.3,396.2,37.1,400.8,36.1,405.3z
				 M43.5,378.6l-2.3-0.8c1.5-4.4,3-8.9,4.7-13.1l2.3,0.9C46.6,369.8,45,374.2,43.5,378.6z M53.5,352.8l-2.2-1
				c1.9-4.3,3.9-8.5,6-12.6l2.2,1.1C57.3,344.3,55.3,348.6,53.5,352.8z M65.9,328.1l-2.1-1.2c2.3-4,4.8-8.1,7.3-11.9l2,1.3
				C70.6,320.1,68.2,324.1,65.9,328.1z M717.8,311.1l0-2.4c4.7-0.1,9.4-0.3,13.8-0.8l0.3,2.4C727.3,310.7,722.6,311,717.8,311.1z
				 M703.9,310.7c-4.5-0.3-9.2-0.8-13.9-1.4l0.3-2.4c4.6,0.6,9.3,1.1,13.7,1.4L703.9,310.7z M676.2,307c-4.5-0.9-9.1-1.9-13.6-3.1
				l0.6-2.4c4.5,1.2,9,2.2,13.5,3.1L676.2,307z M81,304.9l-2-1.4c2.7-3.8,5.6-7.5,8.6-11l1.9,1.6C86.5,297.5,83.7,301.2,81,304.9z
				 M649.1,300.1c-4.4-1.4-8.8-2.9-13.2-4.5l0.8-2.3c4.4,1.6,8.8,3.1,13.1,4.4L649.1,300.1z M622.9,290.7c-4.2-1.7-8.5-3.6-12.8-5.6
				l1-2.2c4.2,1.9,8.5,3.8,12.7,5.5L622.9,290.7z M98.6,283.6l-1.8-1.7c3.2-3.4,6.5-6.7,9.8-9.9l1.7,1.8
				C104.9,277,101.7,280.3,98.6,283.6z M597.6,279.1c-4.1-2.1-8.2-4.2-12.3-6.5l1.2-2.1c4.1,2.2,8.2,4.4,12.3,6.4L597.6,279.1z
				 M573.2,265.7c-1.6-0.9-3.2-1.9-4.8-2.9c-2.3-1.4-4.7-2.8-7.1-4.2l1.2-2.1c2.5,1.4,4.9,2.8,7.2,4.2c1.6,1,3.2,1.9,4.8,2.9
				L573.2,265.7z M118.6,264.6l-1.6-1.9c2.4-2,4.9-4.1,7.5-6c1.1-0.9,2.3-1.8,3.5-2.6l1.5,1.9c-1.1,0.9-2.3,1.7-3.4,2.6
				C123.4,260.6,121,262.6,118.6,264.6z M549.1,252c-4-2.1-8.1-4.2-12.4-6.3l1.1-2.2c4.2,2.1,8.4,4.2,12.4,6.3L549.1,252z
				 M140.6,247.9l-1.4-2c3.8-2.6,7.7-5.2,11.7-7.7l1.3,2.1C148.3,242.7,144.4,245.3,140.6,247.9z M524.2,239.7
				c-4.2-1.9-8.4-3.8-12.7-5.6l1-2.2c4.3,1.8,8.6,3.7,12.7,5.6L524.2,239.7z M164.1,233.3l-1.2-2.1c4-2.3,8.2-4.5,12.3-6.6l1.1,2.2
				C172.2,228.8,168.1,231,164.1,233.3z M498.7,228.8c-4.3-1.7-8.6-3.4-12.9-5l0.8-2.3c4.3,1.6,8.7,3.3,13,5L498.7,228.8z
				 M188.7,220.8l-1-2.2c4.2-1.9,8.5-3.7,12.8-5.4l0.9,2.3C197.2,217.1,192.9,218.9,188.7,220.8z M472.7,219.2
				c-4.4-1.5-8.8-2.9-13.2-4.3l0.7-2.3c4.4,1.4,8.8,2.8,13.2,4.3L472.7,219.2z M446.2,210.9c-4.4-1.3-9-2.5-13.4-3.6l0.6-2.4
				c4.5,1.1,9,2.4,13.4,3.6L446.2,210.9z M214.4,210.6l-0.8-2.3c4.4-1.5,8.8-2.9,13.3-4.2l0.7,2.3
				C223.2,207.7,218.8,209.1,214.4,210.6z M419.3,204.1c-4.5-1-9.1-2-13.6-2.9l0.5-2.4c4.5,0.9,9.1,1.9,13.6,2.9L419.3,204.1z
				 M241,202.7l-0.6-2.4c4.5-1.1,9-2.1,13.6-3.1l0.5,2.4C249.9,200.6,245.4,201.6,241,202.7z M392.1,198.7
				c-4.6-0.8-9.2-1.5-13.7-2.1l0.3-2.4c4.6,0.6,9.2,1.3,13.8,2.1L392.1,198.7z M268.1,197.2l-0.4-2.4c4.5-0.7,9.2-1.4,13.8-1.9
				l0.3,2.4C277.2,195.9,272.6,196.5,268.1,197.2z M364.7,195c-4.6-0.5-9.2-0.9-13.8-1.2l0.2-2.4c4.6,0.3,9.3,0.7,13.9,1.2
				L364.7,195z M295.6,194l-0.2-2.4c4.6-0.4,9.3-0.6,13.9-0.8l0.1,2.4C304.8,193.4,300.1,193.6,295.6,194z M337,193.1
				c-4.4-0.2-8.9-0.2-13.3-0.2h-0.6l0-2.4l0.6,0c4.4,0,8.9,0.1,13.4,0.2L337,193.1z"/>
		</g>
		<g>
			<path class="st1" d="M49.6,616.7c-1-2-2.1-4.2-3.1-6.4l2.2-1c1,2.2,2,4.3,3,6.3L49.6,616.7z"/>
		</g>
	</g>
	<path class="st2" d="M134.8,1001.2c291,4,411.7-3.3,687.2,2.2c14.6,0.3,64.2,5.1,133-71.4c45.2-50.2,47.2-57.2,53-128
		c6-73,13-122,7-212c-4.2-62.6-11-49-36.7-79.1C953.1,483.3,936.6,487,932,445c-11-100,23-113.6,21-162c-3.6-89-150.3-127.6-229-128
		c-78.7-0.4-139.8,44.6-155,132c-8,46.2-17.9,91.8-25.6,138.1C535.6,471.4,525.5,273.6,413,278c-102,4-110,132.3-128,99
		c-18-33.3,38.2,6.8,13.3-20.1c-36.6-39.3-95.7-46-140.9-20.6c-45.2,25.4-99.6,61.4-106.1,118c-6.6,56.6-8.8,105.8,20,152.6
		c9.5,15.4,20.9,33.8,14.6,51.2C81.1,671,80,674.3,68,677c-35,8-42,9-52,16c-8.2,5.7-11.2,8.8-10,68c1,49,3.6,54.1,12,100
		C39,976,18,999.6,134.8,1001.2z"/>
	<g>
		<g>
			<path class="st3" d="M649.6,178.3c-9,2.4-14.4,11.6-12,20.7c2.4,9,11.6,14.4,20.7,12c9-2.4,14.4-11.6,12-20.7
				C667.8,181.3,658.6,175.9,649.6,178.3z M656.1,203.3c-4.7,1.3-9.6-1.6-10.9-6.3c-1.3-4.8,1.6-9.6,6.3-10.9
				c4.7-1.3,9.6,1.6,10.9,6.3C663.7,197.2,660.9,202,656.1,203.3z"/>
		</g>
		<g>
			<path class="st3" d="M654.4,181.1l-7.4,1.9c0,0-2.8-5.5-1.9-7.1c1-1.6,5.8-3.1,7.4-1.9C654,175.1,654.4,181.1,654.4,181.1z"/>
		</g>
		<g>
			<path class="st3" d="M660.3,206.6l-7.4,1.9c0,0,0.3,6.2,1.9,7.1c1.6,1,6.6-0.2,7.4-1.9C663,212,660.3,206.6,660.3,206.6z"/>
		</g>
		<g>
			<path class="st3" d="M644.1,184.8l-3,7c0,0-6.1-1.2-6.8-2.9c-0.7-1.8,1.1-6.5,3-7C639,181.5,644.1,184.8,644.1,184.8z"/>
		</g>
		<g>
			<path class="st3" d="M640.9,195.2l0.7,7.6c0,0-5.9,1.9-7.4,0.7c-1.5-1.2-2.1-6.3-0.7-7.6C634.8,194.6,640.9,195.2,640.9,195.2z"
				/>
		</g>
		<g>
			<path class="st3" d="M667.5,195.5l-1.6-7.4c0,0,5.7-2.6,7.2-1.6c1.6,1,2.8,6,1.6,7.4C673.6,195.4,667.5,195.5,667.5,195.5z"/>
		</g>
		<g>
			<path class="st3" d="M657.3,181.1l6.1,4.6c0,0,4.7-4,4.5-5.9c-0.2-1.9-4.2-5.1-6-4.6C660,175.7,657.3,181.1,657.3,181.1z"/>
		</g>
		<g>
			<path class="st3" d="M649.3,209l-6-4.6c0,0-4.7,4-4.5,5.9c0.2,1.9,4.2,5.1,6,4.6C646.6,214.4,649.3,209,649.3,209z"/>
		</g>
		<g>
			<path class="st3" d="M664,205.3l3-7c0,0,6.1,1.2,6.8,2.9c0.7,1.8-1.1,6.5-3,7C669.1,208.7,664,205.3,664,205.3z"/>
		</g>
	</g>
	<g>
		<path class="st4" d="M979.7,542.5c11.8,6,17.8,22.9,17.4,35.8c-0.5,15.4-11.9,27-13.7,42c-1,8.5,2,11.8,5.8,19
			c4.8,9.1,9.1,22.6,7.7,33c-2.1,15.6-13.3,31.4-25.9,40.8c-15.7,11.7-38.1,12.1-53.6,24.8c-10.7,8.8-12.9,26.2-24.4,34.1
			c-11.7,8.1-39,9.7-44.5-6.7c-6.1-18.6,10.2-35.3,7.2-53.4c-1.7-10.3-8.3-20.2-10.6-30.8c-3-13.9-4-31-0.4-44.9
			c6.8-26.3,23.4-52.7,51.1-58.6c6.4-1.4,13.7-1,19.8-4c7.7-3.8,8.5-9.9,12.7-16.8c5.6-9.4,19.8-16.8,30.6-19.7
			c8.6-2.3,12.9,0.8,20.6,5.4c-0.7-0.4-1.3-0.8-1.9-1.1"/>
		<g>
			<line class="st3" x1="974.5" y1="551.2" x2="858" y2="775.4"/>
			<line class="st3" x1="977.2" y1="672.8" x2="902.9" y2="689.1"/>
			<line class="st3" x1="889.3" y1="610.2" x2="902.9" y2="689.1"/>
			<line class="st3" x1="983.6" y1="586.6" x2="948.3" y2="601.6"/>
			<line class="st3" x1="953" y1="553.6" x2="948.3" y2="601.6"/>
			<line class="st3" x1="904.5" y1="732.1" x2="870.4" y2="751.6"/>
			<line class="st3" x1="873.5" y1="700.1" x2="872.2" y2="748.1"/>
		</g>
	</g>
	<g>
		<path class="st4" d="M49.5,456.5c10.2-8.6,28-7.5,39.7-2.2c14,6.4,20.3,21.4,33.4,28.9c7.4,4.2,11.7,2.7,19.7,2
			c10.2-0.9,24.3,0.4,33.4,5.7c13.6,8,23.8,24.4,27.5,39.7c4.7,19-3.6,39.8,2.1,59c4,13.2,19.1,22.1,22,35.7
			c3,13.9-6.1,39.7-23.4,38.4c-19.5-1.5-28.6-23-46.4-27.3c-10.2-2.4-21.9-0.1-32.5-2.1c-13.9-2.6-30.1-8.4-41.6-17
			c-21.7-16.4-39.6-42-34.2-69.9c1.2-6.5,4.4-13,4-19.8c-0.5-8.6-5.8-11.7-10.6-18.2c-6.5-8.8-7.8-24.8-6.3-35.8
			c1.2-8.8,5.7-11.6,12.9-16.9c-0.6,0.4-1.2,0.9-1.8,1.3"/>
		<g>
			<line class="st3" x1="55.5" y1="464.7" x2="217.2" y2="658.9"/>
			<line class="st3" x1="168.7" y1="509.2" x2="154.9" y2="584.1"/>
			<line class="st3" x1="77" y1="566.1" x2="154.9" y2="584.1"/>
			<line class="st3" x1="91.7" y1="469.9" x2="91.8" y2="508.3"/>
			<line class="st3" x1="49.4" y1="485.4" x2="91.8" y2="508.3"/>
			<line class="st3" x1="195.2" y1="599.2" x2="200" y2="638.2"/>
			<line class="st3" x1="153.7" y1="615.4" x2="197.4" y2="635.1"/>
		</g>
	</g>
	<g>
		<g>
			<path class="st3" d="M749.1,243.1c-35.6,9.4-56.8,45.8-47.4,81.4c9.4,35.6,45.8,56.8,81.4,47.4c35.6-9.4,56.8-45.9,47.4-81.4
				C821.1,254.9,784.7,233.7,749.1,243.1z M775.1,341.4c-18.7,4.9-37.9-6.2-42.8-24.9c-4.9-18.7,6.2-37.9,24.9-42.8
				c18.7-4.9,37.9,6.2,42.8,24.9C804.9,317.3,793.8,336.4,775.1,341.4z"/>
		</g>
		<g>
			<path class="st3" d="M768,254.1l-29,7.7c0,0-11.1-21.8-7.4-28.1c3.8-6.5,23-12.1,29-7.7C766.5,230.3,768,254.1,768,254.1z"/>
		</g>
		<g>
			<path class="st3" d="M791.6,354.4l-29,7.7c0,0,1.1,24.5,7.4,28.1c6.5,3.8,26-0.8,29-7.7C802,375.9,791.6,354.4,791.6,354.4z"/>
		</g>
		<g>
			<path class="st3" d="M727.5,268.8l-11.7,27.7c0,0-24.1-4.6-26.8-11.3c-2.8-7,4.5-25.6,11.7-27.6
				C707.7,255.4,727.5,268.8,727.5,268.8z"/>
		</g>
		<g>
			<path class="st3" d="M714.9,309.6l2.8,29.9c0,0-23.4,7.4-29,2.7c-5.8-4.8-8.2-24.6-2.8-29.9C691.1,307.2,714.9,309.6,714.9,309.6
				z"/>
		</g>
		<g>
			<path class="st3" d="M819.8,310.8l-6.5-29.3c0,0,22.3-10.2,28.4-6.3c6.3,4,11.2,23.5,6.5,29.3
				C843.6,310.2,819.8,310.8,819.8,310.8z"/>
		</g>
		<g>
			<path class="st3" d="M779.7,254l23.8,18.3c0,0,18.6-15.9,17.7-23.1c-1-7.4-16.5-20-23.8-18.3C790.4,232.6,779.7,254,779.7,254z"
				/>
		</g>
		<g>
			<path class="st3" d="M748,363.8l-23.8-18.3c0,0-18.7,15.9-17.7,23.1c1,7.4,16.5,20,23.8,18.3C737.3,385.1,748,363.8,748,363.8z"
				/>
		</g>
		<g>
			<path class="st3" d="M806.1,349.4l11.7-27.7c0,0,24.1,4.6,26.8,11.3c2.8,7-4.5,25.6-11.7,27.7
				C825.9,362.7,806.1,349.4,806.1,349.4z"/>
		</g>
	</g>
	<g>
		<g>
			<path class="st3" d="M656.9,143.5c-5.9,1.6-9.4,7.6-7.8,13.4c1.5,5.9,7.6,9.4,13.4,7.8c5.9-1.5,9.4-7.6,7.8-13.4
				C668.8,145.5,662.7,142,656.9,143.5z M661.2,159.7c-3.1,0.8-6.3-1-7.1-4.1c-0.8-3.1,1-6.3,4.1-7.1c3.1-0.8,6.2,1,7.1,4.1
				C666.1,155.8,664.2,158.9,661.2,159.7z"/>
		</g>
		<g>
			<path class="st3" d="M660,145.3l-4.8,1.3c0,0-1.8-3.6-1.2-4.6c0.6-1.1,3.8-2,4.8-1.3C659.7,141.4,660,145.3,660,145.3z"/>
		</g>
		<g>
			<path class="st3" d="M663.9,161.9l-4.8,1.3c0,0,0.2,4,1.2,4.6c1.1,0.6,4.3-0.1,4.8-1.3C665.6,165.4,663.9,161.9,663.9,161.9z"/>
		</g>
		<g>
			<path class="st3" d="M653.3,147.8l-1.9,4.6c0,0-4-0.8-4.4-1.9c-0.5-1.1,0.7-4.2,1.9-4.6C650,145.6,653.3,147.8,653.3,147.8z"/>
		</g>
		<g>
			<path class="st3" d="M651.2,154.5l0.5,4.9c0,0-3.9,1.2-4.8,0.5c-1-0.8-1.4-4.1-0.5-4.9C647.3,154.1,651.2,154.5,651.2,154.5z"/>
		</g>
		<g>
			<path class="st3" d="M668.5,154.7l-1.1-4.8c0,0,3.7-1.7,4.7-1c1,0.7,1.8,3.9,1.1,4.8C672.5,154.6,668.5,154.7,668.5,154.7z"/>
		</g>
		<g>
			<path class="st3" d="M661.9,145.3l3.9,3c0,0,3.1-2.6,2.9-3.8c-0.2-1.2-2.7-3.3-3.9-3C663.7,141.8,661.9,145.3,661.9,145.3z"/>
		</g>
		<g>
			<path class="st3" d="M656.7,163.4l-3.9-3c0,0-3.1,2.6-2.9,3.8c0.2,1.2,2.7,3.3,3.9,3C654.9,167,656.7,163.4,656.7,163.4z"/>
		</g>
		<g>
			<path class="st3" d="M666.3,161.1l1.9-4.6c0,0,4,0.8,4.4,1.9c0.5,1.1-0.7,4.2-1.9,4.6C669.6,163.3,666.3,161.1,666.3,161.1z"/>
		</g>
	</g>
	<g>
		<g>
			<path class="st3" d="M630.5,156.8c-3.6,1-5.8,4.7-4.8,8.3c1,3.6,4.7,5.8,8.3,4.8c3.6-1,5.8-4.7,4.8-8.3
				C637.8,158.1,634.1,155.9,630.5,156.8z M633.1,166.9c-1.9,0.5-3.9-0.6-4.4-2.5c-0.5-1.9,0.6-3.9,2.5-4.4c1.9-0.5,3.9,0.6,4.4,2.5
				C636.2,164.4,635,166.4,633.1,166.9z"/>
		</g>
		<g>
			<path class="st3" d="M632.4,158l-3,0.8c0,0-1.1-2.2-0.8-2.9c0.4-0.7,2.3-1.2,3-0.8C632.2,155.5,632.4,158,632.4,158z"/>
		</g>
		<g>
			<path class="st3" d="M634.8,168.2l-3,0.8c0,0,0.1,2.5,0.8,2.9c0.7,0.4,2.7-0.1,3-0.8C635.9,170.4,634.8,168.2,634.8,168.2z"/>
		</g>
		<g>
			<path class="st3" d="M628.3,159.5l-1.2,2.8c0,0-2.5-0.5-2.7-1.2c-0.3-0.7,0.5-2.6,1.2-2.8C626.2,158.1,628.3,159.5,628.3,159.5z"
				/>
		</g>
		<g>
			<path class="st3" d="M627,163.6l0.3,3.1c0,0-2.4,0.8-3,0.3c-0.6-0.5-0.8-2.5-0.3-3.1C624.5,163.4,627,163.6,627,163.6z"/>
		</g>
		<g>
			<path class="st3" d="M637.7,163.8l-0.7-3c0,0,2.3-1,2.9-0.6c0.6,0.4,1.1,2.4,0.7,3C640.1,163.7,637.7,163.8,637.7,163.8z"/>
		</g>
		<g>
			<path class="st3" d="M633.6,158l2.4,1.9c0,0,1.9-1.6,1.8-2.4c-0.1-0.8-1.7-2-2.4-1.9C634.7,155.8,633.6,158,633.6,158z"/>
		</g>
		<g>
			<path class="st3" d="M630.3,169.2l-2.4-1.9c0,0-1.9,1.6-1.8,2.4c0.1,0.8,1.7,2,2.4,1.9C629.3,171.3,630.3,169.2,630.3,169.2z"/>
		</g>
		<g>
			<path class="st3" d="M636.3,167.7l1.2-2.8c0,0,2.5,0.5,2.7,1.2c0.3,0.7-0.5,2.6-1.2,2.8C638.3,169.1,636.3,167.7,636.3,167.7z"/>
		</g>
	</g>
	<g>
		<g>
			<path class="st3" d="M960.3,728.7c-16.6,4.4-26.5,21.4-22.1,37.9c4.4,16.6,21.4,26.5,37.9,22.1c16.6-4.4,26.5-21.4,22.1-37.9
				C993.9,734.2,976.9,724.3,960.3,728.7z M972.4,774.5c-8.7,2.3-17.7-2.9-20-11.6c-2.3-8.7,2.9-17.7,11.6-20
				c8.7-2.3,17.6,2.9,20,11.6C986.3,763.3,981.1,772.2,972.4,774.5z"/>
		</g>
		<g>
			<path class="st3" d="M969.1,733.8l-13.5,3.6c0,0-5.2-10.2-3.5-13.1c1.8-3,10.7-5.6,13.5-3.6C968.4,722.7,969.1,733.8,969.1,733.8
				z"/>
		</g>
		<g>
			<path class="st3" d="M980.1,780.5l-13.5,3.6c0,0,0.5,11.4,3.5,13.1c3,1.8,12.1-0.4,13.5-3.6C985,790.6,980.1,780.5,980.1,780.5z"
				/>
		</g>
		<g>
			<path class="st3" d="M950.2,740.6l-5.4,12.9c0,0-11.2-2.1-12.5-5.3c-1.3-3.2,2.1-11.9,5.5-12.9
				C941,734.4,950.2,740.6,950.2,740.6z"/>
		</g>
		<g>
			<path class="st3" d="M944.3,759.7l1.3,13.9c0,0-10.9,3.4-13.5,1.3c-2.7-2.2-3.8-11.5-1.3-13.9
				C933.3,758.6,944.3,759.7,944.3,759.7z"/>
		</g>
		<g>
			<path class="st3" d="M993.2,760.2l-3-13.7c0,0,10.4-4.7,13.2-2.9c3,1.9,5.2,10.9,3,13.7C1004.4,759.9,993.2,760.2,993.2,760.2z"
				/>
		</g>
		<g>
			<path class="st3" d="M974.6,733.8l11.1,8.5c0,0,8.7-7.4,8.3-10.8c-0.5-3.5-7.7-9.3-11.1-8.5C979.5,723.8,974.6,733.8,974.6,733.8
				z"/>
		</g>
		<g>
			<path class="st3" d="M959.8,784.9l-11.1-8.5c0,0-8.7,7.4-8.3,10.8c0.5,3.5,7.7,9.3,11.1,8.5C954.8,794.9,959.8,784.9,959.8,784.9
				z"/>
		</g>
		<g>
			<path class="st3" d="M986.9,778.2l5.5-12.9c0,0,11.2,2.1,12.5,5.3c1.3,3.2-2.1,11.9-5.5,12.9
				C996.1,784.4,986.9,778.2,986.9,778.2z"/>
		</g>
	</g>
	<g>
		<g>
			<path class="st3" d="M953,655.6c-12,3.2-19.1,15.4-16,27.4c3.2,12,15.4,19.1,27.4,16c12-3.2,19.1-15.4,16-27.4
				C977.2,659.5,964.9,652.4,953,655.6z M961.7,688.6c-6.3,1.7-12.8-2.1-14.4-8.4c-1.7-6.3,2.1-12.8,8.4-14.4
				c6.3-1.7,12.7,2.1,14.4,8.4C971.7,680.5,968,687,961.7,688.6z"/>
		</g>
		<g>
			<path class="st3" d="M959.3,659.3l-9.8,2.6c0,0-3.7-7.3-2.5-9.5c1.3-2.2,7.7-4.1,9.8-2.6C958.8,651.2,959.3,659.3,959.3,659.3z"
				/>
		</g>
		<g>
			<path class="st3" d="M967.3,693l-9.8,2.6c0,0,0.4,8.2,2.5,9.5c2.2,1.3,8.7-0.3,9.8-2.6C970.8,700.2,967.3,693,967.3,693z"/>
		</g>
		<g>
			<path class="st3" d="M945.7,664.2l-3.9,9.3c0,0-8.1-1.5-9-3.8c-0.9-2.3,1.5-8.6,3.9-9.3C939,659.7,945.7,664.2,945.7,664.2z"/>
		</g>
		<g>
			<path class="st3" d="M941.4,677.9l1,10.1c0,0-7.9,2.5-9.7,0.9c-1.9-1.6-2.8-8.3-1-10.1C933.4,677.1,941.4,677.9,941.4,677.9z"/>
		</g>
		<g>
			<path class="st3" d="M976.7,678.3l-2.2-9.9c0,0,7.5-3.4,9.6-2.1c2.1,1.4,3.8,7.9,2.2,9.9C984.8,678.1,976.7,678.3,976.7,678.3z"
				/>
		</g>
		<g>
			<path class="st3" d="M963.3,659.2l8,6.2c0,0,6.3-5.3,6-7.8c-0.3-2.5-5.6-6.7-8-6.2C966.8,652,963.3,659.2,963.3,659.2z"/>
		</g>
		<g>
			<path class="st3" d="M952.6,696.2l-8-6.2c0,0-6.3,5.3-6,7.8c0.3,2.5,5.6,6.7,8,6.2C949,703.4,952.6,696.2,952.6,696.2z"/>
		</g>
		<g>
			<path class="st3" d="M972.1,691.3l3.9-9.3c0,0,8.1,1.5,9,3.8c1,2.3-1.5,8.6-3.9,9.3C978.8,695.8,972.1,691.3,972.1,691.3z"/>
		</g>
	</g>
	
		<rect x="252" y="199" transform="matrix(-4.096913e-08 1 -1 -4.096913e-08 1103.423 77.4229)" class="st5" width="522" height="782.9"/>
	<rect x="146.9" y="354.8" class="st6" width="732.2" height="471.3"/>
	<g>
		<g>
			<path class="st7" d="M676.1,908.7l-97.3,81.4l-51.2-43.6c-9.6,8.4-24.4,21.5-39.3,34.5c-10.2,8.9-18.4,16.2-25.1,22l-46.5-0.1
				c12.9-11,64.8-56.6,99.8-87.5l10.7-9.4l51.8,44.1l76-63.6L676.1,908.7z"/>
		</g>
		<polygon class="st7" points="642.7,876.6 689,923.1 702.1,870 		"/>
	</g>
	<g>
		<rect x="207.5" y="678.7" class="st8" width="16.8" height="48.7"/>
		<rect x="423.2" y="694.5" class="st8" width="16.8" height="32.9"/>
		<rect x="278.8" y="613.4" class="st8" width="16.8" height="113.9"/>
		<rect x="314.5" y="676.2" class="st8" width="16.8" height="51.2"/>
		<rect x="350.2" y="661.7" class="st8" width="16.8" height="65.7"/>
		<rect x="243.2" y="646.5" class="st8" width="16.8" height="80.8"/>
		<rect x="385.9" y="627.8" class="st8" width="16.8" height="99.6"/>
	</g>
	<g>
		<g>
			<g>
				<polygon class="st9" points="81.6,692 37.1,622.5 59.7,632.7 				"/>
			</g>
		</g>
		<g>
			<g>
				<polygon class="st0" points="81.6,692 78.9,650.1 62.7,640.9 				"/>
			</g>
		</g>
		<g>
			<g>
				<polygon class="st10" points="47.3,638.4 41.8,645.8 81.6,692 				"/>
			</g>
		</g>
	</g>
	<g>
		<path class="st8" d="M386.2,561.8H242.3c-8.8,0-15.9-7.2-15.9-15.9v-40.6c0-8.8,7.2-15.9,15.9-15.9h143.9
			c8.8,0,15.9,7.2,15.9,15.9v40.6C402.2,554.7,395,561.8,386.2,561.8z"/>
		<path class="st8" d="M247.7,550.9v40l46-46C293.7,544.8,248.6,550.9,247.7,550.9z"/>
		<path class="st11" d="M379.6,554.6H249c-7.4,0-13.5-6.1-13.5-13.5v-31.1c0-7.4,6.1-13.5,13.5-13.5h130.6c7.4,0,13.5,6.1,13.5,13.5
			v31.1C393.1,548.6,387,554.6,379.6,554.6z"/>
		<path class="st8" d="M321.3,510.9h-71.2c-1.7,0-3.1-1.4-3.1-3.1c0-1.7,1.4-3.1,3.1-3.1h71.2c1.7,0,3.1,1.4,3.1,3.1
			C324.4,509.5,323,510.9,321.3,510.9z"/>
		<path class="st8" d="M380.7,522.9h-132c-1,0-1.8-0.8-1.8-1.8l0,0c0-1,0.8-1.8,1.8-1.8h132c1,0,1.8,0.8,1.8,1.8v0
			C382.5,522.1,381.7,522.9,380.7,522.9z"/>
		<path class="st8" d="M380.7,529.7h-132c-1,0-1.8-0.8-1.8-1.8l0,0c0-1,0.8-1.8,1.8-1.8h132c1,0,1.8,0.8,1.8,1.8v0
			C382.5,528.9,381.7,529.7,380.7,529.7z"/>
		<g>
			<path class="st8" d="M351.7,552.1h-0.8c-1.9,0-3.4-1.5-3.4-3.4l0,0c0-1.9,1.5-3.4,3.4-3.4h0.8c1.9,0,3.4,1.5,3.4,3.4l0,0
				C355.1,550.6,353.6,552.1,351.7,552.1z"/>
			<path class="st8" d="M365.6,552.1h-0.8c-1.9,0-3.4-1.5-3.4-3.4l0,0c0-1.9,1.5-3.4,3.4-3.4h0.8c1.9,0,3.4,1.5,3.4,3.4l0,0
				C369,550.6,367.5,552.1,365.6,552.1z"/>
			<path class="st8" d="M379.4,552.1h-0.8c-1.9,0-3.4-1.5-3.4-3.4v0c0-1.9,1.5-3.4,3.4-3.4h0.8c1.9,0,3.4,1.5,3.4,3.4l0,0
				C382.9,550.6,381.3,552.1,379.4,552.1z"/>
		</g>
	</g>
	<g>
		<path class="st8" d="M240.1,433.5l37.5,0c0,20.6-16.9,37.5-37.5,37.5s-37.5-16.9-37.5-37.5c0-20.6,16.9-37.5,37.5-37.5V433.5z"/>
		<g>
			<path class="st12" d="M283.9,428.3c0-20.7-16.8-37.5-37.5-37.5v37.5H283.9z"/>
			<path class="st12" d="M209,428.3c0,20.7,16.8,37.5,37.5,37.5C225.9,465.8,209,448.8,209,428.3z"/>
			<path class="st12" d="M246.4,390.8c-20.7,0-37.5,16.8-37.5,37.5C209,407.7,225.9,390.8,246.4,390.8z"/>
			<path class="st12" d="M246.4,465.8c20.7,0,37.5-16.8,37.5-37.5C283.9,448.8,267,465.8,246.4,465.8z"/>
		</g>
	</g>
	<g>
		<defs>
			<path id="SVGID_1_" d="M388.6,389c-21.9,0-39.6,17.7-39.6,39.6c0,21.9,17.7,39.6,39.6,39.6c21.9,0,39.6-17.7,39.6-39.6
				C428.2,406.8,410.5,389,388.6,389z M388.6,449.6c-11.6,0-21-9.4-21-21c0-11.6,9.4-21,21-21c11.6,0,21,9.4,21,21
				C409.6,440.2,400.2,449.6,388.6,449.6z"/>
		</defs>
		<clipPath id="SVGID_2_">
			<use xlink:href="#SVGID_1_"  style="overflow:visible;"/>
		</clipPath>
		<path class="st13" d="M424.4,450.6l-35.8-21.9l-6.5,41.5C398.9,472.8,415.6,464.9,424.4,450.6z"/>
		<path class="st14" d="M424.4,450.5c0.1-0.2,0.2-0.4,0.2-0.4c7.6-12.7,7.9-28.4,0.9-41.3c-12.7,6.6-5.1,2.6-37,19.8
			C424.4,450.6,418.9,447.2,424.4,450.5z"/>
		<path class="st15" d="M349.2,414.2l39.4,14.5l36.9-20C408.2,376.7,361.7,380.6,349.2,414.2z"/>
		<path class="st16" d="M382.1,470.1l6.5-41.5l-39.4-14.5C339.8,439.2,356.5,466.1,382.1,470.1z"/>
		<path class="st17" d="M426.3,450.1c7.1-12.5,7.5-28,1.1-40.8l0,0l-0.7-1.2c0,0,0,0,0-0.1l-0.5-1l0,0c-4.2-7.3-10.1-13-17.3-16.8
			c-7-3.7-15-5.3-23.1-4.7c-16.8,1.2-31,11.4-37.3,26.9l0,0l-0.5,1.3l-0.5,1.3l0,0c-4,11.8-2.6,24.6,3.7,35.4
			c6.4,11,17.1,18.5,29.4,20.9l0,0l1.4,0.2c0,0,1.4,0.2,1.4,0.2l0,0c1.8,0.2,3.6,0.3,5.3,0.3c6.3,0,12.5-1.4,18.2-4.1
			c7.4-3.4,13.6-8.8,18-15.6l0,0l0.3-0.4c0,0,0.4-0.7,0.4-0.7c0.1-0.1,0.1-0.3,0.2-0.3l0,0c0,0,0,0,0,0L426.3,450.1L426.3,450.1z
			 M422.1,412.2c0.8-0.4,1.8-0.9,2.9-1.5c5.9,12,5.5,26.3-1,37.9c0,0-0.3-0.2-0.3-0.2c-1.5-0.9-2.1-1.2-5-3l-27.3-16.7l22.6-12.2
			C417.3,414.7,418.7,414,422.1,412.2z M351,413.3c5.9-14.4,19.2-24,34.9-25.1c15.5-1.1,29.8,6.5,37.7,19.9l-10.9,5.9
			c-2.3,1.2-5.4,2.9-10.7,5.8c-3.4,1.8-7.6,4.1-13.1,7.1l-0.3,0.2l-1.1-0.7l-0.1,0.4l-17.2-6.4L351,413.3z M353.5,449
			c-5.9-10.1-7.1-22-3.5-33l25.9,9.6l11,4.1l-6.1,38.9C369.4,466.3,359.5,459.2,353.5,449z M383.7,468.9l5.9-38l15.5,9.4
			c6.2,3.8,9.8,6,12,7.4l5.3,3.3C413.9,463.9,399,470.8,383.7,468.9z"/>
	</g>
	<g id="XMLID_550_">
		<g id="XMLID_595_">
			<g id="XMLID_636_">
				<path id="XMLID_638_" class="st18" d="M476.2,354L476.2,354c-0.1,0.1-0.1,0.2-0.2,0.3C476,354.1,476.1,354,476.2,354z"/>
			</g>
			<g id="XMLID_604_">
				<path id="XMLID_635_" class="st19" d="M518.7,333.1c0.1,0,0.1-0.1,0.2-0.1l0,0C518.8,333,518.7,333.1,518.7,333.1z"/>
				<path id="XMLID_634_" class="st19" d="M476.2,354C476.2,354,476.1,354,476.2,354C476.1,354,476.2,354,476.2,354L476.2,354z"/>
				<path id="XMLID_633_" class="st19" d="M489.9,341.4c0.9-0.4,1.4-1.5,1-2.4c-0.4-0.9-1.5-1.4-2.4-1c-0.2,0.1-4.4,1.8-10.4,8.1
					l-1.9,7.8C484,344,489.8,341.5,489.9,341.4z"/>
				<g id="XMLID_613_">
					<path id="XMLID_632_" class="st19" d="M455.4,245.4c0.9-0.4,1.3-1.5,0.9-2.4c-0.1-0.2-0.1-0.3-0.2-0.5c-1,0.8-1.9,1.7-2.8,2.6
						c0.3,0.3,0.7,0.5,1.1,0.5C454.7,245.6,455.1,245.6,455.4,245.4z"/>
					<path id="XMLID_631_" class="st19" d="M525.5,217.3c0.3,0.4,0.7,0.7,1.1,0.7c0.5,0.1,1,0,1.4-0.3c0.8-0.6,1-1.7,0.4-2.6
						c-0.8-1.1-1.6-2-2.6-3c-0.7,0.3-1,0.5-1,0.5c-0.2,0-0.4-0.1-0.6-0.1c-1.6-0.3-3.1-0.5-4.6-0.7
						C521.9,213.5,524,215.2,525.5,217.3z"/>
					<path id="XMLID_630_" class="st19" d="M445,313.7c-0.9-0.4-2,0-2.5,0.9c-0.1,0.3-1.6,3.4-2.2,7.7c1.1,1.5,2.2,2.8,3.4,4
						c0-5.3,2.1-10,2.1-10.1C446.3,315.2,445.9,314.1,445,313.7z"/>
					<path id="XMLID_629_" class="st19" d="M491.8,360.3c-0.8,0.9-1.5,1.9-2.2,2.9C490.3,362.2,491.1,361.2,491.8,360.3z"/>
					<path id="XMLID_628_" class="st19" d="M459.6,333.7C459.6,333.7,459.6,333.7,459.6,333.7c0,0-1.5-0.2-3.8-0.8
						c-3.2-0.9-7.9-2.8-12.1-6.7c0,0.5,0,0.9,0,1.4c4.3,17.9,20.6,23.8,28.3,25.6c0.2-0.2,0.3-0.4,0.5-0.6
						C467,348.6,461.8,342.7,459.6,333.7z"/>
					<path id="XMLID_627_" class="st20" d="M588.9,221.7c0,0,1.7-0.1,4.5,0c1.8,0.1,4,0.4,6.5,0.9c-6.9-4-13.5-5.8-18.5-6.6
						c2.4,1.6,4.9,3.4,7.3,5.5C588.8,221.6,588.9,221.7,588.9,221.7z"/>
					<path id="XMLID_626_" class="st19" d="M562.2,207.9c-20.8-11.7-40-6.7-48.5-3.3c3.8,1.6,8.6,4.1,12.2,7.6
						c0.8-0.4,2-0.9,3.6-1.6C535.7,208.2,547.9,204.8,562.2,207.9z"/>
					<path id="XMLID_620_" class="st19" d="M441.2,279.4c1.1-1.1,1.9-1.7,1.9-1.7s-0.1-1.8,0-4.6c0.3-6.7,2-19.2,10.3-28.1
						c-0.2-0.2-0.3-0.3-0.4-0.5c-2.3-5-1.7-10.3-0.5-14.2c-21.5,5.7-24.8,27.2-25.2,36.8c3-2.1,6.8-4.3,11.2-5.3
						c1-0.2,2,0.4,2.2,1.4c0.2,1-0.4,2-1.4,2.2c-6.3,1.5-11.4,5.7-13.9,8c-3.2,3.4-9.1,12.2-6.2,29.5c2.8,17,14.7,22.3,20.8,24
						c0-1.6,0.1-3.2,0.3-4.6c-2.4-3.4-4.4-7.7-5.3-13.4C432.1,291.6,438,282.8,441.2,279.4z"/>
					<path id="XMLID_618_" class="st19" d="M472.4,235.5c0,0,0-0.1,0.1-0.2c0.9-2.2,12.5-27.8,47.2-23.3c-4.1-2.8-8.7-4.5-11.2-5.3
						c-38.4-7.5-50.8,20.3-51.8,22.6c-1.3,3.3-2.5,8.5-0.6,13.2c3.2-2.6,7.2-4.8,12.1-6.1C469.6,236,470.9,235.7,472.4,235.5z"/>
					<path id="XMLID_616_" class="st20" d="M624,251.6c-6.3-15-15.4-23.8-24.1-29c-2.5-0.5-4.8-0.8-6.5-0.9c-2.8-0.2-4.5,0-4.5,0
						c0,0-0.1-0.1-0.1-0.1c-2.4-2.1-4.9-3.9-7.3-5.5c-1.4-0.2-2.7-0.4-3.9-0.4c1.2,1.9,2.4,4.3,2.6,6.2c0.1,1-0.7,1.9-1.7,2
						c-0.2,0-0.3,0-0.5,0c-0.8-0.2-1.4-0.8-1.5-1.7c-0.1-1.7-2-4.6-3.5-6.7c-3.6-3.1-7.2-5.6-10.8-7.6c-14.3-3.1-26.4,0.3-32.7,2.8
						c-1.6,0.6-2.8,1.2-3.6,1.6c0.9,0.9,1.8,1.9,2.6,3c0.6,0.8,0.4,2-0.4,2.6c-0.4,0.3-0.9,0.4-1.4,0.3c-0.4-0.1-0.9-0.3-1.1-0.7
						c-1.5-2.1-3.5-3.9-5.8-5.4c-34.8-4.5-46.3,21.1-47.2,23.3c0,0.1-0.1,0.2-0.1,0.2c-1.5,0.2-2.9,0.5-4.2,0.9
						c-5,1.3-8.9,3.5-12.1,6.1c0.1,0.2,0.1,0.3,0.2,0.5c0.4,0.9,0,2-0.9,2.4c-0.3,0.1-0.7,0.2-1,0.2c-0.4,0-0.8-0.2-1.1-0.5
						c-8.3,8.9-10,21.4-10.3,28.1c-0.1,2.8,0,4.6,0,4.6s-0.8,0.5-1.9,1.7c-3.2,3.4-9.1,12.2-6.2,29.5c0.9,5.7,2.9,10,5.3,13.4
						c0.6-4.3,2.1-7.4,2.2-7.7c0.4-0.9,1.5-1.3,2.5-0.9c0.9,0.4,1.3,1.5,0.9,2.5c0,0.1-2.1,4.7-2.1,10.1c4.2,4,8.9,5.8,12.1,6.7
						c2.3,0.6,3.8,0.7,3.8,0.7c0,0,0,0,0,0c2.2,9,7.4,15,13,18.9c2-2.6,3.8-4.7,5.5-6.5c6-6.2,10.1-8,10.4-8.1c0.9-0.4,2,0.1,2.4,1
						c0.4,0.9-0.1,2-1,2.4c-0.1,0-5.8,2.6-13.7,12.5l0,0c0,0,0,0-0.1,0.1c-0.1,0.2-0.2,0.4-0.4,0.6c-7.8,11.8-7,24.3-7,24.3
						s2.6,0.8,6.9-0.1c2-0.4,4.3-1.1,6.8-2.5c0,0,3-7.4,9-16.4c0.2-0.3,0.4-0.6,0.6-0.9c6.1-9,15-19.4,26.7-25.9
						c0,0,0.1-0.1,0.1-0.1c2.2-1.9,9.2-5.8,11.4-7c0.9-0.5,2-0.2,2.5,0.7c0.5,0.9,0.2,2-0.7,2.5c-3.3,1.8-7,4-9.2,5.4
						c26.8,9.6,45.2-5.5,51.8-12.3c-7.5-2.7-12.9-7.9-13.2-8.2c-0.7-0.7-0.7-1.9,0-2.6c0.7-0.7,1.9-0.7,2.6,0
						c0.1,0.1,5.8,5.7,13.3,7.8c0,0,0-0.1,0-0.1C607.9,320.2,640.4,290.6,624,251.6z"/>
				</g>
			</g>
			<path id="XMLID_603_" class="st21" d="M440.7,263.1c-0.2-1-1.2-1.6-2.2-1.4c-4.4,1-8.3,3.2-11.2,5.3c-0.1,2.8,0,4.6,0,4.6
				s-0.8,0.5-1.9,1.7c2.5-2.3,7.7-6.5,13.9-8C440.3,265.1,440.9,264.1,440.7,263.1z"/>
			<path id="XMLID_602_" class="st21" d="M452.9,244.5c0.3,0.6,0.8,1,1.5,1.1c0.3,0,0.7,0,1-0.2c0.9-0.4,1.3-1.5,0.9-2.4
				c-2.2-4.9-0.9-10.3,0.4-13.8c0,0.1-0.1,0.2-0.1,0.2c-1.5,0.2-2.9,0.5-4.2,0.9C451.3,234.2,450.6,239.5,452.9,244.5z"/>
			<path id="XMLID_601_" class="st21" d="M525.5,217.3c0.3,0.4,0.7,0.7,1.1,0.7c0.5,0.1,1,0,1.4-0.3c0.8-0.6,1-1.7,0.4-2.6
				c-3.7-5.2-10.1-8.6-14.8-10.6c-2.9,1.2-4.6,2.1-4.6,2.1c-0.2,0-0.4-0.1-0.6-0.1C512.3,207.9,521.2,211.4,525.5,217.3z"/>
			<path id="XMLID_600_" class="st19" d="M578,223.9c0.2,0,0.3,0,0.5,0c1-0.1,1.8-1,1.7-2c-0.2-2-1.4-4.3-2.6-6.2
				c-2.8-0.2-4.5,0-4.5,0c0,0-0.1-0.1-0.1-0.1c1.6,2.1,3.4,5,3.5,6.7C576.6,223,577.2,223.7,578,223.9z"/>
			<path id="XMLID_599_" class="st19" d="M561.4,311.4c-0.7,0.7-0.7,1.9,0,2.6c0.3,0.3,5.7,5.6,13.2,8.2c1.6-1.7,2.5-2.8,2.7-3
				c-7.5-2.2-13.2-7.7-13.3-7.8C563.3,310.7,562.2,310.7,561.4,311.4z"/>
			<path id="XMLID_598_" class="st19" d="M532.7,326.7c-0.5-0.9-1.6-1.2-2.5-0.7c-2.4,1.3-10.5,5.8-11.9,7.5c0,0,0,0,0,0
				c0.3-0.3,0.5-0.4,0.5-0.4c1.4,0.6,2.7,1.1,4,1.6c2.1-1.4,5.8-3.6,9.2-5.4C532.9,328.7,533.2,327.6,532.7,326.7z"/>
			<path id="XMLID_597_" class="st21" d="M445.9,316.1c0.4-0.9,0-2-0.9-2.5c-0.9-0.4-2,0-2.5,0.9c-0.2,0.3-2.7,5.9-2.5,12.3
				c2.3,0.6,3.8,0.7,3.8,0.7c0,0,0,0,0,0C443.3,321.7,445.8,316.2,445.9,316.1z"/>
			<path id="XMLID_596_" class="st19" d="M489.9,341.4c0.9-0.4,1.4-1.5,1-2.4c-0.4-0.9-1.5-1.4-2.4-1c-0.3,0.1-7.2,3-16.4,15.2
				c2.5,0.6,4,0.7,4.1,0.7C484,344,489.8,341.5,489.9,341.4z"/>
		</g>
		<g id="XMLID_593_">
			<path id="XMLID_594_" class="st19" d="M481.8,253.1c-0.6-0.1-1.1-0.5-1.3-1c-0.3-0.7-0.2-1.5,0.3-2c0.1-0.1,0.2-0.4,0.3-0.6
				c9.9-21.5,36.4-14.8,56.8-5.4c0.9,0.4,1.3,1.5,0.9,2.4c-0.4,0.9-1.5,1.3-2.4,0.9c-27.6-12.6-45-11.4-52,3.6c-0.5,1-0.8,1.7-1.5,2
				C482.6,253.2,482.2,253.2,481.8,253.1z"/>
		</g>
		<g id="XMLID_591_">
			<path id="XMLID_592_" class="st19" d="M508.7,239C508.7,239,508.7,239,508.7,239c-1.1-0.2-1.7-1.2-1.4-2.2
				c2.5-10.8-7-16-7.4-16.2c-0.9-0.5-1.2-1.6-0.8-2.5c0.5-0.9,1.6-1.2,2.5-0.8c0.1,0.1,12.4,6.7,9.3,20.3
				C510.7,238.6,509.7,239.2,508.7,239z"/>
		</g>
		<g id="XMLID_589_">
			<path id="XMLID_590_" class="st19" d="M528.8,268.6c-0.9-0.2-1.6-1.1-1.5-2c1.5-11.9,5.8-20.3,12.6-25c8.6-5.8,18-3.5,18.4-3.4
				c1,0.3,1.6,1.3,1.3,2.2c-0.3,1-1.2,1.6-2.2,1.3l0,0c-0.1,0-8.2-2-15.4,2.9c-5.9,4.1-9.6,11.6-11,22.4c-0.1,1-1.1,1.7-2.1,1.6
				C528.9,268.6,528.8,268.6,528.8,268.6z"/>
		</g>
		<g id="XMLID_587_">
			<path id="XMLID_588_" class="st19" d="M577.5,236.9c-0.1,0-0.1,0-0.2-0.1c-16.5-5.3-20.5-15.6-21.5-19.8c-0.4-0.9,0.1-2,1-2.4
				c0.9-0.4,2,0.1,2.4,1c0,0.1,0.1,0.2,0.1,0.5c0.8,3.6,4.3,12.5,19,17.2c1,0.3,1.5,1.3,1.2,2.3
				C579.3,236.6,578.4,237.1,577.5,236.9z"/>
		</g>
		<g id="XMLID_585_">
			<path id="XMLID_586_" class="st19" d="M596.2,276.7c-1-0.2-1.6-1.1-1.5-2.1c1.4-8.2,0.2-14.8-3.6-19.8c-6-7.9-16.6-9-16.7-9
				c-1-0.1-1.8-1-1.7-2c0.1-1,1-1.8,2-1.7c0.5,0,12.3,1.3,19.3,10.5c4.5,5.8,5.9,13.5,4.3,22.7C598.2,276.2,597.2,276.9,596.2,276.7
				C596.2,276.7,596.2,276.7,596.2,276.7z"/>
		</g>
		<g id="XMLID_583_">
			<path id="XMLID_584_" class="st19" d="M593,256.6c-0.4-0.1-0.7-0.3-1-0.5c-0.7-0.7-0.7-1.9,0.1-2.6c8.2-7.7,20.5-0.3,21,0
				c0.9,0.5,1.1,1.7,0.6,2.5c-0.5,0.9-1.7,1.1-2.5,0.6l0,0c-0.1-0.1-10.4-6.2-16.6-0.4C594.2,256.6,593.6,256.7,593,256.6z"/>
		</g>
		<g id="XMLID_581_">
			<path id="XMLID_582_" class="st19" d="M529.7,312.5c-3-0.6-5.5-2.2-7.2-4.7c-3.1-4.8-2.3-11.7,2.1-18.5c5-7.7,13-8,20.8-8.3
				c5.6-0.2,11.5-0.4,16.7-3.3c11.6-6.3,7-20.1,6.8-20.7c-0.3-1,0.2-2,1.1-2.3c1-0.3,2,0.2,2.3,1.1c0.1,0.2,5.8,17.4-8.5,25.2
				c-6,3.3-12.6,3.5-18.3,3.7c-7.4,0.3-13.8,0.5-17.8,6.6c-3.6,5.5-4.4,11-2.1,14.5c1.7,2.7,5.2,3.8,9.4,3.1
				c10.3-1.8,13.9-10.2,14.1-10.6c0.4-0.9,1.5-1.4,2.4-1c0.9,0.4,1.4,1.5,1,2.4c-0.2,0.4-4.5,10.7-16.9,12.8
				C533.5,312.9,531.5,312.9,529.7,312.5z"/>
		</g>
		<g id="XMLID_578_">
			<path id="XMLID_580_" class="st19" d="M580.6,294.7c-4.3-0.8-7.8-2.5-10.5-5c-5.8-5.3-5.7-12.3-5.7-12.6c0-1,0.9-1.8,1.9-1.8
				c1,0,1.8,0.9,1.8,1.9c0,0.1,0,5.7,4.5,9.8c4.4,4,11.5,5.4,21.1,4.3c1-0.1,1.9,0.6,2,1.6c0.1,1-0.6,1.9-1.6,2
				C589,295.6,584.4,295.5,580.6,294.7z"/>
		</g>
		<g id="XMLID_570_">
			<path id="XMLID_571_" class="st19" d="M506.7,334.5c-0.4-0.1-0.8-0.3-1.1-0.7c-12.5-15.7,2.6-32.4,2.8-32.6
				c0.7-0.7,1.9-0.8,2.6-0.1c0.7,0.7,0.8,1.9,0.1,2.6l0,0c-0.5,0.6-13.1,14.5-2.6,27.8c0.6,0.8,0.5,2-0.3,2.6
				C507.7,334.5,507.2,334.6,506.7,334.5z"/>
		</g>
		<g id="XMLID_568_">
			<path id="XMLID_569_" class="st19" d="M492.7,303.1c-0.1,0-0.1,0-0.2-0.1c-1-0.3-1.5-1.4-1.2-2.3c2.4-7.3,6.4-12,12-14
				c10.5-3.8,22.4,3.5,22.9,3.8c0.9,0.5,1.1,1.7,0.6,2.5c-0.5,0.9-1.7,1.1-2.5,0.6c-0.1-0.1-10.9-6.7-19.7-3.5
				c-4.4,1.6-7.7,5.5-9.7,11.7C494.5,302.7,493.6,303.2,492.7,303.1z"/>
		</g>
		<g id="XMLID_566_">
			<path id="XMLID_567_" class="st19" d="M479,278.5c-10.8-2.1-16.3-15.4-16.6-16c-0.4-0.9,0.1-2,1-2.4c0.9-0.4,2,0.1,2.4,1
				c0.1,0.1,5.3,12.8,14.8,13.9c6.8,0.8,14.4-4.5,22.5-15.7c0.6-0.8,1.7-1,2.6-0.4c0.8,0.6,1,1.7,0.4,2.6
				c-9,12.4-17.7,18.2-25.9,17.2C479.7,278.6,479.3,278.5,479,278.5z"/>
		</g>
		<g id="XMLID_555_">
			<path id="XMLID_565_" class="st19" d="M486.5,321.4c-0.1,0-0.2,0-0.3-0.1c-9.3-3.4-15.1-8.8-17.2-15.9c-4.1-14,7.4-29.4,7.9-30.1
				c0.6-0.8,1.8-1,2.6-0.4c0.8,0.6,1,1.8,0.4,2.6c-0.1,0.1-10.9,14.7-7.3,26.8c1.8,6,6.8,10.5,14.9,13.5c1,0.4,1.4,1.4,1.1,2.4
				C488.3,321.1,487.4,321.6,486.5,321.4z"/>
		</g>
		<g id="XMLID_553_">
			<path id="XMLID_554_" class="st19" d="M441.1,307c-0.8-0.2-1.4-0.8-1.5-1.7c-0.1-0.7-1.1-16.5,7.6-21.2c5.7-3.1,14-0.6,24.6,7.5
				c0.8,0.6,1,1.8,0.3,2.6c-0.6,0.8-1.8,1-2.6,0.3c-9.2-7-16.3-9.5-20.6-7.2c-5.5,3-6,13.8-5.7,17.7c0.1,1-0.7,1.9-1.7,2
				C441.4,307,441.3,307,441.1,307z"/>
		</g>
		<g id="XMLID_551_">
			<path id="XMLID_552_" class="st19" d="M468.5,335.8c-0.9-0.2-1.5-1-1.5-1.9c0.7-11,7-20.6,7.3-21c0.6-0.8,1.7-1.1,2.6-0.5
				c0.8,0.6,1.1,1.7,0.5,2.6c-0.1,0.1-6,9.2-6.7,19.2c-0.1,1-0.9,1.8-2,1.7C468.6,335.8,468.6,335.8,468.5,335.8z"/>
		</g>
	</g>
	<g id="XMLID_534_">
		<g id="XMLID_541_">
			<path id="XMLID_549_" class="st2" d="M366.3,144.8c-5.6,7.4-4.1,17.9,3.3,23.5c1.6,1.2,3.2,2,5,2.6l-4.2-30
				C368.9,142,367.5,143.2,366.3,144.8z"/>
			<path id="XMLID_546_" class="st11" d="M370.4,140.9l4.2,30c2.1,0.7,4.2,0.9,6.3,0.8l-4.6-33.2
				C374.2,138.9,372.2,139.8,370.4,140.9z"/>
			<path id="XMLID_543_" class="st11" d="M390.2,168c1.1-0.9,2.1-1.8,2.9-3c5.6-7.4,4.1-17.9-3.3-23.5c-1.1-0.9-2.4-1.5-3.6-2.1
				L390.2,168z"/>
			<path id="XMLID_542_" class="st2" d="M376.2,138.5l4.6,33.2c3.4-0.2,6.6-1.5,9.3-3.6l-4-28.6C383,138.1,379.5,137.8,376.2,138.5z
				"/>
		</g>
		<g id="XMLID_535_">
			
				<rect id="XMLID_540_" x="388.9" y="172.9" transform="matrix(0.8646 -0.5024 0.5024 0.8646 -35.5242 220.6651)" class="st22" width="5.6" height="6.8"/>
			<path id="XMLID_537_" class="st23" d="M369,136.3c-10.2,5.9-13.7,19.1-7.8,29.3c5.9,10.2,19.1,13.7,29.3,7.8
				c10.2-5.9,13.7-19.1,7.8-29.3C392.4,133.8,379.2,130.3,369,136.3z M387,167.3c-6.9,4-15.7,1.7-19.7-5.2c-4-6.9-1.7-15.7,5.2-19.7
				c6.9-4,15.7-1.7,19.7,5.2C396.3,154.4,393.9,163.3,387,167.3z"/>
			<path id="XMLID_536_" class="st23" d="M410.3,202.9l-4.5,2.6c-1.2,0.7-2.8,0.3-3.5-0.9l-15-25.7l9-5.2l15,25.7
				C411.9,200.6,411.5,202.2,410.3,202.9z"/>
		</g>
	</g>
	<g id="XMLID_386_">
		<g id="XMLID_388_">
			<g id="XMLID_391_">
				<path id="XMLID_394_" class="st8" d="M374.8,308l-0.9-33.6c0-0.7-0.5-1.2-1.2-1.3l-5.8,0.1c-0.8,0-1.4,0.7-1.3,1.4l0.9,33.6
					c0,0.7,0.5,1.2,1.2,1.3l5.8-0.1C374.2,309.4,374.8,308.8,374.8,308z"/>
				<path id="XMLID_393_" class="st12" d="M357.2,308.5l-0.7-25.9c0-0.7-0.5-1.2-1.2-1.3l-5.8,0.1c-0.8,0-1.4,0.7-1.3,1.4l0.7,25.9
					c0,0.7,0.5,1.2,1.2,1.3l5.8-0.1C356.6,309.9,357.2,309.2,357.2,308.5z"/>
				<path id="XMLID_392_" class="st24" d="M339.6,308.9l-0.5-17.6c0-0.7-0.5-1.2-1.2-1.3l-5.8,0.1c-0.8,0-1.4,0.7-1.3,1.4l0.5,17.6
					c0,0.7,0.5,1.2,1.2,1.3l5.8-0.1C339,310.3,339.6,309.7,339.6,308.9z"/>
			</g>
			<g id="XMLID_389_">
				<path id="XMLID_390_" class="st25" d="M321.2,294.4c-0.3,0-0.5-0.1-0.7-0.3c-0.4-0.4-0.4-1-0.1-1.4l14.7-15.9
					c0.4-0.4,1-0.4,1.4-0.1l4.3,3.8l13.6-13.8c0.2-0.2,0.5-0.3,0.7-0.3c0.3,0,0.5,0.1,0.7,0.3l3.5,3.8l13.4-14.2
					c0.4-0.4,1-0.4,1.4,0c0.4,0.4,0.4,1,0,1.4L360,272.8c-0.2,0.2-0.5,0.3-0.8,0.3c-0.3,0-0.6-0.1-0.7-0.3l-3.5-3.8l-13.5,13.7
					c-0.4,0.4-1,0.4-1.4,0l-4.2-3.8l-14,15.2C321.7,294.2,321.5,294.4,321.2,294.4z"/>
			</g>
		</g>
		<path id="XMLID_387_" class="st25" d="M376.7,252.3l-6.8,2c-0.6,0.2-0.7,0.9-0.3,1.3l5.9,5c0.5,0.4,1.2,0.1,1.2-0.5l0.9-7
			C377.7,252.6,377.2,252.1,376.7,252.3l-6.8,2c-0.6,0.2-0.7,0.9-0.3,1.3l5.9,5c0.5,0.4,1.2,0.1,1.2-0.5l0.9-7
			C377.7,252.6,377.2,252.1,376.7,252.3z"/>
	</g>
	<g id="XMLID_100_">
		<g id="XMLID_229_">
			<path id="XMLID_230_" class="st3" d="M344.4,245c-0.1,0-0.1,0-0.2,0c-0.6-0.1-0.9-0.6-0.8-1.2c2.2-11.8,5.6-23.5,10.2-34.6
				c0.2-0.5,0.8-0.8,1.4-0.6c0.5,0.2,0.8,0.8,0.6,1.4c-4.5,11-7.9,22.5-10,34.2C345.3,244.6,344.9,245,344.4,245z"/>
		</g>
		<g id="XMLID_221_">
			<path id="XMLID_222_" class="st3" d="M696.5,245.9c-0.5,0-0.9-0.4-1-0.9c-2.3-12.6-5.9-24.9-10.8-36.7c-0.2-0.5,0-1.1,0.6-1.4
				c0.5-0.2,1.1,0,1.4,0.6c5,11.9,8.7,24.4,11,37.1c0.1,0.6-0.3,1.1-0.8,1.2C696.6,245.9,696.5,245.9,696.5,245.9z"/>
		</g>
		<g id="XMLID_219_">
			<path id="XMLID_220_" class="st3" d="M627.1,134.3c-0.2,0-0.4-0.1-0.6-0.2c-16.4-12.2-34.6-21.4-54.2-27.4
				c-0.5-0.2-0.9-0.7-0.7-1.3c0.2-0.5,0.7-0.9,1.3-0.7c19.7,6,38.2,15.3,54.8,27.7c0.5,0.3,0.6,1,0.2,1.5
				C627.7,134.2,627.4,134.3,627.1,134.3z"/>
		</g>
		<g id="XMLID_217_">
			<path id="XMLID_218_" class="st3" d="M572.6,105.7"/>
		</g>
		<g id="XMLID_209_">
			<path id="XMLID_211_" class="st3" d="M422.9,127.8c-0.3,0-0.7-0.2-0.9-0.5c-0.3-0.5-0.2-1.1,0.3-1.4c14-9.1,29.1-16.2,45-21
				c0.5-0.2,1.1,0.1,1.3,0.7c0.2,0.5-0.1,1.1-0.7,1.3c-15.7,4.8-30.6,11.8-44.4,20.8C423.3,127.8,423.1,127.8,422.9,127.8z"/>
		</g>
		<g id="XMLID_207_">
			<path id="XMLID_208_" class="st3" d="M355.1,240.4c-0.1,0-0.1,0-0.2,0c-0.5-0.1-0.9-0.6-0.7-1.2c1.5-6.4,3.3-12.9,5.5-19.1
				c0.2-0.5,0.7-0.8,1.3-0.6c0.5,0.2,0.8,0.7,0.6,1.3c-2.2,6.2-4,12.5-5.5,18.9C356,240,355.6,240.4,355.1,240.4z"/>
		</g>
		<g id="XMLID_181_">
			<path id="XMLID_198_" class="st3" d="M686.5,244.7c-0.5,0-0.9-0.3-1-0.8c-1.7-8.6-4.1-17.1-7.1-25.3c-0.2-0.5,0.1-1.1,0.6-1.3
				c0.5-0.2,1.1,0.1,1.3,0.6c3.1,8.3,5.5,16.9,7.2,25.6c0.1,0.5-0.2,1-0.8,1.2C686.6,244.7,686.5,244.7,686.5,244.7z"/>
		</g>
		<g id="XMLID_105_">
			<path id="XMLID_159_" class="st3" d="M618.4,139.8c-0.2,0-0.4-0.1-0.6-0.2c-14-9.9-29.3-17.6-45.5-22.9c-0.5-0.2-0.8-0.7-0.6-1.2
				c0.2-0.5,0.7-0.8,1.2-0.6c16.4,5.3,31.9,13.1,46,23.1c0.4,0.3,0.5,0.9,0.2,1.4C619,139.6,618.7,139.8,618.4,139.8z"/>
		</g>
		<g id="XMLID_103_">
			<path id="XMLID_104_" class="st3" d="M428.8,135.4c-0.3,0-0.6-0.2-0.8-0.5c-0.3-0.5-0.2-1.1,0.3-1.4
				c11.4-7.3,23.7-13.3,36.5-17.7c0.5-0.2,1.1,0.1,1.2,0.6c0.2,0.5-0.1,1.1-0.6,1.2c-12.6,4.4-24.8,10.3-36,17.5
				C429.2,135.3,429,135.4,428.8,135.4z"/>
		</g>
		<g id="XMLID_101_">
			<path id="XMLID_102_" class="st3" d="M360.6,221.4c-0.1,0-0.2,0-0.3-0.1c-0.5-0.2-0.8-0.7-0.6-1.3c0.7-2.1,1.5-4.1,2.3-6.2
				c0.2-0.5,0.8-0.7,1.3-0.5c0.5,0.2,0.7,0.8,0.5,1.3c-0.8,2-1.6,4.1-2.3,6.1C361.4,221.1,361,221.4,360.6,221.4z"/>
		</g>
	</g>
	<g>
		<rect x="491" y="442" class="st26" width="335.3" height="289.5"/>
		<g>
			<rect x="497.4" y="446.8" class="st27" width="322.4" height="278.9"/>
			<g>
				<polygon class="st11" points="610.1,568.2 539.4,568.2 539.4,479.9 551.4,469.1 610.1,469.1 				"/>
				<polygon class="st28" points="539.4,479.9 551,479.9 551.4,469.1 				"/>
				<rect x="563.4" y="477.7" class="st28" width="22.6" height="1.1"/>
				<rect x="558.1" y="481" class="st28" width="33.3" height="1.1"/>
				<rect x="547.8" y="501.7" class="st28" width="55.2" height="1.4"/>
				<rect x="547.8" y="505.9" class="st28" width="55.2" height="1.4"/>
				<rect x="547.8" y="510.1" class="st28" width="55.2" height="1.4"/>
				<rect x="547.8" y="514.3" class="st28" width="55.2" height="1.4"/>
				<rect x="547.8" y="559.4" class="st28" width="55.2" height="1.4"/>
			</g>
			<g>
				<polygon class="st11" points="691.6,690.6 621,690.6 621,602.3 633,591.5 691.6,591.5 				"/>
				<polygon class="st28" points="621,602.3 632.6,602.3 633,591.5 				"/>
				<rect x="645" y="600.1" class="st28" width="22.6" height="1.1"/>
				<rect x="639.7" y="603.4" class="st28" width="33.3" height="1.1"/>
				<rect x="629.4" y="624.1" class="st28" width="55.2" height="1.4"/>
				<rect x="629.4" y="628.3" class="st28" width="55.2" height="1.4"/>
				<rect x="629.4" y="632.5" class="st28" width="55.2" height="1.4"/>
				<rect x="629.4" y="636.7" class="st28" width="55.2" height="1.4"/>
				<rect x="629.4" y="649.7" class="st28" width="55.2" height="1.4"/>
				<rect x="629.4" y="653.9" class="st28" width="55.2" height="1.4"/>
				<rect x="629.4" y="658.8" class="st28" width="55.2" height="1.4"/>
			</g>
			<g>
				<rect x="692.5" y="469.1" class="st28" width="39" height="34.4"/>
				<path class="st29" d="M710.3,473.2c0-0.9,0.8-1.7,1.7-1.7c0.9,0,1.7,0.8,1.7,1.7c0,0.9-0.8,1.7-1.7,1.7
					C711.1,474.9,710.3,474.2,710.3,473.2z"/>
			</g>
			<g>
				
					<rect x="692.5" y="515.7" transform="matrix(0.9976 -6.964063e-02 6.964063e-02 0.9976 -35.38 50.878)" class="st11" width="39" height="34.4"/>
				<path class="st28" d="M709.5,522c-0.1-0.9,0.6-1.8,1.6-1.8c0.9-0.1,1.8,0.6,1.8,1.6s-0.6,1.8-1.6,1.8S709.6,523,709.5,522z"/>
			</g>
			<g>
				
					<rect x="562.9" y="642.4" transform="matrix(0.9976 -6.963937e-02 6.963937e-02 0.9976 -44.5184 42.1564)" class="st11" width="39" height="34.4"/>
				<path class="st28" d="M579.9,648.7c-0.1-0.9,0.6-1.8,1.6-1.8c0.9-0.1,1.8,0.6,1.8,1.6c0.1,0.9-0.6,1.8-1.6,1.8
					C580.8,650.4,580,649.7,579.9,648.7z"/>
			</g>
			<g>
				
					<rect x="512.8" y="665.9" transform="matrix(0.9999 -1.025565e-02 1.025565e-02 0.9999 -6.978 5.4953)" class="st11" width="39" height="34.4"/>
				<path class="st28" d="M530.5,672.2c0-0.9,0.7-1.7,1.7-1.7c0.9,0,1.7,0.7,1.7,1.7c0,0.9-0.7,1.7-1.7,1.7
					C531.3,673.9,530.5,673.1,530.5,672.2z"/>
			</g>
			<g>
				
					<rect x="747.6" y="538.3" transform="matrix(0.9844 0.1759 -0.1759 0.9844 109.6897 -126.2914)" class="st30" width="39" height="34.4"/>
				<path class="st31" d="M767.8,542.9c0.1-0.8,0.9-1.3,1.7-1.2c0.8,0.1,1.3,0.9,1.2,1.7c-0.1,0.8-0.9,1.3-1.7,1.2
					C768.2,544.5,767.7,543.7,767.8,542.9z"/>
			</g>
			<g>
				
					<rect x="632.4" y="515.7" transform="matrix(0.9942 -0.1076 0.1076 0.9942 -53.55 73.2417)" class="st30" width="39" height="34.4"/>
				<path class="st31" d="M649.1,520.6c-0.1-0.8,0.5-1.5,1.3-1.6c0.8-0.1,1.5,0.5,1.6,1.3c0.1,0.8-0.5,1.5-1.3,1.6
					C649.9,522,649.2,521.4,649.1,520.6z"/>
			</g>
			<g>
				
					<rect x="533.2" y="598.7" transform="matrix(0.978 -0.2085 0.2085 0.978 -116.2785 128.8073)" class="st32" width="39" height="34.4"/>
				<path class="st29" d="M549.3,604.8c-0.7-0.4-0.9-1.4-0.4-2.1c0.4-0.7,1.4-0.9,2.1-0.4c0.7,0.4,0.9,1.4,0.4,2.1
					C550.9,605.1,550,605.3,549.3,604.8z"/>
			</g>
			<g>
				<g>
					<polygon class="st11" points="670.5,503.5 633.4,503.5 633.4,478.6 643.7,469.1 670.5,469.1 					"/>
					<polygon class="st28" points="633.2,478.6 643.3,478.6 643.7,469.1 					"/>
				</g>
				<path class="st28" d="M652.1,472.3c0-0.7,0.5-1.2,1.2-1.2c0.7,0,1.2,0.5,1.2,1.2c0,0.7-0.5,1.2-1.2,1.2
					C652.6,473.5,652.1,473,652.1,472.3z"/>
			</g>
			<g>
				<g>
					<polygon class="st11" points="779,707.8 741.9,707.8 741.9,682.8 752.2,673.4 779,673.4 					"/>
					<polygon class="st28" points="741.7,682.8 751.8,682.8 752.2,673.4 					"/>
				</g>
				<path class="st28" d="M760.6,676.6c0-0.7,0.5-1.2,1.2-1.2c0.7,0,1.2,0.5,1.2,1.2c0,0.7-0.5,1.2-1.2,1.2
					C761.1,677.8,760.6,677.2,760.6,676.6z"/>
			</g>
			<g>
				<g>
					<polygon class="st11" points="795.9,658.3 758.8,658.3 758.8,633.3 769.1,623.9 795.9,623.9 					"/>
					<polygon class="st28" points="758.6,633.3 768.8,633.3 769.1,623.9 					"/>
				</g>
				<path class="st28" d="M777.5,627c0-0.7,0.5-1.2,1.2-1.2s1.2,0.5,1.2,1.2s-0.5,1.2-1.2,1.2S777.5,627.7,777.5,627z"/>
			</g>
			<g>
				<g>
					<polygon class="st32" points="746.9,658.3 709.8,658.3 709.8,633.3 720.1,623.9 746.9,623.9 					"/>
					<polygon class="st33" points="709.6,633.3 719.8,633.3 720.1,623.9 					"/>
				</g>
				<path class="st34" d="M728.5,627c0-0.7,0.5-1.2,1.2-1.2c0.7,0,1.2,0.5,1.2,1.2c0,0.7-0.5,1.2-1.2,1.2
					C729.1,628.3,728.5,627.7,728.5,627z"/>
			</g>
			<g>
				<g>
					<polygon class="st32" points="806.4,494.9 769.3,494.9 769.3,470 779.6,460.5 806.4,460.5 					"/>
					<polygon class="st33" points="769.1,470 779.2,470 779.6,460.5 					"/>
				</g>
				<path class="st34" d="M788,463.7c0-0.7,0.5-1.2,1.2-1.2c0.7,0,1.2,0.5,1.2,1.2c0,0.7-0.5,1.2-1.2,1.2
					C788.5,464.9,788,464.4,788,463.7z"/>
			</g>
		</g>
	</g>
	<path class="st35" d="M804.2,1001.8c0,0,1-8.7,3.2-13.8c2.3-5.1,16.6-1.9,16.6-1.9s2.9,2.8,3.5,15.9L804.2,1001.8z"/>
	<path class="st35" d="M747.8,1002c3.8-2.3,1.7-19.9,1.7-19.9s-17.9-14.3-20.4-3.4c-2.5,11-17,15.9-25.3,17.3c-5.7,0.9-7.5,4.1-8,6
		H747.8z"/>
	<path class="st36" d="M778.5,869.2c-0.3,1.8-0.6,3.4-0.8,4.9c-0.6,4-1,7.3-1.1,9.7c-1.4,32.5-22.8,106.9-26.7,108.6
		c-5.9,2.7-15.3-3-20.2-4.9c-2-0.8-3.4-3.2-3-5.7C737,926,741,846.8,742.6,796.3c0.1-2.4,0.1-4.8,0.2-7.1
		c0.7-25.1,4.3-42.5,4.3-42.5s6.2-2,14.3-3.7c0,0,0,0,0.1,0c6.9-1.5,15.2-2.8,22.3-2.5h0c8.8,0.3,15.8,3,15.9,10.7
		C800,768.9,784.1,836,778.5,869.2z"/>
	<path class="st23" d="M784.7,748.9l21.6,240.4c0,0,10.7,3.6,19.1,0.9c0,0,8.7-127.6,8.5-158.5c-0.2-30.9,6.1-82.6-0.3-88.3
		C827.3,737.6,784.7,748.9,784.7,748.9z"/>
	<path class="st37" d="M837,749c0.2,2.2-5.9,4.4-8,5c-4.6,1.3-2.7,0.2-13,2.3c-9.7,2-22.6,3.8-38.6,3.9c-25.4,0.2-31.4-7.2-31.4-7.2
		c-1.1,0-3-6.7-1.5-31.9c0.5-8.6,1-19.4,1.4-33.1c0.3-12.3,0.5-27,0.6-44.4c0-20.9,32.4-43.4,33-43.4l0,0c0,3,4.7,8.6,12.1,9
		c8.7,0.6,19.3-3.7,19.3-8.7c0-0.1,15.7,25.1,21.3,51.9C834.9,665.9,831.1,667.3,837,749z"/>
	<path class="st37" d="M779.4,600.2c0,0-30.1-0.3-37.3,9.9c-7.2,10.2-23.1,64.8-14.8,83c8.3,18.2,23.8-7.5,32.4-18.7
		C768.3,663.3,779.4,600.2,779.4,600.2z"/>
	<path class="st38" d="M779.1,595.6l0,3.1c0,0-0.8,9.7,11.1,11.2c12,1.4,20.9-1.8,20.5-9.3c-1.1-5.8-2.1-11.8-2.2-16.6
		c0-1.8,0.1-3.7,0.4-5.8l-23.2-0.5l-6.8,1.1L779.1,595.6z"/>
	<path class="st39" d="M779,578.8l0.1,16.8c2.5,1.1,5.2,1.8,8.4,1.8c10.7,0,17.6-7.8,21.2-13.5c0-1.8,0.1-3.7,0.4-5.8l-23.2-0.5
		L779,578.8z"/>
	<path class="st38" d="M810.9,574.4c-2.7,14.5-21.4,14-29.5,13.1c-2.3-0.3-3.7-0.5-3.7-0.5c-2.6-0.7-4-4.7-4.7-10
		c-1.3-10.5,0.3-25.8,2.1-29.8c2.7-5.9,7.7-12.3,26.5-7.7C820.5,544.1,814.3,555.8,810.9,574.4z"/>
	<path class="st23" d="M748.7,640.9c0,0-11.6,25.7-11.3,33.4c0,0,5.8-0.2,11.3,1.5C757.8,678.5,748.7,640.9,748.7,640.9z"/>
	<path class="st40" d="M775,547c-1-1-3-5,3-13c1.8-2.4,5.7-3.9,9.4-5.5c7.9-3.5,22.3,2.8,22.3,2.8c0,0,1.6,0.6,1.6,0.7
		c12.4,6,13.5,25.6,9.5,30.1c-4.8,5.4-12,17.8-12,17.8s-0.4-2.9,0.3-7.8c1.9-15-1.1-8-8.5-7c-5.6,0.8-0.9-8.3-5.4-12
		C790.5,549.4,776.2,548.2,775,547z"/>
	<path class="st23" d="M814.7,689.1c-4.9,19.7-58.1,29.9-70.1,32c0.5-8.6,1-19.4,1.4-33.1L814.7,689.1z"/>
	<path class="st38" d="M803,695.5c0.5,0,11.8-1.7,13.8-2.7s11.3-14.2,5.2-17.6c-6.1-3.4-22.4,10.1-22.4,10.1L803,695.5z"/>
	<path class="st37" d="M734.2,699.4c0,0,43.7,2.4,73.1-3.9c0,0,0.7-8.5-8.5-12.2c0,0-45.7-9.7-56.7-7
		C731.1,679,734.2,699.4,734.2,699.4z"/>
	<path class="st37" d="M834.7,665.1c-9.1,10.9-20.9,19.9-34,22l0,0c-0.1-0.2-4-6-3.2-14.6c0.3-4,1.6-8.5,4.8-13.4
		c1-1.5,1.8-3.2,2.6-5.2c7.1-18.2,6.1-53.3,6.1-53.3s30.3,3.2,39.8,16.7C856.4,625.5,849,647.8,834.7,665.1z"/>
	<path class="st39" d="M781.4,587.5c-2.3-0.3-3.7-0.5-3.7-0.5c-2.6-0.7-4-4.7-4.7-10c4.8,1.2,7,4.9,7.9,6.5
		C781.4,584.1,781.5,585.7,781.4,587.5z"/>
	<path class="st38" d="M769.2,595.7c0,0-10.5-17.3-2.3-18c8.1-0.8,11.4,4.8,12.6,6.8c1.2,2-0.3,11.2-0.3,11.2L769.2,595.7z"/>
	<path class="st37" d="M809.1,671.9c-0.3,2.2-1,4.2-1.8,6c-2.6,5.7-6.7,9.2-6.7,9.2l0,0c-27.2-12.3-32.7-54.4-33.6-77.6
		c-0.4-9.3,0-15.6,0-15.6c12.3-4.1,15.7,3,15.7,3s14.5,34.5,22,57C807.6,662.5,809.5,669.3,809.1,671.9z"/>
	<path class="st23" d="M834.7,665.1c-9.1,10.9-20.9,19.9-34,22l0,0c-27.2-12.3-32.7-54.4-33.6-77.6c0,0,12.9,46.7,30.4,63
		c3.2,3,6.5,4.9,9.9,5.4c0,0,22.1-6.2,26.7-12.1C834.4,665.3,834.6,665.1,834.7,665.1z"/>
	<g>
		<g>
			<g>
				<g>
					<path class="st41" d="M534.4,118.5c4.4-4.5,6.7-10.2,6.7-16.2c0-13.2-11.3-23.9-24.8-23.9c-13.3,0-22.9,9.9-24.4,20.5
						c-0.9,7.1,1.3,14,6.1,19.2c4.2,4.5,6.5,10.4,6.5,16.6l0,0.6h23.8l0-0.6C528.3,128.4,530.4,122.6,534.4,118.5z"/>
					<path class="st42" d="M504.3,131.3c0,0,4.6,1.5,12.1,1.5c7.5,0,12.1-1.5,12.1-1.5s-0.7,14.5-0.7,15.6
						c-0.1,1.4-6.9,3.1-10.6,3.1c-5.6,0-12.1-1.6-12.3-2.8C504.7,145.8,504.3,131.3,504.3,131.3z"/>
					<g>
						<path class="st11" d="M521.8,128.4C521.8,128.4,521.8,128.4,521.8,128.4c-0.3,0-0.5-0.3-0.5-0.5l0.7-12c0,0,0-0.1,0-0.1
							c0.2-0.7,1.2-3.7,2.4-7c-0.1,0-0.1,0-0.2,0c-2.3,0-4.3-0.8-5.3-2c-0.8-1-1.1-2.1-1.3-2.9c-0.3-1.1-0.5-1.5-1.1-1.6h-0.5
							c-0.6,0.1-0.7,0.4-1.1,1.6c-0.2,0.8-0.5,1.9-1.3,2.9c-0.9,1.2-3,2-5.3,2c-0.1,0-0.1,0-0.2,0c1.2,3.3,2.2,6.3,2.4,7
							c0,0,0,0.1,0,0.1l0.7,12c0,0.3-0.2,0.5-0.5,0.5c-0.3,0-0.5-0.2-0.5-0.5l-0.7-11.9c-0.7-2.2-1.6-4.8-2.5-7.3
							c-2.3-0.3-4.4-1.4-5.8-3.2c-2.2-2.9-1.8-5.4-0.5-6.6c1-0.8,2.2-0.8,3.1,0.1c0.9,0.9,2.5,4.9,3.9,8.8c0.2,0,0.4,0,0.5,0
							c1.9,0,3.7-0.7,4.5-1.6c0.7-0.9,0.9-1.8,1.1-2.6c0.3-1.1,0.6-2.2,2-2.3c0,0,0,0,0,0h0.6c0,0,0,0,0,0c1.3,0.1,1.6,1.2,2,2.3
							c0.2,0.8,0.5,1.7,1.1,2.6c0.7,0.9,2.6,1.6,4.5,1.6c0.2,0,0.3,0,0.5,0c1.4-3.9,3-7.9,3.9-8.8c0.9-0.9,2.1-0.9,3.1-0.1
							c1.3,1.2,1.7,3.7-0.5,6.6c-1.8,2.3-4.1,3-5.8,3.2c-0.9,2.5-1.8,5.1-2.5,7.3l-0.7,11.9C522.3,128.2,522.1,128.4,521.8,128.4z
							 M530.3,99.3c-0.3,0-0.6,0.1-0.8,0.4c-0.7,0.7-2.1,4.1-3.5,7.9c1.4-0.3,3.2-1,4.6-2.8c1.8-2.4,1.6-4.3,0.6-5.2
							C531,99.5,530.7,99.3,530.3,99.3z M502.5,99.3c-0.3,0-0.6,0.2-0.9,0.3c-1,0.9-1.2,2.9,0.6,5.2c1.4,1.8,3.1,2.5,4.6,2.8
							c-1.4-3.9-2.8-7.2-3.5-7.9C503.1,99.4,502.8,99.3,502.5,99.3z"/>
					</g>
					<g class="st43">
						<path class="st11" d="M505.7,133.7c0.9,0.3,1.7,0.5,2.6,0.7c0.9,0.2,1.8,0.3,2.7,0.4c1.8,0.2,3.6,0.3,5.4,0.3
							c1.8,0,3.6-0.1,5.4-0.3c0.9-0.1,1.8-0.2,2.7-0.4c0.9-0.2,1.8-0.4,2.6-0.7c-0.4,0.2-0.8,0.4-1.3,0.5c-0.4,0.2-0.9,0.3-1.3,0.4
							c-0.9,0.2-1.8,0.4-2.7,0.5c-1.8,0.3-3.6,0.4-5.4,0.4c-1.8,0-3.6-0.1-5.4-0.4C509.1,134.9,507.3,134.5,505.7,133.7z"/>
						<path class="st11" d="M505.7,136.6c0.9,0.3,1.7,0.5,2.6,0.7c0.9,0.2,1.8,0.3,2.7,0.4c1.8,0.2,3.6,0.3,5.4,0.3
							c1.8,0,3.6-0.1,5.4-0.3c0.9-0.1,1.8-0.2,2.7-0.4c0.9-0.2,1.8-0.4,2.6-0.7c-0.4,0.2-0.8,0.4-1.3,0.5c-0.4,0.2-0.9,0.3-1.3,0.4
							c-0.9,0.2-1.8,0.4-2.7,0.5c-1.8,0.3-3.6,0.4-5.4,0.4c-1.8,0-3.6-0.1-5.4-0.4C509.1,137.8,507.3,137.4,505.7,136.6z"/>
						<path class="st11" d="M505.7,139.6c0.9,0.3,1.7,0.5,2.6,0.7c0.9,0.2,1.8,0.3,2.7,0.4c1.8,0.2,3.6,0.3,5.4,0.3
							c1.8,0,3.6-0.1,5.4-0.3c0.9-0.1,1.8-0.2,2.7-0.4c0.9-0.2,1.8-0.4,2.6-0.7c-0.4,0.2-0.8,0.4-1.3,0.5c-0.4,0.2-0.9,0.3-1.3,0.4
							c-0.9,0.2-1.8,0.4-2.7,0.5c-1.8,0.3-3.6,0.4-5.4,0.4c-1.8,0-3.6-0.1-5.4-0.4C509.1,140.8,507.3,140.4,505.7,139.6z"/>
						<path class="st11" d="M505.7,142.5c0.9,0.3,1.7,0.5,2.6,0.7c0.9,0.2,1.8,0.3,2.7,0.4c1.8,0.2,3.6,0.3,5.4,0.3
							c1.8,0,3.6-0.1,5.4-0.3c0.9-0.1,1.8-0.2,2.7-0.4c0.9-0.2,1.8-0.4,2.6-0.7c-0.4,0.2-0.8,0.4-1.3,0.5c-0.4,0.2-0.9,0.3-1.3,0.4
							c-0.9,0.2-1.8,0.4-2.7,0.5c-1.8,0.3-3.6,0.4-5.4,0.4c-1.8,0-3.6-0.1-5.4-0.4C509.1,143.7,507.3,143.3,505.7,142.5z"/>
						<path class="st11" d="M505.7,145.5c0.9,0.3,1.7,0.5,2.6,0.7c0.9,0.2,1.8,0.3,2.7,0.4c1.8,0.2,3.6,0.3,5.4,0.3
							c1.8,0,3.6-0.1,5.4-0.3c0.9-0.1,1.8-0.2,2.7-0.4c0.9-0.2,1.8-0.4,2.6-0.7c-0.4,0.2-0.8,0.4-1.3,0.5c-0.4,0.2-0.9,0.3-1.3,0.4
							c-0.9,0.2-1.8,0.4-2.7,0.5c-1.8,0.3-3.6,0.4-5.4,0.4c-1.8,0-3.6-0.1-5.4-0.4C509.1,146.6,507.3,146.2,505.7,145.5z"/>
					</g>
				</g>
				<ellipse class="st44" cx="524" cy="102.7" rx="13.6" ry="14.2"/>
			</g>
		</g>
		<line class="st45" x1="508.3" y1="63.7" x2="510.7" y2="72.7"/>
		<line class="st46" x1="523.1" y1="64" x2="521.3" y2="72.7"/>
		<line class="st47" x1="483.3" y1="80.3" x2="491.5" y2="86.3"/>
		<line class="st48" x1="492.6" y1="70.3" x2="499" y2="77.6"/>
		<line class="st49" x1="546.3" y1="78.1" x2="539" y2="84.6"/>
		<line class="st50" x1="536.9" y1="69.4" x2="531.7" y2="77.5"/>
	</g>
	<g>
		<g>
			<path class="st51" d="M398.7,944.1c0,0-23.5-13.6-31.7-21.1l-9.2,11l35.9,16.2l6.1-3L398.7,944.1z"/>
			<path class="st52" d="M411.9,949.9l-22.7,7.8c-2.6-1.1-5.8-4.1-9.7-8c-2.3-2.3-5.8-2.7-9.1-2.5l5.2,15.2l-4.7,1.6l-9.9-14.7
				c-4.8-4.4-4.6-10.2-4-15.2c2.4-0.8,10.1-1.4,26.9,8.4c5.5,3.2,10.5,3.3,14.8,1.7c0.1,0,0.1,0,0.2,0
				C406.9,944.9,410.4,948,411.9,949.9z"/>
		</g>
		<g>
			<g>
				<g>
					<path class="st53" d="M185.3,828.6c-1-24.9-3.2-46.6-5.8-61.7c-4.2-24.1-7.9-38-8-38.1c-0.5-2.1-8.5-10.7-26.1-10.4
						c-17.6,0.3-16,11.5-16,11.5l0,0c0,0.4,0,0.7,0.1,1c0.2,0.6,16.4,59.3,15.7,135.1c0,1.1-0.1,2.9-0.1,4.1c0,0,40.9,1.1,40.9,0
						C187.4,863.4,186.7,845.1,185.3,828.6z"/>
					<path class="st54" d="M190.4,865.5c0,1.1-0.6,1.9-1.2,1.9h0c-0.7,0-1.2-0.9-1.2-1.9h-35c0,1.1-0.6,1.9-1.3,1.9h0
						c-0.7,0-1.2-0.9-1.2-2c0.2-21.7-1-42-2.9-59.8c-4.7-44.6-13.3-74.4-13.4-74.8c-0.1-0.3-0.1-0.6-0.1-1c0,0-1.7-11.2,16-11.5
						c17.6-0.3,25.6,8.3,26.1,10.4c0,0.1,2.2,8,5,22.1c0.9,4.7,1.9,10,3,16c2.6,15.1,4.8,36.8,5.8,61.7
						C191.3,845.1,191.8,858.9,190.4,865.5z"/>
					<path class="st55" d="M147.8,867.4h137.3c0,0-3.2-12.9-82.7-11C146.1,857.8,147.8,867.4,147.8,867.4z"/>
					<g>
						<path class="st53" d="M136.6,1002.6c15.9-80.6,11.8-130.1,11.8-130.7c0-1.2,2.2-2.4,3.5-2.4c1.2,0,6.7-0.4,7.4,0.7
							c0.8,1.4,4,62.3-19.7,132.4H136.6z"/>
					</g>
					<g>
						<path class="st53" d="M264.8,1002.6C248.9,922,253,872.6,253,871.9c0-1.2-2.2-2.4-3.5-2.4c-1.2,0-6.7-0.4-7.4,0.7
							c-0.8,1.4-4,62.3,19.7,132.4H264.8z"/>
					</g>
					<g>
						<path class="st53" d="M290.2,1002.6c-15.9-80.6-11.8-130.1-11.8-130.7c0-1.2-2.2-2.4-3.5-2.4c-1.2,0-6.7-0.4-7.4,0.7
							c-0.8,1.4-4,62.3,19.7,132.4H290.2z"/>
					</g>
					<g>
						<path class="st53" d="M162.2,1002.6C178.1,922,174,872.6,174,871.9c0-1.2,2.2-2.4,3.5-2.4c1.2,0,6.7-0.4,7.4,0.7
							c0.8,1.4,4,62.3-19.7,132.4H162.2z"/>
					</g>
					<path class="st53" d="M287.8,871.6l-142.6,0c-0.1,0-0.2-0.1-0.2-0.2v-7.1c0-0.1,0.1-0.2,0.2-0.2l142.6,0c0.1,0,0.2,0.1,0.2,0.2
						v7.1C288,871.5,287.9,871.6,287.8,871.6z"/>
					<g>
						<path class="st51" d="M280.4,747.5l45.7-9.9l2.7,6.6c0,0-50.4,30-55.1,28.5C268.9,771.2,280.4,747.5,280.4,747.5z"/>
						<path class="st51" d="M257.7,980.6C259,982,263,965,265,956c1.5-6.8,10.5-35.8,10.5-35.8l-14.7-2.5c0,0-4.4,25.3-9.3,29.2
							C248.8,948.9,250.9,973.6,257.7,980.6z"/>
						<path class="st51" d="M373,928.8c-5.3-3.1-13.2-15.7-13.2-15.7l-14.1,1.1c0,0,7.4,11.2,10.3,16.1c1.7,2.9,1.1,2.6,1.1,3.6
							C357,935.6,378.5,932.1,373,928.8z"/>
						<path class="st51" d="M326,737.7c0,0,3.4-8.2,7.1-8.6c3.7-0.3,15.5-2.2,16.3-0.5c0.8,1.7,0,7.7-2.5,9.9
							c-2.5,2.2-18.1,5.7-18.1,5.7L326,737.7z"/>
						<path class="st56" d="M303.4,854.6L273,936.4c0,0-4.7,0.5-9.1-0.8c-4.1-1.2-8.8-4.3-8.8-4.3s7.5-78.6,21.4-94.9
							C290.2,820.1,303.4,854.6,303.4,854.6z"/>
						<path class="st57" d="M183.1,821.5c0,0,87.4-29.5,106.8-23.3c19.5,6.3,78,122.7,78,122.7s-1.3,1.8-4.9,3.1
							c-3.4,1.3-11.5,1.2-11.5,1.2s-52.8-45.2-59.1-58.4c-6.3-13.2-8.8-25.8-15.1-24.5c-6.3,1.3-81.1,30.8-98,13.2
							c-17-17.6-12.5-40.5-12.5-40.5L183.1,821.5z"/>
						<path class="st58" d="M232.9,613.3c-3.8-2.1-8.3-2.4-11.5-2.2c0.8-0.8,2.4-1.1,2.4-1.1c-2-0.3-6.3,1.7-6.3,1.7
							c-27.3-10.5-31.6,29.7-31,39c0.6,9.3,0.6,20.1-13,28.5c-26.8,16.5-4.2,45.2-4.2,45.2c0.2,0.1,12.5,20.9,12.5,20.9
							c-0.7-7.5,34.1-47.4,52.3-59.3c4.4-6.5,6-18,6.1-18.9c-0.8,9.1-2.3,14.2-3.7,17.1C251.9,670,242.9,619,232.9,613.3z"/>
						<path class="st51" d="M233,686.5c0.1,0-8.8,4.6-15.4,2.8c-6.3-1.7-10.4-9.8-10.3-9.9c2.7-0.5,3.4-4.2,3.4-19.9l1.2,0.2l20.2,4
							c0,0-0.5,6.4-0.5,12.3C231.6,681.2,231.9,686,233,686.5z"/>
						<path class="st59" d="M232.1,663.9c0,0-0.5,6.4-0.5,12.3c-11.3-0.3-17.3-10.6-19.7-16.3L232.1,663.9z"/>
						<path class="st58" d="M209.8,657.7c0,0-5.9-9.4-7.3-17.3c-1-5.7,1.9-26.9,23.2-23.8c0,0,6.2,0.6,12,4.5
							c4.6,3.1,11.3,9.9,3.8,28.3l-1.9,6.2L209.8,657.7z"/>
						<path class="st51" d="M235.8,669.5c0,0-26.7,0.4-26.7-16.2s-3.5-27.8,13.6-28.8c17.1-1,20.4,5.4,21.7,10.9
							C245.8,641,242.8,669,235.8,669.5z"/>
						<path class="st58" d="M234.8,624.1c0,0-7.3,19.5-18.5,22.4c-11.2,2.9-16.1-0.1-16.1-0.1s8.6-6.8,10.4-18.8
							C210.6,627.6,229.3,614.8,234.8,624.1z"/>
						<path class="st58" d="M233,625.7c0,0,5.5,4.4,6.8,8.6c1.3,4.2,1.9,13,4.5,12.7c0,0,5.5-13.3-0.7-20.8
							C237,618.2,233,625.7,233,625.7z"/>
						<path class="st57" d="M173.5,758.4c-2.6-11.1,6.3-32.5,15.7-50.3c8.5-16.1,17.3-29.1,18.1-28.7c22.4,13.3,24.4,2.2,24.4,2.2
							l0,0c0,0,20.3,2.7,26.1,12.6c7.1,12.3,14.9,46.7,22.5,53.2c-1.2,3.6-0.7,5.5,0.6,10c0.3,1,0.6,1.9,0.9,2.7
							c1.2,3.1,2.6,5.7,3.8,7.9c-3.9,2.4-11.4,6.9-17,3.6c-8.5-4.9-15.1-20-18.8-26c0,0,0,0,0-0.1c-8.1,45.7,2.9,56.1-2.7,60.9
							c-5.9,5.1-14.2-2.4-32.7,5.6c-12.1,5.2-28.9,12.8-40.2,14.1c-5.9,0.7-10.3-0.3-11.8-4.3C158.4,810.4,178.5,779.5,173.5,758.4z
							"/>
						<path class="st56" d="M162.6,822c1.4,4,5.9,5,11.8,4.3c7.8-3.4,41.6-16.5,41.2-25.4c-0.6-13.1-6.5-13.5-2.3-29.7
							c3.4-13-27.8-37.2-32.8-42.5c-9.4,17.8-9.6,18.6-7,29.6C178.5,779.5,158.4,810.4,162.6,822z"/>
						<path class="st57" d="M158.8,774.7c6-8.4,12.2-12.9,16.3-15.1c-0.9-2.4,25.2-34.5,25.2-39.4c0-5,7-40.6,7-40.6
							s-21.8,1.3-29.3,11.9C168.6,704.5,149,755.1,158.8,774.7z"/>
						<path class="st51" d="M175.1,759.6l43.5,11.4l-4.1,7.3c0,0-53-0.4-55.8-3.6C156,771.4,175.1,759.6,175.1,759.6z"/>
						<path class="st56" d="M250,745.8c3.7,6,10.3,21.1,18.8,26c5.5,3.2,13.1-1.3,17-3.6c-1.2-2.2-2.7-4.8-3.8-7.9
							c-3.1,0.7-6.9,1.6-9.4,2.4C267.7,764.1,250,745.8,250,745.8z"/>
						<path class="st51" d="M218.7,770.9c0,0,13.7-3.9,16.9-3c3.3,0.9,14.4,8.3,12.8,10.3c-1.6,2-11.4-1.2-15.9-0.6
							c-4.5,0.6-8,2.8-11.3,2.4c-3.3-0.5-6.7-1.8-6.7-1.8L218.7,770.9z"/>
						<path class="st51" d="M218.7,770.9c0,0,6.7-3.4,8.6-5.4c0.2-0.2,0.6-0.2,0.8,0.1c0.5,0.8,1,2.4-1.4,3.9
							C223.3,771.7,218.7,770.9,218.7,770.9z"/>
					</g>
				</g>
				<g>
					<path class="st60" d="M281.8,790.1h-63.8l0,0c0-2.8,2.3-5.1,5.1-5.1h58.7V790.1z"/>
					<polygon class="st60" points="281.6,720.7 380.2,720.7 356.6,790.1 257.4,790.1 					"/>
					<polygon class="st0" points="381.7,720.7 358,790.1 258.8,790.1 283.1,720.7 					"/>
					<path class="st61" d="M328.5,754.8c-0.6,2.7-3.3,4.8-5.9,4.8c-2.7,0-4.3-2.2-3.7-4.8c0.6-2.7,3.3-4.8,5.9-4.8
						C327.5,750,329.1,752.1,328.5,754.8z"/>
					<path class="st60" d="M381.7,720.7L358,790.1h-65.7c43.5-14.9,55.1-60.2,57.1-69.4H381.7z"/>
				</g>
			</g>
			<g>
				<g>
					<g>
						<path class="st26" d="M95.5,1002.6c1.2,0,2.3-0.9,2.5-2.1l12.4-70.2l17.8-100.9l5-28.2l-12.7-0.4l-2.2,16.4l-15.5,115.1
							l-9.2,68.2C93.5,1001.7,94.4,1002.6,95.5,1002.6z"/>
					</g>
					<path class="st31" d="M118.3,817.2c8.2,3.6,9.9,12.2,9.9,12.2l5-28.2l-12.7-0.4L118.3,817.2z"/>
				</g>
				<g>
					<g>
						<path class="st26" d="M411,1002.6c-1.2,0-2.3-0.9-2.5-2.1l-12.4-70.2l-17.8-100.9l-5-28.2l12.7-0.4l2.2,16.4l15.5,115.1
							l9.2,68.2C412.9,1001.7,412.1,1002.6,411,1002.6z"/>
					</g>
					<path class="st31" d="M388.2,817.2c-8.2,3.6-9.9,12.2-9.9,12.2l-5-28.2l12.7-0.4L388.2,817.2z"/>
				</g>
				<path class="st31" d="M79.8,812.3l339.3,0c0.3,0,0.5-0.2,0.5-0.5v-21.1c0-0.3-0.2-0.5-0.5-0.5l-339.3,0c-0.3,0-0.5,0.2-0.5,0.5
					v21.1C79.3,812.1,79.5,812.3,79.8,812.3z"/>
			</g>
		</g>
		<g>
			<path class="st51" d="M261.4,984.8c0,0,2.3-26,5.7-36.6l-13.6-4.8l0.3,39.4l5.3,4.3L261.4,984.8z"/>
			<path class="st52" d="M261.6,999.2l-16.5-17.3c-0.1-2.8,1.3-6.9,3.2-12.2c1.1-3,0.1-6.4-1.5-9.3l-11.7,11.1l-3.4-3.6l9.2-15.1
				c2-6.2,7.4-8.1,12.2-9.7c1.7,1.8,5.4,8.3,3.6,27.7c-0.6,6.4,1.4,10.9,4.6,14.1c0,0.1,0,0.1,0.1,0.2
				C264.1,992.5,262.7,997.1,261.6,999.2z"/>
		</g>
	</g>
	<g>
		<path class="st62" d="M895.8,985.4c-2.1-1.8-6.8-7.5-3.2-14.1c1.3-2.4,4.1-3.6,6.7-4.7c2.5-1.1,5.2-2,7.3-3.8
			c4-3.4,5.1-8.9,7.7-13.4c3-5.1,8.7-9,14.6-8.7c6.8,0.3,12.5,5.9,15.1,12.2c2.6,6.3,2.7,13.4,2.7,20.2c0,3.8-0.1,8-2.9,10.6
			c-2.6,2.4-6.4,2.4-9.9,2.3c-12.4-0.4-24.9-0.8-37.3-1.1"/>
		<path class="st63" d="M961.2,896.8H872l16.1,95.4c0.7,4.2,3.7,7.4,7.6,8.5c0.1,0,0.2,0.1,0.3,0.1c0.3,0.1,0.5,0.2,0.8,0.2
			c0.6,0.1,1.2,0.2,1.8,0.2c0,0,0,0.1,0,0.1l0.4-0.1h0l39.8,0c0.7,0,1.5-0.1,2.2-0.2c4.7-0.7,8.5-4.5,9-9.3l7.7-65.7l0.3-2.6h0
			l3.1-26L961.2,896.8z M944.3,957.7h-9.2l0.9-27.7l10.6,0L944.3,957.7z M947.6,930h8.8l-3.3,27.7h-7.9L947.6,930z M921.4,988.3
			l-0.6-24h13.2l-0.8,24H921.4z M907.2,964.3H920l0.6,24h-11.5L907.2,964.3z M908.2,988.3h-10.7c-1-6.5-2.3-14.9-3.8-24h12.6
			L908.2,988.3z M906.7,957.7l-2.2-27.7h14.7l0.6,27.7H906.7z M920.7,957.7l-0.6-27.7h15.1l-0.9,27.7H920.7z M919.9,923.3l-0.6-25.6
			h16.9l-0.9,25.6H919.9z M919.1,923.3H904l-2-25.6h16.5L919.1,923.3z M903.1,923.3h-15.9c-0.6-3.5-1.1-6.9-1.6-9.9
			c-1.7-10.4-2.3-14.3-2.6-15.7h18.1L903.1,923.3z M903.6,930l2.2,27.7l-13.2,0c-0.4-2.8-0.9-5.7-1.3-8.5c-1-6.5-2.1-13.1-3-19.2
			H903.6z M891.7,957.7h-8.6l-4.7-27.7h8.9C888.7,938.5,890.2,948,891.7,957.7z M892.8,964.3c1.3,8.3,2.6,16.5,3.8,24h-8.3l-4.1-24
			H892.8z M934.2,988.3l0.8-24h8.8l-2.1,24H934.2z M936,918.2l1.2-20.5h12.3l-2.2,25.6L936,918.2z M882.1,897.7
			c0.4,1.9,2,11.9,4.2,25.6h-9l-4.3-25.6H882.1z M949.5,988.3h-6.9l2.1-24h7.7L949.5,988.3z M957.1,923.3h-9l2.2-25.6l9.8,0
			L957.1,923.3z"/>
	</g>
	<path class="st64" d="M1023.9,1004.6l-1023.8,0c-0.1,0-0.1,0-0.1-0.1l0-2.7c0-0.1,0-0.1,0.1-0.1l1023.8,0c0,0,0.1,0,0.1,0.1
		L1023.9,1004.6C1024,1004.6,1024,1004.6,1023.9,1004.6z"/>
</g>
</svg>
